<svg width="1280" height="110" viewBox="0 0 1280 110" fill="none" xmlns="http://www.w3.org/2000/svg">
<path d="M86.355 151.208C87.0625 150.99 89.7874 151.184 91.2941 151.095C91.4371 151.087 91.5691 151.076 91.6874 151.061C91.5877 151.206 91.4623 151.336 91.3163 151.451C89.3702 152.988 83.758 152.01 86.355 151.208ZM224.323 1.23165C223.13 1.75394 221.94 2.27709 220.753 2.80095C222.713 2.92947 225.06 2.82668 227.314 2.79056C228.992 2.76356 230.619 2.77347 231.99 2.94142C232.515 3.00781 231.19 4.45923 232.429 4.49473C233.67 4.53033 233.388 2.59359 235.191 2.3477C235.765 2.2713 236.926 2.30999 238.372 2.40468C241.885 2.63251 247.096 3.20436 249.568 3.20592C249.664 3.20589 249.756 3.20498 249.844 3.20313C253.441 3.12369 257.288 2.97066 260.872 2.82784C267.397 2.55997 274.008 2.26495 280.548 2.45119C282.195 2.49802 283.842 2.57529 285.487 2.69106C282.619 3.02912 281.119 3.37152 280.547 3.68731C280.148 3.90711 280.198 4.11415 280.546 4.29877C281.803 4.96379 286.938 5.34026 288.953 4.97282C289.67 4.83734 289.596 1.51263 300.223 2.06361C300.689 2.08791 301.176 2.11972 301.685 2.15965C309.371 2.76556 302.251 7.89561 315.086 5.36829C306.398 2.14174 312.927 1.99105 319.898 1.94961C320.827 1.94412 321.764 1.94058 322.673 1.93188C324.007 1.91677 334.77 2.53033 339.528 2.41119C339.542 2.41083 339.556 2.41032 339.57 2.40968C341.198 2.33627 343.67 0.497986 345.81 0.467781C347.297 0.448242 348.411 1.49217 350.618 1.4603C353.508 1.42212 356.386 1.39745 359.259 1.39251C365.803 1.38108 372.376 1.47311 378.938 1.74169C379.74 1.7742 380.544 1.80964 381.35 1.84814C375.197 6.62272 386.097 3.98533 386.608 4.23341C389.071 5.58938 377.808 5.79287 382.247 6.68553C388.444 6.62586 394.811 6.59703 401.103 6.59295C395.965 5.87595 408.017 2.65983 410.165 4.31806C409.884 2.89201 412.891 2.89705 417.2 3.51178C425.949 4.74731 439.956 8.55391 442.973 7.71822C443.912 7.45605 437.924 5.08146 451.971 6.62871C453.491 6.80086 452.859 8.07103 453.664 7.98431C453.841 7.96511 454.369 7.41242 455.115 6.84171C456.396 5.86168 458.316 4.82867 460.203 6.3522C461.287 7.23602 453.984 9.6027 469.817 9.24325C464.72 5.48685 483.58 7.15431 492.797 8.61239C494.59 8.89313 496.026 9.16317 496.855 9.37818C495.855 8.76148 494.855 8.14499 493.854 7.52876C498.872 9.31317 499.861 7.94064 501.004 8.07915C505.61 8.63755 511.87 10.4189 516.163 10.5269C521.188 10.6563 521.351 8.05455 527.133 9.39702C525.781 8.74435 524.428 8.09183 523.074 7.43951C525.491 7.65887 527.903 7.87875 530.316 8.09925C531.925 8.2463 533.532 8.39353 535.139 8.54089C525.621 11.4539 537.141 8.81965 537.889 8.78885C539.086 8.73169 537.296 10.044 539.295 9.98243C539.502 9.96534 539.282 8.62017 542.354 8.64699C548.771 8.70791 547.66 10.3195 550.344 10.4551C550.59 10.4606 549.801 9.21479 554.446 9.1983C569.194 9.14227 554.323 10.1115 553.746 10.2438C552.99 10.4191 557.756 15.71 545.347 13.2167C549.517 14.023 549.81 16.2598 550.281 16.342C550.699 16.4114 557.984 16.5182 558.388 16.4648C562.001 15.9186 558.947 14.2262 559.658 13.9952C560.04 13.8733 563.891 14.8972 567.141 14.3601C568.842 14.0791 570.377 13.3709 571.169 11.8487C574.007 15.0451 571.391 15.5427 567.067 15.6625C565.396 15.7088 563.468 15.6985 561.502 15.766C560.711 16.3572 564.663 17.2076 566.955 17.6214C567.773 17.7691 568.379 17.8613 568.486 17.8667C578.404 18.4231 573.108 14.66 575.4 12.5774C576.603 11.4878 580.503 14.069 576.954 10.7651C585.953 10.9433 580.406 12.4301 580.971 12.7282C581.826 13.1674 585.013 12.4555 585.397 12.5952C585.962 12.802 583.903 13.7622 586.15 14.2655C586.525 14.3414 590.277 12.6998 585.617 11.5579C591.892 12.1682 591.456 10.5658 593.418 13.8509C598.074 8.09237 596.373 17.5644 598.066 17.9925C602.571 19.1216 601.501 14.3442 601.753 14.1277C602.113 13.8413 602.935 13.7124 604.042 13.683C608.287 13.573 616.579 14.9024 619.09 14.4869C617.684 17.8174 609.157 14.0221 607.174 14.5759C600.559 16.4263 616.236 16.7443 611.3 20.7592C613.333 19.6905 615.376 18.6212 617.416 17.5507C620.165 19.8473 617.528 20.9175 621.057 21.0198C622.016 21.0474 623.43 21.0034 625.532 20.8916C626.716 19.3141 622.963 19.931 621.113 19.8786C620.283 19.8552 619.837 19.6974 620.395 19.1466C620.558 18.9872 620.828 18.8532 621.17 18.7386C623.065 18.1038 627.163 18.0599 627.281 17.5761C627.427 16.8885 622.259 17.4596 623.12 16.4322C624.99 14.2229 643.603 17.3047 629.295 17.8814C633.21 18.0309 635.047 22.5704 638.464 21.497C638.516 21.4807 638.568 21.4631 638.621 21.4442C639.111 21.2673 638.927 20.8081 638.524 20.2168C637.494 18.7052 635.039 16.3297 638.74 15.5983C640.317 15.2864 643.011 15.2728 647.415 15.7463C647.717 17.9281 639.855 16.0387 639.644 16.1926C639.343 16.4186 640.55 21.3652 640.788 21.6176C641.317 22.142 649.159 21.6567 655.906 21.8664C659.894 21.9912 663.499 22.3609 664.974 23.338C664.142 21.7241 668.787 21.9538 673.37 22.3315C676.997 22.6306 680.586 23.0227 681.382 22.6759C681.862 22.4585 680.178 20.6564 680.689 20.4947C682.769 19.8691 687.065 21.1263 690.891 22.1369C692.911 22.6705 694.799 23.1356 696.159 23.2193C700.564 23.4913 700.066 21.9756 700.312 21.9886C702.248 22.1513 700.657 23.0996 701.843 23.1453C702.626 23.1752 705.42 23.3279 708.375 23.4743C708.375 23.4743 708.375 23.4743 708.375 23.4743C712.187 23.6631 716.258 23.8432 716.611 23.7386C716.796 23.6803 714.847 21.8929 717.556 21.6797C718.023 21.6426 717.652 23.6524 725.65 23.1042C726.375 23.0545 726.954 22.9964 727.406 22.9307C729.509 22.6249 728.865 22.1541 727.461 21.5889C725.165 20.6644 720.828 19.486 723.165 18.3648C725.233 19.4835 726.582 19.8672 727.529 19.9006C729.347 19.9645 729.687 18.7382 730.776 18.9368C731.35 19.0456 735.542 21.7594 740.2 21.7839C736.845 22.0632 733.485 22.3406 730.119 22.617C733.395 23.1963 739.798 22.9013 742.478 23.5107C743.787 23.8075 742.619 25.8511 745.484 25.9072C745.663 25.9074 746.016 25.4742 746.231 24.9139C746.412 24.4404 746.495 23.8761 746.29 23.406C745.914 22.545 744.578 22.0006 741.113 22.9051C740.585 21.0665 744.109 22.39 745.783 21.9412C745.873 21.9162 746.07 21.5221 746.379 21.1126C746.94 20.3698 747.865 19.5766 749.178 20.844C749.663 21.3249 743.818 29.9641 758.273 24.1008C758.738 23.9116 757.19 22.7445 757.646 22.5316C757.957 22.3878 761.562 22.9699 761.967 22.827C762.382 22.6734 760.679 21.4 761.174 21.1799C763.712 20.0452 766.815 24.9599 761.682 24.4076C762.789 24.8348 763.896 25.2617 765.002 25.6882C765.594 25.9163 766.185 26.1443 766.777 26.3722C765.067 22.6917 769.512 25.4517 771.891 25.4212C787.115 25.2168 777.012 22.526 779.665 21.3966C782.917 20.0067 781.699 23.2325 783.748 24.0889C784.38 24.3529 785.325 24.3913 786.803 23.9974C787.381 23.8374 779.957 20.996 794.568 22.9035C792.405 22.9458 790.238 22.9857 788.07 23.0233C789.218 26.5601 795.89 23.0091 796.392 22.9716C800.704 22.7269 799.588 23.3147 802.361 22.9598C803.29 22.8405 804.65 22.6151 806.795 22.2133C807.557 22.0693 809.196 22.9707 810.822 22.575C816.669 21.1573 805.695 21.2507 802.426 20.3426C801.937 20.2071 801.625 20.0501 801.574 19.8635C801.548 19.7633 801.87 19.6898 802.444 19.6382C805.913 19.3412 818.159 19.7654 818.691 20.0493C821.096 21.5582 811.09 20.5456 812.971 22.3948C813.222 22.6327 816.459 22.6776 820.844 22.6613C828.647 22.6383 839.492 22.4028 842.587 22.8855C848.164 23.7698 850.642 28.5334 850.727 23.2046C852.258 28.451 853.685 24.8933 854.4 24.9352C855.755 25.0223 856.898 25.0964 857.891 25.1579C863.237 25.4872 864.23 25.4655 870.492 25.0712C872.131 24.9691 873.51 26.5611 874.092 26.2949C874.429 26.134 873.804 24.4334 875.459 23.9142C877.755 23.2112 891.555 24.9651 892.587 25.8963C893.614 26.8352 886.754 26.3087 887.984 27.8512C890.361 27.9254 892.693 27.8742 895.027 27.8165C897.567 27.7537 900.11 27.6832 902.717 27.7581C904.795 27.8221 903.732 28.9069 904.63 28.9247C905.013 28.9381 912.185 27.949 911.878 27.5507C911.343 26.868 898.92 27.0954 895.024 26.4469C893.688 26.2267 893.354 25.9082 894.841 25.4229C894.895 25.4052 894.956 25.3941 895.022 25.3887C896.335 25.2814 899.915 27.3898 899.305 24.5085C910.261 24.8561 921.227 25.1604 932.199 25.424C941.034 25.6362 949.873 25.822 958.717 25.9827C950.37 27.7863 941.211 27.258 932.216 26.9747C928.98 26.8729 925.763 26.8031 922.611 26.886C920.978 26.9272 915.455 26.6755 916.137 28.2006C921.117 28.3608 926.691 28.2192 932.228 28.1329C937.964 28.0438 943.661 28.0141 948.624 28.4507C948.937 28.4792 947.811 29.8705 948.982 30.0718C951.172 30.4489 958.247 28.1199 959.451 28.672C959.658 28.8026 955.641 30.6808 956.89 31.8127C960.099 34.7177 960.792 28.1567 963.508 28.1873C964.272 28.1968 966.629 28.5886 969.491 28.9808C974.499 29.6689 981.052 30.3524 983.263 29.0306C986.955 26.8214 972.834 28.0112 973.844 26.2428C983.371 24.3039 993.095 25.9543 1002.13 25.507C1002.29 25.4974 1000.87 24.1668 1002.89 23.9246C1004.65 23.7115 1005.78 24.093 1006.68 24.5573C1007.56 25.0128 1008.23 25.5481 1009.08 25.679C1010.93 25.9611 1017.44 25.503 1018.33 26.1833C1018.45 26.2728 1017.18 28.2314 1016.98 28.291C1014.16 29.1627 1013.08 26.6961 1012.82 26.6713C1011.85 26.6033 1010.92 27.5842 1010.04 27.5511C1008.83 27.505 1008.05 26.9075 1006.73 26.6862C1006.46 26.6399 1006.16 26.61 1005.82 26.6052C1004.49 26.5825 1005.82 28.2463 1004.54 28.2018C1004.06 28.1793 998.901 24.4318 998.526 28.3983C998.493 28.756 1001.87 29.0607 1006.8 29.2775C1019.13 29.8322 1041.05 29.7561 1044.05 28.9349C1040.46 28.5777 1036.87 28.2168 1033.31 27.8519C1036.94 28.3198 1040.93 27.6858 1044.09 27.5221C1047.24 27.3596 1049.54 27.6629 1049.92 29.9833C1053.69 29.9071 1057.48 29.8238 1061.26 29.7346C1066.96 29.6004 1072.64 29.4521 1078.33 29.2884C1084.01 29.1249 1089.69 28.946 1095.37 28.7511C1101.04 28.5562 1106.72 28.3453 1112.39 28.1176C1118.06 27.89 1123.73 27.6457 1129.4 27.3842C1129.48 27.3806 1129.56 27.3769 1129.64 27.3733C1134.39 27.4806 1131.99 30.6448 1139.71 29.279C1137.65 28.4517 1135.57 27.6232 1133.5 26.7922C1135.56 27.0051 1141.03 27.1662 1146.44 27.1396C1146.44 27.1396 1146.44 27.1396 1146.44 27.1396C1149.97 27.1306 1153.23 27.0375 1155.5 26.8332C1156.5 26.743 1157.27 26.6336 1157.69 26.5053C1158.05 26.3944 1158.31 23.6495 1162.65 23.062C1163.36 22.9665 1163.96 22.9541 1164.49 22.9991C1166.86 23.1999 1167.72 24.5519 1169.47 24.725C1171.27 24.8968 1173.23 24.1944 1173.77 24.2615C1173.91 24.2796 1174.03 24.4241 1174.17 24.6148C1174.45 25.005 1174.79 25.5886 1175.46 25.6781C1178.64 26.0841 1175.81 22.8009 1179.26 26.5545C1178.52 26.7713 1177.77 26.9881 1177.03 27.2049C1180.85 27.4669 1186.24 28.8582 1180.69 30.2244C1179.74 30.4601 1180.47 29.1894 1179.75 29.2515C1177.78 29.4322 1176.08 29.6028 1174.6 29.7618C1160.83 31.2473 1166.86 31.8074 1174.72 31.095C1177.89 30.8066 1181.4 30.3114 1184.01 29.5955C1184.12 29.6577 1184.24 29.7139 1184.38 29.7645C1186.13 30.3921 1190.45 30.157 1194.37 29.8368C1198.09 29.5309 1201.53 29.1437 1201.76 29.2937C1202.48 29.7565 1200.06 31.3516 1203.44 32.3589C1203.53 32.3889 1204 32.3698 1204.7 32.3242C1207.37 32.1486 1213.7 31.5531 1216.4 31.7831C1217.85 31.9069 1218.26 32.2703 1216.48 33.0685C1216.41 33.1008 1216.33 33.1338 1216.25 33.1675C1215.07 33.6728 1208 33.7869 1204.8 33.9509C1204.33 33.9751 1203.94 34.0005 1203.66 34.0279C1204.03 34.2564 1204.43 34.4423 1204.84 34.5904C1204.84 34.5904 1204.84 34.5904 1204.84 34.5904C1208.09 35.7778 1212.82 34.5376 1216.49 33.2634C1219.26 32.3023 1221.45 31.3204 1221.99 31.3415C1227.43 31.5833 1211.82 35.2836 1224.02 34.9405C1226.62 34.8672 1227.8 34.6634 1228.24 34.3796C1228.59 34.1529 1228.46 33.8752 1228.19 33.5718C1227.57 32.8844 1226.21 32.0651 1227.97 31.4088C1228 31.3998 1228.02 31.3912 1228.05 31.3829C1229.87 30.8319 1237.51 32.149 1239.61 30.4988C1240.02 30.1817 1240.22 29.755 1240.14 29.1846C1243.72 28.5611 1241.73 30.6068 1242.19 30.7144C1242.59 30.7973 1248.29 29.5521 1251.13 29.7329C1251.45 29.7533 1251.74 29.792 1251.97 29.8527C1252.26 29.9278 1251.51 31.8587 1251.81 31.9919C1252.39 32.2173 1259.16 31.3665 1259.42 31.1866C1259.58 31.0642 1257.85 29.542 1258.48 29.0976C1258.86 28.8358 1260.76 28.6867 1262.56 28.5354C1264.29 28.3906 1265.93 28.2437 1266.09 28.0015C1266.32 27.6187 1264.33 27.7131 1262.49 27.6306C1260.75 27.5529 1259.16 27.3174 1259.75 26.3807C1260.55 26.4224 1261.45 26.3793 1262.39 26.2693C1265.87 25.8646 1269.89 24.5525 1271.72 23.2457C1271.14 23.7146 1267.61 24.0438 1266.35 23.9874C1266.74 21.2667 1274.37 20.7177 1271.93 23.0393C1273.51 21.7702 1272.32 21.2544 1273.19 20.1057C1273.21 20.0714 1273.27 20.0378 1273.35 20.0043C1273.35 20.0043 1273.35 20.0043 1273.35 20.0043C1273.59 19.8728 1273.65 19.7895 1274.11 19.6306C1274.41 19.5062 1274.7 19.3546 1274.79 19.1586C1274.81 19.1077 1274.36 18.8463 1274 18.5197C1273.68 18.2291 1273.46 17.8857 1273.54 17.6197C1273.59 17.4786 1273.7 17.3548 1273.88 17.2443C1274.11 17.0966 1274.46 16.9721 1274.86 16.8688C1275.17 16.7862 1275.5 16.7174 1275.79 16.6657C1276.08 16.6152 1276.32 16.5807 1276.43 16.5728C1276.57 16.5644 1276.53 16.5897 1276.12 16.6937C1275.71 16.8002 1274.22 17.167 1273.44 17.4295C1267.03 19.5267 1276.86 17.1863 1276.34 17.9173C1276.8 18.0287 1276.8 18.2351 1276.7 18.4582C1276.56 18.7567 1276.24 19.092 1276.13 19.4191C1276.1 19.4842 1276.09 19.5491 1276.08 19.6138C1276.08 19.6322 1276.11 19.6688 1276.16 19.72C1276.32 19.8762 1276.73 20.1621 1276.99 20.4978C1277.17 20.7485 1277.28 21.0226 1276.95 21.3424C1276.89 21.708 1273.64 22.7776 1272.72 23.17C1272.71 23.9155 1277.43 23.0366 1277.3 23.2915C1277.65 23.3196 1277.56 23.3748 1277.41 23.4615C1277.11 23.621 1276.65 23.888 1276.9 24.6282C1277.19 24.7362 1277.44 24.8457 1277.62 24.9639C1277.82 25.104 1277.96 25.2453 1277.68 25.4616C1277.51 25.5894 1277.24 25.7246 1276.37 26.015C1277.25 25.9289 1277.58 25.9778 1277.79 26.032C1278.1 26.1299 1278.01 26.2769 1277.83 26.4135C1277.65 26.5416 1277.36 26.6678 1277.03 26.7853C1276.71 26.898 1276.34 27.0036 1275.96 27.1013C1275.59 27.1973 1275.21 27.2859 1274.85 27.3666C1274.43 27.4524 1274.28 27.5091 1273.94 27.5796C1270.35 28.1353 1267.16 28.6531 1265.91 29.8805C1268.71 29.4407 1271.5 29.089 1274.05 29.03C1274.41 29.0343 1274.6 29.0659 1275.01 29.0932C1275.41 29.1278 1275.82 29.1806 1276.2 29.2593C1276.64 29.3505 1277.04 29.4762 1277.38 29.6456C1277.83 29.8695 1278.17 30.1699 1278.41 30.5628C1278.79 31.1719 1278.92 32.0067 1279.1 33.0712C1279.23 33.8446 1279.27 34.5088 1279.06 35.0932C1278.86 35.6561 1278.48 36.133 1278.21 36.4926C1278.03 36.7428 1277.91 36.9367 1277.95 37.0672C1278.04 37.3384 1278.18 37.5161 1278.35 37.6221C1278.66 37.8139 1279.09 37.7707 1279.41 37.6344C1279.69 37.5181 1279.9 37.3292 1279.77 37.1956C1279.88 36.9161 1277.71 37.1512 1276.72 37.5243C1270.12 40.2206 1282.16 36.8068 1279.93 38.0738C1280.04 38.2146 1279.83 38.3984 1279.55 38.5779C1279.26 38.7555 1278.89 38.9328 1278.53 39.0956C1278.03 39.3272 1277.56 39.5305 1277.33 39.6902C1277.25 39.7476 1277.19 39.7995 1277.17 39.8453C1277.08 40.1091 1277.22 40.5708 1277.48 41.1146C1277.91 41.9984 1278.64 43.0961 1279.12 43.9243C1279.4 44.3953 1279.6 44.7796 1279.62 44.9901C1279.61 45.0227 1279.48 45.0963 1279.28 45.2025C1278.97 45.3685 1278.46 45.6144 1278 45.907C1277.2 46.4148 1276.56 47.0623 1277.31 47.7236C1277.57 47.954 1277.9 48.1323 1278.26 48.2693C1278.71 48.4427 1279.22 48.5501 1279.7 48.6166C1280.18 48.6847 1280.64 48.7102 1280.98 48.7238C1281.55 48.7431 1281.76 48.7441 1281.78 48.7969C1281.9 49.0775 1281.83 49.3923 1281.13 49.7672C1280.81 49.9478 1280.37 50.1353 1279.91 50.3168C1279.45 50.494 1278.97 50.6655 1278.54 50.823C1277.89 51.0564 1277.36 51.2584 1277.14 51.4139C1277.08 51.4581 1277.04 51.4986 1277.03 51.5351C1277.02 51.5696 1277.07 51.6214 1277.17 51.6858C1277.43 51.8658 1278.06 52.1431 1278.71 52.4259C1279.3 52.6815 1279.89 52.9425 1280.25 53.1542C1280.44 53.2676 1280.57 53.3669 1280.6 53.4439C1280.63 53.5466 1280.53 53.6957 1280.34 53.8829C1280.05 54.1752 1279.53 54.5607 1278.99 55.0077C1278.49 55.4157 1277.98 55.8742 1277.61 56.3653C1277.54 56.4721 1277.46 56.5807 1277.4 56.6907C1277.11 57.1857 1277.38 57.5825 1277.76 57.8856C1278.25 58.2753 1278.91 58.5075 1278.69 58.6245C1278.63 58.6538 1278.31 58.7047 1277.84 58.7643C1277.42 58.8183 1276.94 58.8734 1276.38 58.9284C1274.25 59.1326 1271.61 59.3707 1271.41 59.4994C1270.92 59.8146 1272.65 60.961 1272.44 61.2967C1272.13 61.7796 1269.84 61.4912 1270.17 61.9391C1270.33 62.1538 1274.14 63.7662 1276.87 65.1932C1276.87 65.1932 1276.87 65.1932 1276.87 65.1932C1277.52 65.5712 1278.1 65.9301 1278.56 66.2459C1279.07 66.6032 1279.4 66.9093 1279.41 67.1319C1279.43 67.4952 1279.14 67.6717 1278.7 67.7556C1278.24 67.844 1277.65 67.8279 1277.08 67.8211C1275.32 67.8104 1273.84 67.9274 1277.32 70.9243C1277.81 71.3655 1278.41 71.8651 1279.15 72.4257C1279.17 72.4409 1279.19 72.4561 1279.21 72.4714C1279.25 72.5031 1280.2 72.1604 1280.82 71.9439C1281.12 71.8428 1281.34 71.7709 1281.36 71.7843C1281.84 72.2228 1281.44 72.8538 1280.99 73.4437C1280.37 74.2466 1279.68 74.9766 1281.16 75.0662C1281.57 75.0894 1282.14 75.0629 1282.92 74.9661C1283.38 74.908 1283.93 74.8249 1284.55 74.7079C1283.98 74.8844 1283.44 75.0463 1282.95 75.1975C1282.32 75.3901 1281.75 75.5655 1281.23 75.7281C1280.57 75.9392 1280 76.1286 1279.52 76.3021C1278.74 76.5835 1278.16 76.824 1277.8 77.0374C1276.8 77.6132 1277.15 78.0243 1277.91 78.444C1278.43 78.7275 1279.18 79.004 1279.81 79.337C1280.8 79.8565 1281.57 80.5109 1280.98 81.5548C1280.84 81.8036 1280.52 82.0454 1280.09 82.2735C1279.61 82.5316 1278.94 82.7757 1278.26 82.9873C1278.26 82.9873 1278.26 82.9873 1278.26 82.9873C1276.34 83.6151 1274.06 84.0373 1274.06 84.1579C1274.77 85.7519 1276.59 84.3344 1277.3 85.0869C1277.7 85.5094 1272.44 87.6529 1273.73 88.6848C1274.19 89.0415 1276.9 88.8707 1278.71 88.7444C1279.74 88.671 1280.49 88.5993 1280.58 88.6293C1280.62 88.6424 1280.66 88.6556 1280.7 88.6689C1282.46 89.2811 1281.37 90.2176 1280.92 90.9419C1280.76 91.1935 1280.68 91.4201 1280.84 91.5986C1280.87 91.6328 1280.92 91.6629 1280.99 91.6891C1281.34 91.8335 1282.16 91.8626 1282.98 91.8462C1283.76 91.8316 1284.55 91.7752 1284.97 91.757C1285.14 91.7499 1285.25 91.7494 1285.27 91.7612C1285.3 91.7875 1285.2 91.8757 1285 92.0083C1284.63 92.2637 1283.92 92.6819 1283.12 93.1384C1282.51 93.4873 1281.85 93.8589 1281.23 94.2047C1280.42 94.6723 1279.54 95.1032 1279.22 95.3566C1279.22 95.3602 1279.22 95.3638 1279.21 95.3673C1279.03 95.5256 1279.09 95.6865 1279.26 95.843C1279.87 96.2884 1281.65 96.6509 1281.2 96.8731C1280.72 97.1271 1280.01 97.2929 1279.38 97.3793C1276.15 97.8554 1271.87 96.0962 1277.73 100.103C1277.97 100.268 1278.87 100.234 1279.6 100.186C1279.6 100.186 1279.6 100.186 1279.6 100.186C1280.24 100.143 1280.91 100.075 1280.92 100.101C1281.89 100.752 1281.05 101.238 1279.72 101.712C1279.72 101.712 1279.72 101.712 1279.72 101.712C1278.72 102.155 1277.44 102.587 1277.08 103.215C1275.87 105.389 1282.22 103.739 1276.97 105.607C1278.12 105.897 1279.13 106.088 1280.07 106.197C1280.83 106.255 1281.69 106.26 1282.38 106.247C1283.09 106.23 1283.79 106.183 1284.53 106.104C1285.2 106.032 1285.91 105.933 1286.69 105.806C1287.38 105.693 1288.13 105.558 1289 105.387C1289.4 105.309 1289.82 105.223 1290.3 105.124C1289.83 105.222 1289.41 105.311 1289 105.397C1288.16 105.577 1287.41 105.743 1286.7 105.908C1285.94 106.086 1285.23 106.261 1284.56 106.437C1283.82 106.631 1283.12 106.826 1282.45 107.022C1281.73 107.243 1280.84 107.483 1280.19 107.704C1275.2 109.699 1274.51 112.095 1280.55 112.347C1280.55 112.347 1280.55 112.347 1280.55 112.347C1281.23 112.358 1282.18 112.326 1282.95 112.288C1283.66 112.252 1284.39 112.198 1285.18 112.121C1285.68 112.073 1286.2 112.015 1286.76 111.945C1286.16 112.007 1285.64 112.088 1285.19 112.187C1284.25 112.39 1283.56 112.667 1283.02 112.982C1281.84 113.696 1281.23 114.626 1280.77 115.164C1280.6 115.404 1280.4 115.569 1280.11 115.603C1279.27 115.701 1272.28 113.208 1275.89 119.713C1276.35 120.526 1280.36 119.143 1279.21 120.964C1269.32 121.272 1279.09 122.078 1279.12 122.303C1279.21 123.986 1274.85 124.712 1269.58 125.016C1265.7 125.24 1261.3 125.24 1257.7 125.254C1254.62 125.267 1252.13 125.291 1251.05 125.485C1249.22 125.813 1247.49 126.531 1246.01 127.288C1243.68 128.475 1241.95 129.76 1241.33 129.803C1237.95 130.025 1240.65 128.253 1239.86 127.718C1239.45 127.451 1236.88 128.247 1234.36 129.085C1231.87 129.913 1229.43 130.783 1229.19 130.715C1227.3 130.162 1229.05 128.158 1228.86 128.075C1227.94 127.685 1225.47 127.791 1222.58 128.055C1218.48 128.429 1213.58 129.12 1211.01 129.171C1210.72 129.176 1210.46 129.172 1210.24 129.159C1210.28 129.406 1210.59 129.588 1211.04 129.74C1212.85 130.333 1216.69 130.465 1213.23 132.259C1212.48 132.65 1211.82 132.864 1211.25 132.944C1208.11 133.396 1207.68 129.482 1207.54 129.288C1205.71 129.419 1203.8 129.563 1201.91 129.709C1198.85 129.947 1195.77 130.2 1192.65 130.463C1189.53 130.726 1186.38 130.999 1183.19 131.275C1180 131.552 1176.77 131.832 1173.51 132.108C1170.25 132.385 1166.95 132.658 1163.62 132.92C1160.34 133.179 1156.84 133.439 1153.54 133.665C1147.72 134.066 1141.77 134.457 1135.91 134.824C1135.69 134.838 1135.47 134.851 1135.25 134.865C1135.3 135.187 1135.55 135.433 1135.96 135.616C1139.09 137.061 1151.64 134.587 1151.95 134.896C1153.33 136.138 1144.29 137.267 1136.09 137.754C1130.48 138.09 1125.24 138.135 1123.88 137.8C1126.42 138.278 1128.97 138.752 1131.52 139.223C1128.79 141.593 1123.53 140.716 1118.52 140.394C1116.02 140.234 1113.58 140.213 1111.54 140.804C1109.56 141.381 1113.48 142.452 1113.41 142.543C1111.22 143.943 1107.54 143.142 1110.16 141.283C1104.74 143.213 1105.45 141.354 1101.22 141.426C1101.05 141.43 1102.25 142.251 1100.93 142.942C1100.63 143.101 1100.19 143.253 1099.57 143.387C1098.01 143.724 1089.66 144.116 1088.59 145.327C1088.15 145.838 1092.63 150.807 1092.95 146.34C1102.15 148.079 1095.76 144.181 1099.3 144.115C1099.63 144.113 1099.34 145.052 1101.05 145.428C1102.16 145.67 1104.09 145.678 1107.55 145.044C1106.85 147.241 1104.06 147.722 1101.16 147.697C1098.06 147.67 1094.83 147.057 1093.94 147.38C1091.74 148.166 1096.57 149.083 1101.22 148.822C1104.14 148.659 1106.99 148.031 1107.98 146.633C1106.88 150.186 1109.07 147.05 1112.4 147.019C1116.06 146.982 1114.52 148.105 1116.5 148.005C1117.57 147.952 1118.34 147.817 1118.91 147.65C1121.23 146.976 1120.43 145.792 1124.09 147.37C1119.37 140.745 1131.65 146.035 1135.25 147.617C1129.84 148.277 1124.43 148.922 1119.02 149.552C1118.78 149.58 1118.53 149.608 1118.29 149.636C1118.55 149.891 1118.81 150.146 1119.06 150.402C1119.15 150.489 1119.24 150.577 1119.33 150.665C1119.24 150.667 1119.16 150.669 1119.08 150.67C1117.66 150.699 1116.25 150.727 1114.84 150.753C1115.06 150.395 1115.28 150.036 1115.5 149.678C1107.91 152.335 1105.9 149.894 1105.27 149.899C1103.97 149.917 1102.63 149.944 1101.28 149.978C1095.51 150.121 1089.35 150.388 1083.57 150.633C1082.25 150.688 1080.96 150.743 1079.69 150.795C1078.46 150.843 1079.39 153.067 1070.4 151.66C1067.53 151.21 1070.15 149.355 1066.94 149.742C1066.54 150.246 1066.19 150.658 1065.87 150.992C1063.06 153.914 1062.9 150.858 1061.82 150.893C1058.39 151.02 1056.31 152.272 1055.99 152.296C1053.77 152.47 1051.01 152.557 1048.24 152.644C1045.71 152.724 1043.15 152.806 1040.94 152.96C1040.85 152.981 1043.31 154.366 1040.29 154.029C1039.24 153.909 1029.51 147.968 1021.28 150.234C1023.45 150.595 1025.62 150.954 1027.79 151.311C1025.24 150.807 1007.49 152.863 1011.89 154.414C1014.58 155.366 1020.98 151.162 1021.81 155.009C1019.94 154.699 1015.45 154.746 1010.09 154.921C998.337 155.313 982.359 156.278 980.594 155.693C980.239 155.572 982.383 154.271 981.892 154.121C981.513 154.008 974.019 154.455 973.014 153.99C972.416 153.715 975.715 152.882 975.436 152.434C975.337 152.305 973.716 152.169 971.796 152.159C969.016 152.147 965.615 152.398 965.314 153.335C967.603 152.664 974.077 153.095 970.711 154.485C970.278 154.658 968 153.684 967.474 153.902C964.788 155.01 968.021 155.292 971.855 155.312C974.992 155.328 978.528 155.167 979.551 155.154C977.264 155.699 974.659 155.979 971.87 156.113C963.453 156.518 953.378 155.589 945.35 156.676C941.009 155.423 951.734 154.586 946.827 153.566C936.651 151.448 944.15 155.413 943.838 155.584C941.816 156.677 935.793 152.353 933.562 153.452C933.025 153.718 932.707 154.297 932.717 155.343C929.027 154.569 930.213 153.879 925.024 154.631C925.71 154.999 926.397 155.366 927.084 155.733C921.337 158.915 909.068 151.11 909.986 150.501C912.435 148.881 918.804 151.346 919.347 151.281C920.153 151.184 922.323 145.703 931.154 150.508C934.712 146.808 917.21 148.159 925.157 145.587C920.115 146.03 900.335 143.918 895.256 144.961C894.916 145.031 894.643 145.116 894.443 145.218C894.063 145.428 895.842 149.083 890.364 147.228C887.765 146.345 894.031 146.296 892.841 145.464C890.725 143.993 873.244 143.933 857.013 144.027C845.154 144.106 833.93 144.28 829.915 144.278C829.3 144.273 829.543 143.142 828.939 143.144C827.361 143.148 822.238 144.294 818.727 144.28C818.102 144.278 817.525 144.239 817.026 144.151C817.897 144.434 818.439 144.68 818.717 144.892C819.041 145.141 819.004 145.345 818.706 145.511C817.279 146.321 809.505 146.209 807.022 145.983C801.84 145.514 802.209 143.522 799.983 143.044C799.779 143 799.572 142.959 799.363 142.922C793.766 141.93 786.314 143.295 780.035 143.106C776.672 143.005 773.648 142.46 771.432 140.876C771.582 143.915 766.083 141.556 760.905 139.712C758.571 138.882 756.301 138.158 754.63 138.084C750.418 137.896 744.199 140.569 749.816 142.558C747.123 142.381 744.375 142.341 741.637 142.359C736.986 142.391 732.363 142.594 728.084 142.589C726.961 142.589 728.557 141.352 726.639 141.392C726.464 141.405 726.173 142.669 724.525 142.734C723.803 142.764 723.14 142.785 722.528 142.799C711.619 143.038 717.503 140.807 715.135 139.956C713.737 139.452 712.702 139.188 711.939 139.084C715.507 139.117 719.333 139.109 722.679 139.095C726.727 139.079 730.073 139.055 731.41 139.089C730.524 137.785 726.878 137.622 722.734 137.749C717.67 137.904 711.866 138.494 709.408 137.977C709.253 137.943 709.861 136.415 709.702 136.398C709.699 136.397 709.696 136.397 709.693 136.397C708.922 136.311 706.25 136.293 703.78 136.484C700.849 136.71 698.2 137.23 699.364 138.282C699.678 138.565 701.309 138.754 703.683 138.878C705.643 138.981 708.112 139.04 710.771 139.072C709.169 139.354 710.284 141.139 710 141.201C708.503 141.515 706.09 141.305 703.599 140.94C703.599 140.94 703.599 140.94 703.599 140.94C700.371 140.468 697.007 139.734 695.339 139.536C694.663 139.458 694.666 140.573 694.555 140.571C691.867 140.208 693.106 137.077 690.204 140.238C685.483 136.078 699.382 140.027 698.498 137.415C698.214 136.575 692.606 136.05 686.165 135.945C679.493 135.837 671.922 136.178 668.455 137.104C667.254 137.425 666.546 137.816 666.54 138.285C666.447 137.946 666.035 137.514 665.174 137.005C663.267 135.876 654.556 135.823 653.028 136.33C652.77 136.431 652.737 139.462 652.421 139.477C652.249 139.484 651.611 139.354 650.677 139.163C647.337 138.48 640.212 137.011 637.038 138.264C639.166 138.788 641.295 139.31 643.423 139.832C630.451 139.264 632.411 140.252 636.694 141.359C636.91 141.378 637.115 141.502 637.321 141.524C640.641 142.348 644.907 143.187 644.961 143.429C645.077 143.951 638.074 144.02 632.755 143.5C628.673 143.101 625.587 142.357 627.486 141.226C627.809 141.036 630.839 141.44 632.848 141.518C634.61 141.586 635.588 141.405 633.275 140.359C633.196 140.324 633.07 140.293 632.906 140.268C631.266 140.012 625.807 140.208 625.503 139.992C624.078 138.984 629.437 138.103 633.058 137.028C635.105 136.421 636.598 135.752 636.003 134.97C635.088 135.439 634.119 135.705 633.113 135.846C630.21 136.254 627.016 135.622 624.044 135.861C622.221 136.005 621.704 137.501 621.479 137.519C618.12 137.752 620.072 136.253 618.955 136.238C618.66 136.237 616.87 136.982 615.306 137.183C613.7 137.391 612.333 137.025 613.082 134.691C593.884 136.729 603.607 137.604 615.263 138.054C616.906 138.116 618.585 138.17 620.23 138.218C618.866 138.693 617.106 138.893 615.219 138.951C611.174 139.075 606.556 138.543 604.004 138.681C602.665 138.755 603.372 140.353 601.109 140.548C600.31 140.617 598.998 140.587 597.355 140.486C589.447 140.007 573.546 137.833 568.868 137.215C572.408 136.863 571.477 135.109 568.763 135.074C566.049 135.038 568.195 137.43 567.653 137.644C567.352 137.758 563.785 137.329 560.14 136.914C556.775 136.531 553.343 136.161 552.324 136.244C561.911 135.971 559.853 134.157 551.769 133.515C552.967 133.095 554.165 132.676 555.363 132.256C550.576 132.668 540.766 129.514 537.99 130.125C537.554 130.224 539.013 131.734 538.768 131.79C536.331 132.255 528.264 130.338 527.858 130.801C527.513 131.187 530.921 132.578 529.597 133.091C529.335 133.193 526.429 131.311 523.304 131.344C523.122 131.346 522.939 131.354 522.756 131.37C521.523 131.474 522.183 132.861 521.871 132.921C519.268 133.423 520.911 131.244 516.2 131.343C512.751 131.419 510.07 133.489 505.375 132.494C520.782 136.183 507.755 134.27 501.214 134.772C500.166 134.852 500.925 137.34 494.774 135.817C508.245 132.119 491.123 133.275 487.659 133.051C487.495 133.03 487.487 131.826 486.395 131.422C486.222 131.358 486.02 131.314 485.787 131.298C485.643 131.292 485.793 132.391 484.207 132.392C469.174 132.416 478.823 131.674 476.028 130.457C474.834 129.937 467.479 131.119 465.52 131.066C465.069 131.048 465.33 129.927 463.585 129.889C460.495 129.826 457.683 130.904 455.647 130.909C455.41 130.904 455.477 129.117 451.601 129.527C450.512 129.642 449.27 130.224 450.784 130.803C455.803 132.708 465.619 130.234 471.322 132.205C476.512 133.992 459.901 133.334 459.044 133.314C458.727 133.305 462.005 132.568 458.724 132.242C456.597 132.033 453.038 133.629 449.642 134.039C448.567 134.168 447.506 134.179 446.509 133.975C446.193 133.911 442.967 131.159 443.126 131.014C443.269 130.907 448.419 130.554 447.708 129.767C447.622 129.677 444.362 129.558 443.96 128.978C443.468 128.271 442.336 121.486 441.643 121.289C439.869 120.8 440.973 122.381 439.819 122.228C437.35 121.9 428.816 119.591 428.454 121.917C429.87 122.106 431.284 122.296 432.698 122.488C424.791 122.439 428.122 123.557 426.988 123.953C425.766 124.384 426.177 122.345 423.523 122.062C423.09 122.014 416.734 122.037 413.646 122.428C412.607 122.558 411.937 122.727 411.982 122.945C412.62 122.822 413.169 122.739 413.638 122.688C417.716 122.244 415.844 124.232 416.098 124.28C417.17 124.478 418.587 123.1 420.035 123.176C430.201 123.738 419.867 125.637 422.249 126.294C423.068 126.516 424.755 125.359 425.103 125.433C426.234 125.673 426.199 127.263 426.963 127.161C428.748 126.926 426.756 124.604 426.9 124.492C428.539 123.139 434.69 125.12 430.732 127.423C433.018 128.39 433.404 125.428 435.202 126.686C438.775 129.18 433.31 128.364 431.811 128.701C426.436 129.917 424.897 128.716 417.358 128.865C416.081 128.89 414.685 129.202 413.433 129.53C412.024 129.899 410.804 130.289 410.139 130.312C409.353 130.335 402.01 125.112 401.599 132.975C398.711 132.141 394.325 126.856 391.348 127.035C388.682 127.199 389.478 129.999 389.228 130.101C388.847 130.263 385.623 129.985 384.516 130.361C383.223 130.804 383.851 131.876 381.801 132.277C379.117 132.801 377.878 132.269 377.239 131.616C376.656 131.027 376.563 130.34 376.311 130.249C370.166 128.036 372.82 132.112 371.448 132.419C370.684 132.588 363.96 132.016 357.884 131.755C353.848 131.581 350.105 131.542 348.602 131.937C350.136 131.382 351.668 130.828 353.202 130.274C350.485 128.474 347.558 131.338 347.537 128.16C346.935 133.285 341.323 129.805 339.626 129.925C339.075 129.965 339.009 130.565 338.536 130.793C338.434 130.842 338.314 130.874 338.166 130.879C334.898 131.005 327.538 130.258 325.763 130.691C318.709 132.4 334.68 135.327 338.494 135.956C338.829 136.011 339.07 136.048 339.194 136.064C339.009 136.059 338.773 136.058 338.493 136.061C334.106 136.105 319.124 137.164 326.651 139.531C327.889 139.92 330.101 137.639 330.799 137.554C335.518 136.997 331.795 139.028 332.163 139.226C332.789 139.546 335.907 137.581 336.724 137.824C336.967 137.894 335.584 139.37 338.463 139.744C338.815 139.789 339.229 139.818 339.718 139.827C339.443 140.047 339.01 140.217 338.459 140.345C334.544 141.255 324.666 140.103 323.21 140.467C322.698 140.595 325.386 143.522 319.114 141.831C318.142 141.569 316.955 141.196 315.507 140.686C315.631 141.045 315.754 141.404 315.878 141.763C310.512 141.866 305.147 141.975 299.781 142.09C299.127 142.104 298.472 142.118 297.818 142.132C298.474 141.308 301.86 139.661 297.602 140C295.15 140.196 296.958 142.04 296.734 142.093C295.841 142.296 288.893 142.297 280.45 142.258C274.198 142.228 267.183 142.177 261.123 142.156C257.041 142.141 253.649 142.161 251.141 142.206C250.168 142.224 249.363 142.246 248.765 142.271C247.104 142.337 243.422 143.09 241.054 143.587C239.934 143.822 239.11 143.997 238.941 144.01C237.452 144.11 234.153 144.002 230.833 143.899C227.151 143.784 223.442 143.675 222.252 143.819C220.841 143.994 222.231 145.491 220.964 145.456C220.741 145.449 220.603 145.39 220.522 145.297C220.373 145.126 220.421 144.844 220.501 144.573C220.608 144.212 220.773 143.873 220.61 143.848C220.57 143.842 220.526 143.837 220.479 143.831C219.138 143.686 214.956 143.994 210.021 144.354C206.617 144.602 202.856 144.874 199.446 145.028C195.301 145.215 191.696 145.226 189.943 144.825C191.39 144.965 195.41 144.365 199.398 143.556C204.401 142.534 209.309 141.192 209.111 140.613C209.038 140.471 205.071 139.468 204.273 140.045C203.419 139.278 201.373 140.537 199.329 141.45C198.059 142.013 196.786 142.444 195.8 142.182C195.512 142.103 196.567 139.872 192.016 139.617C191.42 139.584 190.466 139.83 189.286 140.049C187.367 140.404 184.848 140.686 182.287 139.577C181.616 139.703 180.616 139.791 179.37 139.85C176.866 139.969 173.369 139.975 169.551 139.959C166.402 139.946 163.034 139.92 159.813 139.93C156.265 139.941 152.894 139.997 150.174 140.161C146.802 140.363 144.444 140.727 143.951 141.358C143.892 141.484 148.11 142.122 145.323 143.208C141.693 144.629 144.729 140.331 140.611 140.009C140.535 140.003 140.456 139.999 140.375 139.996C139.781 139.974 131.47 140.64 128.157 141.059C127.407 141.153 126.92 141.233 126.847 141.286C125.247 142.432 126.445 143.161 128.284 143.645C130.646 144.266 134.07 144.486 133.989 144.649C133.8 145.052 130.955 145.495 128.389 145.789C126.313 146.027 124.416 146.168 124.248 146.101C123.887 145.944 131.105 142.353 122.301 144.02C123.336 144.353 124.371 144.687 125.405 145.021C121.277 145.98 120.765 143.775 119.748 143.69C118.494 143.584 117.234 144.08 115.84 144.475C113.718 145.076 111.295 145.441 108.12 143.087C106.728 142.053 108.866 140.697 108.691 140.54C107.126 139.234 105.449 142.698 103.153 140.903C102.98 140.768 102.804 140.604 102.624 140.405C102.581 140.359 102.816 140.219 103.103 140.036C103.777 139.605 104.737 138.935 103.024 138.667C102.174 138.535 100.667 138.502 98.1429 138.65C98.8324 138.896 99.5221 139.142 100.212 139.388C99.2677 139.893 94.0978 140.522 90.6552 140.836C89.2064 140.968 88.0632 141.042 87.6664 141.022C83.7546 140.83 87.0104 138.563 83.1207 139.06C84.7058 140.622 81.2305 141.656 78.2266 141.744C76.1393 141.805 74.2779 141.407 74.4889 140.397C73.6186 142.241 69.8411 142.435 65.7916 142.352C63.02 142.285 60.4539 142.066 58.5465 142.193C58.5321 142.194 58.5177 142.195 58.5032 142.196C56.5933 142.333 53.4208 143.202 51.2505 143.744C50.2017 144.005 49.3872 144.189 49.0865 144.166C47.9492 144.083 48.0996 141.982 46.02 141.718C45.8042 141.691 44.8954 141.948 43.5467 142.214C41.6195 142.594 38.7884 142.996 35.8177 142.602C35.1225 142.51 34.4199 142.374 33.7211 142.184C32.6053 141.881 29.9706 138.61 31.8947 137.53C32.8128 137.013 34.0006 136.81 35.2229 136.742C38.3786 136.564 41.7388 137.289 41.5326 135.803C41.3412 134.452 38.123 134.74 35.063 135.166C33.1313 135.434 31.2672 135.754 30.3386 135.736C29.0529 135.71 27.9911 135.647 27.1246 135.554C20.4997 134.848 25.2789 132.436 24.9615 131.831C24.258 130.513 20.2297 130.664 18.5065 130.708C18.0962 130.716 17.8415 130.718 17.7934 130.69C17.395 130.437 17.7594 129.985 18.3851 129.463C19.3346 128.734 20.7337 127.87 20.7117 127.253C20.6843 126.592 19.271 125.813 17.9605 125.111C16.6299 124.333 15.5676 123.645 16.1005 123.344C16.4711 123.141 17.0475 123.086 17.7658 123.114C20.1105 123.184 23.3622 124.023 23.5961 123.924C27.8613 122.146 21.5216 119.575 19.6725 118.179C19.117 117.748 21.0633 116.758 20.6284 116.659C18.1623 116.103 17.4171 116.587 17.2105 117.422C16.9259 118.833 17.9965 121.261 15.6798 121.218C12.3459 121.176 16.3694 118.633 16.2176 118.538C16.1053 118.473 14.7317 118.542 13.3925 118.493C12.4763 118.456 11.6134 118.357 11.3151 118.085C11.2088 117.987 12.0216 117.453 13.1949 116.715C14.3014 116.036 15.5632 115.203 16.9106 114.348C19.2084 112.962 21.208 111.535 20.9094 110.766C19.4858 111.063 18.0602 111.359 16.6475 111.651C15.2734 111.944 14.0725 112.228 12.7302 112.535C11.9627 112.713 11.1904 112.895 10.4153 113.079C10.1356 111.893 11.3303 111.605 12.6241 111.581C13.8926 111.556 15.2055 111.789 15.4381 111.643C16.3853 111.049 13.4921 110.133 13.5055 109.375C13.5309 108.886 16.6591 106.841 13.5895 106.45C13.2182 106.405 12.7341 106.601 12.0955 106.827C11.1366 107.166 9.8359 107.572 8.00871 107.35C7.50616 107.289 6.96173 107.181 6.37324 107.011C6.92585 106.851 7.43827 106.698 7.91133 106.553C9.76638 105.983 11.0451 105.517 11.9058 105.121C14.5724 103.896 13.1824 103.305 11.657 102.883C10.7487 102.632 9.79191 102.446 9.64195 102.21C9.39635 101.813 10.8392 100.935 11.3715 100.314C11.6099 100.036 11.6656 99.8074 11.3026 99.6946C10.8503 99.556 9.75704 99.5917 7.55062 99.9568C6.64181 95.3878 7.55098 98.4728 9.72734 97.3982C11.6477 96.4541 8.7732 95.7801 10.8336 95.4762C11.5461 95.3734 12.8009 95.3155 15.0558 95.334C15.3969 95.3358 15.759 95.3388 16.1433 95.343C15.9898 94.9463 15.5644 94.6594 14.9698 94.454C13.8625 94.064 12.2384 93.9655 10.6681 93.9877C8.66766 94.0135 6.83205 94.2272 6.62298 94.1727C6.2236 94.0622 7.94131 92.7774 7.24026 92.4967C6.84216 92.3419 6.47881 92.1976 6.14077 92.0634C-0.598042 89.4125 4.38555 90.4169 1.89359 88.1562C1.85521 88.1215 1.61824 88.0917 1.27445 88.0614C-0.47596 87.9069 -5.02055 87.7493 -0.302706 86.8012C0.169657 86.7066 0.62969 86.622 1.07862 86.5459C2.66049 86.2777 4.09828 86.1164 5.40031 86.0037C7.06597 85.8593 8.50744 85.7944 9.74464 85.6819C11.6005 85.5132 12.9888 85.2368 13.9914 84.4237C14.8792 83.7045 15.4469 82.5626 15.7517 80.7127C15.0345 80.5257 14.318 80.3957 13.5907 80.3156C12.1155 80.1541 10.605 80.2081 9.15727 80.3987C7.65239 80.5966 6.19491 80.9424 4.83186 81.3517C3.27607 81.819 1.84365 82.3688 0.604158 82.874C-1.29678 83.6493 -2.74929 84.3193 -3.51181 84.4429C-3.53899 84.4473 -3.56576 84.4515 -3.59212 84.4556C-7.01353 84.9857 -3.54903 83.1942 -4.03384 82.8805C-4.20355 82.7807 -7.25978 83.2915 -7.31338 83.1896C-8.35459 81.4534 -6.78047 80.751 -4.11546 80.4679C-2.84707 80.3336 -1.32975 80.2946 0.270437 80.2914C1.72423 80.2884 3.24632 80.3154 4.70674 80.3277C6.31503 80.3409 7.84837 80.3366 9.14027 80.2459C10.0258 80.1836 10.7965 80.0803 11.4011 79.9113C10.5979 79.5753 9.796 79.2419 8.99188 78.9111C8.34516 78.6457 7.69824 78.382 7.05084 78.1197C7.65843 78.0392 8.26713 77.96 8.87748 77.8822C10.1197 77.7237 11.3852 77.5694 12.6337 77.4246C10.3715 77.2726 9.21775 77.1788 8.78351 77.037C8.49888 76.9454 8.521 76.8354 8.74454 76.6864C9.35153 76.275 11.5298 75.5717 12.99 74.1592C13.4323 73.7216 13.8071 73.2131 14.0517 72.6198C14.2087 72.2384 13.4281 72.345 12.8195 72.4112C12.1703 72.4822 11.718 72.5097 12.7689 71.892C13.2316 71.6147 13.9834 71.2079 15.1499 70.6143C14.0145 70.5883 13.2286 70.5133 12.6268 70.4354C10.7926 70.2115 10.6498 69.9514 8.09666 70.859C7.85172 70.9461 7.58552 71.044 7.29475 71.1538C7.28372 70.8808 7.55005 70.5701 8.02745 70.2366C8.90343 69.6136 10.5754 68.9061 12.4125 68.2389C15.0016 67.27 18.0255 66.3287 20.0572 65.6826C20.3232 65.5979 20.5712 65.5184 20.798 65.4446C20.5345 65.4361 20.279 65.4295 20.0312 65.425C15.2071 65.3358 13.3815 65.9809 12.2646 66.7222C10.9464 67.5816 10.5992 68.556 7.85324 68.6696C6.76714 68.7166 5.29926 68.6346 3.24651 68.3777C3.12403 68.3624 2.99964 68.3464 2.87326 68.3299C2.02963 69.289 2.55737 69.6492 3.41728 69.7752C4.60693 69.948 6.44886 69.6824 6.19641 69.9068C5.62029 70.4159 4.69071 70.548 3.53623 70.7487C2.2975 70.9639 0.801197 71.2585 -0.778069 72.1769C-1.74128 72.7372 -2.73491 73.5294 -3.7209 74.676C-4.32407 75.3838 -1.53955 76.828 -4.50716 77.4833C-4.82227 77.553 -5.20226 77.6137 -5.65709 77.6633C-6.07116 77.7062 -8.1642 76.8403 -9.01292 76.4014C-9.24209 76.2836 -9.382 76.1971 -9.37667 76.1683C-9.34511 75.9509 -9.25056 75.7691 -9.11357 75.6153C-8.33389 74.7379 -6.13467 74.7639 -6.09391 74.2493C-6.05812 73.7194 -8.86164 74.3405 -9.28113 74.3066C-9.31372 74.3041 -9.33231 74.2978 -9.33453 74.2869C-9.36678 74.1139 -9.36684 73.9651 -9.34126 73.8369C-9.11115 72.6671 -6.72683 73.2082 -7.16309 72.7582C-7.44004 72.4727 -8.49948 72.1064 -9.61471 71.701C-12.1462 70.7813 -14.9404 69.6624 -9.965 68.9651C-8.91715 68.816 -7.52218 68.6802 -5.67843 68.5588C-5.43797 68.5429 -5.1895 68.5274 -4.93338 68.5121C-5.18411 68.5849 -5.42531 68.6557 -5.65668 68.7245C-7.72629 69.3394 -9.04543 69.7894 -9.81824 70.1114C-11.1531 70.6681 -10.8442 70.8468 -9.73107 70.7922C-8.75148 70.744 -7.14354 70.5108 -5.4642 70.1911C-4.01779 69.9158 -2.51873 69.5779 -1.35184 69.2468C-1.28676 69.2285 -1.22442 69.2083 -1.16449 69.1864C-0.0379429 68.7756 0.227139 67.7562 1.98737 67.1833C2.33686 67.0694 2.69845 66.9757 3.06565 66.8976C4.67352 66.5555 6.38571 66.5175 7.60106 66.4014C8.0043 66.3627 8.35452 66.3149 8.62629 66.2436C9.19654 66.092 8.10865 65.7177 7.47862 65.3001C7.07286 65.0321 6.85487 64.7446 7.38759 64.4814C7.91801 64.2159 9.28297 63.9635 11.9823 63.8292C12.3865 63.8106 12.8217 63.7944 13.2894 63.7811C12.8622 63.6349 12.4127 63.5199 11.9435 63.4317C10.5607 63.183 8.88661 63.1783 7.2554 63.2924C5.76137 63.3974 4.2199 63.607 2.69239 63.843C1.1738 64.0774 -0.330786 64.3376 -1.76442 64.5436C-3.33191 64.7688 -4.81565 64.929 -6.15568 64.9222C-6.893 64.9186 -7.58687 64.8645 -8.22787 64.7436C-9.25231 64.5499 -10.0236 64.3455 -10.5834 64.1351C-12.3126 63.4827 -12.0561 62.7854 -10.8415 62.119C-9.90325 61.605 -8.38332 61.1042 -6.71659 60.6483C-5.2822 60.256 -3.73822 59.8982 -2.40265 59.6043C-0.844309 59.2609 0.424576 59.0058 0.859573 58.8758C1.38752 58.7159 -0.598351 57.5172 -0.249657 57.3851C-0.106009 57.3328 0.706425 57.2468 1.87205 57.1295C3.14195 57.0017 4.83229 56.8382 6.51615 56.6431C8.23268 56.4429 10.0776 56.1958 11.2104 55.9166C11.9249 55.7364 12.4256 55.5291 12.5947 55.2897C13.028 54.6742 12.1754 54.7484 11.1073 54.8592C9.89837 54.9831 8.28143 55.1801 8.04563 54.5585C7.91346 54.302 9.3734 53.8064 10.9551 53.2995C14.0524 52.2575 18.2086 51.0323 13.5964 51.1058C12.7577 51.1186 11.8012 51.2634 10.777 51.4727C9.33902 51.7577 7.59183 52.1892 6.06307 52.5679C4.39144 52.9756 2.79021 53.3408 1.42375 53.4608C-0.347927 53.6165 -1.72599 53.3578 -2.381 52.247C-1.20287 52.047 -0.00782204 51.8475 1.20256 51.6506C2.74023 51.4005 4.30029 51.1548 5.87954 50.9171C7.41847 50.6835 9.13892 50.4413 10.6558 50.2316C13.2445 49.8664 15.7784 49.4999 18.3823 49.1238C18.6997 49.0779 19.0169 49.032 19.3341 48.986C19.0039 48.9036 18.6737 48.8212 18.3434 48.7387C15.6327 48.0659 12.9982 47.3828 10.3112 46.6983C9.36414 46.4765 8.31505 46.2688 7.28374 46.0638C8.29193 45.9075 9.30755 45.7805 10.2124 45.6859C12.8871 45.4045 15.4131 45.3042 17.9776 45.1224C20.5908 44.9375 23.1849 44.6727 25.8174 44.0591C27.0197 43.7788 28.2302 43.4259 29.4554 42.9745C27.891 42.7603 26.636 42.5538 25.6444 42.3541C20.7081 41.3564 22.2513 40.5367 25.3945 39.8917C27.8275 39.3925 31.2557 38.9978 33.3732 38.7105C34.4829 38.5596 35.2265 38.4376 35.2634 38.3424C35.2834 38.2319 34.4259 37.833 33.2379 37.3342C30.9121 36.3587 27.3493 35.0034 26.5501 34.6511C28.0602 34.1616 30.3567 33.6354 32.8193 33.0758C35.6272 32.437 38.652 31.7571 40.901 31.0328C44.7469 29.7989 46.2825 28.4088 40.5147 26.8254C40.5108 26.8243 40.5069 26.8233 40.503 26.8222C40.5069 26.8236 40.5108 26.825 40.5148 26.8264C42.7218 27.6024 47.685 24.7214 47.6106 24.5455C47.1302 23.4533 43.1378 23.7446 40.2394 23.8276C38.1355 23.8862 36.5932 23.8279 37.2883 23.0207C38.0407 22.1471 39.0007 21.9966 40.0814 22.1065C41.7587 22.2767 43.7379 23.0715 45.7343 22.765C46.757 22.607 47.6995 22.4244 48.5744 22.2202C52.4019 21.3185 55.0619 19.974 56.8783 18.5384C60.6851 15.5016 62.2949 11.9157 69.4733 11.1363C70.7206 11.0017 72.1353 10.9517 73.7625 11.0043C73.414 10.665 73.065 10.3257 72.7157 9.98661C75.9752 9.87755 79.2308 9.77457 82.4876 9.67715C86.8463 9.54681 91.2031 9.42669 95.5585 9.31638C99.9132 9.20611 104.267 9.10561 108.618 9.01465C112.97 8.92365 117.32 8.84217 121.668 8.76986C123.135 8.74549 124.602 8.72211 126.068 8.69984C128.065 7.68771 131.141 6.73253 134.59 5.89919C137.689 5.1572 141.329 4.50584 144.814 3.99349C148.353 3.47615 151.868 3.09343 154.976 2.87327C157.069 2.72503 158.977 2.65029 160.588 2.65712C161.302 2.65921 163.114 2.86395 165.089 3.12997C168.16 3.54311 171.617 4.10467 172.028 4.2653C173.285 4.77189 166.483 5.19682 169.593 6.12298C169.852 6.19772 172.35 6.275 175.194 6.23895C179.561 6.18356 184.728 5.85942 184.054 4.83009C182.393 4.68082 177.204 5.71386 176.332 5.33247C174.181 4.37405 178.501 3.8625 185.023 3.55061C187.982 3.40891 191.354 3.30852 194.833 3.22073C198.431 3.12969 202.145 3.05571 205.536 2.97763C210.05 2.87329 214.003 2.76258 216.358 2.5817C217.534 2.4912 218.311 2.3828 218.56 2.24798C217.811 1.86971 217.063 1.49165 216.315 1.11388C216.008 0.959106 215.702 0.804367 215.396 0.649658C215.698 0.669029 216 0.688431 216.303 0.707878C218.966 0.879036 221.639 1.05322 224.323 1.23165ZM97.4576 145.596C96.2362 147.011 93.3964 146.715 91.0267 146.801C90.3191 146.826 89.6541 146.885 89.0865 147.033C85.6677 147.932 80.2489 155.004 82.3325 148.138C85.2252 147.643 88.1203 147.152 91.0183 146.667C93.1632 146.307 95.3102 145.951 97.4576 145.596ZM171.811 144.77C168.332 143.948 170.882 140.112 173.769 141.58C174.091 141.747 176.528 145.877 171.811 144.77ZM136.079 144.361C136.215 144.305 139.172 144.268 139.283 144.323C141.995 145.705 133.09 145.806 136.079 144.361ZM309.67 138.869C305.848 139.015 308.601 142.435 310.982 141.043C311.131 140.955 309.921 138.862 309.67 138.869ZM306.952 138.767C303.995 135.702 297.997 141.87 302.75 141.263C303.211 141.201 307.088 138.916 306.952 138.767ZM159.527 143.692C159.583 143.498 159.725 143.348 159.93 143.233C160.975 142.647 163.665 142.988 164.937 143.179C164.932 144.158 161.626 143.619 159.945 143.664C159.791 143.668 159.65 143.676 159.527 143.692ZM249.388 140.781C249.475 140.195 244.718 140.065 240.993 140.386C238.851 140.568 237.059 140.896 236.769 141.345C237.415 141.155 239.088 141.12 241.007 141.128C244.71 141.14 249.306 141.325 249.388 140.781ZM280.619 139.391C280.592 139.377 280.534 139.366 280.452 139.358C279.591 139.277 276.02 139.542 276.135 140.283C277.48 140.967 279.532 140.702 280.452 140.234C280.965 139.973 281.127 139.649 280.619 139.391ZM343.99 139.745C344.225 139.544 341.054 134.349 348.646 137.818C349.76 138.326 345.752 139.639 346.148 139.828C346.977 140.197 347.634 140.371 348.162 140.406C344.609 140.801 340.921 140.972 340.567 140.656C338.904 139.162 343.887 139.829 343.99 139.745ZM377.3 136.261C378.044 135.426 382.655 135.944 383.685 136.31C383.863 136.378 383.049 138.579 385.113 138.448C386.767 138.34 384.339 136.029 387.546 136.449C390.778 136.873 386.425 138.409 386.704 138.53C387.089 138.686 392.095 137.764 391.915 139.081C391.78 140.054 386.454 139.291 385.106 139.478C383.394 139.716 385.44 141.377 382.59 140.981C380.793 140.735 381.832 137.889 381.454 137.738C381.242 137.656 378.299 138.333 377.157 137.903C376.629 137.706 376.487 137.274 377.176 136.429C377.218 136.377 377.262 136.324 377.31 136.27C377.307 136.267 377.303 136.264 377.3 136.261ZM349.123 140.289C348.855 140.383 348.541 140.432 348.162 140.406C348.484 140.371 348.806 140.328 349.123 140.289ZM107.235 143.77C108.677 144.389 105.721 145.411 103.406 145.297C102.797 145.267 102.231 145.158 101.803 144.941C101.77 144.601 102.45 144.336 103.34 144.144C104.881 143.809 107.051 143.693 107.235 143.77ZM352.437 137.99C357.703 138.76 353.814 139.706 349.123 140.289C350.616 139.764 350.669 137.733 352.437 137.99ZM204.273 140.045C204.503 140.252 204.655 140.58 204.691 141.126C204.085 140.547 204.022 140.228 204.273 140.045ZM216.565 140.634C220.692 138.843 212.205 139.167 212.288 140.359C212.33 140.807 216.402 140.705 216.565 140.634ZM314.57 139.055C314.185 138.89 320.205 133.89 311.482 137.622C316.125 138.237 311.221 138.761 311.292 139.202C311.435 140.189 316.211 139.69 319.126 139.688C319.951 139.687 320.626 139.726 321.006 139.849C321.639 138.804 320.578 138.672 319.131 138.779C317.454 138.902 315.257 139.347 314.58 139.055C314.577 139.055 314.573 139.055 314.57 139.055ZM436.083 139.051C434.991 140.336 431.702 139.784 429.48 139.626C430.568 138.337 433.856 138.886 436.083 139.051ZM1037.38 154.545C1021.55 156.255 1019.36 150.904 1033.91 152.61C1034.2 152.646 1038.32 153.968 1037.38 154.545ZM901.364 155.579C899.862 153.229 904.806 152.834 908.059 153.79C908.794 154.005 911.527 156.377 908.424 156.86C908.507 154.004 903.705 152.936 901.364 155.579ZM355.433 136.512C355.95 135.993 356.82 135.777 357.842 135.73C359.883 135.635 362.53 136.213 364.189 136.389C363.087 137.305 360.191 137.234 357.829 136.931C356.9 136.812 356.053 136.657 355.433 136.512ZM985.289 153.1C983.616 152.958 982.533 155.03 982.825 155.195C984.131 155.95 987.216 154.226 985.289 153.1ZM340.174 136.126C339.965 135.185 346.237 134.336 346.652 136.662C345.314 136.481 340.324 136.716 340.174 136.126ZM431.904 138.187C430.962 137.674 435.96 137.006 437.442 137.54C437.282 138.532 432.52 138.519 431.904 138.187ZM958.43 154.299C956.931 154.145 953.195 154.147 952.793 154.982C952.294 156.025 957.77 155.589 958.43 154.299ZM1235.6 139.038C1235.64 139.114 1235.43 139.312 1235.03 139.572C1233.58 140.533 1229.71 142.333 1227.68 141.928C1223.39 141.064 1232.51 139.307 1235 139.049C1235.35 139.013 1235.57 139.007 1235.6 139.038ZM1001.05 151.681C1005.81 153.514 1000.53 151.756 1000.79 153.802C1003.96 153.8 1011.85 153.697 1006.38 151.819C1005.31 151.456 1002.53 151.778 1001.05 151.681ZM996.692 151.1C996.204 151.776 992.857 153.951 995.789 153.732C997.144 153.628 999.274 151.247 996.692 151.1ZM1201.12 142.251C1199.8 141.765 1200.8 141.389 1202.77 141.119C1205.22 140.786 1208.83 140.638 1211.75 140.61C1213.96 140.584 1215.63 140.621 1215.8 140.702C1216.09 140.851 1216.29 140.997 1216.41 141.124C1217.06 140.504 1220.65 140.169 1221.16 141.596C1220.07 141.545 1217.14 141.863 1216.8 141.724C1216.64 141.664 1216.53 141.607 1216.45 141.547C1216.05 142 1214.2 142.257 1211.87 142.389C1208.79 142.562 1205.14 142.503 1202.87 142.406C1201.92 142.362 1201.27 142.307 1201.12 142.251ZM1169.59 142.977C1172.07 141.362 1173.57 141.833 1174.39 142.669C1175.12 143.422 1175.3 144.471 1175.1 144.556C1174.91 144.642 1174.73 144.719 1174.56 144.789C1170.16 146.588 1173.12 143.213 1172.95 143.075C1172.57 142.845 1168.88 144.707 1169.6 142.975C1169.6 142.976 1169.59 142.976 1169.59 142.977ZM1194.85 141.996C1195.04 141.919 1198.9 141.752 1199.05 141.813C1202.32 143.087 1191.43 143.568 1194.85 141.996ZM401.915 133.544C404.695 134.067 401.915 135.673 400.076 135.026C399.925 134.963 399.461 133.083 401.915 133.544ZM994.385 151.605C993.703 151.313 976.463 150.485 977.545 152.989C979.003 152.673 998.609 153.54 994.385 151.605ZM865.491 152.223C868.538 152.258 865.204 154.63 863.582 153.731C862.981 153.396 864.723 152.216 865.491 152.223ZM331.746 133.893C328.646 135.183 329.315 130.786 331.986 132.314C332.09 132.374 331.868 133.843 331.746 133.893ZM889.822 153.652C879.364 155.088 881.792 147.606 895.266 150.041C895.328 150.053 895.391 150.064 895.454 150.076C895.391 150.125 895.329 150.175 895.266 150.225C894.903 150.513 894.539 150.802 894.175 151.09C894.557 151.117 894.921 151.143 895.268 151.168C905.935 151.924 900.23 151.798 895.269 151.882C893.741 151.908 892.283 151.953 891.396 152.051C889.93 152.214 891.161 153.477 889.832 153.661C889.829 153.658 889.826 153.655 889.822 153.652ZM849.468 151.963C842.325 148.078 849.959 148.815 856.974 149.318C859.846 149.524 862.615 149.692 864.224 149.497C861.33 150.676 857.968 151.106 856.957 151.617C856.581 151.808 856.531 152.01 856.953 152.265C857.503 152.599 858.859 153.025 861.346 153.636C859.578 153.681 858.128 153.685 856.942 153.658C848.802 153.468 853.169 151.852 852.685 151.693C852.03 151.488 849.898 152.198 849.468 151.963ZM876.159 152.085C876.744 151.93 881.147 153.033 882.734 152.855C880.513 154.692 872.273 153.14 876.159 152.085ZM1135.32 146.563C1135.46 145.805 1135.76 145.142 1136.51 144.724C1137.2 144.337 1138.27 144.161 1139.97 144.315C1139.21 144.893 1137.83 145.454 1136.58 145.989C1136.13 146.184 1135.7 146.375 1135.32 146.563ZM93.7871 138.234C92.8767 138.249 91.6068 138.218 90.495 138.263C88.7857 138.332 87.4489 138.579 88.3585 139.44C88.4283 139.491 89.4313 139.432 90.5585 139.283C92.0741 139.083 93.8134 138.72 93.7871 138.234ZM944.329 151.35C943.819 151.185 930.672 151.215 935.23 152.751C936.606 153.219 948.567 152.863 944.329 151.35ZM1012.33 150.173C1011.91 150.178 1010.96 150.241 1009.97 150.336C1008.42 150.483 1006.75 150.708 1006.7 150.916C1006.54 151.615 1008.37 151.627 1010 151.285C1011.12 151.048 1012.15 150.639 1012.33 150.173ZM82.0748 137.499C81.9054 137.429 79.7621 137.61 77.9688 137.897C76.4577 138.138 75.1936 138.454 75.5689 138.748C76.0651 139.137 77.0183 139.194 78.048 139.079C80.2449 138.833 82.8052 137.802 82.0748 137.499ZM412.182 130.452C412.583 130.428 413.049 131.151 413.371 131.625C413.522 131.849 413.642 132.017 413.707 132.025C414.182 132.055 424.974 131.805 420.792 133.676C420.473 133.819 417.094 133.63 413.318 133.37C408.809 133.058 403.729 132.648 402.641 132.514C401.916 130.348 408.472 132.56 410.084 132.389C410.369 132.355 410.601 130.566 412.177 130.461C412.179 130.458 412.18 130.455 412.182 130.452ZM1153.42 143.897C1153.47 143.712 1153.75 143.52 1154.19 143.33C1156.03 142.539 1161.12 141.736 1164.29 141.639C1166.09 141.584 1167.38 141.75 1167.37 142.265C1166.37 142.388 1165.37 142.51 1164.37 142.632C1161.07 143.033 1157.53 143.438 1154.22 143.807C1153.95 143.837 1153.69 143.867 1153.42 143.897ZM1146.7 144.109C1143.8 143.328 1150.43 142.584 1152.37 142.88C1152.47 143.794 1147.13 144.224 1146.7 144.109ZM987.356 145.683C986.047 146.045 990.14 147.945 989.243 148.352C988.668 148.606 985.708 147.924 984.782 148.566C984.52 148.77 987.564 150.575 988.431 150.475C989.663 150.34 988.434 148.895 989.779 148.855C994.249 148.723 998.234 149.679 1002.42 149.551C1002.8 149.537 999.843 148.57 1003.07 148.505C1003.55 148.493 1006.34 149.84 1009.95 149.669C1010.12 149.661 1010.29 149.65 1010.46 149.635C1018.85 144.616 1025.22 149.148 1036.01 147.086C1035.59 146.649 1027.45 145.683 1026.98 145.651C1022.46 145.391 1016.18 145.35 1009.84 145.394C1003.46 145.439 997.017 145.569 992.268 145.672C989.838 145.723 991.041 146.711 989.996 146.772C989.169 146.818 990.111 144.917 987.356 145.683ZM94.948 137.123C94.1584 135.946 92.277 136.138 90.381 136.433C89.3655 136.59 88.3474 136.777 87.4867 136.798C87.9484 137.573 89.1014 137.625 90.4471 137.494C91.9396 137.35 93.6697 136.981 94.948 137.123ZM1087.34 145.862C1086.55 145.942 1084.71 145.824 1083.36 145.857C1082.52 145.878 1081.86 145.957 1081.75 146.178C1081.59 146.472 1082.37 146.685 1083.4 146.759C1085 146.875 1087.21 146.648 1087.34 145.862ZM473.145 133.443C473.266 133.397 476.259 133.647 476.369 133.712C478.969 135.349 470.002 134.594 473.145 133.443ZM545.218 137.762C547.532 137.663 549.888 137.211 550.575 138.776C549.12 138.459 544.888 138.805 545.218 137.762ZM646.067 142.999C645.832 141.778 648.283 141.888 650.541 142.215C652.004 142.427 653.387 142.731 653.902 142.824C653.666 143.212 652.126 143.579 650.473 143.735C648.435 143.928 646.226 143.8 646.067 142.999ZM1134.43 140.344C1135.17 140.32 1135.76 140.213 1136.23 140.058C1138.49 139.308 1138.14 137.446 1140.48 138.437C1140.94 138.639 1142.78 144.829 1137.89 142.769C1137.12 142.446 1139.49 141.116 1136.25 140.543C1135.78 140.459 1135.18 140.391 1134.43 140.344ZM897.676 150.134C898.766 148.812 902.182 149.194 904.49 149.289C903.977 150.272 899.318 150.037 897.676 150.134ZM69.2912 136.855C68.5662 136.249 66.9966 136.106 65.3505 136.224C62.4214 136.434 59.5607 137.531 60.9358 138.221C61.1413 138.297 63.2283 137.851 65.4384 137.448C67.1433 137.141 68.7514 136.863 69.2912 136.855ZM366.191 130.612C369.959 129.19 362.195 128.644 359.726 130.052C360.838 129.97 365.939 130.706 366.191 130.612ZM621.87 140.785C622.056 140.734 626.087 141.069 626.264 141.15C629.501 142.839 618.092 141.897 621.87 140.785ZM521.542 133.979C521.831 133.763 522.412 133.645 523.175 133.603C526.384 133.429 532.836 134.624 534.493 135.697C532.988 136.851 526.287 136.228 523.081 135.271C521.719 134.865 520.986 134.398 521.542 133.979ZM1116.73 142.211C1117.37 142.165 1117.99 142.136 1118.61 142.124C1121.01 142.075 1123.34 142.266 1125.61 142.552C1125.23 143.293 1121.14 143.191 1118.65 142.802C1117.61 142.64 1116.84 142.429 1116.73 142.211ZM636.694 141.359C636.91 141.378 637.115 141.502 637.321 141.524C637.107 141.471 636.898 141.412 636.694 141.359ZM1047.92 144.463C1045.36 144.146 1045.95 145.99 1046.11 146.041C1046.73 146.215 1047.44 146.151 1048.02 145.973C1049.23 145.598 1049.88 144.72 1047.97 144.469C1047.95 144.467 1047.93 144.465 1047.92 144.463ZM91.9491 134.537C91.6403 134.016 91.0107 133.822 90.2166 133.792C88.5352 133.727 86.123 134.395 84.4771 134.229C85.0804 135.217 88.0651 135.036 90.2774 134.769C90.929 134.69 91.5122 134.604 91.9491 134.537ZM838.663 148.405C835.458 146.548 848.625 144.583 851.378 145.774C851.574 146.906 839.145 148.666 838.663 148.405ZM354.568 127.966C354.329 126.646 348.913 128.182 350.054 128.816C350.777 129.218 354.711 128.785 354.568 127.966ZM857.978 146.594C859.215 146.201 862.084 147.519 861.066 148.304C859.758 149.311 857.658 146.707 857.978 146.594ZM968.545 144.884C968.004 144.694 960.789 146.169 963.802 147.461C965.894 148.358 966.191 146.449 966.679 146.435C966.952 146.434 970.01 146.964 971.7 147.032C972.914 147.082 973.421 146.894 971.683 146.104C971.007 145.796 969.99 145.397 968.545 144.884ZM764.869 145.504C767.619 145.094 770.906 145.794 773.773 145.852C772.578 146.629 765.992 146.627 764.869 145.504ZM375.394 127.852C374.737 127.306 357.03 126.78 367.077 128.536C367.658 128.633 377.346 129.489 375.394 127.852ZM1134.43 140.344C1133.89 140.362 1133.26 140.337 1132.52 140.25C1133.25 140.258 1133.88 140.31 1134.43 140.344ZM1085.46 142.681C1085.98 142.128 1084.69 141.869 1083.19 141.844C1081.96 141.824 1080.6 141.956 1079.95 142.212C1079.72 142.909 1081.6 143 1083.23 142.925C1084.38 142.873 1085.41 142.738 1085.46 142.681ZM774.035 144.523C775.51 144.087 778.01 144.569 779.985 144.685C780.244 144.701 780.495 144.71 780.732 144.71C780.658 144.884 780.378 145.018 779.972 145.114C778.322 145.506 774.584 145.268 774.035 144.523ZM659.229 138.944C662.454 139.615 666.46 139.544 666.568 138.458C666.628 138.631 666.778 138.818 667.031 139.011C667.125 139.081 667.659 139.077 668.371 139.066C669.592 139.046 671.336 139.005 672.28 139.28C675.22 140.132 672.453 140.404 668.318 140.314C659.868 140.129 645.704 138.411 662.916 137.097C661.687 137.713 660.459 138.329 659.229 138.944ZM508.926 130.701C507.178 129.274 501.989 130.654 503.284 131.248C504.185 131.656 510.674 132.135 508.926 130.701ZM579.49 133.928C578.948 133.662 573.855 134.308 573.687 134.998C576.537 135.896 581.946 135.166 579.49 133.928ZM495.024 128.385C493.894 128.124 492.326 130.183 492.455 130.283C493.57 131.124 496.877 129.677 495.024 128.385ZM1125.17 135.112C1123.84 134.727 1120.42 135.682 1118.32 136.805C1117.63 137.175 1117.08 137.563 1116.8 137.929C1116.56 137.668 1115.94 137.345 1114.8 136.978C1114.81 136.977 1114.81 136.977 1114.81 136.977C1114.23 136.79 1107.29 136.933 1100.65 137.211C1089.94 137.656 1079.98 138.507 1098.62 139.327C1099.43 139.362 1098.56 138.486 1100.7 138.255C1101.06 138.216 1101.51 138.196 1102.07 138.201C1102.32 138.204 1102.5 139.232 1103.28 139.244C1105.09 139.269 1114.72 139.423 1116.6 138.482C1116.63 138.673 1116.76 138.849 1117.04 139.002C1117.41 139.212 1117.9 139.275 1118.45 139.228C1121.47 138.974 1126.34 135.446 1125.17 135.112ZM589.521 134.288C588.526 133.85 585.287 134.039 584.903 134.932C586.478 135.468 591.832 135.309 589.521 134.288ZM374.891 124.096C372.85 123.318 367.664 124.661 369.218 125.426C370.164 125.896 377.238 124.989 374.891 124.096ZM557.336 132.975C558.545 133.156 559.534 133.3 560.34 133.412C567.368 134.387 560.354 132.922 562.046 131.815C561.5 131.949 560.954 132.084 560.408 132.218C559.384 132.471 558.36 132.723 557.336 132.975ZM1181.29 134.664C1179.45 134.521 1181.24 131.896 1183.32 132.827C1183.4 132.862 1183.48 132.903 1183.56 132.949C1183.82 133.104 1183.7 133.407 1183.39 133.717C1182.91 134.207 1181.94 134.711 1181.29 134.664ZM1265.27 127.927C1263.48 125.706 1271.54 126.507 1268.55 128.335C1268.41 128.4 1265.4 128.008 1265.27 127.927ZM1205.98 130.892C1205.07 132.302 1204.38 132.7 1202.14 132.711C1201.71 132.713 1201.23 132.702 1200.67 132.681C1201.29 132.579 1201.75 132.474 1202.11 132.369C1204.68 131.613 1201.53 130.801 1205.98 130.892ZM666.54 138.285C666.558 138.35 666.574 138.398 666.568 138.458C666.547 138.398 666.539 138.342 666.54 138.285ZM484.027 128.222C482.636 126.795 478.539 126.687 479.689 128.108C479.799 128.24 483.377 129.188 484.027 128.222ZM1116.8 137.929C1117.02 138.16 1116.92 138.322 1116.6 138.482C1116.57 138.303 1116.65 138.128 1116.8 137.929ZM506.098 128.3C505.894 129.299 512.127 130.038 512.385 129.934C516.074 128.389 508.68 128.381 506.098 128.3ZM333.527 122.262C333.203 122.364 335.266 124.984 336.55 123.974C337.544 123.19 334.739 121.87 333.527 122.262ZM1217.78 129.457C1219.44 129.352 1221.66 129.208 1222.7 129.862C1222.91 129.991 1223.06 130.152 1223.16 130.351C1223.04 130.342 1222.89 130.334 1222.73 130.327C1221.11 130.26 1217.8 130.282 1217.78 129.457ZM1262.04 126.452C1261.08 127.129 1259.57 127.588 1257.88 127.893C1255.53 128.316 1252.84 128.438 1250.81 128.434C1250.69 127.2 1254.5 126.992 1257.81 126.829C1259.61 126.741 1261.26 126.666 1262.04 126.452ZM1130.71 135.507C1130.54 135.44 1125.43 135.163 1126.19 136.402C1127.31 138.221 1132.18 136.118 1130.71 135.507ZM343.169 123.721C345.207 122.933 341.13 120.563 338.608 121.745C338.371 121.856 338.147 121.999 337.943 122.178C337.553 122.52 337.915 122.816 338.598 123.056C340.04 123.562 342.913 123.819 343.169 123.721ZM471.348 125.812C468.4 126.41 475.552 128.082 476.631 126.796C475.293 126.621 472.396 125.6 471.348 125.812ZM571.35 129.99C562.243 125.604 566.923 132.93 568.613 132.405C568.851 132.33 571.573 130.094 571.35 129.99ZM46.9258 130.941C45.9893 131.449 48.7235 132.464 50.197 132.271C50.6204 132.215 50.9414 132.06 51.0488 131.765C51.1598 131.453 50.7217 131.199 50.0828 131.027C49.0223 130.739 47.4091 130.68 46.9258 130.941ZM711.939 139.084C711.546 139.08 711.156 139.077 710.771 139.072C711.062 139.021 711.443 139.016 711.939 139.084ZM445.16 119.443C447.91 121.972 449.347 122.558 450.142 122.428C451.145 122.263 451.129 120.958 451.441 120.985C452.649 121.096 455.402 122.693 457.697 122.555C455.154 123.031 452.611 123.511 450.075 123.993C449.974 124.012 449.873 124.031 449.772 124.05C449.849 124.068 449.949 124.09 450.069 124.114C453.137 124.724 469.686 127.325 470.095 126.501C470.695 125.268 465.02 125.391 464.862 125.274C464.633 125.105 463.914 121.564 463.395 121.407C462.805 121.231 455.496 120.812 450.235 120.268C447.857 120.02 445.896 119.745 445.16 119.443ZM551.836 129.483C553.308 129.985 553.653 131.395 554.367 131.104C554.61 131.004 554.724 129.685 555.553 129.389C554.313 129.421 553.075 129.452 551.836 129.483ZM433.432 123.889C431.671 122.202 439.817 123.128 440.071 123.323C441.421 124.473 434.872 125.263 433.432 123.889ZM503.042 126.956C502.744 126.844 496.446 125.997 496.449 126.896C498.083 127.668 506.536 128.331 503.042 126.956ZM556.556 129.356C557.667 129.497 559.256 129.956 560.527 130.135C561.813 130.316 562.775 130.209 562.587 129.194C562.583 129.194 562.58 129.194 562.577 129.194C561.91 129.212 561.244 129.23 560.578 129.248C559.237 129.284 557.897 129.32 556.556 129.356ZM350.817 119.581C346.715 116.368 348.637 120.397 352.282 121.456C353.404 120.042 351.489 120.104 350.817 119.581ZM337.616 117.099C336.471 116.515 324.618 117.059 326.415 118.752C327.054 119.354 333.876 117.892 334.189 118.012C334.663 118.187 332.477 120.029 336.112 119.688C335.904 119.057 338.008 117.292 337.616 117.099ZM347.417 117.517C343.331 115.065 342.371 119.51 345.458 119.55C346.664 119.568 347.999 117.87 347.417 117.517ZM364.184 118.068C363.041 117.727 360.423 117.254 358.032 117.737C357.34 117.877 356.667 118.097 356.055 118.423C356.711 118.452 357.367 118.482 358.024 118.512C360.995 118.647 363.968 118.783 366.937 118.922C367.365 118.088 365.472 118.454 364.174 118.068C364.177 118.068 364.18 118.068 364.184 118.068ZM1288.13 112.87C1287.89 112.835 1287.7 112.796 1287.54 112.754C1286.72 112.535 1286.84 112.258 1287.44 111.979C1287.95 111.745 1288.8 111.508 1289.83 111.268C1290.7 111.067 1291.69 110.867 1292.86 110.637C1294.34 110.367 1297.44 109.67 1298.74 109.328C1303.88 108.3 1293.94 111.909 1293.11 112.042C1291.91 112.4 1290.91 112.641 1290.05 112.779C1289.26 112.904 1288.6 112.94 1288.13 112.87ZM17.6387 93.2165C16.8092 92.8622 16.1314 91.6309 14.7285 91.9795C14.5077 92.0347 14.2704 92.13 14.0147 92.2753C14.2727 92.4019 14.5327 92.5286 14.7944 92.6554C16.661 93.5493 18.5442 94.4386 20.4173 95.327C21.7036 92.3825 18.6943 93.6704 17.6387 93.2165ZM8.94785 83.8217C9.16075 83.7457 8.01746 81.3339 9.25592 81.2861C9.63774 81.2719 10.2501 81.4841 11.1952 82.0675C12.0909 82.6226 11.2114 83.3531 9.56159 84.0354C8.41228 84.5099 6.89046 84.9644 5.31667 85.3192C3.83747 85.6524 2.31021 85.8969 1.0048 85.9746C-0.321278 86.0535 -1.42023 85.9597 -2.00884 85.6123C-1.27846 85.2613 -0.266838 85.0295 0.860714 84.8595C2.23523 84.6523 3.7835 84.5375 5.20554 84.4098C6.70856 84.2743 8.0729 84.1246 8.94785 83.8217ZM-16.4951 68.1866C-16.5167 68.153 -16.4753 68.1111 -16.3836 68.0634C-16.1767 67.9542 -15.6998 67.8147 -15.1945 67.6806C-14.8444 67.5905 -14.5722 67.5113 -14.3986 67.447C-13.1061 67.1509 -11.7768 66.9163 -11.4593 66.9988C-9.33898 67.5893 -11.9626 68.7417 -14.2239 68.9003C-14.4237 68.9037 -14.7147 68.884 -15.0772 68.8364C-15.5862 68.7637 -16.0737 68.6138 -16.3538 68.3528C-16.4093 68.3018 -16.4562 68.2464 -16.4951 68.1866ZM-0.585487 67.0259C-2.73134 66.5936 0.702269 65.6487 2.89869 65.5313C3.31213 65.5088 3.67641 65.5159 3.94885 65.5602C4.03277 65.8157 3.60863 66.0678 2.99139 66.2899C1.72846 66.7424 -0.322824 67.0742 -0.585487 67.0259ZM1248.55 53.4114C1245.76 50.6653 1243.86 57.1082 1247.77 55.5737C1247.95 55.5013 1248.67 53.547 1248.55 53.4114ZM-12.4556 63.3547C-10.737 63.7424 -12.8193 64.4603 -14.7269 64.716C-14.8733 64.7389 -15.136 64.7533 -15.4916 64.7553C-15.7824 64.755 -16.0712 64.7381 -16.2989 64.6976C-16.372 64.4704 -16.0174 64.25 -15.5619 64.0631C-15.2379 63.9354 -14.9698 63.8324 -14.8418 63.7602C-13.7654 63.4819 -12.649 63.3158 -12.4556 63.3547ZM1246.26 46.5761C1242.68 44.7044 1244.36 51.6776 1244.81 51.9333C1246.28 52.7359 1250.33 50.8702 1252.5 49.6899C1253.05 49.3925 1253.48 49.1389 1253.72 48.9831C1253.27 49.0667 1252.86 49.1381 1252.47 49.1984C1245.03 50.3493 1247.85 47.413 1246.26 46.5761ZM1230.65 51.8568C1227.5 52.8167 1235.78 53.727 1237.21 51.6571C1235.62 51.8555 1231.55 51.5805 1230.65 51.8568ZM1211.03 50.8479C1209.99 50.7639 1207.72 50.6334 1205.9 50.7899C1204.64 50.8971 1203.58 51.139 1203.25 51.6113C1203.89 51.5017 1204.88 51.508 1205.95 51.5264C1205.95 51.5264 1205.95 51.5264 1205.95 51.5263C1208.1 51.5664 1210.59 51.6476 1211.03 50.8479ZM1206.9 47.7755C1206.42 47.549 1206.02 47.4892 1205.69 47.5385C1204.27 47.7475 1204.2 49.8633 1205.83 49.6752C1205.83 49.6752 1205.83 49.6752 1205.83 49.6752C1206.09 49.6442 1206.41 49.5485 1206.77 49.3683C1206.88 49.3097 1207 47.8529 1206.9 47.7755ZM1191.18 47.3145C1189.23 45.7118 1187.52 50.1292 1190.45 50.0097C1191.32 49.9668 1191.39 47.4996 1191.18 47.3145ZM1241.45 39.2736C1241.03 39.1781 1240.6 39.1855 1240.19 39.2645C1238.26 39.6397 1236.93 41.6342 1240.37 41.9018C1240.63 41.9221 1240.92 41.9324 1241.24 41.9312C1240.96 42.0215 1240.67 42.1119 1240.39 42.2022C1238.81 42.7023 1237.24 43.2018 1235.66 43.7009C1237.98 44.104 1239.46 43.9385 1240.48 43.5316C1242.6 42.6787 1242.68 40.7662 1244.06 40.7933C1246.89 40.8529 1246.9 44.3548 1246.41 45.4882C1247.29 44.5542 1249.45 43.8852 1252.07 43.3635C1255.7 42.641 1260.22 42.1987 1263.52 41.7381C1263.68 41.7155 1263.84 41.6929 1263.99 41.6702C1263.84 41.6533 1263.67 41.6359 1263.51 41.6182C1260.26 41.2686 1255.86 40.757 1251.86 40.3724C1249.65 40.1595 1247.55 39.9863 1245.84 39.9043C1244.42 39.8343 1243.12 40.8818 1241.91 40.8544C1239.98 40.8052 1241.6 39.3148 1241.46 39.2729C1241.46 39.2731 1241.45 39.2734 1241.45 39.2736ZM1171.11 48.9188C1165.8 47.372 1169.4 51.3705 1172.25 50.3633C1172.37 50.2942 1171.24 48.9564 1171.11 48.9188ZM-20.9966 51.225C-20.4842 51.2348 -20.0638 51.2612 -19.6919 51.2949C-19.0198 51.357 -18.5113 51.4439 -18.0878 51.5389C-17.5092 51.6699 -17.0993 51.8177 -16.7902 51.9657C-16.2945 52.1716 -16.2535 52.4042 -16.1838 52.5948C-15.222 52.993 -14.4901 53.1517 -12.0798 52.4473C-11.0604 52.1482 -9.7528 51.6934 -7.97879 51.0309C-7.03206 50.6776 -5.95165 50.2652 -4.70182 49.7869C-10.5177 53.1212 -4.81952 51.652 -5.88146 52.829C-6.21729 53.1947 -6.98385 53.3866 -7.64621 53.565C-8.67382 53.8419 -9.46266 54.0876 -8.09267 54.9139C-8.8693 54.5378 -10.251 54.4034 -11.8305 54.3941C-13.1552 54.3893 -14.5201 54.457 -15.9472 54.5633C-15.9857 54.5499 -16.1392 54.5519 -16.5249 54.5784C-16.8878 54.6022 -17.3139 54.634 -17.7648 54.6713C-18.2466 54.7112 -18.7576 54.7575 -19.2924 54.8112C-19.8929 54.8717 -20.5183 54.9406 -21.2064 55.0275C-22.0528 55.1359 -22.9651 55.2614 -24.1774 55.4821C-26.3513 56.4466 -29.824 54.8891 -41.3054 63.6852C-40.8417 63.267 -40.2885 62.8036 -39.9728 62.5501C-62.5015 81.3251 -17.9292 44.3146 -24.7931 52.2749C-23.6011 51.7271 -22.6455 51.3806 -21.7182 51.2645C-21.4712 51.2339 -21.2377 51.2211 -20.9966 51.225ZM1210.29 39.6713C1208.37 34.9955 1208.09 41.6569 1205.17 39.5416C1205.17 39.5416 1205.17 39.5416 1205.17 39.5416C1204.91 39.3619 1204.64 39.1186 1204.34 38.7994C1203.05 40.7626 1203.71 41.4709 1205.3 41.6424C1205.3 41.6424 1205.3 41.6424 1205.3 41.6424C1208.05 41.9502 1213.7 40.5855 1217.02 41.4477C1218.1 41.7276 1218.93 42.2423 1219.34 43.1253C1218.51 43.1514 1217.77 43.184 1217.13 43.222C1210.46 43.6168 1213.67 44.5819 1217.22 44.687C1220.96 44.7979 1225.07 43.9581 1218.48 40.5014C1229.33 42.6811 1221.91 39.2994 1223.49 38.1879C1224.42 37.5402 1226.66 37.479 1228.43 37.2435C1229.89 37.0485 1231.04 36.7337 1230.84 35.8671C1230.84 35.8673 1230.83 35.8676 1230.83 35.8678C1230.01 35.9518 1229.18 36.0358 1228.35 36.1197C1225.51 36.4085 1222.66 36.6967 1219.81 36.9852C1222.46 39.6733 1219.75 40.1682 1216.87 39.1827C1215.54 38.7253 1214.17 37.9491 1213.29 36.925C1212.29 37.8402 1211.29 38.7556 1210.29 39.6713ZM1231.42 42.2389C1231.28 42.2127 1230.14 42.3424 1228.77 42.5566C1226.38 42.9301 1223.29 43.5602 1223.65 44.0707C1224.14 44.2763 1226.63 44.1225 1228.85 43.8065C1231.65 43.4085 1234.01 42.753 1231.42 42.2389ZM1266.34 38.9345C1265.44 38.9975 1264.39 38.9916 1263.32 39.0062C1261 39.0381 1258.6 39.1665 1257.61 40.3166C1259.3 40.204 1261.55 40.3324 1263.4 40.1043C1264.67 39.9474 1265.76 39.6218 1266.34 38.9345ZM1118.63 49.0014C1115.08 50.4985 1126.27 50.2434 1122.95 48.8996C1122.79 48.8376 1118.81 48.9319 1118.63 49.0014ZM1201.84 41.0147C1197.79 39.7072 1200.01 44.6163 1202.82 43.1025C1202.98 43.0135 1202.02 41.0743 1201.84 41.0147ZM-15.2997 49.9715C-15.269 49.5319 -14.1488 49.2182 -12.5257 48.9642C-11.2886 48.7707 -9.77419 48.6147 -8.31306 48.4839C-6.50355 48.3218 -4.77539 48.2008 -3.8879 48.1099C-3.75463 48.0962 -3.64037 48.0831 -3.54776 48.0707C-3.60724 48.1546 -3.71335 48.2423 -3.85912 48.3326C-4.58852 48.7834 -6.30584 49.2989 -8.152 49.7111C-9.58088 50.0297 -11.0878 50.285 -12.3412 50.4054C-14.0992 50.5752 -15.3235 50.4788 -15.2997 49.9715ZM1270.96 33.9403C1268.31 32.1421 1265.38 32.2901 1262.88 32.9941C1259.8 33.8626 1257.36 35.5788 1256.89 35.5497C1256.05 35.4944 1257.22 33.4597 1257.03 33.421C1256.78 33.378 1253.97 33.5992 1251.41 33.8299C1249.34 34.0175 1247.44 34.2122 1247.25 34.2859C1246.95 34.4123 1248.75 37.0327 1246.96 38.0176C1247.85 37.5642 1249.56 37.2166 1251.63 36.9424C1255.16 36.475 1259.74 36.2187 1263.1 36.0271C1265.56 35.8871 1267.37 35.7837 1267.63 35.6683C1268.26 35.3777 1263.15 32.8808 1270.95 33.9411C1270.95 33.9408 1270.96 33.9406 1270.96 33.9403ZM1254.75 35.1024C1256.36 35.7922 1253.81 36.2837 1251.59 36.4072C1250.63 36.4608 1249.74 36.4456 1249.27 36.3492C1247.27 35.9319 1249.36 35.5403 1251.51 35.3071C1253.05 35.1403 1254.62 35.0542 1254.75 35.1024ZM1239.61 35.068C1238.88 34.8595 1232.38 35.0501 1231.9 36.3595C1235.09 37.8137 1241.28 35.5589 1239.61 35.068ZM1166.36 40.5408C1166.23 40.5629 1166.1 40.5802 1165.95 40.5936C1164.04 40.7643 1160.07 40.3146 1159.92 41.3625C1161.29 41.1172 1164.8 41.51 1165.97 40.9559C1166.19 40.8533 1166.33 40.7182 1166.36 40.5408ZM18.7177 36.2277C15.8395 35.5817 22.2454 34.5474 24.2185 34.7966C24.387 35.5274 18.9517 36.2849 18.7177 36.2277ZM1200.43 30.4179C1200.07 30.3349 1197.64 30.5155 1194.45 30.8406C1191.48 31.1418 1187.86 31.5694 1184.57 32.0023C1180.27 32.5679 1176.55 33.1358 1175.45 33.43C1176.58 33.6656 1180.35 33.5553 1184.67 33.3105C1188 33.122 1191.65 32.8579 1194.58 32.611C1197.62 32.3548 1199.88 32.1153 1200.19 31.9655C1200.46 31.8224 1200.57 30.4616 1200.43 30.4179ZM1244.77 27.011C1246.51 25.2471 1247.85 27.1309 1248.09 27.1397C1248.87 27.172 1249.93 27.1136 1250.95 27.0859C1252.94 27.0322 1254.79 27.0953 1254.18 28.1873C1253.29 28.1101 1252.19 28.1766 1251.03 28.2918C1246.86 28.7076 1242.04 29.7531 1244.77 27.011ZM1164.32 33.2489C1160.64 33.8842 1162.91 34.3732 1165.43 34.4216C1167.52 34.4614 1169.78 34.1989 1168.93 33.4909C1168.84 33.4208 1166.7 33.2547 1165.34 33.2233C1164.87 33.2128 1164.5 33.2181 1164.32 33.2489ZM1202.83 29.7741C1203.04 29.5758 1203.63 29.3991 1204.49 29.2439C1204.49 29.2439 1204.49 29.2439 1204.49 29.2439C1206.91 28.8017 1211.6 28.5282 1216.17 28.3484C1221.12 28.1541 1225.96 28.0643 1227.83 27.9745C1227.97 27.9677 1228.1 27.9609 1228.2 27.9541C1228.08 28.0666 1227.97 28.1713 1227.85 28.2685C1225.21 30.4453 1222.77 28.8994 1218.99 29.2618C1217.93 29.3669 1218.28 30.3652 1218.16 30.3742C1216.32 30.5401 1217.63 29.277 1216.49 29.3325C1216.45 29.3346 1216.36 29.344 1216.24 29.3595C1214.8 29.5424 1207.95 30.5852 1204.58 30.5658C1204.58 30.5658 1204.58 30.5658 1204.58 30.5658C1203.07 30.56 1202.21 30.3539 1202.83 29.7741ZM1245.75 25.8041C1246.16 25.4117 1248.29 24.9843 1250.78 24.6167C1254.73 24.0338 1259.56 23.5961 1259.88 23.7265C1262.47 24.7752 1255.91 25.4747 1250.86 25.7351C1248.27 25.8695 1246.09 25.8924 1245.75 25.8041ZM1200.69 27.7379C1201.34 26.8254 1202.82 26.2978 1204.29 26.0675C1207.57 25.5453 1211.13 26.5418 1206.32 27.8431C1206.03 27.9198 1205.29 27.7542 1204.39 27.6137C1204.39 27.6138 1204.39 27.6137 1204.39 27.6137C1203.24 27.4408 1201.81 27.312 1200.69 27.7379ZM1164.82 30.4883C1164.46 30.4377 1157.41 30.4345 1157.38 31.3409C1158.1 31.537 1163.41 31.3422 1165.15 30.9848C1165.8 30.8514 1165.94 30.698 1165.11 30.5387C1165.03 30.5219 1164.93 30.5051 1164.82 30.4883ZM1168.25 27.1299C1168.08 27.1657 1169.89 28.7644 1166.54 28.8231C1166.37 28.8244 1166.05 28.1116 1164.89 27.7981C1164.15 27.5984 1163.07 27.5606 1161.49 27.9694C1160.66 28.1849 1159.47 29.5819 1159.57 29.6548C1160.93 30.477 1163.03 30.4212 1165.07 29.984C1169.81 28.9688 1174.26 25.9136 1168.25 27.1299ZM1245.87 24.2022C1245.14 23.4217 1246.61 20.8586 1248.17 22.0001C1248.84 22.4932 1247.76 24.0459 1245.87 24.2022ZM1142.69 31.331C1146.7 29.5783 1133.77 30.1308 1133.12 30.5451C1133.6 31.4493 1142.28 31.5073 1142.69 31.331ZM24.1311 24.1093C24.1277 24.1096 24.1244 24.11 24.121 24.1103C27.7395 24.0837 25.6439 25.5423 25.8149 25.5641C30.7087 26.2124 31.6937 25.4507 31.9936 24.6749C32.1783 24.207 32.1249 23.7343 32.5725 23.5652C35.1336 22.5966 35.0222 26.0346 39.3688 24.2052C32.1757 26.9844 38.8117 25.4749 39.1377 26.6672C39.91 29.5831 36.132 28.497 32.2689 27.4754C29.6894 26.7929 27.0764 26.1352 25.6946 26.693C25.2091 26.8864 29.0448 28.091 27.8137 28.6675C26.951 29.0697 25.647 29.0927 24.277 28.8798C19.3481 28.1106 13.5062 24.2656 23.7932 24.1132C23.9039 24.1115 24.0165 24.1102 24.1311 24.1093ZM1249.3 21.7061C1249.51 21.4818 1249.95 21.3014 1250.54 21.1608C1254.05 20.3257 1262.69 20.8919 1259.99 22.1159C1259.64 22.2755 1253.63 23.1131 1250.66 22.8586C1249.32 22.745 1248.6 22.4132 1249.3 21.7061ZM672.37 28.9293C672.801 28.7688 673.033 28.5952 673.11 28.4182C673.146 28.3355 673.148 28.252 673.12 28.1688C672.794 27.1751 668.28 26.2126 667.231 26.9445C666.574 27.4055 671.034 29.4262 672.37 28.9293ZM624.234 21.3347C623.097 21.3614 621.913 21.9028 620.978 22.6056C619.082 24.0315 618.207 26.1221 620.814 25.9212C620.919 25.9132 621.029 25.9014 621.145 25.8858C621.616 25.82 624.603 22.083 624.234 21.3347ZM855.802 31.9568C852.15 30.0481 852.338 33.5402 855.032 33.5135C855.984 33.5044 855.917 32.0172 855.802 31.9568ZM715.612 28.4805C715.245 28.3435 710.924 28.3902 711.049 29.1984C712.624 29.7442 717.991 29.4149 715.612 28.4805ZM856.971 31.4691C855.691 31.8286 856.446 32.858 857.832 33.1503C858.805 33.3557 860.089 33.1967 861.193 32.1854C860.285 32.3156 858.792 31.9196 857.843 31.6642C857.379 31.5395 857.044 31.4485 856.971 31.4691ZM1192 20.639C1190.54 21.8945 1186.78 22.1493 1183.78 22.4564C1183.02 22.5347 1182.3 22.6162 1181.68 22.718C1181.51 22.0986 1182.39 21.7177 1183.7 21.4652C1186.25 20.9733 1190.53 20.9733 1192 20.639ZM639.123 24.1626C638.714 24.3007 638.457 24.4425 638.32 24.582C638.152 24.7524 638.164 24.9194 638.297 25.0723C638.963 25.8383 642.682 26.2495 642.259 24.9594C642.171 24.8614 639.257 24.1132 639.123 24.1626ZM974.337 30.5068C971.933 31.6629 979.665 32.9983 977.506 31.0938C977.4 31.0168 974.469 30.4428 974.337 30.5068ZM1007.98 30.371C1007.71 30.323 1007.31 30.2892 1006.83 30.2694C1004.05 30.1561 998.741 30.508 1001.37 31.3638C1001.72 31.477 1005.05 31.4392 1006.85 31.0087C1007.5 30.8518 1007.95 30.643 1007.98 30.371ZM32.6593 22.2133C31.4238 20.4151 37.5314 20.2807 38.4555 20.5341C38.803 20.6388 34.2411 24.5495 32.6593 22.2133ZM832.027 31.3957C830.135 31.6085 825.213 31.0782 824.322 32.0636C826.664 31.8965 832.623 33.3988 832.027 31.3957ZM654.392 24.851C651.566 22.6501 646.576 22.6276 647.684 25.3893C653.198 25.4574 647.113 22.9276 654.392 24.851ZM869.207 29.3115C867.686 29.1466 866.507 31.7415 866.678 31.8649C868.322 33.0394 870.715 30.33 869.207 29.3115ZM755.232 29.0219C755.187 27.9084 750.263 28.2252 750.889 28.9649C751.095 29.2136 755.271 29.924 755.232 29.0219ZM1128.23 24.8065C1127.26 24.4307 1127.93 23.9606 1129.17 23.6275C1130.84 23.1813 1133.55 22.9784 1134.74 23.5833C1135.59 24.8706 1131.29 24.9565 1129.25 24.8809C1128.68 24.8604 1128.29 24.828 1128.23 24.8065ZM911.434 29.9292C911.652 28.2799 904.025 29.2507 907.039 30.6031C907.793 30.9421 911.358 30.4816 911.434 29.9292ZM984.549 26.9245C979.459 29.0108 1001.04 29.9126 995.319 27.5906C994.91 27.4284 984.99 26.7515 984.549 26.9245ZM1019.77 27.263C1018.87 27.0715 1019.16 21.5189 1022.88 23.5489C1023.37 23.812 1021.16 25.3422 1021.57 25.6657C1021.81 25.8515 1029.78 26.3929 1030.14 26.2507C1030.53 26.0918 1030.01 24.3302 1030.4 24.1188C1030.84 23.8829 1035.79 25.291 1038.37 25.2245C1042.69 25.1113 1043.55 23.9125 1043.97 23.638C1044.02 23.6041 1044.06 23.5842 1044.11 23.5822C1045.27 23.5339 1047.24 24.5184 1049.57 24.4365C1052.98 24.3152 1056.93 24.0636 1061.04 23.8325C1066.74 23.5127 1072.73 23.2308 1078.07 23.4004C1082.08 23.528 1085.71 23.9109 1088.58 24.7305C1085.03 24.3577 1081.57 24.448 1078.13 24.7312C1073.51 25.1112 1068.94 25.8387 1064.22 26.2576C1065.2 24.896 1063.14 25.2242 1061.11 25.7358C1058.41 26.4182 1055.78 27.4298 1060.56 25.2138C1058.89 25.6053 1051.9 26.1684 1044.06 26.6117C1033.37 27.22 1021.48 27.605 1019.78 27.2627C1019.77 27.2628 1019.77 27.2629 1019.77 27.263ZM610.411 19.0854C611.943 17.8742 607.31 17.4224 603.819 17.9235C602.182 18.159 600.811 18.606 600.472 19.2883C600.968 19.4184 602.25 19.4607 603.738 19.4513C606.619 19.4335 610.228 19.2177 610.411 19.0854ZM661.959 16.9037C663.01 16.6226 664.154 12.9708 669.508 15.0805C669.513 15.0807 669.518 15.0809 669.523 15.0811C671.089 15.6972 669.239 16.5196 669.516 16.8531C669.616 16.9889 674.497 19.0408 670.365 19.1592C664.064 19.3411 669.892 16.3842 666.546 16.1999C666.136 16.1797 659.715 17.9025 660.064 18.3574C660.1 18.4103 662.024 18.071 662.331 18.2673C663.49 19.0056 662.86 20.1343 663.026 20.1966C663.466 20.3309 670.208 19.3479 673.474 19.9226C674.231 20.056 674.801 20.2735 675.062 20.6085C675.156 20.7281 674.512 20.8478 673.429 20.9594C669.315 21.3845 658.871 21.6811 658.375 21.4295C657.978 21.2301 658.291 18.034 657.886 17.7004C657.818 17.6467 657.082 17.7044 656.087 17.796C653.99 17.9891 650.744 18.3313 650.172 18.1052C649.927 18.0087 649.741 17.9083 649.605 17.8263C650.559 18.8631 644.582 18.5192 644.817 17.4088C644.941 16.9743 649.044 17.4167 649.188 17.4999C649.252 17.5354 649.306 17.5828 649.357 17.6161C648.918 16.9314 652.925 16.8301 656.142 16.5545C658.782 16.3286 660.889 15.9864 659.568 15.1164C663.654 14.3099 658.877 17.7284 661.959 16.9037ZM681.505 15.7643C681.072 16.0836 680.639 16.4029 680.207 16.7221C683.639 16.4694 687.303 16.7934 691.094 17.2332C695.176 17.7068 699.408 18.3146 703.652 18.4817C705.731 18.566 703.422 16.4075 706.126 17.0819C706.999 17.2997 707.901 17.7562 708.587 18.2484C709.608 18.9774 710.154 19.7846 709.431 20.0101C709.357 20.0339 709.02 19.9609 708.523 19.8391C707.052 19.4782 704.172 18.6877 702.507 18.7152C695.931 18.8246 697.515 20.6594 697.13 20.6915C696.741 20.7215 693.319 19.5504 691.008 19.3134C690.783 19.2903 690.569 19.2761 690.369 19.2727C684.697 19.1797 682.062 20.157 674.391 18.4098C678.902 17.4353 676.565 14.8013 681.505 15.7643ZM943.629 24.6164C943.881 23.5002 948.497 24.4251 950.168 24.2364C949.922 25.3567 945.299 24.4316 943.629 24.6164ZM247.954 3.65911C247.476 4.25221 248.32 4.68604 249.588 4.95502C252.256 5.52071 256.877 5.36819 254.818 4.35015C254.313 4.1019 251.543 3.83361 249.574 3.7194C248.899 3.67987 248.317 3.65788 247.954 3.65911ZM297.311 4.69371C298.764 4.19233 292.925 2.86159 292.932 4.27616C292.94 4.72931 297.124 4.75856 297.311 4.69371ZM773.077 21.1955C773.347 21.148 777.22 21.6851 777.338 21.7814C779.852 23.8089 767.088 22.2536 773.077 21.1955ZM356.564 2.82865C354.005 3.4073 356.614 3.86471 359.231 3.97526C361.799 4.08366 364.374 3.85811 362.078 3.07656C361.96 3.0373 360.588 2.95853 359.243 2.89874C357.952 2.84136 356.683 2.80137 356.564 2.82865ZM377.74 2.73918C376.535 2.78716 371.152 2.12593 371.072 2.68296C370.957 3.58041 377.116 4.27153 377.74 2.73918ZM870.263 22.4143C869.702 20.3546 876.61 21.9391 879.017 21.6825C879.584 23.7447 872.666 22.1666 870.263 22.4143ZM826.707 20.4652C855.763 19.2262 849.317 23.561 824.949 21.4399C824.936 20.1188 824.861 20.5381 826.707 20.4652ZM863.952 21.109C862.973 22.3138 860.107 22.0662 857.914 21.922C857.718 21.9091 857.527 21.8971 857.343 21.887C857.416 21.7244 857.621 21.6023 857.918 21.5102C859.289 21.085 862.625 21.2966 863.952 21.109ZM234.493 1.06128C235.171 0.453041 236.705 0.299706 238.334 0.389763C241.276 0.551338 244.529 1.51122 243.544 1.96864C243.36 2.04824 240.737 2.04426 238.363 1.90065C236.156 1.76649 234.16 1.50984 234.493 1.06128ZM775.579 19.5175C775.03 17.6968 782.036 18.4104 783.91 18.9053C784.117 18.9603 784.262 19.0128 784.327 19.0591C785.079 19.5926 784.75 19.826 783.879 19.8966C781.696 20.0749 776.096 19.2198 775.579 19.5175ZM911.664 20.614C913.203 19.0373 917.602 19.8147 920.43 19.8123C919.152 21.1642 914.063 20.629 911.664 20.614ZM891.263 19.457C891.403 19.4095 893.882 19.4843 895.01 19.5524C895.313 19.5707 895.519 19.5886 895.556 19.6038C896.654 20.122 896.092 20.4217 895.012 20.5401C892.916 20.7705 888.872 20.3126 891.263 19.457ZM17.6933 9.62733C17.8144 9.56426 20.8484 9.35595 20.9653 9.40339C23.8125 10.627 14.7162 11.2432 17.6933 9.62733Z" fill="#C2D85C"/>
</svg>
