<svg width="226" height="34" viewBox="0 0 226 34" fill="none" xmlns="http://www.w3.org/2000/svg">
<path d="M17.1846 33.3114C17.3372 33.2638 17.8874 33.3375 18.1458 33.3084C17.8872 33.7502 16.684 33.4817 17.1846 33.3114ZM40.9795 1.26793C40.779 1.38004 40.5787 1.49218 40.3783 1.60435C40.9587 1.65593 41.7339 1.55517 42.2739 1.64033C42.3621 1.65469 42.1433 1.96843 42.3514 1.97612C42.5596 1.98374 42.5074 1.56516 42.8084 1.51157C43.146 1.45257 44.7072 1.70123 45.2448 1.6796C46.0972 1.6442 46.9515 1.57134 47.8075 1.50871C48.9707 1.42359 50.1364 1.3574 51.3014 1.42997C49.2262 1.79118 51.3325 2.05589 51.9123 1.90777C52.0408 1.87382 52.0017 1.09284 54.0969 1.2422C55.4286 1.3378 54.2254 2.47973 56.4302 1.87372C54.8631 1.196 56.1129 1.1506 57.3582 1.10824C57.4809 1.10407 57.6035 1.09993 57.7233 1.0952C57.9539 1.08572 59.8179 1.1669 60.6402 1.11787C60.9214 1.10076 61.3431 0.684307 61.7166 0.667123C61.9736 0.655604 62.1718 0.875777 62.5533 0.857997C64.0179 0.792005 65.4634 0.750898 66.9246 0.767715C67.2381 0.771324 67.5525 0.7776 67.8677 0.786876C66.8394 1.85113 68.6912 1.22401 68.7757 1.27354C69.2039 1.55338 67.2838 1.65889 68.0459 1.82768C69.1073 1.78152 70.1679 1.73662 71.2307 1.693C70.3557 1.57306 72.3784 0.796112 72.7572 1.13694C72.6422 0.521289 74.8275 1.0598 76.512 1.404C77.3663 1.57784 78.0992 1.70115 78.3537 1.59575C78.5118 1.5298 77.4732 1.07473 79.8771 1.27493C80.1376 1.29735 80.0403 1.57783 80.1768 1.55126C80.2584 1.53528 80.7497 0.643249 81.2797 1.13398C81.4736 1.31343 80.2406 1.89996 82.9514 1.66024C81.8672 0.753955 86.7157 1.16717 87.6105 1.39909C87.4323 1.27694 87.2541 1.15482 87.0757 1.03274C87.9583 1.36291 88.1179 1.05543 88.3168 1.07271C89.1182 1.14227 90.217 1.45689 90.9613 1.43206C91.8324 1.40362 91.8381 0.839978 92.8517 1.06499C92.6117 0.939224 92.3716 0.813516 92.1314 0.687865C92.8323 0.721593 93.533 0.755817 94.2333 0.790524C92.6062 1.52594 94.583 0.828265 94.713 0.81339C94.9204 0.787721 94.6206 1.091 94.9673 1.05547C95.0032 1.04949 94.9534 0.761426 95.4879 0.733148C96.605 0.675325 96.4254 1.03572 96.8941 1.03552C96.937 1.03406 96.7889 0.773528 97.5987 0.71938C100.172 0.548293 97.5842 0.917519 97.4852 0.952762C97.3552 0.999053 98.2272 2.08891 96.0466 1.68678C96.7791 1.81493 96.8486 2.29485 96.9311 2.30741C97.0041 2.31767 98.2744 2.26159 98.3445 2.24589C98.9702 2.08912 98.4241 1.75644 98.5463 1.69893C98.6466 1.65239 100.171 2.09442 100.541 1.11366C101.263 2.03012 100.11 1.93386 98.8821 2.06157C98.7014 2.24613 100.047 2.44091 100.117 2.44131C101.856 2.4584 100.902 1.70084 101.287 1.22733C101.339 1.16351 101.425 1.15051 101.512 1.1548C101.762 1.16717 102.026 1.32296 101.546 0.82005C103.125 0.767632 102.163 1.1448 102.265 1.2034C102.417 1.2896 102.972 1.10423 103.041 1.13068C103.142 1.16979 102.786 1.39744 103.185 1.48405C103.251 1.49675 103.901 1.10555 103.072 0.904475C104.182 0.974973 104.094 0.633654 104.462 1.32444C105.244 0.0367393 105.007 2.09886 105.306 2.1756C106.104 2.37818 105.886 1.35618 105.929 1.30705C106.225 0.992311 108.435 1.37459 108.985 1.23667C108.757 1.96699 107.23 1.21807 106.883 1.35568C105.729 1.81273 108.495 1.74611 107.648 2.65609C108.001 2.40802 108.354 2.16005 108.707 1.91217C109.338 2.51501 108.426 2.75907 110.152 2.56977C110.442 2.0625 108.932 2.63122 109.24 2.23298C109.421 1.99911 110.421 1.9643 110.443 1.83998C110.465 1.69012 109.559 1.85357 109.705 1.62497C110.024 1.131 113.31 1.66065 110.798 1.89071C111.498 1.89372 111.841 2.8909 112.452 2.59253C112.848 2.39903 110.666 0.991542 113.97 1.30066C114.033 1.7698 112.645 1.41536 112.608 1.45048C112.557 1.50144 112.79 2.56187 112.833 2.61476C112.984 2.78834 116.372 2.28449 117.075 2.82975C116.805 2.21354 119.627 2.77124 119.94 2.59218C120.023 2.54253 119.724 2.16235 119.812 2.12459C120.365 1.90023 121.832 2.59885 122.519 2.63118C123.287 2.66751 123.197 2.34258 123.24 2.34411C123.577 2.36957 123.302 2.5825 123.509 2.58645C123.822 2.59203 125.967 2.68538 126.076 2.64242C126.108 2.62892 125.766 2.25202 126.235 2.19284C126.272 2.18821 126.28 2.27479 126.405 2.35658C126.558 2.45573 126.883 2.54776 127.645 2.46215C129.318 2.27444 126.499 1.89101 127.203 1.44949C128.259 2.12671 128.24 1.4799 128.529 1.53754C128.63 1.55842 129.365 2.12565 130.179 2.11078C129.593 2.18569 129.008 2.26077 128.422 2.33601C128.993 2.44597 130.11 2.35377 130.58 2.47425C130.809 2.53289 130.608 2.97947 131.109 2.97964C131.216 2.97727 131.665 1.88812 130.341 2.34919C130.245 1.95403 130.863 2.22498 131.156 2.12112C131.2 2.1049 131.389 1.45332 131.749 1.87013C131.835 1.97275 130.821 3.86134 133.348 2.5395C133.429 2.49691 133.156 2.25023 133.236 2.20256C133.29 2.17027 133.924 2.28339 133.995 2.25122C134.068 2.21658 133.767 1.94716 133.854 1.89788C134.3 1.64388 134.849 2.69611 133.947 2.59385C134.246 2.7298 134.545 2.86579 134.844 3.00182C134.54 2.2116 135.324 2.79408 135.743 2.78093C138.428 2.69743 136.646 2.14178 137.114 1.89078C137.867 1.488 137.265 2.8109 138.376 2.4382C138.479 2.40342 137.164 1.79962 139.752 2.18996C139.368 2.20172 138.985 2.21352 138.601 2.22538C138.801 2.98747 139.986 2.21077 140.076 2.20263C141.098 2.12656 140.401 2.38028 141.925 2.03241C142.062 2.00117 142.351 2.19592 142.642 2.11083C143.851 1.76045 141.068 1.83438 141 1.52636C140.968 1.37512 143.956 1.49551 144.057 1.56985C144.484 1.89772 142.698 1.67116 143.029 2.07268C143.15 2.2149 147.415 2.04887 148.264 2.22634C149.245 2.43209 149.658 3.47015 149.698 2.31836C149.943 3.45714 150.211 2.69274 150.337 2.70417C150.711 2.74077 150.993 2.76908 151.225 2.78991C151.937 2.85374 152.181 2.84723 153.168 2.79436C153.457 2.77926 153.69 3.12948 153.794 3.07453C153.854 3.04128 153.754 2.67088 154.048 2.56612C154.456 2.42292 156.871 2.87204 157.046 3.08037C157.22 3.28865 156.019 3.13814 156.225 3.47821C157.096 3.53766 157.934 3.47984 158.811 3.54101C159.175 3.56742 158.98 3.79542 159.138 3.80473C159.205 3.80959 160.469 3.64126 160.418 3.55354C160.3 3.34943 156.409 3.36899 157.445 2.99056C157.644 2.91741 158.326 3.47627 158.234 2.81853C161.703 3.06974 165.168 3.32172 168.631 3.57262C166.624 4.00322 164.394 3.49875 162.304 3.48256C162.018 3.47971 161.052 3.38784 161.16 3.72212C162.934 3.86052 165.146 3.75385 166.844 4.01994C166.898 4.02869 166.689 4.31995 166.892 4.3731C167.272 4.47234 168.529 4.02982 168.734 4.15994C168.769 4.18987 168.05 4.56074 168.258 4.81609C168.791 5.47139 168.973 4.06034 169.448 4.09112C169.814 4.11559 172.261 4.87242 172.888 4.45797C173.554 4.01631 171.078 4.13722 171.272 3.76576C172.857 3.45529 174.441 3.8402 175.94 3.8843C176.032 3.887 176.124 3.88843 176.215 3.88833C176.243 3.88793 176.01 3.58572 176.363 3.55457C176.978 3.50035 177.127 3.92375 177.423 3.99932C177.743 4.0799 178.882 4.05237 179.03 4.20937C179.049 4.22994 178.807 4.63878 178.771 4.64946C178.271 4.80655 178.11 4.26235 178.065 4.25414C177.896 4.22886 177.724 4.43059 177.57 4.41386C177.316 4.38605 177.181 4.19098 176.846 4.16445C176.615 4.14543 176.828 4.51876 176.605 4.49555C176.555 4.48945 176.215 4.16604 175.934 4.10797C175.754 4.07081 175.597 4.14228 175.555 4.47502C175.551 4.5121 175.684 4.55465 175.92 4.59991C177.392 4.8836 182.844 5.26947 183.472 5.09999C182.855 4.98003 182.238 4.85995 181.621 4.73976C182.873 5.02539 184.403 4.38363 184.483 5.39746C189.147 5.60813 193.806 5.81171 198.463 6.00381C199.293 6.10936 198.822 6.7486 200.195 6.59098C199.846 6.37591 199.497 6.16077 199.148 5.94557C199.392 6.00201 199.93 6.08214 200.547 6.15703C201.697 6.29659 203.124 6.4174 203.453 6.3372C203.519 6.32102 203.622 5.73503 204.399 5.70104C205.088 5.67101 205.19 6.11386 205.556 6.20593C205.864 6.28199 206.214 6.17366 206.305 6.19985C206.375 6.22077 206.397 6.49076 206.566 6.54119C207.097 6.69727 206.679 5.92992 207.193 6.81172C207.063 6.84233 206.933 6.87292 206.803 6.90351C207.445 7.04265 208.32 7.4555 207.365 7.63177C207.201 7.66218 207.346 7.40433 207.224 7.40234C202.447 7.35232 206.252 7.93893 207.933 7.56684C208.355 7.96196 210.768 7.77174 210.846 7.84897C210.956 7.96125 210.538 8.26237 211.073 8.53881C211.186 8.59801 214.409 8.4377 213.241 8.93086C213 9.0328 211.458 8.89425 211.086 8.90239C211.947 9.73737 214.02 8.59982 214.25 8.63347C215.18 8.77668 212.449 9.31289 214.546 9.44321C216.158 9.54258 214.652 8.97126 215.277 8.74802C215.628 8.62303 217.443 9.25345 217.405 8.47265C218.032 8.39875 217.66 8.80619 217.737 8.83704C217.812 8.86438 219.047 8.64888 219.444 8.8187C219.492 8.83982 219.334 9.24303 219.384 9.2769C219.48 9.33517 220.67 9.27029 220.718 9.23646C220.748 9.213 220.47 8.85435 220.587 8.76983C220.724 8.6725 221.865 8.77075 221.93 8.66998C222.02 8.51786 220.609 8.6007 220.849 8.20682C221.498 8.3154 222.56 8.06375 222.992 7.7493C222.886 7.83943 222.256 7.84488 222.038 7.80991C222.148 7.23012 223.5 7.25426 223.032 7.70875C223.329 7.46517 223.13 7.33172 223.298 7.10051C223.342 7.04197 223.76 7.03465 223.841 6.93491C223.852 6.915 223.424 6.69071 223.512 6.57365C223.67 6.36228 224.935 6.42438 225.038 6.48132C225.327 6.6431 224.294 6.82384 224.205 7.06795C224.192 7.10552 225.065 7.5956 225.078 7.63811C225.124 8.09399 224.15 7.7552 224.258 8.16631C224.498 8.2556 224.739 8.34483 224.98 8.43401C224.043 8.83939 222.32 8.60528 221.87 9.07162C223.254 8.94867 224.701 8.98101 224.686 10.0443C224.681 10.4921 224.08 10.748 224.102 10.8621C224.186 11.2706 225.02 10.837 225.05 10.8588C225.328 11.1385 223.905 11.3186 223.839 11.4373C223.737 11.6297 224.255 12.432 224.252 12.6081C224.233 12.6433 223.388 12.8222 223.669 13.1328C223.953 13.4466 224.691 13.4617 224.717 13.4942C224.856 13.6815 223.563 13.8365 223.523 13.9457C223.502 14.0009 224.192 14.3495 224.211 14.4477C224.227 14.5462 223.697 14.7547 223.486 15.0625C223.328 15.2912 223.778 15.4732 223.698 15.5084C223.641 15.5318 222.42 15.5134 222.36 15.5531C222.269 15.6119 222.552 15.8909 222.51 15.9592C222.449 16.0576 222.056 15.9533 222.106 16.0559C222.144 16.1325 223.662 17.1003 223.649 17.3537C223.627 17.7863 222.018 16.7716 223.506 18.4967C223.516 18.5081 223.885 18.3909 223.895 18.4015C224.118 18.7182 222.935 19.1881 224.376 19.1199C221.69 19.6348 224.035 19.7666 223.63 20.4905C223.474 20.7689 222.433 20.872 222.428 20.9139C222.524 21.2703 222.859 20.9988 222.97 21.1743C223.03 21.2724 222.096 21.6368 222.302 21.8831C222.409 22.0102 223.397 21.9772 223.438 22.0021C223.826 22.2379 223.344 22.4814 223.428 22.6466C223.483 22.7574 224.08 22.7729 224.095 22.7929C224.12 22.8345 223.305 23.2702 223.134 23.4245C223.004 23.5434 223.484 23.7375 223.394 23.7889C222.85 24.0965 221.712 23.2823 222.805 24.4168C222.871 24.4864 223.29 24.4636 223.302 24.4774C223.557 24.7982 222.786 24.8167 222.645 25.0752C222.403 25.5207 223.514 25.2839 222.589 25.5882C223.277 25.8897 223.663 25.8819 224.473 25.8091C222.23 26.0119 221.424 27.1623 223.914 27.1624C223.122 27.1353 223.202 27.7912 222.966 27.8C222.818 27.8048 221.678 27.1394 222.187 28.6071C222.251 28.7905 222.951 28.5669 222.728 28.9379C221.054 28.8222 222.69 29.1753 222.691 29.2246C222.659 30.0863 218.573 29.3279 217.868 29.4143C217.051 29.5162 216.315 30.1831 216.138 30.1812C215.554 30.1724 216.044 29.8356 215.915 29.707C215.785 29.5796 214.114 30.2125 214.032 30.1747C213.713 30.0238 214.046 29.6212 214.013 29.6C213.619 29.3437 211.386 29.6245 210.764 29.5179C210.778 29.7831 212.03 29.8265 211.241 30.2376C210.321 30.7168 210.29 29.5488 210.267 29.4971C206.85 29.4431 203.434 29.3809 200.021 29.3124C199.268 29.2973 198.515 29.2818 197.763 29.2661C197.789 29.7106 199.193 29.631 200.015 29.579C200.343 29.5583 200.578 29.5421 200.595 29.5658C200.688 29.6952 200.438 29.7829 200.009 29.8374C198.806 29.9905 196.2 29.8812 195.788 29.7094C196.213 29.8538 196.639 29.9982 197.064 30.1425C196.315 30.8388 194.717 29.8724 193.651 30.161C193.306 30.2546 193.956 30.5464 193.942 30.5648C193.551 30.8325 192.939 30.6035 193.41 30.2429C192.463 30.576 192.61 30.186 191.89 30.1382C191.853 30.136 192.155 30.4319 191.583 30.5368C191.314 30.5858 189.891 30.55 189.694 30.7968C189.612 30.9009 190.306 32.0363 190.42 31.0775C191.956 31.5858 190.926 30.6522 191.527 30.6897C191.619 30.697 191.393 31.2284 192.914 31.014C192.602 31.9743 190.875 31.2065 190.573 31.3159C189.95 31.541 192.479 32.1058 192.964 31.363C192.727 32.1125 193.142 31.4693 193.708 31.5144C194.327 31.5635 194.052 31.7816 194.387 31.7911C195.305 31.8193 194.938 31.277 195.683 31.7759C194.981 30.2707 196.984 31.611 197.567 32.0143C196.601 32.0671 195.634 32.1194 194.668 32.1712C194.721 32.2507 194.775 32.3301 194.828 32.4096C194.574 32.3923 194.32 32.375 194.067 32.3576C194.109 32.2838 194.152 32.2099 194.194 32.1361C192.872 32.5903 192.567 32.0351 192.46 32.0264C191.087 31.9283 189.5 31.8919 188.111 31.8534C187.903 31.8476 188.033 32.3384 186.525 31.9167C186.043 31.7824 186.511 31.416 185.96 31.458C185.246 32.4685 185.281 31.6481 185.077 31.6412C184.491 31.6255 184.126 31.8706 184.072 31.8718C183.348 31.8918 182.289 31.8199 181.493 31.8357C181.478 31.8391 181.883 32.1668 181.369 32.0589C181.189 32.0204 179.601 30.6255 178.169 31.0249C178.535 31.1265 178.902 31.2281 179.269 31.3296C178.838 31.1903 175.785 31.4432 176.519 31.8257C176.968 32.0596 178.107 31.2216 178.206 32.0615C177.773 31.9414 176.488 31.9127 175.131 31.902C173.335 31.888 171.411 31.9055 171.167 31.7875C171.107 31.758 171.486 31.4975 171.404 31.4603C171.34 31.432 170.058 31.4587 169.891 31.3495C169.792 31.2846 170.362 31.1349 170.319 31.0357C170.281 30.9649 168.686 30.8016 168.584 31.139C168.981 31.0141 170.081 31.1658 169.494 31.4355C169.418 31.4689 169.039 31.2381 168.947 31.2806C168.096 31.6727 170.606 31.6466 170.994 31.6613C169.406 32.0485 166.985 31.4656 165.153 31.694C164.425 31.389 166.259 31.2933 165.432 31.0339C163.717 30.4964 164.96 31.4118 164.905 31.4462C164.467 31.7191 163.049 30.1448 163.014 31.31C162.392 31.1159 162.6 30.975 161.71 31.1012C161.824 31.1854 161.938 31.2695 162.052 31.3537C161.05 31.9994 159.023 30.2349 159.182 30.1096C159.611 29.7744 160.677 30.3488 160.77 30.3385C160.908 30.3233 161.321 29.1522 162.787 30.2539C163.424 29.4791 160.43 29.6481 161.805 29.148C160.884 29.2094 157.125 28.5454 156.572 28.8775C156.506 28.921 156.784 29.72 155.864 29.2903C155.427 29.0858 156.495 29.1081 156.297 28.9221C155.958 28.6033 153.162 28.4945 150.48 28.459C148.359 28.4308 146.31 28.4485 145.599 28.4413C145.495 28.4393 145.54 28.1951 145.438 28.1945C145.122 28.1923 143.964 28.5257 143.403 28.3971C144.559 28.8837 142.289 28.8555 141.714 28.7897C140.84 28.6895 140.906 28.2595 140.53 28.1573C139.082 27.7634 136.796 28.7276 135.689 27.7402C135.726 28.6924 133.744 27.2229 132.825 27.1914C132.105 27.1662 131.045 27.7693 132.007 28.1769C130.766 28.1018 129.454 28.247 128.288 28.2768C128.096 28.2819 128.368 28.0071 128.038 28.0246C128.008 28.0282 127.961 28.3028 127.678 28.3247C125.345 28.5099 126.491 27.9512 126.06 27.7689C125.971 27.7315 125.891 27.7009 125.819 27.6761C125.694 27.6332 125.591 27.6078 125.508 27.5959C125.611 27.5942 125.716 27.5922 125.821 27.5899C127.098 27.5628 128.466 27.5028 128.853 27.505C128.587 27.0259 126.919 27.3174 125.826 27.3876C125.51 27.4078 125.242 27.4096 125.069 27.369C125.043 27.3624 125.144 27.0292 125.117 27.0262C125.116 27.0262 125.116 27.0262 125.115 27.0262C124.825 26.9936 122.969 27.0759 123.342 27.4843C123.442 27.5934 124.294 27.6121 125.307 27.5991C125.031 27.6678 125.227 28.0482 125.178 28.0631C124.588 28.2352 123.162 27.8364 122.654 27.7758C122.538 27.7624 122.541 28.0033 122.522 28.0035C122.06 27.9387 122.265 27.2556 121.775 27.954C120.956 27.0793 123.348 27.861 123.191 27.3012C123.07 26.8685 117.713 26.9859 117.717 27.6626C117.7 27.59 117.628 27.499 117.479 27.3941C117.149 27.1609 115.659 27.203 115.4 27.3226C115.356 27.3463 115.361 28.0015 115.307 28.0066C115.173 28.0189 113.363 27.4719 112.678 27.8473C113.043 27.9456 113.408 28.0439 113.773 28.1423C111.558 28.1085 111.898 28.31 112.632 28.5185C112.668 28.5209 112.704 28.5464 112.739 28.5497C113.308 28.7045 114.038 28.8573 114.049 28.9092C114.086 29.1062 110.331 29.1509 111.063 28.556C111.165 28.4745 112.898 28.7751 112.045 28.3266C111.896 28.248 110.778 28.3529 110.72 28.3042C110.333 27.9796 112.777 27.599 112.488 27.1427C111.888 27.5622 111.133 27.3228 110.452 27.4227C110.143 27.4677 110.062 27.7949 110.023 27.8005C109.453 27.877 109.778 27.5379 109.588 27.5434C109.485 27.5476 108.353 28.2628 108.58 27.256C104.874 27.9442 107.547 27.9815 109.814 27.9612C109.091 28.3174 107.691 28.1178 107.06 28.1941C106.834 28.2218 106.963 28.5609 106.58 28.6228C105.824 28.744 102.347 28.3471 101.205 28.226C101.157 28.2209 101.112 28.2162 101.073 28.212C101.122 28.2028 101.166 28.1919 101.205 28.1796C101.58 28.0622 101.504 27.8195 101.21 27.7622C101.159 27.7523 101.102 27.7479 101.04 27.7507C100.576 27.771 100.96 28.2655 100.869 28.3172C100.771 28.3703 98.6022 28.1162 98.2405 28.1767C99.8766 28.0153 99.5119 27.6453 98.1245 27.5936C98.3261 27.49 98.5277 27.3864 98.7294 27.2829C97.9147 27.4229 96.2088 26.8495 95.7368 27.0123C95.6628 27.0384 95.9255 27.3484 95.8839 27.3631C95.47 27.4904 94.0699 27.1663 94.0038 27.2711C93.9479 27.3581 94.5443 27.6204 94.3215 27.7459C94.275 27.7723 93.7011 27.3521 93.1323 27.451C92.9213 27.4873 93.0464 27.7793 92.9932 27.7958C92.55 27.9333 92.814 27.4444 92.0048 27.5187C91.412 27.5738 90.9679 28.051 90.1516 27.8888C92.8348 28.5124 90.5759 28.2458 89.4558 28.4271C89.2761 28.4561 89.4282 28.985 88.3567 28.7244C90.6423 27.7759 87.7069 28.2166 87.1071 28.2058C87.0742 28.2025 87.0634 27.8538 86.7689 27.8477C86.744 27.848 86.7796 28.0836 86.506 28.1012C83.9118 28.269 85.5705 28.0045 85.0775 27.7717C84.8675 27.6725 83.6053 28.0059 83.2649 28.0144C83.1867 28.0154 83.2221 27.7705 82.9192 27.7804C82.3833 27.7987 81.9036 28.0602 81.5496 28.0817C81.5084 28.083 81.505 27.6967 80.8345 27.8238C80.6459 27.8593 80.4345 27.9972 80.703 28.1074C81.5932 28.4697 83.2769 27.8348 84.2794 28.1994C85.1938 28.5309 82.3121 28.5637 82.1609 28.5668C82.1058 28.5681 82.6689 28.3753 82.0961 28.3384C81.6064 28.3077 80.7153 28.977 79.985 28.8344C79.9295 28.8238 79.3435 28.2604 79.3701 28.2273C79.3945 28.203 80.2897 28.077 80.1589 27.9138C80.1433 27.8952 79.574 27.901 79.499 27.7795C79.4072 27.6315 79.1543 26.1767 79.0322 26.1407C78.7191 26.0519 78.9243 26.3831 78.722 26.3609C78.2885 26.3138 76.78 25.8918 76.7339 26.397C76.983 26.4254 77.2319 26.4538 77.4808 26.4824C77.0392 26.5014 76.7985 26.5361 76.6697 26.5775C76.6699 26.5775 76.6693 26.5775 76.6695 26.5775C76.3944 26.6657 76.6259 26.7844 76.4928 26.8497C76.2824 26.9534 76.3388 26.5095 75.8725 26.471C75.7701 26.4621 73.8252 26.5699 73.863 26.756C74.9352 26.4509 74.5412 27.0025 74.5907 27.0118C74.7794 27.046 75.0179 26.7367 75.2709 26.7409C77.0528 26.7765 75.2591 27.2743 75.6806 27.3962C75.8256 27.4372 76.1124 27.1727 76.174 27.1858C76.3741 27.2279 76.3795 27.5716 76.5127 27.5429C76.8234 27.4765 76.4571 26.9924 76.4815 26.9669C76.5267 26.9168 76.5938 26.8849 76.6713 26.8689C76.6714 26.8689 76.6711 26.8689 76.6715 26.8689C77.068 26.7868 77.7394 27.1204 77.1748 27.5662C77.583 27.7546 77.6269 27.1112 77.9511 27.3666C78.5954 27.8725 77.6339 27.7466 77.3738 27.8327C77.1 27.9238 76.8825 27.9671 76.6783 27.9851C76.6784 27.9851 76.6781 27.9851 76.6785 27.9851C76.1874 28.0285 75.774 27.9255 74.8434 27.9923C74.3688 28.0257 73.8105 28.3429 73.5912 28.362C73.4534 28.3738 72.1374 27.2992 72.1157 29.0009C71.608 28.8413 70.7977 27.7287 70.2737 27.786C69.8036 27.8382 69.9603 28.4383 69.9166 28.4621C69.8499 28.4994 69.2803 28.4588 69.0888 28.5462C68.8646 28.6495 68.98 28.8778 68.6235 28.9759C67.7365 29.2196 67.7517 28.6053 67.6596 28.5665C67.5133 28.5053 67.396 28.4687 67.3018 28.4514C66.7078 28.3421 67.0358 28.997 66.8332 29.0603C66.6154 29.1268 63.5344 28.8372 62.8903 29.0703C63.1517 28.9428 63.4132 28.8154 63.6747 28.6881C63.1967 28.3126 62.7072 28.946 62.6868 28.2591C62.61 29.3699 61.6237 28.6453 61.3316 28.6793C61.2166 28.6932 61.2291 28.882 61.0849 28.8928C60.5221 28.9359 59.2484 28.8096 58.9446 28.9115C57.6311 29.3498 61.0237 29.9706 61.2897 30.0084C60.7571 30.0048 57.7505 30.3119 59.145 30.8182C59.3605 30.8963 59.7299 30.3927 59.8498 30.371C60.6607 30.2279 60.0294 30.6848 60.094 30.7259C60.2036 30.7921 60.7309 30.3522 60.8731 30.4008C60.9205 30.4164 60.6245 30.8246 61.3999 30.8191C61.0258 31.2159 58.8409 30.939 58.5564 31.0369C58.472 31.0659 58.9139 31.6425 57.9703 31.3839C57.7829 31.3326 57.5408 31.2483 57.2289 31.1204C57.2522 31.1974 57.2754 31.2744 57.2986 31.3515C56.2605 31.4048 55.2227 31.4592 54.1844 31.5146C54.2932 31.3336 54.8687 30.9621 54.1355 31.0547C53.7135 31.1083 54.0356 31.4987 53.9972 31.5111C53.757 31.586 50.9417 31.6226 48.5919 31.666C47.2533 31.6904 46.0662 31.7158 45.5936 31.745C45.1508 31.7716 43.9237 32.126 43.8297 32.1347C43.2673 32.1825 41.2654 32.0335 40.8683 32.0909C40.6205 32.1273 40.867 32.4524 40.6444 32.4435C40.4375 32.4348 40.6416 32.1073 40.5799 32.0957C40.411 32.0624 39.8787 32.0987 39.2077 32.1529C37.8466 32.2626 35.9155 32.447 35.2945 32.2645C35.858 32.3365 38.6339 31.606 38.5706 31.3818C38.5575 31.3511 37.8701 31.1282 37.7336 31.2518C37.493 30.9811 36.7245 31.8529 36.2867 31.7007C36.2371 31.6834 36.4146 31.2023 35.6392 31.1413C35.3721 31.1205 34.6877 31.5134 33.9724 31.1221C33.4 31.2543 31.4261 31.1713 29.7609 31.1728C28.4921 31.1738 27.403 31.2232 27.2524 31.4495C27.2426 31.4768 28.0011 31.6253 27.5004 31.8529C26.8348 32.1555 27.4078 31.1964 26.6172 31.1441C26.4975 31.1359 24.3106 31.3113 24.2414 31.3721C23.5981 31.9226 25.5186 32.0649 25.4942 32.1272C25.4329 32.2835 23.8476 32.4355 23.7815 32.4017C23.7185 32.3662 24.989 31.621 23.4408 31.9434C23.6225 32.02 23.8041 32.0966 23.9857 32.1732C23.2591 32.3628 23.1709 31.8833 22.9921 31.8605C22.4362 31.7881 21.8664 32.5429 20.9448 31.6723C20.701 31.4413 21.0802 31.1598 21.0495 31.1249C20.8389 30.9013 20.6117 31.288 20.3349 31.295C20.2804 31.2955 20.131 31.2405 20.0437 31.061C19.9896 31.0156 20.9066 30.5873 19.2984 30.6587C19.4066 30.7156 19.5407 30.7714 19.6545 30.8282C19.4392 30.976 17.6775 31.1397 17.4405 31.1177C16.8853 31.0689 17.128 30.7733 16.9331 30.6835C16.8779 30.6576 16.7882 30.6487 16.6313 30.6676C17.1029 31.2557 14.9818 31.4301 15.0824 30.9009C14.9108 31.3072 14.1842 31.31 13.4364 31.253C12.9436 31.2162 12.4633 31.1531 12.1199 31.1608C11.5833 31.1734 10.4876 31.5029 10.3133 31.4756C10.1246 31.4459 10.1416 31.0847 9.87647 30.9456C9.84408 30.9286 9.80748 30.9149 9.76577 30.9056C9.65709 30.8811 8.53843 31.2512 7.52089 30.8182C7.32343 30.7349 6.88984 29.9865 7.24659 29.7852C7.85228 29.4413 9.03253 30.0141 9.00153 29.5649C8.96801 29.0852 7.41888 29.4238 6.98947 29.373C6.65855 29.334 6.41837 29.2855 6.2376 29.2318C5.36448 28.9656 6.13 28.5694 6.08455 28.4417C5.94889 28.0696 4.86637 28.1084 4.82449 28.0748C4.63544 27.9289 5.38787 27.6135 5.39608 27.3832C5.39571 27.0847 4.363 26.5685 4.58939 26.4624C4.91716 26.3127 5.88354 26.7379 5.93733 26.7145C6.04819 26.6697 6.12096 26.6176 6.16295 26.5602C6.23273 26.465 6.21759 26.3554 6.15402 26.2407C5.98703 25.9451 5.5138 25.6145 5.3214 25.4098C5.22827 25.3077 5.58438 25.127 5.50759 25.0983C4.36295 24.6614 5.2926 26.0753 4.53636 25.9966C3.85181 25.9253 4.7216 25.4533 4.69258 25.4285C4.65714 25.4022 3.84904 25.3939 3.72048 25.2349C3.65883 25.1584 5.72624 24.2287 5.62318 23.8331C4.96495 23.9376 4.30473 24.04 3.64039 24.1384C3.58922 23.6236 4.5362 23.9855 4.64262 23.9292C4.83984 23.8181 4.27611 23.5691 4.29675 23.4052C4.30761 23.3013 4.9544 22.9167 4.35967 22.7768C4.15642 22.7281 3.74156 23.0996 3.00194 22.7394C5.543 22.2238 3.76591 21.9647 3.69652 21.7835C3.62004 21.602 4.81687 21.15 3.35084 21.2519C3.27202 20.2482 3.3771 20.9343 3.79489 20.7503C4.29518 20.5229 3.11756 20.2177 4.97501 20.4283C4.86308 19.962 3.37995 20.0251 3.29142 19.987C3.22236 19.9541 3.55141 19.7175 3.43149 19.641C2.0255 18.7507 2.98842 19.1532 2.57842 18.5776C2.57182 18.5682 2.52235 18.5537 2.45313 18.5357C2.14907 18.4555 1.40495 18.3006 2.23355 18.2287C2.30677 18.2218 2.37911 18.2163 2.45047 18.212C4.11114 18.1084 4.81735 18.639 5.07892 17.2684C4.16359 16.8714 3.13959 17.1784 2.44393 17.4173C2.12845 17.5307 1.85176 17.6296 1.73081 17.6346C1.11263 17.6557 1.76076 17.3667 1.67834 17.2849C1.6654 17.2593 1.11006 17.2804 1.11447 17.2566C0.917861 16.6672 1.61067 16.7192 2.43922 16.8441C3.14761 16.9516 3.94587 17.1154 4.34706 17.0197C4.10686 16.8621 3.87269 16.7039 3.64324 16.5451C3.94811 16.5333 4.27162 16.5201 4.58413 16.5065C3.07183 16.2105 4.53684 16.385 4.87946 15.4954C4.95707 15.2958 3.9883 15.6579 5.09274 15.0818C4.26464 14.9747 4.5237 14.7891 3.78517 15.052C3.79181 14.746 5.05717 14.3785 5.81629 14.1532C5.93053 14.1196 6.0369 14.0893 6.12061 14.0633C6.0122 14.0479 5.90712 14.036 5.81276 14.0271C3.89442 13.8408 5.03584 14.9621 3.11041 14.3443C2.74674 14.7865 3.69877 14.6873 3.62792 14.7599C3.40084 14.9633 2.98469 14.773 2.42479 15.0896C2.26769 15.1844 2.08974 15.3248 1.90713 15.5347C1.78073 15.6838 2.31897 16.1427 1.52483 16.1205C1.4206 16.1178 0.93903 15.7208 0.942447 15.6918C1.01165 15.3863 1.49744 15.5051 1.52885 15.3764C1.5407 15.2557 0.990293 15.3245 0.996996 15.2901C0.980853 14.9056 1.44559 15.1474 1.38171 15.0261C1.21871 14.7651 -0.652934 13.9095 1.83831 14.1793C-0.271823 14.5958 1.55001 14.6137 2.40779 14.4343C2.4117 14.4335 2.41556 14.4326 2.41938 14.4317C2.62304 14.3821 2.68772 14.1586 2.98872 14.0764C3.38178 13.968 3.86061 14.0693 4.06568 14.0229C4.28858 13.9713 3.00383 13.4558 4.85096 13.5775C4.20594 13.2257 3.23518 13.3946 2.41101 13.4146C2.024 13.4242 1.67009 13.4011 1.38821 13.278C0.0822588 12.6655 1.49548 12.4618 2.40217 12.3398C2.65826 12.306 2.88756 12.2817 2.95008 12.2642C3.03348 12.243 2.74909 11.9361 2.80305 11.9164C2.8755 11.8895 4.66896 11.9989 4.82994 11.7356C4.99354 11.4751 4.18898 11.7625 4.11921 11.4957C4.07677 11.3189 6.214 10.9441 5.05111 10.8509C4.24694 10.7888 2.80098 11.5372 2.55755 10.7588C3.59475 10.6899 4.64296 10.6074 5.71475 10.5193C5.82622 10.5101 5.94262 10.5006 6.05131 10.4914C5.94095 10.4433 5.82295 10.3954 5.70994 10.3473C5.17282 10.1172 4.62897 9.88583 4.10152 9.65189C4.64712 9.60076 5.17734 9.6239 5.68999 9.63333C6.39693 9.64609 7.09012 9.63259 7.81494 9.36259C4.75256 8.5124 8.77029 8.57487 8.81694 8.45368C8.82889 8.38447 7.60484 7.65664 7.40998 7.52159C7.77771 7.40505 8.41503 7.2974 9.00226 7.1671C10.0864 6.92707 10.9993 6.61237 9.75288 6.04399C10.1013 6.24585 10.9148 5.68288 10.9004 5.6433C10.7774 5.22835 8.98116 5.57002 9.26181 5.17908C9.58731 4.72609 10.0845 5.30517 10.6117 5.23649C11.4474 5.12609 11.937 4.84132 12.3119 4.50808C13.1302 3.76619 13.3199 2.7875 15.2044 2.94296C15.1448 2.86744 15.0862 2.79186 15.0307 2.71616C15.2396 2.71557 15.4579 2.7145 15.6627 2.71399C16.8433 2.70913 17.8785 2.70581 19.2363 2.69621C20.8719 2.70103 22.5135 2.70683 24.1565 2.71398C25.0483 2.16337 27.1135 1.72703 28.7212 1.56702C29.1959 1.5197 29.6307 1.4964 29.9831 1.50111C30.2943 1.50463 31.8323 1.80397 31.9494 1.86183C32.1666 1.97265 30.9958 2.05753 31.5331 2.26094C31.6463 2.30219 34.2345 2.36364 34.0374 1.99539C33.7465 1.96142 32.8467 2.1799 32.6955 2.09663C31.9297 1.66763 35.8582 1.67039 38.2615 1.61276C39.1942 1.58995 39.8967 1.55704 40.0051 1.48269C39.8248 1.36631 39.6445 1.24997 39.4642 1.13364C39.9692 1.17822 40.4745 1.22297 40.9795 1.26793ZM19.1747 32.1562C18.8966 32.5456 18.1305 32.2982 17.6843 32.4244C17.4953 32.4808 17.2383 32.6763 17.0321 32.8634C16.5785 33.2566 16.2055 33.6199 16.4675 32.6243C16.6552 32.5928 16.8385 32.5615 17.017 32.5303C17.7458 32.4056 18.4518 32.2813 19.1747 32.1562ZM32.1705 32.2343C31.5635 32.0529 32.0012 31.2266 32.5047 31.5467C32.5606 31.5832 32.9916 32.4785 32.1705 32.2343ZM25.8637 32.0726C25.8886 32.0609 26.4084 32.0635 26.4269 32.0755C26.9041 32.3839 25.3373 32.3745 25.8637 32.0726ZM56.212 30.755C55.5534 30.8041 56.0467 31.5308 56.45 31.2188C56.4754 31.199 56.2553 30.7523 56.212 30.755ZM55.7426 30.7455C55.2158 30.0966 54.2138 31.4572 55.0309 31.3042C55.11 31.2888 55.767 30.7771 55.7426 30.7455ZM30.0203 31.9862C30.0789 31.731 30.7024 31.8315 30.9689 31.8828C30.9697 32.1139 30.2786 31.9489 30.0203 31.9862ZM45.701 31.4216C45.722 31.2218 43.5736 31.2933 43.4349 31.5599C43.7708 31.4386 45.6814 31.6007 45.701 31.4216ZM51.2006 30.9988C51.1453 30.9658 50.405 31.0364 50.431 31.2113C50.7986 31.4323 51.4493 31.1484 51.2006 30.9988ZM62.1361 30.7808C62.1755 30.7361 61.6014 29.6289 62.9288 30.3413C63.1235 30.4457 62.4394 30.7491 62.5086 30.788C62.6535 30.8637 62.7676 30.8982 62.8588 30.9032C62.2485 31.006 61.6134 31.0608 61.5507 30.9942C61.2561 30.6794 62.1186 30.7994 62.1361 30.7808ZM67.8605 29.8609C67.9841 29.677 68.7907 29.764 68.9749 29.8368C69.0066 29.8506 68.8754 30.3309 69.2374 30.2907C69.5281 30.2576 69.0873 29.7726 69.6554 29.8442C70.2292 29.9162 69.468 30.2746 69.5183 30.299C69.5858 30.3308 70.4692 30.1004 70.4449 30.3859C70.4267 30.5973 69.4763 30.4655 69.2418 30.5133C68.942 30.5747 69.3107 30.9221 68.8075 30.8527C68.4914 30.8095 68.6585 30.1885 68.5915 30.1581C68.5352 30.1335 67.4363 30.5041 67.8622 29.8628C67.8616 29.8622 67.861 29.8615 67.8605 29.8609ZM63.0239 30.873C62.9782 30.8947 62.9244 30.9067 62.8588 30.9032C62.9142 30.8938 62.9694 30.8831 63.0239 30.873ZM20.7876 31.8152C20.9893 31.9277 20.6993 32.0804 20.3666 32.1192C20.2288 32.1398 20.0421 32.1234 19.9088 32.0367C19.9136 31.9253 20.1513 31.8602 20.3555 31.831C20.5663 31.8057 20.7647 31.8027 20.7876 31.8152ZM63.5832 30.3598C64.4952 30.5001 63.8295 30.7239 63.0239 30.873C63.2785 30.7523 63.277 30.313 63.5832 30.3598ZM37.7336 31.2518C37.7735 31.2967 37.8002 31.3679 37.807 31.4859C37.7018 31.3599 37.6905 31.2908 37.7336 31.2518ZM39.8674 31.3963C40.4948 31.0624 39.4437 31.0658 39.1795 31.2438C39.1413 31.2695 39.1195 31.2989 39.1217 31.3314C39.123 31.3485 39.1461 31.3621 39.1835 31.3727C39.3581 31.4225 39.8438 31.4089 39.8674 31.3963ZM57.0585 30.7723C56.9911 30.7385 58.0031 29.6297 56.518 30.4769C57.3223 30.5882 56.4791 30.7243 56.4937 30.8193C56.526 31.0488 57.4794 30.8793 57.9603 30.8867C58.0512 30.8881 58.1252 30.8958 58.173 30.9136C58.2601 30.7209 58.1437 30.6739 57.9561 30.6817C57.6625 30.6938 57.1948 30.8403 57.0602 30.7723C57.0596 30.7723 57.059 30.7723 57.0585 30.7723ZM78.2036 30.0295C78.0223 30.3174 77.4414 30.2281 77.0493 30.2136C77.2307 29.9255 77.812 30.0146 78.2036 30.0295ZM180.865 32.1366C178.151 32.3257 177.834 31.1474 180.297 31.6791C180.345 31.6902 181.033 32.0228 180.865 32.1366ZM157.679 31.1554C157.44 30.6388 158.284 30.5818 158.83 30.8085C158.954 30.8595 159.401 31.3889 158.87 31.4741C158.905 30.8575 158.095 30.5975 157.679 31.1554ZM64.092 30.0253C64.3516 29.6814 65.1705 29.9105 65.6008 29.9552C65.3427 30.2386 64.4736 30.1255 64.092 30.0253ZM171.993 31.2724C171.709 31.2255 171.504 31.6628 171.552 31.7011C171.767 31.8766 172.311 31.5341 171.993 31.2724ZM61.459 30.0171C61.418 29.8148 62.4951 29.6005 62.5788 30.1011C62.3473 30.0687 61.488 30.1439 61.459 30.0171ZM77.464 29.8811C77.2951 29.7788 78.1657 29.5893 78.4296 29.6905C78.4096 29.9066 77.5749 29.9475 77.464 29.8811ZM167.402 31.2877C167.148 31.2417 166.512 31.2111 166.436 31.3881C166.341 31.6093 167.278 31.5607 167.402 31.2877ZM215.016 32.0759C215.048 32.1569 214.045 32.7206 213.606 32.5664C212.772 32.2716 214.982 32.0188 215.016 32.0759ZM174.698 31.1225C175.491 31.5671 174.609 31.1333 174.631 31.5778C174.766 31.5857 174.952 31.5955 175.14 31.5984C175.704 31.6072 176.291 31.5546 175.605 31.2074C175.512 31.1603 175.335 31.1492 175.153 31.1441C174.988 31.1394 174.817 31.1396 174.698 31.1225ZM173.96 30.9526C173.869 31.0938 173.276 31.5299 173.778 31.5121C174.011 31.5031 174.399 31.0106 173.96 30.9526ZM208.862 32.1646C208.144 31.7584 211.465 32.0314 211.559 32.1011C211.608 32.1384 211.641 32.1732 211.659 32.2025C211.783 32.0803 212.412 32.0689 212.479 32.385C212.291 32.3557 211.777 32.3744 211.718 32.3384C211.692 32.3231 211.673 32.3088 211.66 32.2944C211.434 32.5642 208.999 32.2421 208.862 32.1646ZM203.367 31.6488C204.208 31.0871 204.334 32.0752 204.261 32.1054C203.35 32.4895 203.954 31.7755 203.927 31.7409C203.866 31.6829 203.217 32.0063 203.369 31.6489C203.368 31.6488 203.367 31.6488 203.367 31.6488ZM207.737 31.9807C207.771 31.9686 208.467 32.0126 208.495 32.0287C209.059 32.3709 207.091 32.2478 207.737 31.9807ZM72.1748 29.1214C72.6649 29.2146 72.1887 29.5817 71.8623 29.4547C71.8354 29.4421 71.7423 29.0392 72.1748 29.1214ZM173.56 31.0387C173.447 30.967 170.513 30.6227 170.673 31.1751C170.925 31.118 174.261 31.4973 173.56 31.0387ZM151.604 30.2575C152.121 30.2769 151.542 30.7766 151.271 30.5761C151.171 30.5017 151.473 30.253 151.604 30.2575ZM59.9937 29.5752C59.4658 29.8689 59.5579 28.9152 60.0266 29.2327C60.045 29.2451 60.0144 29.5637 59.9937 29.5752ZM155.73 30.6757C153.935 30.9359 154.406 29.3118 156.712 29.9329C156.637 30.0036 156.562 30.0743 156.487 30.1451C159.16 30.4699 156.667 30.2658 156.008 30.338C155.758 30.3655 155.959 30.6448 155.732 30.6777C155.731 30.677 155.731 30.6764 155.73 30.6757ZM148.884 30.1474C147.596 29.2214 149.197 29.5008 150.446 29.6285C150.83 29.6678 151.18 29.6927 151.403 29.6635C151.066 29.8285 150.694 29.9192 150.435 29.9938C150.07 30.0991 149.929 30.1723 150.424 30.3767C150.542 30.4255 150.696 30.4817 150.892 30.5475C150.716 30.5495 150.559 30.5489 150.419 30.5461C148.67 30.5116 149.517 30.1368 149.431 30.0987C149.321 30.0523 148.955 30.1993 148.884 30.1474ZM153.417 30.2715C153.518 30.2406 154.259 30.499 154.53 30.4684C154.141 30.854 152.751 30.4826 153.417 30.2715ZM197.595 31.7884C197.665 31.4789 197.825 31.2536 198.417 31.3837C198.229 31.5356 197.847 31.6611 197.595 31.7884ZM18.5303 30.5475C18.127 30.5438 17.2971 30.4645 17.5653 30.7796C17.5811 30.8068 18.5382 30.7309 18.5303 30.5475ZM165.025 30.5353C164.94 30.4945 162.699 30.4023 163.463 30.7683C163.694 30.8788 165.734 30.8954 165.025 30.5353ZM176.641 30.9147C176.453 30.9061 175.688 30.9427 175.67 31.0158C175.611 31.2685 176.552 31.1557 176.641 30.9147ZM16.4446 30.3241C16.3948 30.2943 15.1298 30.4078 15.2804 30.552C15.5548 30.8257 16.6311 30.4271 16.4446 30.3241ZM73.9495 28.3765C74.0523 28.3642 74.1912 28.7008 74.2268 28.7043C74.3095 28.708 76.1981 28.5642 75.4792 29.0032C75.3568 29.076 72.6464 28.9322 72.2952 28.8936C72.1546 28.4311 73.3149 28.8613 73.5958 28.8113C73.6453 28.8018 73.6738 28.4135 73.9486 28.3785C73.9489 28.3778 73.9492 28.3772 73.9495 28.3765ZM200.7 31.5316C200.791 31.239 203.045 31.0933 203.011 31.4497C202.241 31.4774 201.47 31.5047 200.7 31.5316ZM199.558 31.4569C199.256 31.3174 199.601 31.2491 199.977 31.2433C200.192 31.2401 200.418 31.2573 200.538 31.2936C200.537 31.407 200.239 31.4547 199.972 31.4686C199.771 31.4791 199.588 31.4706 199.558 31.4569ZM172.42 29.6904C172.193 29.7559 172.873 30.2062 172.716 30.2853C172.615 30.3344 172.116 30.1585 171.952 30.2883C171.905 30.3298 172.407 30.749 172.556 30.7359C172.767 30.7187 172.572 30.3946 172.802 30.3992C173.567 30.4146 174.238 30.6612 174.954 30.6766C175.019 30.6774 174.524 30.4382 175.076 30.4574C175.092 30.4579 175.125 30.4716 175.171 30.4931C175.363 30.5819 175.793 30.8033 176.326 30.7787C177.814 29.7843 178.856 30.8324 180.718 30.5107C180.651 30.4112 179.274 30.1105 179.193 30.0984C178.168 29.9562 176.602 29.8652 175.191 29.8054C174.478 29.7752 173.804 29.753 173.26 29.7364C172.844 29.7234 173.04 29.9486 172.86 29.9514C172.719 29.9532 172.899 29.552 172.42 29.6904ZM18.7382 30.313C18.5175 29.9169 17.85 30.2049 17.4144 30.2038C17.578 30.5628 18.3051 30.243 18.7382 30.313ZM189.474 30.8947C189.255 30.9047 188.579 30.7647 188.52 30.8853C188.444 31.043 189.42 31.1692 189.474 30.8947ZM84.6055 28.4474C84.6264 28.4363 85.1453 28.4582 85.1649 28.471C85.6285 28.7968 84.0726 28.7297 84.6055 28.4474ZM97.037 28.5818C97.4323 28.5351 97.8317 28.412 97.9613 28.7425C97.7102 28.6897 96.9887 28.8107 97.037 28.5818ZM114.236 28.8091C114.162 28.3764 115.348 28.6777 115.572 28.7207C115.485 28.9106 114.29 29.1207 114.236 28.8091ZM197.541 30.4331C198.275 30.4759 198.135 29.8193 198.595 30.1257C198.67 30.1774 198.885 31.5429 198.088 31.0146C197.945 30.9196 198.521 30.6098 197.541 30.4331ZM157.089 29.9577C157.284 29.6781 157.863 29.7799 158.255 29.8144C158.161 30.0237 157.369 29.9456 157.089 29.9577ZM14.1578 30.0984C14.015 29.9506 13.699 29.9126 13.381 29.9359C12.8599 29.9739 12.3527 30.1716 12.6037 30.3259C12.6363 30.3432 13.0083 30.2758 13.3925 30.2095C13.7213 30.1521 14.0499 30.0959 14.1578 30.0984ZM65.9162 28.6964C66.5588 28.3699 65.2167 28.2912 64.7985 28.6077C64.9897 28.5844 65.8729 28.7178 65.9162 28.6964ZM110.105 28.5031C110.137 28.4906 110.824 28.5325 110.855 28.5487C111.413 28.889 109.468 28.7722 110.105 28.5031ZM92.9456 28.028C93.1947 27.7683 94.8202 27.9898 95.1826 28.2542C94.829 28.6326 92.6369 28.3518 92.9456 28.028ZM194.511 30.5457C195.036 30.5451 195.532 30.6376 196.011 30.762C195.904 30.9793 194.563 30.7112 194.511 30.5457ZM112.632 28.5185C112.668 28.5209 112.704 28.5464 112.739 28.5497C112.702 28.5398 112.667 28.5285 112.632 28.5185ZM182.789 30.0838C182.353 29.9849 182.433 30.3899 182.46 30.4029C182.786 30.5424 183.283 30.1954 182.789 30.0838ZM18.2081 29.7392C18.0409 29.3846 17.321 29.6962 16.8854 29.6326C16.8837 29.6323 16.882 29.6321 16.8804 29.6318C16.8821 29.6354 16.8839 29.6389 16.8858 29.6423C17.0395 29.9099 17.8657 29.7927 18.2081 29.7392ZM147.065 29.3506C146.527 28.9411 148.774 28.5477 149.237 28.8152C149.265 29.0594 147.144 29.4067 147.065 29.3506ZM63.8983 28.1824C63.8501 27.8984 62.924 28.2573 63.1243 28.3885C63.251 28.4719 63.9272 28.3588 63.8983 28.1824ZM150.356 29.0136C150.387 29.0018 150.424 28.998 150.464 29.0008C150.695 29.0167 151.024 29.2523 150.872 29.3941C150.739 29.5185 150.567 29.3756 150.457 29.2307C150.379 29.1275 150.333 29.0233 150.356 29.0136ZM169.215 29.3423C169.124 29.2961 167.879 29.5517 168.381 29.857C168.73 30.0692 168.799 29.6595 168.882 29.6608C168.975 29.6648 170.946 30.2267 169.215 29.3423ZM134.574 28.7603C135.042 28.6629 135.6 28.8047 136.087 28.8096C135.884 28.9804 134.766 28.9991 134.574 28.7603ZM67.4894 28.0531C67.4738 28.0375 67.4025 28.0235 67.2958 28.0118C66.6256 27.9382 64.5545 27.9596 66.0584 28.2431C66.1264 28.2555 66.899 28.3199 67.2992 28.2585C67.497 28.2282 67.6038 28.1669 67.4894 28.0531ZM197.541 30.4331C197.448 30.4277 197.341 30.4116 197.218 30.3806C197.341 30.3946 197.448 30.4164 197.541 30.4331ZM189.196 30.1821C189.371 29.9794 188.521 29.9017 188.267 30.0053C188.182 30.2564 189.172 30.2105 189.196 30.1821ZM136.132 28.5216C136.415 28.4105 136.921 28.5504 137.268 28.5459C137.204 28.7369 136.248 28.7204 136.132 28.5216ZM116.469 27.849C117.022 27.9742 117.707 27.9352 117.722 27.6998C117.733 27.7368 117.759 27.7765 117.803 27.8167C117.847 27.8565 118.445 27.7588 118.702 27.8446C120.24 28.3519 112.718 28.008 117.093 27.4275C116.885 27.568 116.677 27.7085 116.469 27.849ZM90.7472 27.4616C90.4339 27.1733 89.5534 27.5293 89.7812 27.6431C89.9395 27.721 91.0603 27.7518 90.7472 27.4616ZM102.86 27.3951C102.766 27.3427 101.903 27.5333 101.879 27.6841C102.372 27.849 103.286 27.6382 102.86 27.3951ZM88.3351 27.1168C88.1382 27.073 87.886 27.5349 87.9091 27.5552C88.1087 27.7245 88.6651 27.3753 88.3351 27.1168ZM196.048 29.151C195.754 29.0115 194.799 29.3231 194.585 29.6234C194.548 29.5634 194.447 29.4838 194.259 29.3867C194.26 29.3868 194.261 29.3868 194.261 29.3868C194.008 29.2591 186.362 28.9267 191.478 29.6471C191.638 29.67 191.426 29.3903 192.078 29.4552C192.122 29.4599 192.137 29.6842 192.27 29.6985C192.577 29.73 194.209 29.9117 194.543 29.7395C194.544 29.7811 194.565 29.8211 194.609 29.8584C195.004 30.1912 196.276 29.2587 196.048 29.151ZM104.568 27.376C104.396 27.2907 103.846 27.3623 103.787 27.5591C104.057 27.6594 104.968 27.5748 104.568 27.376ZM67.3835 27.2439C67.354 27.2308 67.3208 27.2209 67.2849 27.214C66.8888 27.1376 66.1623 27.4157 66.4119 27.5602C66.5148 27.6199 67.0149 27.5545 67.2882 27.4534C67.4584 27.3904 67.5406 27.3134 67.3835 27.2439ZM99.0723 27.4172C101.094 27.6717 99.5554 27.4033 99.8684 27.1168C99.6029 27.2169 99.3376 27.317 99.0723 27.4172ZM205.501 30.1112C205.176 30.0378 205.572 29.4742 205.925 29.7917C206.036 29.8925 205.683 30.1512 205.501 30.1112ZM220.261 30.1862C219.988 29.6757 221.347 29.9914 220.811 30.3321C220.787 30.3435 220.28 30.2057 220.261 30.1862ZM209.951 29.8136C209.723 30.1545 209.578 30.1928 208.955 30.0956C209.881 30.0159 209.029 29.6946 209.951 29.8136ZM117.717 27.6626C117.72 27.6766 117.723 27.687 117.722 27.6998C117.718 27.687 117.717 27.675 117.717 27.6626ZM86.4383 27.2026C86.1859 26.9098 85.4781 26.9307 85.6889 27.2252C85.7092 27.2525 86.3347 27.4185 86.4383 27.2026ZM194.585 29.6234C194.618 29.6766 194.6 29.71 194.543 29.7395C194.541 29.7004 194.556 29.6639 194.585 29.6234ZM90.2399 26.975C90.2133 27.193 91.2924 27.2827 91.336 27.2574C91.9579 26.8822 90.6848 26.9636 90.2399 26.975ZM60.2391 27.0524C60.1838 27.0762 60.5535 27.6326 60.7697 27.408C60.9371 27.2337 60.4461 26.9619 60.2391 27.0524ZM212.075 29.7114C212.421 29.7179 212.909 29.726 212.994 29.995C212.763 29.95 212.064 29.9075 212.075 29.7114ZM219.732 29.8118C219.318 30.1207 218.381 30.1066 217.784 30.046C217.779 29.6321 219.346 29.9041 219.732 29.8118ZM196.982 29.3278C196.954 29.3103 196.09 29.166 196.202 29.4458C196.365 29.8562 197.223 29.4842 196.982 29.3278ZM61.9099 27.3211C62.2902 27.1237 61.397 26.5528 61.0004 27.0131C60.7969 27.2487 61.8458 27.3541 61.9099 27.3211ZM84.228 26.8185C83.7231 26.9789 84.9752 27.2643 85.1495 26.9749C84.917 26.9515 84.4074 26.7617 84.228 26.8185ZM101.445 26.6262C101.365 26.5835 101.292 26.5467 101.224 26.5154C99.9408 25.9225 100.724 27.3002 100.995 27.1759C101.013 27.1674 101.116 27.0566 101.219 26.9366C101.343 26.7934 101.466 26.6372 101.445 26.6262ZM10.037 28.5931C9.80896 28.7179 10.6908 29.1057 10.7912 28.8245C10.854 28.6488 10.1827 28.5138 10.037 28.5931ZM125.508 27.5959C125.44 27.597 125.373 27.5982 125.307 27.5991C125.357 27.5866 125.422 27.5836 125.508 27.5959ZM79.6295 25.7086C80.7593 26.8842 80.6367 25.9757 80.7345 25.9802C80.9456 25.9923 81.4369 26.31 81.8344 26.2568C81.3793 26.3906 80.9249 26.5246 80.4702 26.6588C80.8306 26.7417 83.9537 27.171 84.0172 26.9807C84.1104 26.7081 83.1293 26.7943 83.1006 26.7704C83.0593 26.7363 82.9041 25.9791 82.8128 25.9504C82.6631 25.9039 80.0501 25.8944 79.6295 25.7086ZM98.1044 26.7222C98.3602 26.8147 98.4303 27.1154 98.5502 27.0448C98.591 27.0207 98.6004 26.7346 98.7398 26.6619C98.528 26.682 98.3162 26.7021 98.1044 26.7222ZM77.6199 26.7785C77.2992 26.4304 78.729 26.5558 78.7747 26.595C79.0202 26.8309 77.8822 27.0626 77.6199 26.7785ZM89.7026 26.719C89.6507 26.6982 88.5589 26.5854 88.5673 26.7796C88.8556 26.9282 90.3155 26.9768 89.7026 26.719ZM98.9113 26.6441C99.2958 26.6812 100.02 26.977 99.9413 26.5452C99.9407 26.5452 99.9401 26.5452 99.9396 26.5452C99.5966 26.578 99.254 26.611 98.9113 26.6441ZM63.2074 26.3887C62.4832 25.7144 62.8355 26.5758 63.47 26.7868C63.6561 26.4756 63.3261 26.4984 63.2074 26.3887ZM60.9172 25.9167C60.7165 25.7964 58.6744 25.9706 58.9936 26.328C59.1068 26.4551 60.276 26.1064 60.3307 26.1306C60.4135 26.1663 60.046 26.575 60.6714 26.4838C60.6322 26.3483 60.9858 25.9567 60.9172 25.9167ZM62.6101 25.9592C61.8925 25.4494 61.7501 26.4149 62.2829 26.4083C62.4911 26.4064 62.7124 26.0328 62.6101 25.9592ZM65.5049 25.9951C65.2487 25.9075 64.5677 25.7847 64.1048 26.1124C64.7314 26.1297 65.3579 26.1475 65.9845 26.1657C66.0541 25.9833 65.7291 26.072 65.5032 25.9951C65.5038 25.9951 65.5044 25.9951 65.5049 25.9951ZM224.073 27.3986C223.506 27.1193 224.82 27.0292 224.875 27.0968C225.037 27.3212 224.326 27.5234 224.073 27.3986ZM5.26104 19.9953C5.09771 19.8905 4.98301 19.5353 4.64188 19.7308C4.99183 19.9873 5.36543 20.2423 5.71549 20.4973C5.97066 19.8845 5.43885 20.1111 5.26104 19.9953ZM3.87319 17.8127C3.92316 17.7969 3.63402 16.8714 4.28271 17.4802C4.62702 17.8031 3.25877 18.1571 2.44942 18.0845C2.2391 18.0651 2.05041 18.0152 1.9605 17.9272C2.09043 17.874 2.2663 17.8515 2.44744 17.8439C2.9565 17.8238 3.56344 17.9053 3.87319 17.8127ZM0.0503516 13.7691C0.00974393 13.6971 0.72109 13.6151 0.823792 13.666C1.30648 13.9522 0.0616896 14.1798 0.0503516 13.7691ZM2.57355 13.9777C2.16737 13.8008 3.06506 13.6757 3.32799 13.7745C3.35252 13.948 2.64268 14.004 2.57355 13.9777ZM218.5 13.8372C218.06 13.1978 217.638 14.5543 218.334 14.29C218.367 14.2775 218.519 13.8685 218.5 13.8372ZM0.757002 12.8559C1.11628 13.0442 0.29207 13.145 0.151346 13.0277C0.121143 12.8558 0.699157 12.8305 0.757002 12.8559ZM218.206 12.3249C217.616 11.8607 217.803 13.3923 217.877 13.455C218.181 13.7029 219.243 13.1181 219.46 12.9718C217.88 13.1789 218.483 12.5435 218.206 12.3249ZM215.44 13.2006C214.883 13.3548 216.294 13.6894 216.57 13.2673C216.295 13.2835 215.598 13.156 215.44 13.2006ZM212.087 12.6536C211.79 12.5936 210.907 12.4465 210.754 12.6842C211.08 12.6467 211.957 12.8989 212.087 12.6536ZM211.426 11.9209C210.967 11.5857 210.838 12.5358 211.379 12.2619C211.4 12.2513 211.443 11.9394 211.426 11.9209ZM208.817 11.5283C208.519 11.1438 208.152 12.0591 208.647 12.0935C208.794 12.1021 208.848 11.5724 208.817 11.5283ZM217.484 10.6695C217.05 10.5003 216.477 11.1521 217.408 11.2387C217.079 11.3347 216.75 11.4306 216.421 11.5264C217.637 11.9154 217.561 10.998 217.911 11.0411C218.4 11.1021 218.35 11.8572 218.249 12.0931C218.657 11.6362 220.365 11.6528 221.352 11.5771C220.488 11.3717 219.085 11.0155 218.232 10.8798C217.988 10.8406 217.748 11.0443 217.54 11.018C217.207 10.9747 217.508 10.6808 217.485 10.6695C217.485 10.6695 217.484 10.6695 217.484 10.6695ZM205.379 11.4458C204.49 10.9981 205.038 11.936 205.549 11.7814C205.571 11.7691 205.401 11.4567 205.379 11.4458ZM0.299966 10.0244C0.586558 10.4136 0.0902734 10.95 2.24861 10.1696C1.28225 10.7248 2.19265 10.567 2.00666 10.79C1.84727 10.9673 1.30654 10.8199 1.62418 11.1752C2.1258 11.288 -3.30921 9.50041 3.53951 12.2605C3.50393 12.2318 3.46883 12.2041 3.43421 12.1773C5.46182 13.0179 -0.980597 9.04093 0.299966 10.0244ZM212.125 10.2319C211.847 9.10296 211.698 10.8844 211.127 9.94242C210.32 11.2808 213.287 9.98156 213.624 11.1292C210.428 10.9414 215.718 12.2972 213.515 10.5491C215.343 11.2007 214.121 10.3475 214.408 10.1344C214.716 9.90746 215.751 10.1765 215.705 9.75703C215.705 9.75702 215.704 9.75701 215.704 9.757C215.067 9.77615 214.431 9.79498 213.794 9.81351C214.402 10.7269 213.106 10.4342 212.679 9.69078C212.494 9.87118 212.31 10.0516 212.125 10.2319ZM215.712 11.1402C215.649 11.1186 214.263 11.2226 214.349 11.4051C214.532 11.5241 216.499 11.4169 215.712 11.1402ZM221.802 11.03C221.306 11.0216 220.54 10.8353 220.265 11.1721C220.762 11.1811 221.527 11.3673 221.802 11.03ZM196.212 10.4809C195.572 10.7449 197.522 10.8747 196.965 10.5303C196.938 10.514 196.244 10.4686 196.212 10.4809ZM210.682 10.3758C210.045 10.0204 210.329 11.1191 210.811 10.8431C210.839 10.8268 210.712 10.392 210.682 10.3758ZM0.664123 9.90533C0.637719 9.6606 1.93948 9.82087 2.38153 9.83082C2.41005 9.83186 2.43402 9.8323 2.45248 9.83198C2.43939 9.85255 2.41516 9.87248 2.38203 9.89154C1.98109 10.1106 0.553519 10.1916 0.664123 9.90533ZM222.688 10.0389C221.713 9.06409 220.359 10.1585 220.212 10.1322C220.066 10.1054 220.301 9.68757 220.268 9.67582C220.193 9.65138 218.636 9.66496 218.56 9.69299C218.506 9.71505 218.779 10.3107 218.455 10.4924C219.087 10.1661 221.929 10.4141 222.077 10.3498C222.192 10.2988 221.338 9.667 222.686 10.0388C222.687 10.0388 222.687 10.0389 222.688 10.0389ZM219.847 9.99825C220.232 10.2516 219.141 10.2676 218.878 10.1722C218.295 9.95915 219.797 9.96836 219.847 9.99825ZM217.227 9.73187C217.104 9.67447 215.981 9.60651 215.881 9.88094C216.407 10.2476 217.508 9.86577 217.227 9.73187ZM204.715 9.54076C204.422 9.57001 203.623 9.34072 203.572 9.58088C203.865 9.55204 204.664 9.78103 204.715 9.54076ZM6.08375 7.73133C5.60717 7.54343 6.6964 7.42897 7.02027 7.5148C7.04538 7.67531 6.12098 7.74795 6.08375 7.73133ZM210.616 8.06742C210.444 7.99166 206.915 8.1065 206.418 8.20852C206.898 8.40161 210.393 8.48326 210.553 8.39641C210.6 8.37061 210.638 8.07937 210.616 8.06742ZM218.238 8.0826C218.566 7.73211 218.77 8.16115 218.811 8.16708C219.21 8.22722 220.039 8.15853 219.853 8.49814C219.15 8.35065 217.584 8.77858 218.238 8.0826ZM204.498 7.92834C203.298 8.03476 205.591 8.45767 205.297 8.07991C205.278 8.05709 204.623 7.91715 204.498 7.92834ZM211.012 7.97116C211.281 7.68982 214.801 7.99857 215.367 8.00716C214.851 8.52835 214.449 8.11955 213.768 8.13502C213.584 8.13981 213.629 8.36088 213.61 8.36089C213.291 8.36566 213.534 8.11537 213.338 8.10815C213.214 8.10475 210.633 8.36907 211.012 7.97116ZM218.425 7.83921C218.625 7.63884 220.826 7.58239 220.914 7.63728C221.57 8.04886 218.595 7.9133 218.425 7.83921ZM210.697 7.49458C211.087 6.88654 212.829 7.32977 211.626 7.61506C211.511 7.64092 211.032 7.36544 210.697 7.49458ZM204.639 7.34522C204.58 7.32597 203.335 7.17628 203.308 7.37145C203.487 7.45162 205.305 7.55842 204.639 7.34522ZM205.3 6.69681C205.27 6.70087 205.554 7.084 204.97 7.02398C204.921 7.01844 204.839 6.59246 204.101 6.73207C203.951 6.76086 203.713 7.03649 203.73 7.05429C204.482 7.73674 206.815 6.50942 205.3 6.69681ZM218.471 7.49607C218.355 7.31529 218.648 6.78799 218.902 7.06081C219.011 7.17859 218.8 7.49463 218.471 7.49607ZM200.684 7.08663C200.952 6.97463 200.817 6.88858 200.532 6.82836C200.038 6.72418 199.096 6.69703 199.021 6.74755C199.078 6.91437 200.12 7.05688 200.526 7.08503C200.613 7.09106 200.671 7.09188 200.684 7.08663ZM7.11028 5.2098C7.10972 5.20982 7.10917 5.20984 7.10861 5.20986C7.70677 5.26316 7.34681 5.54336 7.37473 5.55089C8.65687 5.90133 8.30211 5.30506 8.4971 5.22666C8.70973 5.14064 8.80444 5.28709 8.93766 5.4102C9.06825 5.53069 9.2352 5.62886 9.58783 5.4639C8.40999 5.96048 9.48962 5.73056 9.53422 5.99172C9.60654 6.43191 9.34347 6.43363 8.9704 6.30064C8.4397 6.11158 7.68621 5.649 7.34408 5.79228C7.26289 5.82622 7.88341 6.14769 7.67546 6.25213C6.99336 6.59209 4.83199 5.0008 7.11028 5.2098ZM219.102 7.01676C219.389 6.70621 221.528 7.04027 220.957 7.2921C220.865 7.33289 218.679 7.47018 219.102 7.01676ZM118.385 3.99451C118.912 3.73241 117.71 3.38784 117.482 3.59567C117.368 3.69915 118.154 4.10949 118.385 3.99451ZM109.926 2.67554C109.304 2.72093 108.633 3.84746 109.407 3.6831C109.489 3.66509 109.995 2.83433 109.926 2.67554ZM150.549 4.22664C149.917 3.80193 149.933 4.55752 150.407 4.56056C150.574 4.56175 150.569 4.24008 150.549 4.22664ZM125.913 3.67218C125.848 3.64432 125.1 3.67544 125.123 3.84951C125.397 3.95979 126.327 3.86262 125.913 3.67218ZM150.757 4.12519C150.454 4.2234 150.785 4.59348 151.176 4.49465C151.282 4.46777 151.392 4.40623 151.495 4.29513C151.41 4.30836 151.295 4.28854 151.182 4.25829C150.981 4.20428 150.782 4.11702 150.757 4.12519ZM209.406 5.80203C209.082 6.10589 208.185 5.99486 207.668 6.03781C207.62 5.63535 209.035 5.86794 209.406 5.80203ZM112.552 3.1764C111.96 3.44918 113.214 3.70264 113.105 3.32669C113.09 3.30608 112.576 3.16471 112.552 3.1764ZM171.316 4.69133C170.885 4.91831 172.221 5.27976 171.863 4.84807C171.845 4.83039 171.34 4.67869 171.316 4.69133ZM177.182 5.00065C176.927 4.92865 175.998 4.90489 175.907 5.02591C175.899 5.03775 175.898 5.05098 175.906 5.06569C175.92 5.08847 175.955 5.11478 176.019 5.14498C176.101 5.18328 177.152 5.21928 177.182 5.00065ZM8.52196 4.93651C8.42553 4.72291 8.65124 4.63912 8.90851 4.61712C9.14033 4.59731 9.39787 4.62769 9.46608 4.6593C9.50203 4.67703 9.2069 4.99831 8.92603 5.09365C8.7652 5.14823 8.60904 5.12884 8.52196 4.93651ZM146.365 4.04215C146.03 4.08425 145.167 3.96179 145.009 4.17383C145.418 4.14051 146.462 4.47612 146.365 4.04215ZM115.229 3.2225C114.726 2.76481 113.852 2.79328 114.057 3.38272C115.023 3.36103 113.947 2.85411 115.229 3.2225ZM152.918 3.70546C152.652 3.66348 152.431 4.21967 152.46 4.24703C152.742 4.50746 153.177 3.93195 152.918 3.70546ZM132.82 3.61441C132.81 3.37372 131.948 3.46119 132.059 3.61873C132.096 3.67157 132.827 3.80914 132.82 3.61441ZM198.258 5.42653C197.873 5.19803 199.07 5.01169 199.416 5.2758C199.579 5.64876 198.307 5.45296 198.258 5.42653ZM160.323 4.06462C160.373 3.70928 159.029 3.87114 159.548 4.18231C159.678 4.26016 160.305 4.18341 160.323 4.06462ZM173.133 4.01572C172.225 4.41483 175.978 4.82619 175.005 4.26758C174.936 4.22783 173.212 3.98214 173.133 4.01572ZM179.268 4.45841C179.114 4.40717 179.225 3.21133 179.851 3.69143C179.934 3.75372 179.532 4.0593 179.599 4.13368C179.638 4.17615 181.023 4.38365 181.087 4.35743C181.157 4.32761 181.087 3.94134 181.158 3.90023C181.238 3.85432 182.084 4.21561 182.532 4.23174C183.375 4.26154 183.475 3.94439 183.545 3.94525C183.746 3.94871 184.079 4.18499 184.487 4.19592C186.547 4.25019 189.702 4.0629 191.316 4.78225C189.871 4.47272 188.48 4.72499 187.032 4.775C187.473 4.11934 184.891 5.23159 186.404 4.50211C185.714 4.65169 179.77 4.61998 179.269 4.45846C179.269 4.45844 179.268 4.45843 179.268 4.45841ZM107.481 2.30201C107.869 1.89827 105.909 1.96205 105.737 2.43345C105.994 2.50253 107.433 2.34755 107.481 2.30201ZM116.525 1.45751C116.708 1.3904 116.896 0.593819 117.84 1.01815C117.841 1.01816 117.842 1.01818 117.843 1.0182C118.119 1.14215 117.798 1.33074 117.848 1.40119C117.866 1.42988 118.726 1.84499 118.004 1.89463C116.902 1.97113 117.912 1.2976 117.326 1.27763C117.254 1.2755 116.135 1.68706 116.198 1.78337C116.205 1.79457 116.54 1.70936 116.595 1.74993C116.8 1.9024 116.694 2.15019 116.723 2.16264C116.819 2.19476 118.582 1.80381 118.829 2.18074C118.91 2.30177 116.025 2.52171 115.914 2.45782C115.843 2.41722 115.886 1.72455 115.814 1.65499C115.777 1.62023 114.613 1.85848 114.464 1.79211C114.42 1.77288 114.387 1.7524 114.363 1.73558C114.534 1.95319 113.485 1.91884 113.522 1.67748C113.542 1.58265 114.263 1.65068 114.289 1.66781C114.3 1.67505 114.31 1.68493 114.319 1.69179C114.174 1.42735 116.62 1.4848 116.099 1.08603C116.813 0.886447 115.988 1.65474 116.525 1.45751ZM119.941 1.09769C119.866 1.16908 119.792 1.24048 119.717 1.31188C120.962 1.15892 122.385 1.54035 123.814 1.56946C124.176 1.57739 123.769 1.12225 124.242 1.25468C124.62 1.36082 125.032 1.78391 124.823 1.87143C124.772 1.89327 124.003 1.60651 123.615 1.62561C122.468 1.68224 122.749 2.07105 122.682 2.07988C122.608 2.08912 121.893 1.80463 121.499 1.80826C120.509 1.81825 120.052 2.04344 118.705 1.70937C119.491 1.47317 119.074 0.916995 119.941 1.09769ZM166.004 3.15087C166.058 2.91165 166.858 3.14904 167.152 3.12238C167.099 3.36223 166.298 3.12421 166.004 3.15087ZM44.9345 1.78193C44.6956 2.18348 46.5701 2.23031 46.0679 1.91513C45.9568 1.84509 45.1697 1.77819 44.9345 1.78193ZM53.3549 1.80985C53.6032 1.69491 52.587 1.43369 52.596 1.73937C52.5997 1.83731 53.323 1.82474 53.3549 1.80985ZM135.951 1.86413C135.998 1.85298 136.682 1.95892 136.703 1.97959C137.146 2.41073 134.895 2.10934 135.951 1.86413ZM63.589 1.12429C62.7179 1.39693 65.354 1.46777 64.544 1.15034C64.5036 1.1348 63.631 1.11096 63.589 1.12429ZM67.2512 0.99814C67.1905 1.00296 67.0694 0.996704 66.9276 0.988307C66.5786 0.967617 66.1042 0.934109 66.0967 1.01994C66.0859 1.15317 66.5829 1.25037 66.9304 1.19143C67.0906 1.16423 67.2191 1.10376 67.2512 0.99814ZM153.142 2.21913C153.055 1.7713 154.262 2.14385 154.687 2.10028C154.774 2.54842 153.567 2.1753 153.142 2.21913ZM145.464 1.66994C150.611 1.46548 149.451 2.3834 145.152 1.87804C145.154 1.59244 145.139 1.68289 145.464 1.66994ZM152.038 1.91139C151.9 2.10983 151.567 2.11629 151.245 2.09109C151.114 2.08079 150.984 2.06519 150.87 2.05525C150.901 1.97425 151.058 1.94294 151.25 1.93107C151.524 1.9142 151.871 1.9366 152.038 1.91139ZM42.6882 1.23365C43.0017 0.864108 44.4494 1.26757 44.1983 1.42332C44.1398 1.45687 42.5749 1.43492 42.6882 1.23365ZM136.392 1.49467C136.283 1.05875 137.823 1.27602 137.939 1.37536C138.406 1.77451 136.519 1.40231 136.392 1.49467ZM160.433 2.05324C160.715 1.72241 161.481 1.91965 161.978 1.9389C161.743 2.22197 160.854 2.07185 160.433 2.05324ZM156.855 1.68152C156.887 1.66943 157.579 1.7205 157.609 1.73702C158.167 2.08481 156.21 1.94211 156.855 1.68152ZM6.19051 1.98121C6.21127 1.96976 6.71661 1.97563 6.73253 1.98777C7.19119 2.29922 5.68208 2.27955 6.19051 1.98121Z" fill="#C2D85C"/>
</svg>
