<svg width="148" height="51" viewBox="0 0 148 51" fill="none" xmlns="http://www.w3.org/2000/svg">
<path d="M11.3536 49.6208C11.4447 49.5577 11.8095 49.7132 11.9678 49.6871C11.7861 50.3571 11.0252 49.85 11.3536 49.6208ZM27.9533 1.00687C27.8193 1.17171 27.6853 1.33655 27.5513 1.50139C27.9279 1.61188 28.4359 1.49395 28.7849 1.65399C28.8419 1.68086 28.6898 2.15983 28.8251 2.18229C28.9605 2.20461 28.9393 1.54833 29.1369 1.47965C29.3587 1.40458 30.3674 1.86951 30.718 1.86123C32.0293 1.82733 33.3546 1.46363 34.6654 1.74747C33.3056 2.22122 34.6674 2.72692 35.0488 2.5199C35.1333 2.47196 35.1306 1.25201 36.4879 1.57124C37.3504 1.77393 36.5365 3.51039 37.9861 2.65C36.8886 1.41999 37.9782 1.51538 38.8477 1.48296C38.9976 1.47715 40.2059 1.67183 40.7407 1.62299C40.9237 1.60596 41.2085 0.969776 41.4512 0.955372C41.6183 0.945936 41.741 1.29644 41.989 1.28109C43.1451 1.21369 44.2814 1.19794 45.437 1.32791C44.7442 2.96274 45.9604 2.03305 46.0138 2.11213C46.2847 2.56071 45.0371 2.67476 45.5272 2.95863C46.2165 2.91485 46.9057 2.87116 47.5949 2.82755C47.0318 2.62002 48.3578 1.45292 48.5938 1.99271C48.5605 1.46076 48.9712 1.4926 49.5294 1.72301C50.4949 2.12142 51.901 3.11376 52.2172 2.81027C52.3211 2.70909 51.6559 1.98462 53.2139 2.32993C53.3826 2.36826 53.3137 2.80524 53.4029 2.76543C53.4562 2.74149 53.7933 1.35391 54.1272 2.12648C54.2491 2.40848 53.4388 3.31313 55.1998 2.96566C54.5162 1.54178 57.6446 2.22648 58.2171 2.58809C58.104 2.39654 57.991 2.20499 57.878 2.01344C58.4422 2.53316 58.5507 2.05295 58.6788 2.08067C59.1952 2.19203 59.901 2.68544 60.3836 2.6468C60.9483 2.60246 60.9605 1.72191 61.6141 2.07216C61.4604 1.87604 61.3066 1.67992 61.1528 1.4838C61.6065 1.53591 62.0601 1.58805 62.5137 1.64019C61.4483 2.79343 62.7399 1.69847 62.8244 1.67438C62.9592 1.63355 62.7606 2.10847 62.9859 2.0517C63.0093 2.04219 62.981 1.59242 63.3279 1.54604C64.0526 1.4507 63.9315 2.01435 64.2353 2.01156C64.2631 2.00898 64.1705 1.60298 64.6962 1.51345C66.367 1.22841 64.6842 1.82358 64.6196 1.87879C64.5347 1.9516 65.0863 3.6502 63.6772 3.03349C64.1505 3.23011 64.1894 3.97934 64.2427 3.99856C64.2899 4.0144 65.115 3.91874 65.1607 3.8935C65.5687 3.6441 65.2185 3.12825 65.2985 3.03751C65.3639 2.96436 66.3484 3.64293 66.5993 2.1069C67.0571 3.53197 66.3108 3.39297 65.5119 3.60164C65.3922 3.89151 66.2633 4.18518 66.3092 4.18495C67.437 4.19586 66.8266 3.02086 67.0821 2.27749C67.2163 1.88855 67.6663 2.69059 67.2546 1.63862C68.2795 1.5404 67.6515 2.13959 67.7165 2.23016C67.8147 2.36326 68.1764 2.06753 68.2208 2.10803C68.2859 2.16799 68.0527 2.5277 68.3106 2.65849C68.3535 2.67757 68.779 2.05887 68.2436 1.75426C68.9627 1.85159 68.9098 1.31903 69.1411 2.39379C69.6614 0.372005 69.4865 3.59672 69.6804 3.71269C70.1961 4.01845 70.0646 2.42458 70.0929 2.34727C70.2879 1.85204 71.7186 2.4163 72.0773 2.19116C71.923 3.33615 70.9378 2.18991 70.7117 2.40968C69.958 3.14079 71.7544 2.99565 71.1962 4.42991C71.4277 4.03695 71.6592 3.64399 71.8907 3.25103C72.2952 4.18243 71.7006 4.57924 72.8234 4.25424C73.016 3.45687 72.0309 4.37097 72.2339 3.74352C72.3536 3.37527 73.0032 3.30373 73.0183 3.10901C73.034 2.87458 72.4443 3.1455 72.5411 2.78582C72.7523 2.00965 74.8815 2.77675 73.2487 3.18199C73.6437 3.1752 73.8579 4.34793 74.1699 4.33924C74.2166 4.33793 74.2655 4.31013 74.3175 4.2479C74.4141 4.13194 74.278 3.75788 74.1817 3.35682C74.0993 3.01353 74.0462 2.65045 74.1932 2.41249C74.3337 2.18493 74.6573 2.07178 75.3134 2.19978C75.3503 2.93162 74.4518 2.40533 74.4277 2.4607C74.3937 2.54131 74.5374 4.19351 74.5648 4.2753C74.6618 4.54469 76.8663 3.68757 77.3197 4.52225C77.1478 3.56628 78.9792 4.37207 79.1832 4.08386C79.2375 4.00427 79.045 3.41765 79.1029 3.35649C79.4632 2.99274 80.4134 4.04722 80.8596 4.0796C81.3589 4.11621 81.3016 3.61087 81.3296 3.61216C81.5491 3.64294 81.3693 3.9829 81.5038 3.98355C81.7069 3.98435 83.1013 4.07098 83.1722 4.00043C83.1929 3.97843 82.972 3.39931 83.2775 3.2936C83.3304 3.27528 83.2889 3.95829 84.1931 3.6738C85.282 3.33163 83.45 2.81501 83.9092 2.1047C84.5938 3.13197 84.5832 2.12191 84.7711 2.20344C84.8362 2.2331 85.3128 3.0974 85.8421 3.04933C85.4611 3.18421 85.08 3.31908 84.6988 3.45394C85.0701 3.60891 85.7967 3.43114 86.102 3.60482C86.251 3.68937 86.1191 4.3932 86.445 4.37798C86.5143 4.37091 86.8087 2.65585 85.9465 3.41681C85.8856 2.80245 86.2868 3.20678 86.4771 3.03544C86.506 3.00873 86.6303 1.98505 86.8633 2.6249C86.9191 2.78229 86.2555 5.76497 87.902 3.61983C87.9551 3.55069 87.7779 3.17411 87.8299 3.09708C87.8654 3.04492 88.2774 3.20122 88.3237 3.14863C88.3712 3.09217 88.1761 2.68103 88.2327 2.60124C88.5229 2.19007 88.8787 3.81581 88.2916 3.68542C88.4859 3.8881 88.6804 4.09079 88.8747 4.29346C88.6784 3.06903 89.1877 3.95324 89.4603 3.91875C91.2072 3.69837 90.0484 2.89012 90.353 2.48237C90.8429 1.82768 90.4505 3.91464 91.1736 3.2945C91.2404 3.2365 90.3854 2.33895 92.0692 2.85913C91.8194 2.89087 91.5697 2.92261 91.3199 2.95434C91.4502 4.13793 92.2213 2.88355 92.2796 2.86762C92.9448 2.71287 92.4916 3.13388 93.4835 2.53637C93.5721 2.48272 93.7604 2.77657 93.9501 2.63318C94.7365 2.0425 92.9254 2.25787 92.8813 1.77876C92.8606 1.54407 94.8047 1.62499 94.8701 1.73702C95.1481 2.23371 93.9862 1.94454 94.2014 2.5597C94.2801 2.77825 97.0565 2.36217 97.6097 2.60652C98.2481 2.89094 98.5197 4.49653 98.5432 2.69599C98.6268 3.60976 98.7134 3.73047 98.7889 3.63534C98.8595 3.54626 98.9204 3.26794 98.96 3.27426C99.9502 3.44849 99.9518 3.46634 100.804 3.30607C100.992 3.27126 101.145 3.80919 101.213 3.71934C101.252 3.66505 101.186 3.0904 101.377 2.91532C101.642 2.67588 103.217 3.28246 103.331 3.60086C103.446 3.91931 102.662 3.7316 102.798 4.25463C103.365 4.3132 103.912 4.18969 104.483 4.25041C104.72 4.2772 104.595 4.64104 104.697 4.64933C104.741 4.65426 105.565 4.34096 105.531 4.20594C105.453 3.89213 102.917 4.077 103.591 3.4448C103.721 3.32266 104.167 4.16853 104.105 3.14482C106.366 3.39963 108.626 3.65341 110.886 3.90594C109.579 4.65927 108.123 3.96118 106.76 4.01964C106.574 4.02669 105.944 3.92182 106.015 4.43962C107.172 4.58491 108.614 4.32929 109.723 4.67655C109.758 4.68803 109.623 5.15137 109.756 5.22622C110.004 5.36595 110.821 4.62416 110.956 4.81913C110.979 4.86448 110.512 5.47268 110.649 5.86316C111 6.86523 111.111 4.65394 111.421 4.68295C111.66 4.70638 113.26 5.79022 113.667 5.11784C114.099 4.40127 112.485 4.68937 112.609 4.10145C113.705 3.51924 114.804 4.16064 115.835 4.0954C115.853 4.09367 115.699 3.63087 115.929 3.56819C116.33 3.4591 116.43 4.11457 116.624 4.22087C116.833 4.33407 117.576 4.24618 117.674 4.48563C117.686 4.51703 117.53 5.16515 117.507 5.18322C117.182 5.44826 117.074 4.6046 117.044 4.59355C116.934 4.56071 116.823 4.88262 116.722 4.86258C116.556 4.82918 116.467 4.52981 116.248 4.50165C116.097 4.48112 116.238 5.05579 116.093 5.02838C116.039 5.016 115.473 3.70174 115.408 5.03798C115.388 5.45985 120.105 6.03839 120.579 5.70409C120.175 5.54041 119.772 5.37667 119.368 5.21288C120.187 5.61037 121.182 4.54943 121.241 6.13005C121.934 6.16442 122.627 6.19865 123.321 6.23271C125.674 6.34833 128.026 6.46211 130.378 6.57382C130.921 6.71116 130.618 7.72515 131.514 7.43394C131.284 7.10934 131.055 6.78473 130.825 6.46008C131.283 6.68946 133.312 7.14209 133.642 6.93385C133.685 6.90657 133.748 5.98783 134.256 5.91095C134.706 5.84305 134.776 6.53189 135.016 6.66472C135.218 6.77433 135.445 6.59477 135.505 6.63301C135.551 6.66361 135.568 7.08474 135.678 7.15857C136.027 7.38685 135.748 6.20028 136.09 7.56291C136.006 7.61449 135.921 7.66607 135.836 7.71764C136.258 7.91622 136.832 8.53624 136.209 8.83902C136.102 8.89128 136.195 8.48425 136.116 8.48467C132.992 8.54852 135.483 9.3502 136.58 8.72128C136.859 9.32595 138.436 8.96231 138.488 9.08131C138.56 9.2538 138.289 9.73543 138.641 10.153C138.715 10.2415 140.823 9.90878 140.062 10.7091C139.905 10.8742 138.896 10.6977 138.652 10.7206C139.222 12.0017 140.569 10.172 140.72 10.2193C141.329 10.42 139.547 11.3253 140.919 11.4771C141.975 11.5933 140.986 10.7371 141.392 10.3733C141.62 10.1692 142.813 11.1124 142.783 9.89361C143.192 9.76412 142.952 10.409 143.002 10.4555C143.052 10.4964 143.858 10.1327 144.119 10.3899C144.151 10.4219 144.05 11.0552 144.083 11.107C144.147 11.1959 144.924 11.0701 144.955 11.0164C144.975 10.9791 144.79 10.4244 144.867 10.29C144.955 10.135 145.703 10.2661 145.744 10.1076C145.803 9.86796 144.88 10.0251 145.034 9.40508C145.459 9.56164 146.152 9.1483 146.433 8.64917C146.364 8.79189 145.952 8.81216 145.809 8.76174C145.877 7.85357 146.762 7.86636 146.459 8.58509C146.652 8.1991 146.52 7.99423 146.629 7.62992C146.657 7.53765 146.93 7.51873 146.983 7.36148C146.99 7.33015 146.708 6.98737 146.765 6.80292C146.867 6.46963 147.695 6.54477 147.763 6.63219C147.954 6.88004 147.278 7.17989 147.222 7.56296C147.214 7.6218 147.788 8.37261 147.797 8.4389C147.831 9.15031 147.191 8.63758 147.264 9.27812C147.422 9.41345 147.58 9.54876 147.739 9.68407C147.128 10.3328 146 9.99869 145.708 10.7362C146.613 10.5173 147.56 10.5434 147.558 12.2049C147.557 12.9047 147.166 13.3148 147.181 13.4927C147.239 14.1294 147.782 13.4378 147.801 13.4714C147.818 13.5102 147.826 13.548 147.825 13.5848C147.825 13.5848 147.825 13.5848 147.825 13.5848C147.826 13.9576 147.052 14.2259 147.013 14.3961C146.948 14.6984 147.292 15.9428 147.292 16.2181C147.28 16.2734 146.728 16.5677 146.914 17.0481C147.102 17.5333 147.585 17.5441 147.602 17.5945C147.694 17.8848 146.85 18.1493 146.824 18.3207C146.811 18.4074 147.264 18.9399 147.278 19.0929C147.289 19.2466 146.944 19.5816 146.808 20.0664C146.707 20.4265 147.002 20.7028 146.95 20.7592C146.913 20.7966 146.114 20.7902 146.075 20.8534C146.016 20.947 146.203 21.3776 146.176 21.4852C146.137 21.64 145.879 21.4845 145.913 21.6438C145.938 21.7625 146.937 23.2469 146.931 23.6432C146.919 24.3193 145.86 22.7633 146.845 25.4316C146.852 25.4491 147.092 25.2596 147.099 25.276C147.247 25.7669 146.477 26.5218 147.418 26.39C145.667 27.242 147.2 27.4063 146.941 28.5445C146.84 28.9821 146.161 29.1622 146.158 29.2278C146.223 29.7829 146.44 29.3525 146.514 29.6247C146.554 29.7769 145.946 30.3634 146.082 30.7446C146.153 30.941 146.799 30.8714 146.825 30.9097C147.081 31.2711 146.767 31.6602 146.823 31.9168C146.861 32.0889 147.25 32.1026 147.261 32.1336C147.277 32.1981 146.747 32.8932 146.637 33.1375C146.553 33.3255 146.868 33.6202 146.809 33.7021C146.456 34.1922 145.707 32.9416 146.429 34.6939C146.473 34.8013 146.746 34.758 146.755 34.7794C146.923 35.2761 146.42 35.3189 146.329 35.7253C146.174 36.4258 146.899 36.0356 146.296 36.528C146.748 36.9863 147 36.9673 147.529 36.8396C146.064 37.1956 145.546 39.0087 147.173 38.9637C146.655 38.9353 146.712 39.9588 146.558 39.9767C146.462 39.9867 145.712 38.9686 146.055 41.2521C146.098 41.5374 146.554 41.1752 146.411 41.7589C145.316 41.6094 146.387 42.1304 146.389 42.2076C146.374 43.5528 143.699 42.4489 143.239 42.6013C142.706 42.7784 142.23 43.8374 142.114 43.8385C141.732 43.8383 142.05 43.3007 141.965 43.1027C141.879 42.9066 140.792 43.9353 140.738 43.8785C140.528 43.6506 140.743 43.0134 140.721 42.9812C140.462 42.59 139.004 43.0857 138.596 42.9362C138.608 43.3499 139.427 43.3849 138.914 44.048C138.316 44.8209 138.287 42.9972 138.272 42.917C135.545 42.9263 132.819 42.9325 130.093 42.9359C130.122 43.9064 131.908 43.1834 131.948 43.3111C132.182 44.0688 129.171 44.0401 128.804 43.6952C129.083 43.9063 129.363 44.1173 129.642 44.3283C129.157 45.4412 128.105 43.9864 127.409 44.4748C127.185 44.6332 127.612 45.0661 127.603 45.0955C127.349 45.5272 126.947 45.1911 127.252 44.6112C126.635 45.165 126.728 44.5506 126.257 44.5016C126.233 44.4995 126.433 44.9508 126.058 45.1352C125.883 45.2213 124.951 45.2169 124.824 45.6098C124.772 45.7752 125.234 47.5236 125.301 46.0217C126.311 46.7603 125.629 45.3392 126.023 45.3761C126.083 45.3843 125.939 46.2221 126.934 45.8332C126.736 47.3443 125.6 46.2067 125.403 46.3886C124.997 46.7626 126.657 47.5537 126.969 46.3767C126.819 47.5558 127.086 46.5364 127.457 46.587C127.862 46.6419 127.683 46.9923 127.903 46.9954C128.504 47.0076 128.26 46.1733 128.751 46.9269C128.281 44.5996 129.6 46.6247 129.986 47.2355C129.354 47.3503 128.722 47.4649 128.09 47.5794C128.125 47.7017 128.161 47.824 128.196 47.9462C128.03 47.928 127.864 47.9098 127.698 47.8916C127.725 47.7747 127.752 47.6579 127.779 47.541C126.918 48.2968 126.713 47.4406 126.644 47.4307C125.744 47.3262 124.705 47.3271 123.796 47.3183C123.674 47.3172 123.731 47.9227 123.042 47.6265C122.959 47.5906 122.864 47.5414 122.757 47.4762C122.441 47.2844 122.745 46.6945 122.385 46.7809C121.924 48.3862 121.941 47.1033 121.807 47.1004C121.424 47.0979 121.186 47.4947 121.151 47.4986C120.676 47.5574 119.983 47.4858 119.462 47.5412C119.452 47.5472 119.719 48.0434 119.382 47.8946C119.263 47.8416 118.214 45.7242 117.278 46.4044C117.519 46.5487 117.76 46.693 118.001 46.8373C117.718 46.6362 115.719 47.1517 116.202 47.7203C116.498 48.0678 117.239 46.714 117.309 48.0221C116.648 47.626 112.977 48.1805 112.694 47.8739C112.655 47.8302 112.901 47.408 112.847 47.3533C112.805 47.3116 111.965 47.4047 111.855 47.2408C111.79 47.1434 112.163 46.8867 112.134 46.7336C112.109 46.6244 111.062 46.4334 110.997 46.9646C111.257 46.7534 111.979 46.9463 111.595 47.3911C111.546 47.4463 111.296 47.1011 111.236 47.1712C110.68 47.8178 112.326 47.6761 112.58 47.6836C111.541 48.3521 109.95 47.539 108.75 47.9693C108.271 47.5222 109.473 47.299 108.929 46.9272C107.802 46.1565 108.622 47.5364 108.586 47.5924C108.3 48.0363 107.363 45.6342 107.345 47.4555C106.936 47.1774 107.071 46.949 106.489 47.1817C106.564 47.3086 106.639 47.4354 106.714 47.5623C106.059 48.6111 104.721 45.936 104.826 45.7339C105.106 45.1933 105.808 46.0479 105.869 46.0281C105.959 45.9988 106.225 44.1531 107.191 45.8151C107.606 44.5794 105.642 44.9634 106.542 44.1271C105.938 44.2601 103.471 43.3726 103.109 43.9129C103.066 43.9835 103.251 45.2206 102.646 44.5857C102.359 44.2834 103.059 44.2762 102.929 43.9935C102.673 43.4391 100.309 43.4411 98.3599 43.5228C97.2582 43.5691 96.2891 43.641 95.9077 43.6533C95.8391 43.6539 95.8685 43.2709 95.8011 43.2737C95.5942 43.2821 94.8341 43.8454 94.4659 43.6648C95.2249 44.3829 93.7348 44.4215 93.3568 44.3391C92.7831 44.2138 92.8263 43.5396 92.5795 43.3934C91.6285 42.8296 90.1269 44.4141 89.4006 42.9083C89.4241 44.3947 88.123 42.165 87.5198 42.1448C87.0473 42.1287 86.35 43.1039 86.981 43.7104C86.1658 43.6324 85.3038 43.8995 84.5374 43.9807C84.4107 43.9944 84.5901 43.557 84.3738 43.5942C84.3541 43.6008 84.322 44.031 84.1361 44.0736C82.6018 44.4308 83.3571 43.5246 83.074 43.2522C82.9157 43.0997 82.7984 43.0233 82.7119 42.9976C83.6045 42.9241 84.6351 42.7672 84.9103 42.7582C84.6869 41.8046 82.9317 42.9174 82.4248 42.6554C82.4072 42.6459 82.4751 42.1225 82.4572 42.1186C82.4568 42.1186 82.4564 42.1186 82.456 42.1186C82.2653 42.0762 81.0458 42.255 81.2889 42.8829C81.3542 43.0507 81.9145 43.0571 82.5797 43.0082C82.3985 43.1233 82.5257 43.712 82.4937 43.7367C82.1053 44.0223 81.1693 43.438 80.8358 43.3567C80.7595 43.3388 80.7605 43.715 80.7479 43.7158C80.4448 43.6267 80.5825 42.5542 80.2571 43.658C79.7224 42.3129 81.2918 43.4717 81.1907 42.601C81.1129 41.9307 77.5926 42.2479 77.5905 43.3024C77.5797 43.1895 77.5331 43.0489 77.4358 42.8885C77.2202 42.532 76.2404 42.6309 76.0692 42.8232C76.0403 42.8611 76.0393 43.8846 76.0038 43.8937C75.9152 43.9161 74.729 43.0992 74.2751 43.6988C74.5146 43.8451 74.754 43.9915 74.9935 44.1378C73.5369 44.1291 73.7584 44.4364 74.2399 44.7483C74.2641 44.7513 74.2873 44.7905 74.3104 44.7949C74.6837 45.0257 75.1634 45.2495 75.1697 45.3303C75.1842 45.5176 74.277 45.6434 73.6719 45.5017C73.2811 45.4101 73.0163 45.2069 73.2073 44.8365C73.237 44.78 73.4719 44.832 73.6798 44.8508C73.9466 44.875 74.1689 44.8445 73.8553 44.4598C73.8311 44.43 73.7675 44.419 73.685 44.4181C73.4352 44.4155 73.0119 44.5057 72.9836 44.4492C72.8392 44.163 73.3064 43.8306 73.6966 43.4658C73.9874 43.1939 74.2354 42.9039 74.1553 42.6016C74.0145 42.8381 73.8613 42.9455 73.7023 42.9931C73.4128 43.0798 73.104 42.9684 72.8147 43.0768C72.6107 43.1527 72.5546 43.6653 72.5294 43.6746C72.1534 43.804 72.37 43.2686 72.2449 43.2805C72.1777 43.2889 71.4262 44.4251 71.5847 42.8483C69.1404 43.9801 70.8983 44.0002 72.3904 43.9293C71.9124 44.4985 70.9921 44.2093 70.576 44.3377C70.4268 44.3844 70.5086 44.9122 70.2561 45.0145C69.7364 45.2249 67.2759 44.5902 66.6349 44.4398C67.0319 44.2585 66.9234 43.6834 66.6182 43.7194C66.3129 43.7556 66.5597 44.5245 66.4993 44.6061C66.4346 44.6905 65.0093 44.312 64.7703 44.4084C65.8498 44.1439 65.6139 43.5688 64.7011 43.4981C64.8352 43.3348 64.9692 43.1716 65.1032 43.0084C64.565 43.2336 63.4498 42.3474 63.1372 42.6035C63.0882 42.6447 63.2569 43.1278 63.2294 43.1509C62.9555 43.3521 62.0379 42.8506 61.993 43.0142C61.955 43.1504 62.3441 43.5584 62.1956 43.7552C62.1646 43.7967 61.7925 43.1419 61.4167 43.2974C61.2772 43.3546 61.3554 43.8105 61.3202 43.8365C61.0263 44.0519 61.2072 43.2878 60.6734 43.4046C60.2823 43.4912 59.9831 44.2368 59.447 43.9824C61.2055 44.9579 59.7225 44.5417 58.9793 44.8224C58.8602 44.8672 58.9522 45.6943 58.2485 45.284C59.7734 43.808 57.8277 44.4896 57.4317 44.4688C57.41 44.4635 57.4088 43.9187 57.2145 43.9078C57.1981 43.9081 57.2175 44.2764 57.0365 44.3025C55.3204 44.549 56.4205 44.1457 56.0992 43.779C55.9624 43.6228 55.1235 44.1338 54.899 44.1438C54.8474 44.1445 54.8754 43.7623 54.6757 43.7751C54.3223 43.7985 54.0014 44.2021 53.768 44.2318C53.7407 44.2334 53.7464 43.6299 53.3024 43.8207C53.1776 43.874 53.0358 44.0867 53.2102 44.2622C53.7888 44.8394 54.9097 43.8642 55.5646 44.4413C56.1617 44.9669 54.2597 44.9942 54.1608 44.9962C54.1245 44.9977 54.4992 44.7022 54.1226 44.6387C53.801 44.5857 53.2006 45.6214 52.7231 45.3891C52.6867 45.3718 52.313 44.4838 52.3312 44.4325C52.3477 44.395 52.9389 44.2097 52.8562 43.953C52.8463 43.9238 52.4719 43.9255 52.4251 43.7346C52.3678 43.5021 52.2316 41.2258 52.1523 41.1678C51.9487 41.0247 52.0765 41.5449 51.9441 41.5074C51.6604 41.4281 50.6805 40.7446 50.6398 41.5327C50.8024 41.5813 50.9649 41.6299 51.1275 41.6785C50.2193 41.7496 50.6024 42.0895 50.4722 42.2359C50.3321 42.3944 50.3786 41.7018 50.0734 41.6334C50.0304 41.6236 49.4772 41.6751 49.0987 41.7918C48.8931 41.8552 48.739 41.9378 48.7461 42.0403C48.9101 41.9355 49.022 41.9 49.0974 41.9078C49.3498 41.9336 49.1946 42.4423 49.2196 42.4543C49.3429 42.5114 49.5064 42.0328 49.6727 42.0441C50.8417 42.132 49.6537 42.8774 49.9278 43.0754C50.0221 43.1421 50.2159 42.734 50.256 42.7555C50.3864 42.8248 50.3827 43.3619 50.4706 43.3194C50.6757 43.2208 50.4458 42.4583 50.4624 42.4189C50.6499 41.9454 51.3579 42.5449 50.9041 43.3669C51.1678 43.6678 51.2101 42.6632 51.4174 43.0673C51.8296 43.8674 51.2012 43.6561 51.029 43.7864C50.4109 44.2561 50.2334 43.8684 49.3646 43.9911C49.2705 44.004 49.1709 44.0568 49.0736 44.125C48.847 44.2838 48.6329 44.526 48.5313 44.5437C48.4399 44.5595 47.596 42.852 47.5425 45.5098C47.2103 45.2491 46.7031 43.492 46.3571 43.5685C46.0465 43.6383 46.1352 44.5797 46.1059 44.6158C46.061 44.6725 45.6871 44.5945 45.559 44.7261C45.4089 44.8815 45.4794 45.2412 45.2423 45.3851C44.6524 45.7421 44.6776 44.7824 44.6179 44.7194C43.9258 43.9913 44.2182 45.3597 44.0619 45.4676C43.9165 45.5667 41.8974 45.021 41.468 45.3624C41.6433 45.1719 41.8185 44.9813 41.9938 44.7907C41.6894 44.189 41.3509 45.1623 41.3556 44.0886C41.2757 45.8213 40.6466 44.6565 40.4538 44.6994C40.3778 44.7171 40.3809 45.0126 40.2859 45.0244C39.9148 45.0726 39.0814 44.8295 38.879 44.9774C38.0037 45.614 40.2162 46.7076 40.3905 46.7742C40.0403 46.7516 38.0554 47.1212 38.9582 47.963C39.0978 48.0929 39.3545 47.3196 39.4339 47.29C39.971 47.0954 39.5435 47.7865 39.5848 47.853C39.6551 47.9604 40.0137 47.2918 40.1059 47.3727C40.1367 47.3987 39.931 48.0262 40.4412 48.0443C40.1843 48.652 38.7548 48.1413 38.5652 48.2828C38.4977 48.3334 38.9057 49.6411 37.6902 48.3632C37.7033 48.4844 37.7164 48.6056 37.7295 48.7268C37.0457 48.7703 36.362 48.814 35.6784 48.8577C35.7551 48.5795 36.1438 48.0227 35.6595 48.1373C35.3808 48.2036 35.5811 48.8266 35.5555 48.8444C35.3042 49.0127 30.8894 48.7686 30.0335 48.8317C29.7423 48.8519 28.9272 49.3449 28.8653 49.3537C28.4951 49.4008 27.1881 49.0661 26.9264 49.1348C26.763 49.1788 26.9143 49.6993 26.7687 49.6739C26.6335 49.6495 26.7774 49.1486 26.7373 49.1273C26.5247 49.0093 25.408 49.2295 24.4758 49.278C23.9526 49.3052 23.4875 49.2783 23.2726 49.1067C23.4522 49.1776 23.9861 48.9753 24.4796 48.7092C24.9924 48.4326 25.4616 48.087 25.4441 47.9066C25.4364 47.858 24.9935 47.4731 24.9003 47.6587C24.8279 47.447 24.6654 47.6499 24.4852 47.8844C24.2946 48.1323 24.0842 48.4155 23.9394 48.2809C23.9075 48.2512 24.0387 47.5099 23.5335 47.3719C23.3594 47.3247 22.8993 47.9002 22.444 47.2489C21.7771 47.5559 18.2865 46.5736 18.0425 47.3701C18.0352 47.4122 18.5259 47.6894 18.1917 48.0149C17.7474 48.4476 18.152 46.9844 17.6375 46.8553C17.5599 46.8356 16.1257 46.9769 16.0784 47.0674C15.6406 47.8877 16.8911 48.227 16.8731 48.3225C16.8282 48.563 15.7873 48.7037 15.7453 48.6467C15.7053 48.5875 16.5589 47.5018 15.5374 47.9103C15.6536 48.041 15.7698 48.1718 15.8859 48.3025C15.4054 48.5539 15.3631 47.7999 15.2471 47.7533C14.8866 47.6059 14.4912 48.7492 13.9186 47.3325C13.7672 46.9565 14.0229 46.5408 14.004 46.4844C13.8223 45.9785 13.5823 47.3289 13.31 46.3198C13.2894 46.2446 13.9352 45.6433 12.8107 45.6373C12.8878 45.7343 12.9648 45.8312 13.0418 45.9281C12.8824 46.1432 11.7437 46.2672 11.5907 46.2157C11.1439 46.0651 11.5365 45.3727 11.0865 45.4541C11.3716 46.4058 10.0043 46.5254 10.0854 45.7072C9.8913 46.7345 8.73258 45.9381 8.18672 45.9124C7.84232 45.8969 7.13888 46.3438 7.02963 46.2912C6.89649 46.2266 6.93853 45.5254 6.69815 45.3688C6.62954 45.3241 5.91213 45.8367 5.28448 45.1097C5.16286 44.9697 4.90867 43.7798 5.1358 43.4828C5.52468 42.9747 6.25692 43.9344 6.2489 43.2315C6.23937 42.4796 5.24967 42.9249 4.98375 42.8264C3.75577 42.3708 4.46629 41.5725 4.4351 41.3302C4.35397 40.7421 3.6822 40.7595 3.65425 40.7066C3.53834 40.4717 4.01494 40.0069 4.02262 39.6481C4.03196 39.1808 3.38508 38.3368 3.53253 38.1795C3.74368 37.9561 4.33827 38.6597 4.37603 38.6262C4.86815 38.1736 4.19603 37.0932 4.01086 36.5626C3.95475 36.3994 4.17949 36.1315 4.13286 36.0836C3.42095 35.3566 3.98071 37.6005 3.50695 37.4501C3.08426 37.3161 3.62909 36.6073 3.61302 36.5682C3.59219 36.5252 3.08655 36.486 3.00762 36.2349C2.96856 36.1091 4.28495 34.7309 4.23106 34.1122C3.81118 34.248 3.39136 34.3838 2.97161 34.5197C2.93948 33.7131 3.54255 34.3075 3.60505 34.2244C3.73094 34.0576 3.3809 33.649 3.39621 33.394C3.40443 33.2318 3.81664 32.6535 3.4451 32.4144C3.31737 32.3319 3.0487 32.8972 2.58381 32.319C4.20436 31.5826 3.08241 31.1281 3.03479 30.8423C2.98822 30.5565 3.76277 29.8848 2.82334 30.0028C2.78403 28.433 2.84404 29.5066 3.11126 29.231C3.43868 28.8922 2.68325 28.3744 3.87834 28.7679C3.81126 28.0329 2.85004 28.0838 2.79922 28.0252C2.75532 27.972 2.96931 27.6107 2.89324 27.4881C1.99318 26.0672 2.61167 26.7163 2.35131 25.8092C2.32818 25.7281 1.47609 25.3913 2.12504 25.2597C3.30756 25.0204 3.80023 26.0627 4.00178 23.8363C3.12796 22.8679 2.06649 24.3044 1.80079 24.3286C1.39378 24.3635 1.81563 23.9096 1.76556 23.7823C1.74816 23.7412 1.39737 23.7785 1.39267 23.7425C1.14332 22.044 2.95453 23.7151 3.52499 23.4206C3.37237 23.1661 3.21972 22.9117 3.06703 22.6572C3.27453 22.6472 3.48204 22.6373 3.68954 22.6273C2.7016 22.115 3.65479 22.4337 3.90312 21.0589C3.95888 20.75 3.30844 21.2791 4.05074 20.4213C3.50424 20.2224 3.67891 19.9416 3.1834 20.3287C3.19666 19.7775 4.31159 19.1571 4.75163 18.875C3.19953 18.2535 4.08272 20.2763 2.74162 19.2052C2.49214 19.8875 3.13285 19.7552 3.0805 19.8678C2.89278 20.2727 2.45382 19.6291 1.92296 21.0479C1.83657 21.2809 2.20109 21.9983 1.66104 21.9633C1.60133 21.9584 1.25745 21.3453 1.26222 21.3009C1.30805 20.8209 1.64863 21.0009 1.66279 20.8006C1.6761 20.6109 1.29595 20.7248 1.29467 20.6722C1.28324 20.0708 1.61192 20.4425 1.56425 20.2542C1.46148 19.8447 0.0939241 18.5501 1.87908 18.9299C0.396007 19.6091 1.68888 19.5937 2.26639 19.333C2.41367 19.2676 2.45124 18.9085 2.66119 18.784C2.93125 18.6228 3.24701 18.7955 3.38674 18.7298C3.53709 18.6573 2.6843 17.8072 3.91871 18.062C3.29126 17.2166 2.18031 18.1161 1.56337 17.5228C0.317981 16.3239 2.43288 16.0676 2.65342 15.9518C2.71216 15.9204 2.51575 15.4352 2.5549 15.4055C2.61898 15.3599 3.81925 15.5853 3.93813 15.1841C4.05669 14.7832 3.49834 15.2021 3.46172 14.7838C3.43682 14.5021 4.88631 14.0045 4.10225 13.811C3.56166 13.6783 2.56424 14.8092 2.39735 13.5925C3.19261 13.4924 3.9879 13.3926 4.78321 13.2931C4.34869 12.8296 3.91398 12.3662 3.47906 11.9028C4.37224 11.757 5.14319 12.2808 5.99237 11.6197C3.95675 10.1329 6.65641 10.4371 6.68652 10.2569C6.69677 10.1489 5.89658 8.94345 5.76771 8.72304C6.47983 8.26098 8.64239 8.03986 7.38089 6.55035C7.60975 6.88651 8.16789 6.05932 8.16075 5.99677C8.09177 5.33981 6.87739 5.76288 7.0766 5.17022C7.30751 4.4824 7.62682 5.41693 7.97976 5.34322C9.79094 4.95919 9.30436 1.52938 11.1194 2.07766C11.0836 1.95547 11.0479 1.83327 11.0122 1.71108C12.9862 1.91192 14.9593 2.11438 16.9315 2.31831C17.7085 1.27497 19.7672 0.648335 20.7756 0.770182C20.9787 0.793882 21.9729 1.34931 22.0475 1.44613C22.1858 1.63159 21.4191 1.69739 21.7633 2.04564C21.836 2.11703 23.5226 2.35847 23.4056 1.77203C23.2169 1.70289 22.623 1.9936 22.527 1.85499C22.1691 1.33027 23.4641 1.31418 24.7978 1.35666C25.9786 1.39421 27.1896 1.47766 27.312 1.29212C27.1981 1.10105 27.0842 0.909992 26.9704 0.718937C27.2981 0.814882 27.6257 0.910862 27.9533 1.00687ZM12.6757 47.9654C12.4786 48.5524 11.992 48.1091 11.7029 48.2731C11.3033 48.5027 10.6185 50.7637 10.9177 48.4962C11.5035 48.3192 12.0895 48.1422 12.6757 47.9654ZM21.2308 48.8834C20.8398 48.5654 21.152 47.3003 21.471 47.8289C21.5064 47.889 21.7597 49.3115 21.2308 48.8834ZM17.1161 48.2596C17.1328 48.2429 17.472 48.2782 17.4837 48.2981C17.7855 48.8083 16.7629 48.6992 17.1161 48.2596ZM37.0322 47.7529C36.598 47.8036 36.9016 48.9582 37.1755 48.4867C37.1927 48.4567 37.0607 47.7505 37.0322 47.7529ZM36.724 47.7196C36.3965 46.6852 35.6995 48.7693 36.2405 48.5637C36.293 48.5429 36.7391 47.7699 36.724 47.7196ZM19.8334 48.3717C19.8798 47.9767 20.284 48.1699 20.4565 48.2654C20.4497 48.6263 20.0033 48.3285 19.8334 48.3717ZM30.1138 48.3318C30.1335 48.0212 28.7233 48.0274 28.6242 48.4363C28.848 48.2642 30.0954 48.6109 30.1138 48.3318ZM33.7341 47.9252C33.6988 47.8711 33.2108 47.9487 33.2227 48.223C33.4575 48.5847 33.893 48.1697 33.7341 47.9252ZM40.9266 48.0093C40.9538 47.9407 40.6055 46.1924 41.4598 47.3492C41.5852 47.5186 41.1269 47.97 41.1715 48.0331C41.2648 48.1561 41.339 48.2137 41.3989 48.2245C40.9945 48.3652 40.5752 48.4292 40.5358 48.323C40.3504 47.8213 40.9146 48.038 40.9266 48.0093ZM44.7181 46.747C44.8041 46.4633 45.3332 46.6209 45.4527 46.7393C45.4732 46.7616 45.3751 47.5086 45.6146 47.4552C45.8069 47.411 45.5283 46.6419 45.9007 46.7684C46.2771 46.8953 45.7669 47.4361 45.7994 47.4754C45.8431 47.5269 46.4308 47.189 46.408 47.6343C46.391 47.9642 45.7676 47.7345 45.6121 47.8031C45.4131 47.8912 45.6476 48.4435 45.3177 48.3219C45.1104 48.246 45.2357 47.2804 45.1923 47.2311C45.1559 47.1913 44.4229 47.7403 44.7192 46.7501C44.7189 46.7491 44.7185 46.748 44.7181 46.747ZM41.5084 48.1829C41.4777 48.2152 41.4419 48.2323 41.3989 48.2245C41.4356 48.2118 41.4722 48.1969 41.5084 48.1829ZM13.8118 47.5457C14.0147 47.8447 13.4073 48.2246 13.1795 47.8331C13.1768 47.518 13.7795 47.4991 13.8118 47.5457ZM41.8899 47.3992C42.4864 47.6473 42.0426 47.9761 41.5084 48.1829C41.6791 48.0025 41.6897 47.3163 41.8899 47.3992ZM24.9003 47.6587C24.925 47.731 24.9402 47.8435 24.941 48.0282C24.8761 47.8258 24.8709 47.7172 24.9003 47.6587ZM26.2925 47.998C26.7747 47.4387 25.8031 47.4545 25.8064 47.8572C25.8082 48.0092 26.2732 48.0202 26.2925 47.998ZM37.5879 47.8129C37.5446 47.7575 38.2406 46.0647 37.2411 47.3306C37.7664 47.5357 37.2086 47.7156 37.2155 47.8644C37.233 48.2923 38.1222 47.8894 38.3166 48.076C38.4772 47.3123 37.7308 47.9956 37.589 47.8129C37.5887 47.8129 37.5883 47.8129 37.5879 47.8129ZM51.5275 47.2315C51.4024 47.6785 51.0229 47.5301 50.766 47.5009C50.891 47.0538 51.2706 47.2023 51.5275 47.2315ZM119.052 48.0356C117.275 48.4366 117.06 46.6088 118.677 47.343C118.709 47.3584 119.161 47.8513 119.052 48.0356ZM103.844 47.4271C103.685 46.6296 104.238 46.5073 104.598 46.8395C104.679 46.9143 104.975 47.7234 104.626 47.8775C104.647 46.9131 104.115 46.5392 103.844 47.4271ZM42.2334 46.8929C42.4131 46.3639 42.9461 46.747 43.2282 46.8296C43.0511 47.2648 42.4818 47.0615 42.2334 46.8929ZM113.233 47.0362C113.046 46.9743 112.914 47.6656 112.946 47.7235C113.088 47.9889 113.442 47.4322 113.233 47.0362ZM40.5016 46.7936C40.4801 46.4762 41.194 46.1778 41.2359 46.9625C41.0844 46.9042 40.5173 46.9927 40.5016 46.7936ZM51.0451 46.9881C50.9364 46.8257 51.5117 46.5433 51.683 46.7052C51.6654 47.0426 51.1164 47.0937 51.0451 46.9881ZM110.223 47.2444C110.056 47.1827 109.638 47.1606 109.589 47.44C109.529 47.7893 110.143 47.6757 110.223 47.2444ZM141.395 46.8249C141.416 46.9507 140.765 47.8556 140.477 47.6256C139.93 47.1856 141.372 46.7362 141.395 46.8249ZM115.005 46.6941C115.527 47.357 114.946 46.7144 114.964 47.408C115.318 47.4359 116.202 47.4773 115.6 46.7906C115.483 46.6578 115.17 46.7404 115.005 46.6941ZM114.52 46.4581C114.461 46.6823 114.075 47.3871 114.404 47.3392C114.556 47.3159 114.808 46.5312 114.52 46.4581ZM137.373 47.1228C136.901 46.5076 139.073 46.8434 139.135 46.9509C139.168 47.0078 139.19 47.0613 139.202 47.1067C139.282 46.9124 139.693 46.8784 139.739 47.3706C139.616 47.3296 139.28 47.372 139.241 47.3174C139.224 47.2941 139.212 47.2723 139.203 47.2502C139.057 47.677 137.464 47.2395 137.373 47.1228ZM133.776 46.4779C134.322 45.5746 134.412 47.1145 134.365 47.1639C133.772 47.7917 134.162 46.6578 134.144 46.6045C134.103 46.5159 133.681 47.041 133.778 46.4779C133.777 46.4779 133.777 46.4779 133.776 46.4779ZM136.636 46.8671C136.659 46.8471 137.114 46.8962 137.132 46.9206C137.504 47.4392 136.216 47.3025 136.636 46.8671ZM47.5788 45.6994C47.9005 45.8559 47.5773 46.4189 47.3646 46.213C47.3472 46.1927 47.295 45.5612 47.5788 45.6994ZM114.259 46.6085C114.184 46.501 112.259 46.0807 112.367 46.9371C112.532 46.8377 114.721 47.2968 114.259 46.6085ZM99.8528 46.2627C100.193 46.2729 99.8135 47.0758 99.6354 46.7731C99.5694 46.6607 99.7672 46.2606 99.8528 46.2627ZM39.5502 46.052C39.1952 46.4919 39.2818 45.0056 39.5812 45.5182C39.5929 45.5382 39.5641 46.0348 39.5502 46.052ZM102.563 46.7549C101.386 47.2317 101.69 44.6768 103.204 45.5559C103.155 45.6693 103.107 45.7827 103.058 45.8962C104.813 46.2977 103.176 46.0777 102.744 46.2165C102.58 46.2693 102.713 46.6976 102.564 46.7579C102.563 46.7569 102.563 46.7559 102.563 46.7549ZM98.0668 46.1948C97.4757 45.2202 97.8085 45.1081 98.342 45.1809C98.8091 45.2446 99.43 45.45 99.7196 45.3426C99.1127 46.086 98.334 45.9642 99.3865 46.743C97.8341 46.8749 98.4875 46.1587 98.4262 46.0979C98.4056 46.0786 98.3715 46.0843 98.3322 46.1008C98.233 46.1421 98.1006 46.251 98.0668 46.1948ZM101.043 46.2142C101.109 46.1619 101.597 46.5366 101.774 46.4782C101.52 47.0958 100.606 46.5698 101.043 46.2142ZM130.002 46.8816C130.046 46.3958 130.149 46.0384 130.537 46.222C130.415 46.4656 130.166 46.6743 130.002 46.8816ZM12.3153 45.4065C12.0504 45.3707 11.5234 45.1857 11.6834 45.6972C11.7009 45.7408 12.3134 45.6933 12.3153 45.4065ZM108.66 46.1648C108.604 46.1045 107.134 46.0504 107.637 46.5915C107.789 46.7547 109.127 46.6986 108.66 46.1648ZM116.276 46.2926C116.153 46.2865 115.652 46.374 115.641 46.4888C115.604 46.8859 116.22 46.6724 116.276 46.2926ZM10.9801 44.9044C10.9454 44.8538 10.1356 44.9405 10.2239 45.1766C10.3913 45.623 11.0991 45.0784 10.9801 44.9044ZM48.7674 44.5737C48.8355 44.5564 48.9196 45.0852 48.943 45.0914C48.9525 45.0928 48.9977 45.0883 49.0633 45.0833C49.3771 45.0597 50.1598 45.0262 49.761 45.5824C49.7289 45.6274 49.4257 45.6099 49.0581 45.5683C48.5037 45.5056 47.8029 45.388 47.6635 45.3463C47.5813 44.6207 48.3377 45.3182 48.5244 45.2456C48.5573 45.2318 48.5847 44.6258 48.7668 44.5767C48.767 44.5757 48.7672 44.5747 48.7674 44.5737ZM132.031 46.3787C132.089 45.9183 133.562 45.6197 133.542 46.1778C133.039 46.2449 132.535 46.3118 132.031 46.3787ZM131.284 46.2989C130.971 45.9715 131.707 45.8672 131.923 46.012C131.924 46.3219 131.329 46.3468 131.284 46.2989ZM113.504 44.5481C113.355 44.6595 113.803 45.3356 113.701 45.4654C113.635 45.5462 113.307 45.2914 113.2 45.5008C113.17 45.5673 113.501 46.2021 113.598 46.1756C113.737 46.1404 113.607 45.642 113.758 45.6398C114.259 45.6334 114.7 45.9918 115.17 45.9875C115.212 45.9861 114.886 45.6322 115.248 45.6402C115.304 45.6407 115.636 46.1665 116.069 46.0925C117.038 44.4805 117.727 46.0765 118.945 45.5017C118.9 45.3488 117.996 44.9327 117.943 44.9172C116.931 44.643 115.115 44.5989 114.054 44.5864C113.782 44.5827 113.911 44.9266 113.794 44.9382C113.701 44.9467 113.816 44.3128 113.504 44.5481ZM12.4574 45.0561C12.3334 44.4215 11.8888 44.8212 11.6059 44.7875C11.7035 45.3598 12.1813 44.9146 12.4574 45.0561ZM124.681 45.7706C124.537 45.7942 124.095 45.6004 124.057 45.791C124.008 46.04 124.648 46.2014 124.681 45.7706ZM55.7752 44.8313C55.7892 44.8142 56.1315 44.852 56.1442 44.8722C56.4445 45.3845 55.418 45.2685 55.7752 44.8313ZM63.9726 45.049C64.2336 44.9738 64.4982 44.7788 64.5794 45.2943C64.4147 45.2135 63.9379 45.4069 63.9726 45.049ZM75.2935 45.17C75.2479 44.4957 76.0259 44.9414 76.1732 45.0036C76.1148 45.3024 75.327 45.6559 75.2935 45.17ZM129.956 44.7664C130.437 44.8087 130.341 43.7876 130.644 44.251C130.693 44.3293 130.844 46.4552 130.319 45.6563C130.225 45.5127 130.599 45.0096 129.956 44.7664ZM103.452 45.5797C103.579 45.1353 103.959 45.2714 104.217 45.3097C104.155 45.6403 103.636 45.5498 103.452 45.5797ZM9.51967 44.3901C9.29812 43.7602 8.26481 44.2242 8.5191 44.6406C8.55524 44.6949 9.37493 44.3659 9.51967 44.3901ZM43.4677 44.8726C43.8986 44.3814 43.0181 44.2191 42.7349 44.7004C42.8612 44.67 43.4387 44.9049 43.4677 44.8726ZM72.5776 44.7709C72.5984 44.7508 73.0504 44.8041 73.0704 44.8288C73.4351 45.3506 72.1559 45.2026 72.5776 44.7709ZM61.2855 44.1993C61.4532 43.7934 62.5206 44.1351 62.7559 44.5462C62.5177 45.1397 61.0773 44.7061 61.2855 44.1993ZM127.975 45.0457C128.319 45.0265 128.644 45.1538 128.958 45.3318C128.89 45.6748 128.01 45.3023 127.975 45.0457ZM74.2399 44.7483C74.2641 44.7513 74.2873 44.7905 74.3104 44.7949C74.2864 44.7801 74.2629 44.7632 74.2399 44.7483ZM120.299 44.7549C120.012 44.6172 120.067 45.2466 120.085 45.266C120.3 45.4713 120.623 44.9103 120.299 44.7549ZM12.1355 44.121C12.0389 43.553 11.5582 43.9916 11.2832 43.8556C11.3616 44.3042 11.9133 44.1798 12.1355 44.121ZM96.8713 45.019C96.5177 44.3996 97.9915 43.7006 98.2962 44.1005C98.315 44.481 96.9231 45.1038 96.8713 45.019ZM42.154 44.008C42.1297 43.5629 41.5116 44.0936 41.6398 44.305C41.7209 44.4396 42.1684 44.2845 42.154 44.008ZM99.0308 44.3678C99.17 44.2335 99.4865 44.6759 99.3706 44.9422C99.2218 45.2835 98.9948 44.4063 99.0308 44.3678ZM111.401 44.1329C111.342 44.0644 110.526 44.5136 110.857 44.9703C111.087 45.2877 111.13 44.6451 111.184 44.6437C111.246 44.6463 112.54 45.4447 111.401 44.1329ZM88.6669 44.5388C88.9743 44.3713 89.3412 44.5742 89.661 44.5656C89.5276 44.8392 88.7926 44.9057 88.6669 44.5388ZM44.5187 43.9127C44.4466 43.732 42.4348 43.6034 43.5727 44.1686C43.6391 44.2006 44.7376 44.4598 44.5187 43.9127ZM129.956 44.7664C129.896 44.761 129.826 44.7394 129.745 44.6951C129.825 44.7128 129.895 44.7433 129.956 44.7664ZM124.494 44.6677C124.607 44.3446 124.05 44.2544 123.884 44.4257C123.831 44.821 124.479 44.7129 124.494 44.6677ZM89.6905 44.1142C89.8768 43.9311 90.2088 44.1326 90.437 44.1136C90.395 44.4142 89.7666 44.4209 89.6905 44.1142ZM76.7686 43.6221C77.1318 43.8054 77.5824 43.7286 77.5937 43.3604C77.6006 43.4181 77.6176 43.4794 77.6463 43.5411C77.6753 43.6023 78.0687 43.4358 78.2372 43.5635C79.2462 44.3223 74.3008 43.9545 77.1818 42.9495C77.0441 43.1737 76.9063 43.3979 76.7686 43.6221ZM59.8463 43.3156C59.6444 42.865 59.058 43.4199 59.2064 43.5981C59.3098 43.7202 60.0483 43.7693 59.8463 43.3156ZM67.8201 43.1447C67.7591 43.064 67.1887 43.3711 67.1713 43.607C67.494 43.8596 68.0977 43.5197 67.8201 43.1447ZM58.2606 42.7722C58.1315 42.7031 57.9573 43.4239 57.9722 43.4556C58.1012 43.721 58.4742 43.1772 58.2606 42.7722ZM128.97 42.8141C128.777 42.6061 128.154 43.1258 128.017 43.6023C127.992 43.5099 127.925 43.3892 127.802 43.2441C127.802 43.2441 127.803 43.2441 127.803 43.2441C127.636 43.051 122.63 42.8091 125.984 43.7492C126.089 43.7793 125.948 43.35 126.375 43.428C126.403 43.4337 126.415 43.7836 126.503 43.8011C126.703 43.8393 127.773 44.0657 127.99 43.7853C127.991 43.8502 128.005 43.9119 128.034 43.9687C128.295 44.4747 129.12 42.9745 128.97 42.8141ZM68.9442 43.0942C68.8317 42.9632 68.4693 43.0819 68.4282 43.3901C68.6054 43.5435 69.2052 43.3997 68.9442 43.0942ZM44.4692 42.6456C44.2399 42.3894 43.6474 42.858 43.8225 43.1121C43.9298 43.2684 44.7336 42.9398 44.4692 42.6456ZM65.3273 43.2156C66.6547 43.5964 65.6455 43.1899 65.8549 42.7396C65.679 42.8983 65.5032 43.0569 65.3273 43.2156ZM135.161 44.0113C134.947 43.9063 135.202 43.0141 135.435 43.4996C135.508 43.6538 135.28 44.0684 135.161 44.0113ZM144.807 43.7568C144.626 42.9646 145.516 43.4307 145.168 43.9738C145.152 43.9921 144.82 43.7869 144.807 43.7568ZM138.067 43.4199C137.921 43.9588 137.826 44.0225 137.418 43.8879C138.023 43.7379 137.464 43.2592 138.067 43.4199ZM77.5905 43.3024C77.5925 43.3242 77.5944 43.3404 77.5937 43.3604C77.5914 43.3406 77.5904 43.3218 77.5905 43.3024ZM57.0076 42.8982C56.8463 42.4395 56.3789 42.4677 56.5127 42.9291C56.5257 42.9719 56.9355 43.2349 57.0076 42.8982ZM128.017 43.6023C128.039 43.6843 128.027 43.7372 127.99 43.7853C127.988 43.7243 127.998 43.6667 128.017 43.6023ZM59.5194 42.5549C59.4987 42.8955 60.208 43.0364 60.237 42.9967C60.652 42.4104 59.8131 42.5378 59.5194 42.5549ZM39.78 42.1201C39.743 42.1553 39.9707 43.0374 40.1188 42.6941C40.2334 42.4277 39.9184 41.9861 39.78 42.1201ZM139.455 43.204C139.681 43.2052 140 43.2056 140.058 43.6236C139.906 43.5591 139.449 43.5107 139.455 43.204ZM144.459 43.1827C144.191 43.6737 143.579 43.6716 143.189 43.59C143.183 42.9433 144.208 43.3345 144.459 43.1827ZM129.583 43.0584C129.564 43.032 128.998 42.8361 129.073 43.2694C129.183 43.9048 129.742 43.2947 129.583 43.0584ZM40.8701 42.5976C41.1251 42.3019 40.5538 41.3801 40.281 42.0852C40.1409 42.4463 40.8271 42.6471 40.8701 42.5976ZM55.5564 42.2834C55.2206 42.5301 56.0409 42.9858 56.1613 42.5345C56.0083 42.4964 55.6758 42.1961 55.5564 42.2834ZM66.8974 41.9586C65.8628 40.6406 66.4063 43.0289 66.5951 42.8218C66.6217 42.7922 66.9227 41.9896 66.8974 41.9586ZM6.93241 41.7742C6.78401 41.9552 7.33436 42.6136 7.40675 42.1811C7.45152 41.9105 7.02734 41.6588 6.93241 41.7742ZM82.7119 42.9976C82.6675 43.0013 82.6234 43.005 82.5797 43.0082C82.6127 42.9873 82.6558 42.9809 82.7119 42.9976ZM52.5533 40.5008C53.2715 42.3522 53.2097 40.9307 53.2738 40.9392C53.4123 40.9606 53.7291 41.4626 53.9914 41.3837C53.6897 41.5878 53.388 41.792 53.0863 41.9962C53.3213 42.1318 55.368 42.8334 55.4145 42.5351C55.481 42.1102 54.833 42.2364 54.8146 42.1987C54.788 42.145 54.7004 40.9605 54.641 40.9149C54.5431 40.8418 52.8254 40.798 52.5533 40.5008ZM64.6988 42.1368C64.8659 42.2795 64.9084 42.7489 64.9881 42.6377C65.0153 42.5997 65.025 42.1526 65.1176 42.038C64.978 42.0709 64.8384 42.1039 64.6988 42.1368ZM51.2125 42.1433C51.0094 41.5946 51.9445 41.8124 51.9739 41.8739C52.1301 42.2461 51.3784 42.5915 51.2125 42.1433ZM59.1691 42.154C59.1353 42.1218 58.4171 41.9428 58.4194 42.2461C58.6072 42.4794 59.5693 42.5579 59.1691 42.154ZM65.2307 42.0088C65.4832 42.064 65.9564 42.52 65.9095 41.846C65.9092 41.846 65.9088 41.846 65.9084 41.846C65.6825 41.9003 65.4566 41.9546 65.2307 42.0088ZM41.7469 41.1839C41.2891 40.1069 41.4977 41.4641 41.909 41.8142C42.0393 41.334 41.822 41.3591 41.7469 41.1839ZM40.2558 40.3698C40.1274 40.1755 38.7826 40.3742 38.9822 40.9436C39.0531 41.1465 39.8299 40.6438 39.8652 40.6834C39.9185 40.7421 39.6662 41.3675 40.0792 41.247C40.0571 41.0341 40.2998 40.4346 40.2558 40.3698ZM41.366 40.4934C40.9085 39.6733 40.7893 41.1766 41.1392 41.184C41.276 41.188 41.4312 40.6118 41.366 40.4934ZM43.2661 40.6404C43.1 40.4961 42.6559 40.2836 42.3434 40.7808C42.7545 40.8276 43.1656 40.8744 43.5767 40.9213C43.627 40.6384 43.4114 40.7673 43.265 40.6404C43.2653 40.6404 43.2657 40.6404 43.2661 40.6404ZM147.278 39.3299C146.906 38.9033 147.764 38.7399 147.8 38.8447C147.908 39.1927 147.445 39.5205 147.278 39.3299ZM4.06958 28.1029C3.96692 27.9327 3.90033 27.3731 3.67347 27.666C3.90081 28.0793 4.12807 28.4926 4.35524 28.9059C4.53356 27.9598 4.1818 28.2906 4.06958 28.1029ZM3.20326 24.6441C3.2355 24.6212 3.06101 23.1658 3.47623 24.1378C3.75656 24.794 2.2272 25.4318 1.95166 24.7865C2.25685 24.4868 2.92581 24.8306 3.20326 24.6441ZM0.525912 18.3434C0.508252 18.2274 1.09047 18.0573 1.15783 18.1391C1.51141 18.5705 0.621376 18.9651 0.525912 18.3434ZM2.38274 18.622C2.10997 18.3392 2.71489 18.1575 2.89497 18.3203C2.9122 18.5912 2.42488 18.6632 2.38274 18.622ZM143.538 18.2508C143.246 17.2613 142.979 19.39 143.433 18.9617C143.454 18.9416 143.551 18.2992 143.538 18.2508ZM1.09554 16.8756C1.36854 17.1583 0.763481 17.3403 0.583214 17.1776C0.566486 16.907 1.05397 16.8343 1.09554 16.8756ZM143.335 15.8944C142.945 15.1822 143.079 17.571 143.128 17.6673C143.328 18.0477 144.019 17.1111 144.16 16.8782C143.128 17.2354 143.518 16.23 143.335 15.8944ZM141.532 17.3257C141.169 17.5799 142.094 18.069 142.272 17.4034C142.092 17.435 141.635 17.2523 141.532 17.3257ZM139.335 16.5547C139.14 16.4686 138.562 16.2622 138.464 16.6377C138.676 16.5703 139.252 16.9412 139.335 16.5547ZM138.897 15.4273C138.594 14.9158 138.517 16.4035 138.869 15.9613C138.883 15.9442 138.908 15.4558 138.897 15.4273ZM137.188 14.8851C136.99 14.2927 136.758 15.7329 137.081 15.7728C137.177 15.782 137.209 14.953 137.188 14.8851ZM142.85 13.324C142.565 13.0695 142.195 14.1008 142.805 14.2151C142.59 14.3724 142.376 14.5298 142.161 14.6871C142.959 15.2669 142.903 13.8356 143.132 13.8952C143.453 13.9797 143.426 15.1606 143.361 15.5313C143.625 14.8082 144.742 14.798 145.387 14.6607C144.82 14.3567 143.9 13.8293 143.341 13.6361C143.181 13.5801 143.026 13.9038 142.89 13.8673C142.671 13.8072 142.866 13.3412 142.851 13.324C142.851 13.324 142.85 13.324 142.85 13.324ZM134.939 14.8557C134.355 14.1831 134.721 15.6318 135.053 15.375C135.068 15.3552 134.954 14.8721 134.939 14.8557ZM0.313445 12.4777C1.10297 13.0828 0.528556 13.8841 2.18066 12.6677C1.48631 13.5291 2.14189 13.2874 2.00623 13.635C1.89744 13.9099 1.49063 13.6819 1.72687 14.236C1.41633 13.6328 0.0661439 13.7993 0.00597283 13.7015C0.00653886 13.7015 0.00710488 13.7015 0.0076709 13.7015C-0.0284886 13.6435 0.0614705 12.2853 0.313445 12.4777ZM139.342 12.7703C139.151 11.0139 139.067 13.8008 138.687 12.3443C138.169 14.4563 140.1 12.3485 140.329 14.1339C138.237 13.9215 141.707 15.906 140.253 13.2304C141.454 14.203 140.648 12.9004 140.834 12.5603C141.034 12.1981 141.713 12.5936 141.68 11.9395C141.679 11.9395 141.679 11.9395 141.679 11.9395C141.263 11.9844 140.847 12.0293 140.431 12.0741C140.835 13.486 139.985 13.061 139.7 11.9106C139.581 12.1972 139.461 12.4838 139.342 12.7703ZM141.694 14.1002C141.653 14.0679 140.748 14.2637 140.805 14.547C140.926 14.728 142.211 14.5139 141.694 14.1002ZM145.678 13.7972C145.353 13.7936 144.851 13.5179 144.673 14.0497C144.998 14.0536 145.5 14.3294 145.678 13.7972ZM128.94 13.6437C128.523 14.078 129.799 14.2142 129.432 13.6951C129.414 13.6707 128.961 13.6234 128.94 13.6437ZM138.399 13.0332C137.98 12.4954 138.174 14.2041 138.487 13.7599C138.505 13.7337 138.419 13.0578 138.399 13.0332ZM0.953346 12.2703C0.981881 11.8518 2.12749 12.1463 2.33051 12.1428C2.21481 12.5317 0.920658 12.75 0.953346 12.2703ZM146.25 12.232C145.605 10.7269 144.727 12.4641 144.631 12.426C144.535 12.3872 144.686 11.7296 144.664 11.7119C144.615 11.675 143.596 11.729 143.547 11.7747C143.512 11.8104 143.695 12.735 143.484 13.0259C143.895 12.5014 145.756 12.8317 145.853 12.7292C145.928 12.6474 145.365 11.6764 146.249 12.232C146.25 12.232 146.25 12.232 146.25 12.232ZM144.391 12.2244C144.645 12.6121 143.931 12.6598 143.759 12.5166C143.376 12.1961 144.358 12.1785 144.391 12.2244ZM142.675 11.865C142.594 11.7779 141.859 11.6977 141.796 12.1289C142.143 12.6892 142.86 12.0678 142.675 11.865ZM134.491 11.8997C134.3 11.9542 133.776 11.6206 133.744 11.9974C133.936 11.9432 134.46 12.2766 134.491 11.8997ZM4.86679 8.984C4.54703 8.6681 5.2892 8.54039 5.50538 8.69206C5.51668 8.94351 4.89401 9.01111 4.86679 8.984ZM138.338 9.42879C138.226 9.31405 135.919 9.59254 135.595 9.76763C135.91 10.0541 138.196 10.0835 138.3 9.94445C138.33 9.90288 138.353 9.44687 138.338 9.42879ZM143.324 9.26575C143.536 8.71097 143.673 9.37689 143.7 9.38529C143.961 9.47059 144.503 9.34604 144.384 9.88052C143.923 9.66437 142.902 10.3674 143.324 9.26575ZM134.337 9.38739C133.553 9.59022 135.056 10.1811 134.86 9.60005C134.848 9.56492 134.419 9.3661 134.337 9.38739ZM138.596 9.26779C138.77 8.81997 141.075 9.21251 141.446 9.21368C141.112 10.0403 140.846 9.41136 140.401 9.45251C140.281 9.46459 140.312 9.80883 140.299 9.80935C140.091 9.8248 140.247 9.42767 140.119 9.42133C140.038 9.41853 138.352 9.89913 138.596 9.26779ZM143.445 8.88138C143.575 8.56346 145.014 8.42945 145.072 8.51397C145.504 9.14336 143.557 8.99249 143.445 8.88138ZM138.387 8.53168C138.638 7.57099 139.781 8.21793 138.996 8.69515C138.921 8.73855 138.605 8.32089 138.387 8.53168ZM134.425 8.47218C134.386 8.44377 133.571 8.24821 133.555 8.55404C133.672 8.67347 134.862 8.78493 134.425 8.47218ZM134.852 7.43927C134.832 7.44653 135.021 8.03647 134.639 7.96031C134.607 7.95315 134.55 7.29004 134.068 7.53074C133.971 7.58032 133.817 8.01822 133.828 8.04552C134.325 9.08801 135.841 7.10128 134.852 7.43927ZM143.473 8.34429C143.395 8.06437 143.584 7.23414 143.752 7.65494C143.824 7.83664 143.688 8.33488 143.473 8.34429ZM131.837 8.19234C132.314 7.69094 130.825 7.58864 130.748 7.71709C130.795 8.0311 131.79 8.24135 131.837 8.19234ZM5.62335 5.09715C5.62297 5.09715 5.62259 5.09715 5.62221 5.09715C6.0255 5.212 5.7748 5.63055 5.79369 5.64374C6.65178 6.26078 6.4257 5.31138 6.56033 5.19964C6.849 4.95803 6.80012 6.11197 7.28713 5.63457C6.4823 6.33939 7.21414 6.04477 7.23595 6.45541C7.32231 8.1311 6.16839 5.66853 5.76692 6.01908C5.71104 6.0676 6.12205 6.60311 5.9788 6.75497C5.51349 7.24697 4.07574 4.6582 5.62335 5.09715ZM143.882 7.58186C144.067 7.09003 145.47 7.56873 145.098 7.97381C145.038 8.03885 143.609 8.29893 143.882 7.58186ZM78.1647 6.31182C78.5089 5.89003 77.7291 5.37988 77.5794 5.7096C77.5052 5.87387 78.0135 6.49694 78.1647 6.31182ZM72.6758 4.42337C72.2717 4.50495 71.8253 6.27583 72.3301 6.00628C72.3838 5.9768 72.7191 4.67029 72.6758 4.42337ZM99.1017 5.64417C98.6886 5.00496 98.7009 6.18451 99.0094 6.17118C99.1183 6.16666 99.1147 5.66439 99.1017 5.64417ZM83.0622 5.61368C83.0206 5.57201 82.5336 5.64151 82.5481 5.91275C82.7258 6.07751 83.3311 5.8995 83.0622 5.61368ZM99.2368 5.47775C98.9856 5.68763 99.405 6.54517 99.7182 5.71485C99.5629 5.78157 99.2627 5.45631 99.2368 5.47775ZM137.53 5.92277C137.321 6.40639 136.733 6.25814 136.395 6.34017C136.361 5.71268 137.288 6.0358 137.53 5.92277ZM74.3782 5.15815C73.9913 5.59569 74.8043 5.96757 74.7364 5.38224C74.7263 5.35036 74.3934 5.13948 74.3782 5.15815ZM112.643 5.54534C112.363 5.91715 113.236 6.42814 113.001 5.76822C112.989 5.7413 112.658 5.52466 112.643 5.54534ZM116.472 5.79447C116.264 5.66655 115.369 5.69801 115.714 6.06599C115.768 6.12255 116.454 6.13713 116.472 5.79447ZM6.58508 4.74802C6.47231 4.10328 7.13418 4.25808 7.2287 4.37096C7.26578 4.41788 6.73209 5.58683 6.58508 4.74802ZM96.3754 5.51383C96.1572 5.59208 95.5952 5.43262 95.4922 5.76961C95.7589 5.70258 96.4394 6.1881 96.3754 5.51383ZM76.1176 5.17614C75.7939 4.47184 75.2255 4.5341 75.3547 5.45076C75.9824 5.39703 75.2872 4.62742 76.1176 5.17614ZM100.644 4.73884C100.47 4.68359 100.328 5.56088 100.347 5.60249C100.531 5.99835 100.813 5.08255 100.644 4.73884ZM87.5567 5.3158C87.551 4.94018 86.99 5.10406 87.0617 5.34663C87.0853 5.42806 87.5612 5.61979 87.5567 5.3158ZM130.239 5.6789C129.986 5.33484 130.767 5.0037 130.995 5.40496C131.105 5.98213 130.271 5.71847 130.239 5.6789ZM105.471 5.00803C105.502 4.45101 104.627 4.75739 104.966 5.22274C105.051 5.33919 105.46 5.19428 105.471 5.00803ZM113.825 4.41724C113.234 5.07687 115.686 5.56952 115.047 4.73588C115.002 4.67652 113.876 4.36159 113.825 4.41724ZM117.83 4.86531C117.73 4.79128 117.795 2.91904 118.206 3.64441C118.26 3.73849 118 4.23153 118.044 4.3451C118.07 4.40986 118.975 4.67987 119.017 4.63645C119.063 4.58715 119.014 3.98654 119.06 3.91957C119.112 3.84472 119.667 4.3762 119.959 4.38413C120.51 4.3981 120.573 3.89894 120.619 3.89762C120.75 3.89527 120.969 4.25159 121.236 4.25306C121.842 4.25562 122.595 4.17373 123.335 4.18078C124.235 4.18937 125.118 4.32965 125.699 4.91467C124.897 4.54889 124.123 4.81387 123.329 4.98354C123.187 5.01388 123.045 5.04118 122.901 5.06127C123.185 4.02042 121.507 5.85515 122.489 4.65864C122.039 4.91702 118.159 5.09697 117.831 4.86532C117.831 4.86531 117.83 4.86531 117.83 4.86531ZM71.0911 3.87926C71.3465 3.24289 70.0739 3.37137 69.9572 4.10975C70.1237 4.21442 71.0595 3.95135 71.0911 3.87926ZM76.9711 2.39073C77.0904 2.2818 77.2175 1.03341 77.8283 1.67468C77.8288 1.67469 77.8294 1.6747 77.83 1.6747C78.0085 1.86198 77.7988 2.16401 77.8306 2.27292C77.8422 2.31738 78.3986 2.94586 77.9291 3.04019C77.2129 3.18495 77.873 2.10965 77.4923 2.09182C77.4457 2.09023 76.7167 2.758 76.7568 2.907C76.761 2.92435 76.9796 2.78387 77.0147 2.84602C77.1472 3.07967 77.0766 3.46913 77.0954 3.48794C77.1573 3.53629 78.3052 2.88517 78.464 3.46783C78.5156 3.65573 76.6393 4.06508 76.5675 3.96684C76.5222 3.90494 76.5547 2.82188 76.5082 2.71477C76.4843 2.6614 75.7267 3.05824 75.6302 2.95748C75.6022 2.92833 75.5809 2.89701 75.5653 2.87123C75.6751 3.20776 74.9937 3.17539 75.0192 2.79748C75.0328 2.64899 75.501 2.7407 75.5175 2.76688C75.5247 2.77797 75.5309 2.79321 75.5368 2.80374C75.4446 2.39412 77.0328 2.43175 76.6972 1.81973C77.1617 1.4923 76.6211 2.71066 76.9711 2.39073ZM79.1921 1.74911C79.1432 1.86247 79.0943 1.97583 79.0454 2.08918C79.8547 1.82004 80.7779 2.37965 81.7061 2.38667C81.9416 2.38928 81.679 1.68927 81.9854 1.88337C82.2308 2.03892 82.4968 2.68846 82.3606 2.83095C82.3274 2.86651 81.829 2.43956 81.5764 2.47974C80.8309 2.59871 81.0117 3.19848 80.968 3.2141C80.9198 3.23051 80.4565 2.80469 80.2006 2.82032C79.557 2.86096 79.2588 3.22428 78.386 2.73438C78.8978 2.34669 78.6304 1.48784 79.1921 1.74911ZM109.171 3.35293C109.205 2.97712 109.727 3.31572 109.919 3.26225C109.885 3.63901 109.362 3.29947 109.171 3.35293ZM30.5129 2.0061C30.3453 2.62198 31.564 2.78453 31.2466 2.26831C31.1764 2.15373 30.6662 2.01169 30.5129 2.0061ZM35.9894 2.42746C36.1541 2.25826 35.5011 1.80808 35.4981 2.28578C35.4977 2.43896 35.9682 2.44946 35.9894 2.42746ZM89.5963 2.47974C89.6272 2.46077 90.0719 2.60339 90.0855 2.63494C90.3736 3.29369 88.9091 2.89794 89.5963 2.47974ZM42.654 1.73018C42.0818 2.12907 43.7903 2.3214 43.2729 1.80042C43.2471 1.77504 42.6815 1.71078 42.654 1.73018ZM45.0322 1.64118C44.8958 1.66146 44.293 1.45446 44.2832 1.64272C44.268 1.94642 44.9581 2.16106 45.0322 1.64118ZM100.786 2.40858C100.728 1.7125 101.515 2.24745 101.792 2.16274C101.85 2.85931 101.062 2.32368 100.786 2.40858ZM95.7861 1.84181C99.1356 1.33026 98.3826 2.80804 95.5832 2.17834C95.5841 1.73218 95.5747 1.87399 95.7861 1.84181ZM100.066 1.97063C99.9401 2.41484 99.5619 2.2787 99.3058 2.24027C99.3552 1.93103 99.8805 2.04874 100.066 1.97063ZM29.0672 1.03963C29.2827 0.478432 30.2127 1.1795 30.0446 1.41035C30.0055 1.46015 28.9873 1.34851 29.0672 1.03963ZM89.8835 1.88791C89.8134 1.21073 90.8149 1.49817 90.8901 1.64923C91.1933 2.25691 89.9666 1.7396 89.8835 1.88791ZM105.535 1.86202C105.717 1.33405 106.217 1.61147 106.541 1.62166C106.389 2.0732 105.809 1.87428 105.535 1.86202ZM103.203 1.42345C103.223 1.40333 103.674 1.45576 103.694 1.48034C104.059 2.00152 102.783 1.85599 103.203 1.42345ZM5.07204 0.0087471C5.08727 -0.0083046 5.43272 0.0260429 5.44473 0.0459843C5.75222 0.555109 4.71554 0.44948 5.07204 0.0087471Z" fill="#C2D85C"/>
</svg>
