<svg width="536" height="192" viewBox="0 0 536 192" fill="none" xmlns="http://www.w3.org/2000/svg">
<path d="M90.1985 190.917C90.348 190.63 91.4843 190.636 91.8534 190.376C92.2677 192.485 89.6659 191.956 90.1985 190.917ZM87.8254 29.4847C87.4708 30.1313 87.1089 30.7811 86.7395 31.4344C88.0234 31.3291 89.4334 30.698 90.6401 30.5327C90.9021 30.4988 91.1576 30.4876 91.4037 30.5105C91.621 30.5328 91.5392 32.1176 92.0171 32.0474C92.4955 31.9767 91.8307 30.0382 92.4411 29.6322C93.1207 29.1825 97.0084 29.5465 98.2404 29.1639C102.791 27.7288 107.407 25.2516 112.394 24.8172C107.854 27.5891 113.228 27.7527 114.41 26.7688C114.672 26.5464 113.66 22.864 118.797 22.5401C122.064 22.344 120.511 28.3369 125.038 24.4044C120.127 21.7019 124.119 20.9769 127.242 20.0933C127.41 20.0457 127.962 19.9641 128.701 19.8567C130.341 19.6172 132.899 19.2578 134.214 18.8353C134.866 18.6241 135.437 16.4473 136.314 16.1941C136.917 16.0214 137.62 16.9795 138.513 16.7217C142.684 15.5329 146.844 14.5504 151.185 14.034C149.733 19.5631 153.573 15.771 153.825 15.9739C155.11 17.1302 150.618 18.4515 152.6 18.9342C155.091 18.2617 157.587 17.6029 160.094 16.9569C157.886 16.7425 162.043 12.1866 163.255 13.6703C162.709 11.7371 165.073 11.8383 168 12.4225C171.694 13.1551 176.274 14.676 177.157 13.6767C177.489 13.3012 174.608 11.4991 180.603 11.5606C181.253 11.5717 181.229 12.9586 181.54 12.7802C181.723 12.6735 182.252 8.19406 183.906 10.3653C184.507 11.1624 181.955 14.4264 188.341 12.3027C185.057 8.30681 197.154 8.60399 199.466 9.45659C198.956 8.92438 198.445 8.39278 197.932 7.8618C200.291 9.1666 200.485 7.63041 200.981 7.64901C202.981 7.72503 205.85 8.90117 207.654 8.55318C207.847 8.5161 208.019 8.45974 208.176 8.38848C209.735 7.68085 209.707 5.4884 212.084 6.20478C211.426 5.66659 210.766 5.12945 210.105 4.59336C211.85 4.54525 213.595 4.50449 215.341 4.47114C211.719 8.50718 216.217 4.55162 216.536 4.44466C217.035 4.2613 216.449 5.81675 217.286 5.54629C217.371 5.50732 217.103 4.12398 218.41 3.83699C221.143 3.24628 220.872 5.04626 222.028 4.91797C222.134 4.89967 221.643 3.67399 223.624 3.19552C229.927 1.69451 223.672 4.15798 223.45 4.35832C223.153 4.61945 225.791 9.67026 220.252 8.30781C222.113 8.72935 222.507 11.0411 222.714 11.0797C222.897 11.1084 225.98 10.5034 226.146 10.4107C227.612 9.48923 226.127 8.01385 226.401 7.70334C226.632 7.44904 230.559 9.21386 231.08 4.36201C233.228 8.64134 230.345 8.44584 227.384 9.37841C227.022 10.3189 230.402 10.9282 230.575 10.9149C234.841 10.5788 232.208 7.12846 232.972 4.7348C233.378 3.48246 235.319 5.835 233.457 2.69425C237.364 2.07078 235.11 4.12891 235.385 4.38959C235.795 4.77302 237.103 3.74589 237.284 3.85928C237.548 4.02677 236.748 5.21333 237.767 5.545C237.933 5.59196 239.413 3.54512 237.282 2.75243C240.065 2.84778 239.738 1.2097 240.878 4.48963C242.409 -1.94011 242.478 8.14146 243.239 8.45249C245.266 9.27478 244.425 4.34767 244.515 4.0996C244.87 3.21987 246.749 3.258 248.581 3.34634C250.059 3.4168 251.507 3.51912 252.106 3.17454C251.849 5.51938 250.073 4.90148 248.63 4.39765C247.861 4.12823 247.188 3.89024 246.902 4.14652C245.087 5.77191 247.487 5.93517 248.763 7.20623C249.414 7.85241 249.772 8.78263 249.149 10.3292C249.953 9.05551 250.762 7.78347 251.578 6.51313C253.286 9.33701 251.088 10.6814 255.305 9.46373C255.911 6.94303 252.307 9.97159 252.975 7.9803C253.369 6.80855 255.841 6.46924 255.87 5.86119C255.893 5.12685 253.678 6.07656 253.989 4.93897C254.676 2.46827 262.975 4.53028 256.763 6.04979C258.507 5.95079 259.539 10.7551 260.997 9.21007C261.959 8.21124 256.253 1.6701 264.573 2.69902C264.794 4.97429 261.28 3.44445 261.192 3.62335C261.073 3.8792 261.83 9.01068 261.943 9.26226C262.33 10.0735 270.68 7.17137 272.472 9.76748C271.752 6.78623 278.808 9.21945 279.573 8.33111C279.779 8.08202 279.025 6.25444 279.245 6.06284C280.624 4.91913 284.296 8.21462 285.992 8.33297C287.903 8.46408 287.695 6.88734 287.802 6.89196C288.645 6.99785 287.947 8.05038 288.462 8.05865C288.622 8.06116 288.975 8.07738 289.436 8.10047C291.226 8.18637 294.639 8.3952 294.859 8.22768C294.941 8.16102 294.124 6.334 295.306 6.03252C295.512 5.98249 295.307 8.10076 298.803 7.31631C303.024 6.38238 296.009 4.54823 297.828 2.38923C300.401 5.67284 300.435 2.52534 301.16 2.80374C301.412 2.90506 303.167 5.66436 305.211 5.60119C303.725 5.95956 302.243 6.32388 300.766 6.69409C302.178 7.22439 304.99 6.781 306.149 7.3765C306.716 7.66601 306.117 9.8366 307.383 9.84738C307.657 9.83952 309.018 4.54129 305.571 6.76413C305.406 4.83814 306.912 6.16625 307.683 5.66801C307.798 5.5901 308.423 2.42145 309.262 4.46182C309.47 4.96901 306.4 14.115 313.245 7.78337C313.468 7.57999 312.825 6.36654 313.044 6.13832C313.196 5.9832 314.811 6.56597 315.003 6.41386C315.203 6.2493 314.498 4.92212 314.738 4.68706C315.976 3.47593 317.071 8.62594 314.78 8.07825C315.513 8.75568 316.238 9.43421 316.957 10.1139C316.425 6.25188 318.253 9.13227 319.307 9.09727C326.037 8.88632 321.792 6.0563 323.049 4.87031C325.054 2.97293 323.097 9.35208 325.937 7.63312C326.188 7.47499 323.274 4.42194 329.334 6.54993C328.417 6.57121 327.494 6.59401 326.562 6.61841C326.758 10.3367 329.883 6.6715 330.096 6.64197C330.229 6.62715 330.35 6.61664 330.459 6.60966C332.577 6.51758 330.97 7.43731 335.088 6.08085C335.494 5.95499 336.207 6.95293 337.093 6.60241C340.755 5.15502 332.677 4.93481 332.758 3.47222C332.57 2.68313 341.188 3.88358 341.607 4.32658C342.722 6.02223 337.421 4.46555 338.239 6.50275C338.573 7.15851 351.41 7.61111 353.349 8.77763C355.899 10.0971 356.179 15.2406 357.213 9.71664C356.964 15.2778 358.294 11.6993 358.63 11.8013C359.024 11.927 359.378 12.0414 359.7 12.1455C362.639 13.1009 362.937 13.1583 366.136 13.3361C366.919 13.3832 367.211 15.1566 367.535 14.9371C367.726 14.8035 367.811 12.9899 368.687 12.6136C369.921 12.0903 375.825 15.3231 376.035 16.4041C376.271 17.4742 373.307 16.2063 373.494 17.9224C375.687 18.5981 377.921 18.7193 380.096 19.4349C381.001 19.738 380.251 20.7255 380.643 20.8466C380.811 20.8994 384.223 20.7326 384.193 20.294C384.15 19.2398 374.105 17.4643 377.167 16.1641C377.772 15.9113 378.925 18.8928 379.399 15.7236C381.928 16.5571 384.439 17.4114 386.924 18.282C392.999 20.4101 398.949 22.6433 404.807 24.9689C399.259 25.7685 394.359 22.1298 389.067 20.9387C388.519 20.8123 387.021 20.2331 386.29 20.6962C386.063 20.8398 385.911 21.0836 385.883 21.4717C385.945 21.4939 386.007 21.516 386.069 21.5379C390.379 23.0559 395.96 23.7889 399.776 26.0023C399.899 26.0749 399 27.3207 399.433 27.6881C400.238 28.3702 403.936 27.0446 404.269 27.7813C404.313 27.9412 402.042 29.2477 402.211 30.5685C402.632 33.9538 404.989 27.4579 406.121 27.8936C406.686 28.1123 408.965 30.3019 411.05 31.4183C412.19 32.0267 413.282 32.3156 414.034 31.7788C415.565 30.6863 413.23 29.8487 411.85 28.9376C411.184 28.4975 410.741 28.0376 411.067 27.5141C411.494 27.4709 411.912 27.4596 412.321 27.4755C416.334 27.6336 419.5 30.3855 422.982 31.369C423.051 31.3867 422.943 29.8256 423.852 29.9271C425.439 30.1069 425.148 32.1706 425.749 32.7283C426.4 33.3234 429.2 34.0125 429.309 34.8458C429.322 34.954 428.089 36.6635 427.988 36.6877C426.534 37.0529 427.003 34.43 426.906 34.3596C426.538 34.1228 425.807 34.9324 425.461 34.7467C424.891 34.4396 424.867 33.4434 424.094 33.086C423.561 32.8365 423.505 34.7117 423 34.4494C422.821 34.3462 422.043 29.7551 420.492 33.6338C420.13 34.5707 430.089 39.371 435.388 41.4167C436.901 41.9886 438.054 42.3257 438.509 42.2513C437.635 41.5451 436.75 40.8381 435.871 40.1365C435.477 39.8221 435.082 39.5081 434.686 39.1943C435.064 39.5301 435.489 39.7761 435.935 39.9674C438.482 41.0593 441.713 40.4015 440.404 44.3926C446.666 47.0821 452.848 49.8747 459.042 52.8186C463.461 54.92 467.817 57.0666 472.303 59.3611C474.114 60.6825 471.659 63.0173 475.299 63.7413C474.909 62.4322 474.495 61.1151 474.092 59.8063C475.322 61.0489 480.355 64.7265 482.413 65.6579C482.7 65.7819 482.918 65.8328 483.071 65.8043C483.19 65.767 484.69 63.3144 485.761 63.5609C486.696 63.7713 486.06 65.8472 486.472 66.4986C486.852 67.0543 487.755 66.8576 487.891 67.0531C487.992 67.2054 487.48 68.4167 487.735 68.79C487.879 68.9938 488.021 69.0501 488.152 69.0253C488.785 68.9135 489.09 66.9376 488.611 70.5948C488.232 70.5937 487.869 70.6011 487.517 70.6141C488.652 71.8263 490.229 74.7302 487.356 74.4051C486.891 74.3655 487.775 73.3788 487.482 73.2417C487.073 73.0568 486.714 72.8993 486.388 72.7605C480.428 70.2638 482.425 72.8293 485.787 74.0326C486.738 74.3802 487.883 74.6839 488.972 74.7698C489.105 76.3901 493.686 78.3424 496.256 79.7294C497.067 80.1548 497.623 80.4761 497.643 80.5942C497.734 81.2688 495.647 81.7961 496.738 83.9355C497.198 84.3638 507.182 89.6982 502.403 89.5449C501.508 89.5262 497.181 86.1208 495.899 85.497C496.593 89.9082 503.427 89.7117 505.45 90.0095C505.742 90.0485 505.939 90.0969 506.006 90.1665C506.941 91.1652 505.744 91.1685 504.579 91.2527C503.344 91.3471 502.12 91.5077 503.42 92.9075C503.68 93.1912 504.064 93.5425 504.538 93.9361C508.301 97.1096 506.171 92.2598 508.358 92.4486C509.706 92.6199 512.013 98.0977 514.225 95.0178C514.837 95.3112 514.915 95.5885 514.821 95.8742C514.742 96.0976 514.533 96.3111 514.333 96.4929C514.087 96.7152 513.854 96.89 513.88 96.9757C513.884 96.9874 513.897 97.0016 513.918 97.0182C514.316 97.3324 517.299 98.4621 517.602 99.6975C517.636 99.8539 516.081 101.135 516.079 101.343C516.076 101.692 518.745 103.383 518.9 103.299C519.033 103.258 519.593 101.474 520.086 101.338C520.417 101.247 521.219 101.94 521.935 102.502C522.432 102.891 522.867 103.195 523.053 103.081C523.341 102.889 522.914 102.413 522.49 101.842C521.933 101.104 521.406 100.242 522.35 99.6294C522.609 100.016 523.011 100.356 523.5 100.641C524.758 101.355 526.717 101.716 528.007 101.321C527.537 101.504 526.276 100.512 525.953 100.034C528.006 98.0548 530.548 100.279 528.211 101.232C529.548 100.791 529.586 99.9824 530.64 99.3886C530.908 99.2393 531.747 99.8828 532.225 99.6477C532.308 99.59 532.176 98.0653 532.718 97.7722C533.739 97.2751 535.893 99.4518 535.935 99.8532C535.976 100.913 533.415 99.925 532.484 100.702C532.338 100.817 532.436 104.005 532.33 104.188C530.961 105.938 530.199 103.157 529.101 104.851C529.267 105.553 529.436 106.26 529.61 106.971C526.589 107.016 524.06 103.48 521.682 104.49C524.768 106.2 527.344 108.554 523.936 112.46C522.498 114.102 520.587 114.139 520.269 114.598C519.118 116.227 522.028 115.898 522.023 116.033C521.638 117.485 518.449 115.975 517.973 116.339C517.183 116.902 515.565 120.636 515.002 121.285C514.86 121.389 512.772 120.801 512.296 122.369C511.816 123.953 513.073 125.088 513.024 125.254C512.657 126.134 509.904 124.841 509.457 125.165C509.261 125.352 509.372 127.642 509.092 128.033C508.799 128.413 507.238 128.444 505.861 129.256C504.854 129.871 505.09 131.212 504.835 131.225C504.637 131.205 502.56 129.4 502.31 129.45C501.961 129.536 501.601 130.994 501.309 131.186C500.888 131.462 500.506 130.5 500.275 130.957C500.148 131.33 499.714 137.053 498.91 137.997C497.486 139.551 497.909 133.521 495.042 142.03C495.028 142.089 496.035 142.177 496.012 142.225C495.384 143.707 491.907 143.815 494.545 145.552C488.349 143.72 491.927 147.478 488.952 149.603C487.786 150.398 485.738 149.385 485.6 149.538C484.644 150.998 486.041 150.425 485.675 151.23C485.462 151.671 482.781 151.79 482.342 152.979C482.131 153.602 483.838 154.777 483.843 154.941C483.752 156.351 482.168 156.589 481.788 157.318C481.546 157.818 482.451 158.656 482.415 158.753C482.327 158.942 479.617 159.468 478.846 159.812C478.258 160.08 478.43 161.44 478.12 161.511C476.255 161.921 477.019 157.449 475.186 163.07C475.07 163.412 475.817 163.875 475.795 163.944C475.193 165.47 473.887 164.524 472.861 165.317C471.077 166.666 473.567 167.195 471.158 167.155C471.277 169.138 471.938 169.629 473.441 170.406C469.214 168.219 464.413 171.571 468.263 174.687C467.118 173.582 465.157 176.11 464.768 175.849C464.537 175.689 464.863 171.798 461.041 177.9C460.583 178.677 462.316 178.671 460.818 179.788C458.638 177.319 460.041 180.646 459.859 180.809C458.766 182.097 457.45 181.564 456.292 180.55C454.519 178.991 453.01 176.338 452.301 176.144C452.053 176.07 451.761 176.07 451.448 176.119C449.94 176.329 447.994 177.677 447.812 177.543C447.154 177.043 448.713 176.12 448.94 175.516C449.107 174.866 445.472 176.186 445.58 176.057C445.7 175.273 447.142 173.856 447.173 173.755C447.221 173.571 447.198 173.408 447.127 173.268C446.635 172.383 444.942 172.583 444.915 172.119C444.271 173.234 444.876 173.727 443.38 175.24C441.742 177.074 444.578 172.148 444.676 171.914C444.63 171.889 444.585 171.865 444.538 171.84C443.883 171.488 442.852 170.98 440.52 169.9C438.359 168.902 434.803 167.242 431.961 165.82C429.016 164.361 426.347 163.096 423.693 161.873C422.5 164.646 427.937 164.715 427.915 165.16C427.391 167.503 420.007 163.939 419.308 162.478C419.786 163.415 420.255 164.351 420.707 165.282C418.011 167.863 417.089 162.473 414.592 163.05C413.789 163.239 414.398 164.978 414.334 165.051C413.11 165.984 412.469 164.564 414 163.256C411.826 164.069 412.555 162.691 411.682 161.945C411.618 161.89 411.546 161.839 411.463 161.793C411.4 161.759 411.387 163.283 410.151 163.383C409.584 163.431 407.074 162.368 406.256 163.359C405.923 163.779 405.065 169.328 407.05 165.08C408.849 168.333 408.755 163.485 409.762 164.035C409.87 164.101 409.172 165.284 409.946 165.946C410.245 166.202 410.765 166.381 411.635 166.387C410.636 168.096 409.781 168.304 409.06 167.986C408.048 167.539 407.32 166.074 406.881 166.25C405.863 166.667 407.05 168.626 408.617 169.007C409.407 169.199 410.292 168.991 411.055 167.983C409.202 171.191 411.16 168.57 412.077 169.143C413.079 169.768 412.166 170.562 412.738 170.824C414.286 171.551 414.705 168.889 415.028 171.609C416.766 164.428 417.675 171.765 417.778 173.918C416.072 173.525 414.25 173.095 412.485 172.704C412.421 173.093 412.358 173.482 412.294 173.871C411.889 173.63 411.483 173.388 411.073 173.146C411.291 172.844 411.509 172.541 411.727 172.239C408.531 173.412 409.073 170.746 408.896 170.634C408.639 170.483 408.375 170.334 408.105 170.187C406.036 169.059 403.617 168.055 401.476 167.165C401.111 167.014 400.46 169.306 398.511 166.51C397.881 165.618 399.377 164.229 398.302 164.096C395.228 168.272 396.742 164.568 396.381 164.417C395.347 164.009 394.259 164.919 394.159 164.894C392.81 164.574 391.017 163.662 389.536 163.302C389.505 163.31 389.671 164.872 389.037 164.349C389.006 164.323 388.974 164.293 388.939 164.257C388.697 163.991 388.072 156.726 384.775 157.823C385.289 158.48 385.8 159.138 386.307 159.797C385.741 158.915 379.727 158.542 380.48 160.681C380.928 161.978 384.345 158.694 383.184 162.613C381.794 160.769 371.232 159.11 370.758 158.001C370.692 157.838 371.761 156.793 371.666 156.584C371.637 156.522 371.268 156.419 370.817 156.283C370.089 156.064 369.145 155.764 369.052 155.406C368.961 155.06 370.222 154.609 370.285 154.129C370.318 153.779 367.603 152.331 366.95 153.869C367.853 153.45 369.661 154.63 368.202 155.637C368.018 155.76 367.647 154.523 367.419 154.683C365.424 156.08 369.481 156.989 370.49 157.296C370.545 157.312 370.59 157.326 370.625 157.338C370.571 157.356 370.516 157.372 370.461 157.387C367.065 158.324 363.518 154.728 359.943 155.106C359.015 153.398 362.48 153.646 361.315 152.114C358.873 148.938 359.965 153.71 359.815 153.85C358.68 154.968 358.09 147.045 356.558 152.519C355.673 151.387 356.219 150.793 354.453 151.083C354.557 151.518 354.66 151.954 354.762 152.39C353.625 153.569 352.713 152.523 352.054 150.923C351.21 148.859 350.793 145.873 351.037 145.567C351.84 144.567 352.702 145.708 353.214 146.512C353.446 146.876 353.608 147.171 353.665 147.165C353.926 147.139 356.115 141.745 357.464 147.464C359.61 144.038 353.851 143.775 357.009 141.9C356.504 141.89 355.652 141.529 354.649 141.052C352.113 139.833 348.613 137.907 347.627 138.93C347.459 139.118 347.108 142.993 345.889 140.691C345.306 139.596 347.234 140.001 347.073 139.062C346.783 137.35 341.109 135.973 336.077 135.284C332.6 134.794 329.439 134.61 328.309 134.494C328.13 134.471 328.378 133.299 328.202 133.283C327.628 133.226 325.566 134.724 324.798 134.065C326.272 136.505 322.848 136.2 321.88 135.847C320.463 135.303 320.741 133.221 320.117 132.7C319.599 132.279 318.973 132.147 318.284 132.16C315.426 132.18 312.035 134.242 310.595 130.429C310.318 135.055 306.969 127.87 305.203 127.718C303.817 127.592 301.645 130.536 303.368 132.513C301.056 132.154 298.445 132.878 296.153 133.055C295.775 133.085 296.356 131.739 295.707 131.834C295.648 131.852 295.506 133.191 294.95 133.306C290.354 134.291 292.675 131.531 291.852 130.658C291.389 130.171 291.043 129.925 290.785 129.839C293.469 129.664 296.577 129.279 297.405 129.282C296.839 126.276 291.439 129.59 289.946 128.754C289.893 128.724 290.131 127.095 290.077 127.082C290.076 127.082 290.075 127.082 290.074 127.082C289.614 126.964 287.137 127.265 286.554 128.415C286.411 128.695 286.382 129.025 286.52 129.412C286.523 129.419 286.526 129.427 286.529 129.434C286.759 129.938 288.421 129.974 290.388 129.864C289.837 130.212 290.181 132.056 290.083 132.131C289.271 132.73 287.708 132.025 286.481 131.449C285.933 131.19 285.453 130.957 285.145 130.876C284.917 130.818 284.91 131.992 284.872 131.994C283.971 131.71 284.402 128.366 283.408 131.805C281.828 127.599 286.51 131.242 286.236 128.529C286.032 126.4 275.366 127.409 275.423 130.732C275.386 130.381 275.24 129.944 274.941 129.448C274.277 128.342 271.326 128.708 270.827 129.323C270.743 129.444 270.813 132.636 270.708 132.667C270.452 132.74 266.82 130.292 265.522 132.215C266.254 132.646 266.984 133.078 267.712 133.512C263.366 133.63 264.068 134.575 265.532 135.491C265.604 135.498 265.677 135.618 265.746 135.629C266.88 136.308 268.319 136.963 268.345 137.215C268.439 138.159 261.166 138.88 262.476 135.888C262.662 135.473 266.093 136.704 264.356 134.634C264.051 134.27 261.88 134.937 261.759 134.71C260.931 133.181 265.677 130.988 265.042 128.807C263.922 130.93 262.392 129.869 261.065 130.455C260.462 130.719 260.368 132.325 260.295 132.358C259.189 132.815 259.757 131.115 259.383 131.171C259.179 131.206 257.115 134.864 257.33 129.926C256.075 130.613 255.206 131.177 254.648 131.634C253.408 132.65 253.697 133.132 254.727 133.316C255.883 133.522 257.977 133.361 259.916 133.171C258.652 134.908 256.101 134.338 254.791 134.669C254.712 134.689 254.638 134.712 254.569 134.739C254.132 134.911 254.474 136.54 253.744 136.905C252.251 137.639 244.805 136.201 242.842 135.918C243.978 135.253 243.508 133.492 242.602 133.682C241.697 133.874 242.642 136.2 242.483 136.47C242.316 136.744 237.96 135.957 237.274 136.332C240.414 135.202 239.555 133.48 236.791 133.526C237.144 132.979 237.498 132.433 237.853 131.888C236.307 132.738 232.664 130.336 231.8 131.237C231.666 131.38 232.335 132.824 232.26 132.905C231.506 133.615 228.571 132.372 228.492 132.897C228.427 133.332 229.74 134.462 229.363 135.124C229.286 135.263 227.936 133.361 226.861 133.978C226.463 134.205 226.866 135.59 226.77 135.683C225.97 136.456 226.229 134.022 224.669 134.582C224.027 134.814 223.554 135.68 222.963 136.291C222.501 136.769 221.968 137.092 221.219 136.84C222.078 137.193 222.699 137.478 223.127 137.711C224.303 138.349 224.035 138.583 223.25 138.773C222.438 138.968 221.071 139.12 220.167 139.623C219.83 139.811 220.448 142.328 218.188 141.347C222.109 136.163 216.592 139.058 215.404 139.173C215.337 139.166 215.092 137.483 214.505 137.534C214.456 137.542 214.679 138.671 214.15 138.83C209.138 140.355 212.237 138.621 211.105 137.633C210.621 137.212 208.352 139.178 207.688 139.317C207.534 139.344 207.431 138.153 206.838 138.288C205.789 138.531 205.032 139.931 204.351 140.138C204.27 140.157 203.98 138.295 202.747 139.106C202.4 139.333 202.087 140.06 202.7 140.511C204.719 141.993 207.581 138.444 209.82 139.921C211.846 141.263 206.201 142.235 205.908 142.298C205.8 142.321 206.769 141.228 205.615 141.216C204.625 141.21 203.374 144.695 201.839 144.225C201.723 144.19 200.139 141.653 200.164 141.486C200.193 141.362 201.861 140.487 201.48 139.741C201.435 139.655 200.315 139.854 200.072 139.292C199.779 138.607 198.147 131.682 197.872 131.547C197.176 131.216 197.846 132.746 197.424 132.702C196.524 132.607 193.157 131.052 193.478 133.495C193.999 133.553 194.52 133.612 195.04 133.671C192.325 134.394 193.68 135.225 193.369 135.746C193.035 136.311 192.781 134.16 191.817 134.123C191.721 134.12 190.875 134.353 190.006 134.695C188.972 135.102 187.907 135.663 188.035 136.14C189.923 134.327 189.604 137.103 189.712 137.131C189.938 137.189 190.104 136.73 190.295 136.301C190.447 135.96 190.615 135.639 190.841 135.612C194.425 135.216 191.264 138.177 192.207 138.628C192.529 138.779 192.878 137.418 193.012 137.461C193.445 137.601 193.739 139.25 193.979 139.071C194.54 138.654 193.416 136.443 193.443 136.313C193.744 134.753 196.217 136.204 195.308 138.977C196.267 139.756 195.837 136.649 196.685 137.777C198.362 140.012 196.361 139.701 195.917 140.196C194.375 141.926 193.624 140.945 191.264 141.686C191.194 141.707 191.123 141.731 191.051 141.756C190.139 142.068 189.306 143.77 188.888 143.932C188.632 144.031 185.056 139.313 186.535 147.475C185.394 146.876 182.776 141.817 181.781 142.269C180.894 142.677 181.764 145.496 181.699 145.625C181.602 145.826 180.437 145.823 180.141 146.307C179.795 146.877 180.238 147.929 179.628 148.519C178.113 149.986 177.551 147.046 177.331 146.892C174.778 145.127 176.57 149.105 176.178 149.536C175.821 149.923 169.437 149.629 168.405 150.978C168.789 150.276 169.174 149.575 169.562 148.875C168.227 147.257 167.913 150.452 167.158 147.188C168.162 152.505 165.456 149.414 164.907 149.685C164.693 149.794 164.919 150.687 164.645 150.792C163.579 151.203 160.917 151.078 160.425 151.678C160.385 151.726 160.349 151.774 160.316 151.821C159.773 152.599 160.095 153.289 160.807 153.875C162.387 155.165 165.856 155.969 166.235 156.024C165.508 156.147 162.6 157.416 161.992 158.82C161.786 159.294 161.843 159.782 162.333 160.244C162.483 160.385 162.673 160.524 162.908 160.659C163.414 160.951 163.588 158.422 163.8 158.274C165.235 157.297 164.491 159.7 164.662 159.871C164.947 160.146 165.505 157.862 165.836 158.042C165.945 158.099 165.804 160.147 167.312 159.84C167.063 161.466 164.081 161.444 162.677 161.677C162.333 161.733 162.086 161.804 161.998 161.915C161.838 162.12 164.025 165.771 159.499 162.807C159.631 163.164 159.763 163.52 159.894 163.877C157.934 164.518 155.965 165.172 154.008 165.834C154.008 164.935 154.703 162.954 153.376 163.676C152.613 164.093 153.7 165.815 153.639 165.889C152.87 166.6 140.334 169.297 137.692 170.316C136.849 170.627 134.823 172.833 134.638 172.918C134.259 173.085 133.485 173.218 132.601 173.344C131.043 173.551 129.388 173.663 129.031 173.923C128.679 174.18 129.525 175.614 129.157 175.648C128.816 175.678 128.686 174.079 128.572 174.045C127.939 173.784 124.45 176.028 121.92 176.785C121.128 177.019 120.433 177.099 119.952 176.892C120.302 176.923 120.92 176.463 121.584 175.797C122.963 174.409 124.562 172.134 124.271 171.445C124.206 171.306 122.688 170.548 122.632 171.179C121.854 170.08 121.781 173.956 120.942 173.905C120.896 173.903 120.849 173.889 120.798 173.863C120.685 173.804 120.269 171.498 118.822 171.55C118.32 171.571 117.743 173.681 115.878 172.197C115.1 173.046 111.631 173.564 108.725 174.373C106.413 175.01 104.472 175.814 104.606 176.948C104.638 177.076 106.23 177.364 105.747 178.656C105.107 180.373 104.439 175.715 102.946 175.891C102.72 175.91 99.1497 177.881 99.1384 178.2C99.007 181.035 102.65 180.641 102.713 180.942C102.885 181.68 100.384 183.215 100.207 183.101C100.026 182.977 100.909 178.917 98.7663 181.219C99.2276 181.465 99.6879 181.711 100.147 181.959C99.805 182.418 99.4498 182.424 99.1183 182.247C98.5478 181.942 98.0481 181.096 97.8217 181.093C96.6978 181.079 97.1202 184.786 93.8477 181.404C92.9767 180.508 93.1172 179.025 92.9974 178.886C91.8775 177.656 92.9697 181.783 90.9695 179.231C90.8166 179.043 91.7526 176.561 88.7801 177.884C89.1082 178.067 89.4359 178.251 89.763 178.435C89.6185 179.232 86.7938 180.956 86.3253 181.001C85.2662 181.094 85.0943 179.66 84.5745 179.365C84.4215 179.278 84.2379 179.29 83.9926 179.469C85.9984 181.803 82.5831 183.832 81.6922 181.434C82.5662 184.566 78.4561 183.794 76.9795 184.441C76.0854 184.829 74.9202 186.859 74.5162 187.006C74.5007 187.011 74.4864 187.014 74.4732 187.014C74.0338 187.01 73.1586 185.001 72.3042 184.886C72.057 184.854 70.9034 187.234 68.2104 186.078C67.6923 185.854 65.32 182.904 65.4825 181.775C65.7807 179.831 69.1111 181.489 68.0879 179.55C67.0003 177.468 64.9614 180.08 64.1399 180.165C60.2923 180.576 60.9674 177.411 60.541 176.78C59.4806 175.263 57.6994 176.266 57.5368 176.167C56.8756 175.688 57.4932 173.719 56.9864 172.721C56.3384 171.413 53.3101 170.04 53.4837 169.393C53.7535 168.458 56.4011 169.542 56.4478 169.4C57.1148 167.455 53.7375 165.42 52.4382 164.236C52.044 163.868 52.2739 162.802 52.0749 162.738C49.0281 161.785 53.8805 167.136 52.3385 167.424C50.9507 167.691 51.4423 164.922 51.3386 164.839C51.2203 164.749 49.7305 165.406 49.1296 164.841C48.846 164.543 50.5293 158.777 49.4686 157.159C48.4934 158.152 47.5012 159.16 46.4911 160.184C45.2087 158.014 47.8191 158.721 47.8692 158.402C47.9828 157.752 46.3842 157.159 46.0505 156.435C45.8346 155.977 46.1659 153.756 44.7477 153.666C44.3487 153.641 44.3154 154.942 43.1227 154.961C44.6571 153.981 44.6429 153.629 44.2779 153.5C44.3915 153.248 44.1863 153.338 42.6326 154.049C45.308 150.25 41.7745 150.65 41.2392 149.981C40.6802 149.269 41.9491 146.213 39.3842 148.004C39.3917 148 39.3994 147.996 39.4068 147.992C38.7559 146.302 38.4048 145.711 38.1178 145.647C38.0508 145.308 38.8449 146.178 39.0822 145.433C39.5392 143.991 36.5685 143.742 40.641 142.965C39.4697 141.188 37.0381 142.454 36.4816 142.602C36.5951 142.529 36.6302 142.497 36.6458 142.472C36.6853 142.38 36.5395 142.253 36.2389 142.15C36.1789 141.72 36.1248 141.126 35.8657 140.988C35.7442 140.925 35.6274 140.863 35.5156 140.804C32.457 138.154 34.1125 139.143 32.1755 137.258C32.1583 137.244 32.1408 137.231 32.123 137.217C31.9824 137.102 30.5653 137.443 30.1705 137.162C30.1241 137.128 30.0921 137.086 30.0781 137.033C30.0361 136.881 30.1521 136.635 30.513 136.258C30.7056 136.058 30.8919 135.885 31.0909 135.722C31.5225 135.367 32.0308 135.048 32.353 134.919C34.5173 134.051 35.831 134.175 33.7781 129.188C32.012 128.628 30.8105 129.397 29.9669 130.478C28.9688 131.371 29.0419 131.798 28.7486 132.406C28.4592 133.19 28.285 133.89 28.1018 134.277C28.046 134.396 27.9894 134.485 27.9298 134.536C26.8773 135.426 27.2076 133.445 26.8385 133.221C26.7335 133.162 26.0696 133.723 25.8287 133.838C25.7871 133.858 25.7581 133.865 25.7464 133.853C25.1507 133.251 24.8498 132.761 24.7652 132.356C24.6328 131.718 25.0429 131.289 25.7197 130.954C26.1626 130.735 26.7193 130.557 27.321 130.385C27.9734 130.179 28.2296 130.205 29.5216 129.65C30.5156 129.496 31.3823 129.282 31.738 128.803C30.9059 128.346 30.0732 127.891 29.2403 127.437C29.8465 127.077 30.4549 126.717 31.0654 126.357C27.3429 126.532 30.666 125.882 29.4095 121.696C29.1267 120.755 27.9199 123.264 28.9264 119.7C26.9647 120.038 27.0815 118.984 26.151 120.85C25.3654 119.317 27.8598 115.795 28.8437 114.293C23.2471 115.102 28.5418 119.05 23.5443 118.526C22.7893 118.847 22.4163 119.009 21.9696 119.199C21.7209 120.662 21.9891 120.882 24.2402 119.822C24.711 119.809 25.1553 119.552 25.1595 119.75C25.1693 120.196 24.9513 120.397 24.6642 120.61C22.2595 122.1 22.5846 122.057 22.1399 123.049C21.9724 123.703 21.9774 124.614 22.2973 125.979C22.442 126.59 23.9582 127.404 23.7568 128.216C23.7075 128.42 23.5494 128.623 23.2388 128.819C23.1455 128.876 22.5061 128.648 21.9294 128.403C21.4331 128.195 20.9866 127.971 20.9551 127.915C20.6575 127.399 20.6699 127.058 20.7775 126.797C20.9401 126.4 21.3225 126.194 21.1258 125.87C20.9331 125.555 20.5376 125.838 20.2485 126.06C20.0722 126.196 19.9348 126.309 19.8978 126.259C19.4015 125.596 19.4254 125.287 19.5699 125.114C19.7509 124.896 20.1258 124.894 19.8616 124.68C19.6821 124.532 19.3445 124.394 18.9473 124.246C17.3074 123.651 14.7077 122.869 16.9327 121.438C17.2713 121.218 17.7222 120.976 18.321 120.699C17.918 121.345 17.6579 121.839 17.493 122.219C16.975 123.435 17.4116 123.492 18.0887 123.049C18.4497 122.813 18.8869 122.43 19.2982 121.998C19.6292 121.65 19.9388 121.274 20.1832 120.913C20.2627 120.793 20.3014 120.629 20.3048 120.451C20.34 119.913 20.0762 119.242 20.6163 118.521C20.8834 118.229 21.3548 117.774 22.7234 116.999C23.3355 116.539 24.1488 116.447 24.4093 116.124C24.7665 115.678 20.8915 114.737 25.0628 113.417C23.5914 112.818 22.3539 113.413 21.1979 114.16C17.4216 116.458 18.5157 116.009 17.6055 116.63C17.0836 117.043 16.6164 117.371 16.1255 117.572C15.7285 117.735 15.3219 117.81 14.8849 117.762C14.6411 117.735 14.4182 117.699 14.218 117.654C12.4404 117.24 12.1716 116.283 12.4958 115.254C12.6586 114.751 12.9754 114.219 13.3533 113.706C13.7177 113.209 14.1445 112.727 14.5489 112.302C14.9571 111.872 15.3708 111.484 15.5975 111.248C15.8393 110.963 13.9837 110.401 14.143 110.18C14.6601 109.843 13.305 110.543 17.8359 107.904C19.0248 107.353 21.0516 106.39 20.9039 105.459C20.6868 104.158 19.5499 106.241 18.8249 105.15C18.3007 104.427 22.1997 100.612 19.4132 101.401C18.178 101.753 17.15 103.835 15.9905 104.469C9.93031 108.129 12.0564 106.496 10.2597 105.994C11.3707 105.233 9.66208 106.016 15.0667 102.75C16.9219 101.463 18.8611 100.145 20.8554 98.8172C18.7714 98.275 16.6836 97.7428 14.6348 97.1973C17.2306 95.2973 20.6018 95.3785 22.3598 92.1578C13.6238 91.4493 22.8263 87.7573 22.684 87.2189C22.5681 86.8978 18.2333 84.8875 17.4908 84.499C18.2255 83.41 19.948 81.9826 21.1381 80.5573C22.6627 78.7296 23.3145 76.8855 19.766 75.7382C21.0003 76.2909 21.7242 73.0496 21.6166 72.8861C20.7371 71.5631 18.4608 73.1585 17.3858 73.0743C17.0605 73.0485 16.8432 72.8687 16.8055 72.4073C16.7899 72.2181 16.7918 72.0582 16.8089 71.9237C17.0024 70.4167 19.0975 72.0957 20.0973 71.3634C25.7045 67.2706 19.3763 58.4421 26.4656 56.9695C26.1777 56.6836 25.8895 56.3978 25.6011 56.1122C26.1122 55.9207 26.6237 55.7299 27.1357 55.5399C32.3588 53.6009 37.6332 51.7349 42.9599 49.9506C44.468 49.4454 45.9793 48.9472 47.496 48.4552C48.7121 45.1631 53.2238 41.4222 57.039 39.4724C58.0662 38.9447 59.0375 38.5459 59.8711 38.3149C60.66 38.0877 65.0126 38.3123 65.3976 38.4975C66.117 38.8474 63.3115 40.1056 64.9839 40.6445C65.3279 40.7391 71.9265 39.1554 70.8773 37.599C70.086 37.6484 68.1537 39.3074 67.6453 39.0338C65.9751 38.1247 69.4639 36.5995 73.8165 35.1566C78.7806 33.4934 85.2178 31.9117 85.5999 31.1059C84.9669 30.6794 84.3253 30.2565 83.6782 29.8362C85.1109 29.6964 86.5021 29.577 87.8254 29.4847ZM91.434 184.657C91.6844 186.555 89.8544 185.874 89.321 186.687C89.086 187.05 89.0523 188.045 89.0439 188.999C89.0266 191.012 89.1162 192.851 87.5907 188.266C87.8481 188.021 88.1057 187.777 88.3635 187.533C89.3827 186.568 90.4062 185.61 91.434 184.657ZM114.523 178.136C113.175 177.584 112.586 173.586 113.989 174.822C114.148 174.963 116.335 178.883 114.523 178.136ZM103.264 180.501C103.287 180.434 104.202 180.174 104.256 180.22C105.635 181.372 102.883 182.143 103.264 180.501ZM157.098 161.459C155.863 161.943 157.659 165.198 158.09 163.567C158.117 163.463 157.18 161.43 157.098 161.459ZM156.167 161.593C154.383 158.722 153.995 165.551 155.415 164.512C155.55 164.409 156.249 161.734 156.167 161.593ZM110.38 178.012C110.054 176.816 111.312 176.975 111.861 177.084C112.245 178.142 110.769 177.715 110.38 178.012ZM137.487 168.751C137.289 167.795 133.029 169.076 133.076 170.398C133.625 169.669 137.694 169.595 137.487 168.751ZM147.594 164.556C147.447 164.422 146.119 165.041 146.384 165.856C147.352 166.757 148.25 165.167 147.594 164.556ZM168.709 159.393C168.739 159.166 166.453 154.101 169.8 157.018C170.288 157.445 169.267 159.134 169.444 159.294C169.805 159.603 170.064 159.727 170.247 159.718C169.164 160.424 167.985 160.913 167.792 160.619C166.883 159.227 168.695 159.487 168.709 159.393ZM178.974 153.009C179.04 152.088 180.706 152.23 181.135 152.517C181.209 152.573 181.407 154.913 182.075 154.6C182.612 154.345 181.295 152.172 182.473 152.325C183.662 152.479 182.508 154.447 182.631 154.547C182.791 154.676 184.301 153.282 184.517 154.657C184.676 155.674 182.705 155.356 182.293 155.664C181.768 156.057 182.812 157.596 181.769 157.431C181.114 157.33 180.848 154.305 180.689 154.182C180.555 154.083 178.764 156.226 178.979 153.017C178.978 153.014 178.976 153.012 178.974 153.009ZM170.537 159.516C170.47 159.636 170.378 159.712 170.247 159.718C170.345 159.654 170.441 159.584 170.537 159.516ZM93.8404 182.135C94.7434 182.754 93.658 184.536 92.5676 183.689C92.1558 182.796 93.6977 182.039 93.8404 182.135ZM171.099 156.873C173.024 157.22 171.951 158.52 170.537 159.516C170.908 158.851 170.452 156.759 171.099 156.873ZM122.632 171.179C122.768 171.372 122.919 171.691 123.104 172.237C122.737 171.694 122.615 171.378 122.632 171.179ZM126.46 171.025C127.076 168.99 124.777 169.789 125.147 170.992C125.311 171.437 126.441 171.103 126.46 171.025ZM158.775 161.22C158.603 161.086 159.346 155.443 157.383 160.024C159.086 160.247 157.586 161.212 157.723 161.657C158.107 162.935 160.399 161.05 161.112 161.473C161 159.043 159.334 161.664 158.778 161.219C158.777 161.22 158.776 161.22 158.775 161.22ZM199.3 150.508C199.177 151.946 197.985 151.691 197.215 151.74C197.331 150.301 198.53 150.553 199.3 150.508ZM387.897 164.344C382.667 163.787 383.972 158.21 387.618 161.944C387.69 162.02 388.391 163.912 387.897 164.344ZM347.141 150.068C347.284 147.547 348.866 147.523 349.597 148.767C349.766 149.048 349.953 151.691 348.907 151.932C349.681 149.023 348.504 147.541 347.141 150.068ZM171.751 155.099C171.91 153.368 173.754 154.171 174.64 154.235C174.417 155.677 172.603 155.441 171.751 155.099ZM373.023 155.975C372.568 155.628 371.555 157.57 371.587 157.77C371.724 158.681 373.22 157.334 373.023 155.975ZM166.577 156.003C166.281 155.055 168.178 153.644 168.864 155.999C168.376 155.927 166.769 156.596 166.577 156.003ZM197.748 150.017C197.337 149.576 198.876 148.401 199.469 148.809C199.6 149.854 198.016 150.302 197.748 150.017ZM364.58 154.079C364.178 153.761 363.053 153.364 362.678 154.164C362.211 155.163 363.979 155.305 364.58 154.079ZM441.094 184.154C440.89 184.463 438.627 185.969 438.55 185.512C438.544 185.485 438.544 185.451 438.551 185.409C438.657 184.849 439.019 184.461 439.45 184.228C440.139 183.834 441.176 183.999 441.094 184.154ZM378.225 156.543C379.004 158.982 378.045 156.549 377.408 158.618C378.349 159.02 380.729 159.963 379.765 157.375C379.575 156.874 378.634 156.83 378.225 156.543ZM377.121 155.403C376.739 156.013 374.994 157.757 375.944 157.91C376.382 157.977 377.845 155.881 377.121 155.403ZM437.769 183.102C438.031 182.128 438.531 182.153 438.657 182.315C438.783 182.469 438.819 182.874 438.759 183.03C438.681 183.19 438.602 183.337 438.533 183.461C438.88 182.961 439.201 183.038 438.393 184.345C438.374 184.18 438.121 184.178 438.201 184.028C438.232 183.962 438.262 183.901 438.295 183.84C437.835 184.444 437.731 184.252 437.755 183.921C437.771 183.666 437.73 183.259 437.769 183.102ZM429.009 176.706C432.466 175.254 430.755 179.751 430.502 179.804C427.187 180.384 430.343 177.976 430.345 177.793C430.273 177.453 427.857 178.099 429.016 176.709C429.014 176.708 429.011 176.707 429.009 176.706ZM437.336 182C437.432 181.976 437.911 182.381 437.862 182.443C437.584 184.108 436.234 182.973 437.336 182ZM186.759 148.034C187.808 148.32 187.197 150.235 186.443 149.733C186.379 149.681 185.832 147.781 186.759 148.034ZM376.254 155.613C376.179 155.307 373.129 153.418 371.579 153.917C371.155 154.053 370.844 154.365 370.737 154.933C370.812 154.912 370.982 154.955 371.218 155.038C372.703 155.553 376.771 157.727 376.254 155.613ZM337.304 144.258C338.192 144.461 336.713 146.727 336.432 145.713C336.326 145.336 337.079 144.208 337.304 144.258ZM163.222 154.439C162.5 156.031 161.645 151.465 162.917 152.799C162.966 152.851 163.25 154.377 163.222 154.439ZM344.186 147.246C340.739 148.025 343.209 140.384 346.744 143.985C346.531 144.3 346.32 144.615 346.108 144.93C350.577 147.247 346.301 145.546 345.04 145.715C344.562 145.777 344.626 147.16 344.186 147.256C344.186 147.252 344.186 147.249 344.186 147.246ZM332.678 143.205C331.386 139.12 333.185 139.84 335.046 140.663C335.967 141.069 336.913 141.503 337.499 141.373C335.445 143.343 333.5 142.61 335.802 145.499C335.082 145.438 334.557 145.335 334.175 145.202C332.363 144.575 333.764 143.246 333.662 143.068C333.509 142.825 332.76 143.467 332.678 143.205ZM340.488 144.734C340.697 144.61 341.753 146.023 342.266 145.947C341.181 147.682 339.111 145.585 340.488 144.734ZM418.283 172.935C419.026 171.609 419.76 170.718 420.457 171.675C419.84 172.225 418.961 172.535 418.283 172.935ZM87.174 177.827C86.4284 178.045 84.7924 178.169 85.8873 179.421C85.9908 179.521 87.5411 178.642 87.174 177.827ZM361.221 149.618C361.114 149.385 357.118 148.127 358.057 150.131C358.335 150.726 362.051 151.576 361.221 149.618ZM382.131 156.538C381.798 156.403 380.327 156.192 380.18 156.521C379.682 157.66 381.588 157.603 382.131 156.538ZM82.9818 178.049C82.8222 177.948 80.7923 179.211 81.344 179.766C82.3843 180.81 83.5254 178.392 82.9818 178.049ZM189.611 143.886C189.804 143.794 190.369 145.365 190.442 145.37C190.512 145.367 191.187 145.136 191.868 145.044C192.81 144.917 193.763 145.056 193.158 146.409C193.114 146.508 192.726 146.592 192.159 146.661C190.509 146.86 187.337 146.955 186.793 146.903C186.104 144.731 188.779 146.415 189.289 146.085C189.378 146.024 189.096 144.152 189.611 143.896C189.611 143.893 189.611 143.889 189.611 143.886ZM423.929 173.863C424.461 172.997 426.745 173.262 427.809 174.063C428.417 174.48 428.765 174.965 428.515 175.42C428.119 175.271 427.73 175.125 427.347 174.981C426.187 174.589 425.037 174.212 423.929 173.863ZM422.171 172.746C421.84 171.458 423.801 172.027 424.158 172.703C423.731 173.569 422.215 172.93 422.171 172.746ZM376.14 148.821C375.62 149.019 376.225 151.428 375.813 151.722C375.554 151.903 374.884 150.854 374.388 151.382C374.241 151.553 374.556 153.732 374.85 153.74C375.267 153.758 375.384 152.162 375.805 152.291C377.201 152.719 378.08 154.184 379.38 154.603C379.5 154.639 378.946 153.29 379.941 153.648C380.096 153.702 380.489 155.562 381.761 155.752C386.081 151.914 386.364 157.285 390.319 156.812C390.364 156.319 388.292 154.193 388.162 154.098C385.636 152.282 380.606 150.423 377.643 149.431C376.885 149.173 376.916 150.311 376.577 150.239C376.31 150.181 377.241 148.403 376.14 148.821ZM87.0944 176.661C85.9418 175.01 85.2795 176.688 84.4864 176.942C85.4973 178.44 86.1775 176.594 87.0944 176.661ZM405.679 163.664C405.268 163.573 404.301 162.525 403.973 163.035C403.551 163.701 405.079 164.869 405.679 163.664ZM210.632 141.027C210.666 140.968 211.702 140.928 211.749 140.985C212.88 142.429 209.779 142.538 210.632 141.027ZM235.098 138.56C235.848 138.247 236.576 137.563 236.975 139.139C236.461 138.936 235.108 139.681 235.098 138.56ZM268.697 136.704C268.503 134.604 270.854 135.931 271.29 136.117C271.136 137.051 268.838 138.215 268.697 136.704ZM420.942 166.893C422.096 167.572 423.201 164.574 423.34 166.234C423.359 166.513 420.893 172.68 420.677 169.83C420.628 169.314 422.237 168.328 420.942 166.893ZM347.402 144.212C348.059 142.94 349.003 143.595 349.68 143.88C349.271 144.841 347.921 144.235 347.402 144.212ZM78.4154 178.451C76.9692 176.963 74.8488 179.616 76.1018 180.449C76.2709 180.552 77.9961 178.567 78.4154 178.451ZM174.009 148.119C174.959 146.334 172.218 146.43 171.707 148.09C172.063 147.91 173.945 148.236 174.009 148.119ZM260.597 135.768C260.655 135.702 262.006 135.806 262.068 135.881C263.218 137.458 259.41 137.17 260.597 135.768ZM226.8 136.819C227.152 135.498 230.474 136.187 231.312 137.388C230.806 139.3 226.373 138.459 226.8 136.819ZM415.388 165.344C416.321 165.691 417.012 166.435 417.616 167.316C416.994 168.206 415.162 166.117 415.388 165.344ZM265.532 135.491C265.604 135.498 265.677 135.618 265.746 135.629C265.673 135.585 265.602 135.535 265.532 135.491ZM394.868 156.009C394.226 155.31 393.69 157.207 393.718 157.282C394.084 158.102 395.592 156.799 394.868 156.009ZM85.0223 174.402C84.0285 172.92 83.3192 174.726 82.4146 174.708C82.4092 174.708 82.4038 174.708 82.3983 174.708C82.4132 174.729 82.4283 174.75 82.4435 174.771C83.2493 175.838 84.5151 174.833 85.0223 174.402ZM330.181 139.081C329.543 137.022 333.786 135.487 334.409 136.873C334.236 138.039 330.25 139.351 330.181 139.081ZM169.487 146.385C169.101 145.048 167.627 147.093 168.162 147.646C168.5 147.997 169.724 147.215 169.487 146.385ZM336.223 138.042C336.674 137.698 337.272 139.213 336.805 139.971C336.211 140.943 336.107 138.143 336.223 138.042ZM370.626 145.749C370.518 145.491 367.83 146.152 368.35 147.794C368.705 148.933 369.402 147.05 369.557 147.091C369.726 147.147 372.622 150.635 370.626 145.749ZM308.067 135.364C308.997 134.898 310.035 135.599 310.994 135.639C310.522 136.46 308.348 136.526 308.067 135.364ZM176.498 144.498C176.161 143.986 170.049 144.951 173.841 145.905C174.063 145.955 177.515 146.021 176.498 144.498ZM420.942 166.893C420.795 166.807 420.644 166.664 420.492 166.442C420.677 166.588 420.817 166.757 420.942 166.893ZM406.486 160.275C407.177 159.468 405.765 158.587 405.108 158.898C404.501 159.982 406.392 160.387 406.486 160.275ZM311.187 134.24C311.791 133.709 312.744 134.407 313.448 134.401C313.239 135.324 311.342 135.209 311.187 134.24ZM272.976 131.77C274.072 132.32 275.414 132.062 275.435 130.913C275.458 131.093 275.511 131.283 275.599 131.475C275.688 131.664 276.861 131.13 277.368 131.525C280.407 133.827 265.618 132.944 274.18 129.65C273.777 130.356 273.375 131.063 272.976 131.77ZM222.149 134.62C221.362 133.303 219.822 135.254 220.342 135.746C220.703 136.081 222.935 135.946 222.149 134.62ZM246.063 131.599C245.859 131.361 244.221 132.455 244.23 133.193C245.259 133.898 246.986 132.7 246.063 131.599ZM217.152 133.579C216.732 133.42 216.519 135.721 216.578 135.813C217.078 136.578 217.967 134.742 217.152 133.579ZM420.884 160.173C420.625 159.342 418.29 160.077 417.321 161.275C417.372 160.983 417.345 160.559 417.194 159.998C417.195 159.998 417.196 159.999 417.197 159.999C417.12 159.727 415.359 158.694 413.477 157.809C410.141 156.244 406.5 155.141 411.639 159.317C411.882 159.521 412.019 158.177 413.042 158.812C413.061 158.824 413.08 158.836 413.099 158.849C413.169 158.898 412.773 159.916 412.988 160.067C413.492 160.408 416.082 162.304 417.018 161.765C416.94 161.952 416.898 162.144 416.904 162.341C416.949 164.084 421.076 160.807 420.884 160.173ZM249.431 131.188C249.064 130.804 248 131.254 247.948 132.222C248.514 132.659 250.281 132.084 249.431 131.188ZM175.503 140.669C174.638 140.039 173.172 141.864 173.871 142.521C174.298 142.923 176.494 141.391 175.503 140.669ZM238.588 132.467C242.684 133.282 239.538 132.298 240.04 130.841C239.554 131.382 239.07 131.924 238.588 132.467ZM437.511 172.236C436.952 171.612 438.985 169.491 439.048 171.192C439.065 171.73 437.838 172.585 437.511 172.236ZM453.272 181.579C454.454 179.345 455.444 182.065 453.605 182.738C453.53 182.749 453.236 181.671 453.272 181.579ZM443.739 173.189C442.794 174.59 442.675 174.748 442.47 174.171C443.251 174.05 443.465 172.474 443.739 173.189ZM275.423 130.732C275.43 130.8 275.436 130.851 275.435 130.913C275.427 130.851 275.423 130.793 275.423 130.732ZM213.431 134.507C212.738 133.162 211.337 133.46 211.954 134.824C212.014 134.949 213.366 135.578 213.431 134.507ZM417.321 161.275C417.276 161.535 417.178 161.672 417.018 161.765C417.091 161.589 417.19 161.437 417.321 161.275ZM220.86 132.395C220.912 133.125 221.966 133.427 222.641 133.503C222.947 133.537 223.176 133.525 223.199 133.483C223.78 132.361 223.229 132.107 222.482 132.129C221.916 132.146 221.239 132.322 220.86 132.395ZM160.989 142.356C160.904 142.489 162.242 144.995 162.433 143.847C162.583 142.955 161.308 141.847 160.989 142.356ZM445.247 173.298C445.459 173.436 445.84 173.689 445.172 174.812C445.098 174.518 444.722 174.097 445.247 173.298ZM453.67 179.585C452.137 180.306 450.879 179.276 450.282 178.481C451.52 176.88 452.837 179.505 453.67 179.585ZM422.203 161.609C422.193 161.513 420.933 160.269 420.575 161.592C420.052 163.53 422.314 162.47 422.203 161.609ZM164.626 143.009C165.184 141.927 162.785 139.542 162.475 141.882C162.317 143.079 164.533 143.188 164.626 143.009ZM208.766 133.272C207.871 134.189 210.56 135.211 210.711 133.766C210.233 133.718 209.085 132.946 208.766 133.272ZM242.98 128.137C239.486 124.311 241.785 131.591 242.294 130.898C242.365 130.799 243.064 128.227 242.98 128.137ZM67.8652 174.563C67.7987 174.885 68.2626 175.284 68.7475 175.501C69.328 175.762 69.9387 175.763 69.7158 175.053C69.5234 174.443 68.6366 174.217 68.1616 174.333C68.0018 174.372 67.8889 174.449 67.8652 174.563ZM290.785 129.839C290.652 129.848 290.519 129.857 290.388 129.864C290.488 129.801 290.618 129.783 290.785 129.839ZM198.738 129.283C201.904 134.599 200.963 130.264 201.167 130.255C201.601 130.25 202.822 131.633 203.578 131.259C202.765 132.039 201.955 132.82 201.148 133.604C201.938 133.887 208.465 135.045 208.457 134.115C208.455 132.772 206.555 133.47 206.481 133.364C206.375 133.211 205.526 129.605 205.321 129.494C204.985 129.309 199.73 130.044 198.738 129.283ZM236.371 129.3C236.92 129.693 237.189 131.138 237.396 130.77C237.467 130.644 237.363 129.252 237.609 128.87C237.196 129.012 236.783 129.156 236.371 129.3ZM195.556 135.052C194.635 133.477 197.591 133.636 197.713 133.812C198.385 134.872 196.306 136.335 195.556 135.052ZM219.638 131.295C219.523 131.207 217.272 130.949 217.407 131.887C218.075 132.527 221.012 132.383 219.638 131.295ZM237.943 128.746C238.726 128.844 240.285 130.13 239.955 128.049C239.954 128.049 239.952 128.049 239.951 128.049C239.281 128.28 238.612 128.513 237.943 128.746ZM166.262 138.089C164.102 135.145 165.71 139.116 167.201 139.889C167.255 138.338 166.615 138.568 166.262 138.089ZM161.139 136.698C160.605 136.2 156.655 137.813 157.694 139.388C158.061 139.948 160.044 137.844 160.182 137.938C160.387 138.077 160.086 140.159 161.248 139.489C161.023 138.859 161.32 136.863 161.139 136.698ZM164.611 136.265C162.624 134.105 163.351 138.755 164.418 138.524C164.836 138.438 164.894 136.577 164.611 136.265ZM170.5 135.374C169.896 135.048 168.392 134.711 167.789 136.443C169.073 136.296 170.356 136.154 171.638 136.016C171.598 135.12 171.03 135.66 170.497 135.375C170.498 135.374 170.499 135.374 170.5 135.374ZM467.759 175.763C467.764 174.005 470.096 175.352 469.988 175.694C469.532 176.736 467.748 176.538 467.759 175.763ZM40.2247 140.837C39.6761 140.527 38.6599 139.089 38.4238 140.249C39.6987 141.031 40.9676 141.819 42.229 142.613C41.3697 139.729 40.8271 141.181 40.2247 140.837ZM32.5811 132.68C32.6435 132.566 29.9747 128.843 32.6481 130.853C33.622 131.588 33.0116 133.145 31.975 134.215C31.6069 134.635 31.2004 135.032 30.7739 135.273C30.237 135.583 29.6697 135.679 29.1777 135.398C29.2743 134.939 29.6284 134.579 30.0662 134.272C30.5061 133.969 30.9687 133.728 31.5497 133.424C32.0093 133.218 32.4002 132.994 32.5811 132.68ZM14.2715 121.344C13.9451 121.278 13.9706 120.896 14.4144 120.439C14.6169 120.218 14.8301 120.057 14.9426 120.087C15.8838 120.333 15.7983 121.271 15.3582 121.771C15.0004 122.177 14.5093 122.222 14.2715 121.344ZM19.2663 118.844C19.2291 118.841 19.1941 118.837 19.1612 118.832C18.7651 118.771 18.6703 118.539 18.7535 118.255C19.2762 117.554 18.5109 117.708 22.0773 115.797C22.1601 115.785 22.2389 115.785 22.3113 115.8C22.4182 115.969 22.4235 116.153 22.3673 116.336C19.2031 118.716 19.8147 118.634 19.2663 118.844ZM500.431 117.353C501.489 114.246 496.565 118.819 498.742 118.843C498.849 118.848 500.37 117.498 500.431 117.353ZM12.4967 116.989C13.1816 117.121 13.0689 117.696 12.7616 118.106C12.5369 118.409 12.2189 118.603 12.1658 118.376C11.7568 117.966 11.7976 117.59 12.1451 117.235C12.2909 117.079 12.4386 116.979 12.4967 116.989ZM504.408 111.121C504.587 108.426 500.391 114.612 500.344 114.957C500.235 116.379 504.046 115.697 504.934 115.488C501.207 113.903 504.31 112.387 504.408 111.121ZM496.009 110.293C494.37 110.065 496.44 113.497 498.24 112.275C497.603 111.908 496.505 110.371 496.009 110.293ZM489.483 102.897C488.878 102.184 486.817 100.202 485.827 100.995C486.823 101.312 488.537 103.715 489.483 102.897ZM489.543 98.8021C489.06 96.655 486.403 100.479 488.573 100.163C488.655 100.15 489.543 98.9057 489.543 98.8021ZM483.06 93.2955C483.057 91.2241 480.17 94.812 481.389 95.5554C481.758 95.7723 483.052 93.5288 483.06 93.2955ZM507.867 103.633C507.405 102.263 504.253 103.894 506.007 105.708C504.994 105.539 504.048 105.429 503.016 105.259C504.172 107.919 505.985 106.301 507.002 105.776C507.292 105.631 507.521 105.576 507.654 105.733C508.501 106.741 506.118 109.557 505.195 110.299C507.401 109.161 510.802 111.888 512.881 113.087C511.893 111.013 510.195 107.486 508.815 105.623C508.53 105.236 507.878 105.333 507.403 105.267C507.213 105.241 507.051 105.189 506.951 105.069C506.353 104.362 507.885 103.715 507.871 103.636C507.869 103.635 507.868 103.634 507.867 103.633ZM475.395 89.5304C474.714 86.8883 473.747 91.4319 475.03 91.1487C475.097 91.1116 475.414 89.5958 475.395 89.5304ZM51.4833 167.889C88.1525 221.513 -23.8193 47.3222 5.31364 105.884C3.46741 108.103 5.59363 107.777 5.64707 108.062C5.93961 108.069 6.19965 107.822 6.59272 107.025C6.79438 106.618 7.02732 106.07 7.34281 105.322C7.48654 104.984 7.6483 104.604 7.84259 104.171C7.69399 105.015 7.6979 105.541 7.75099 105.891C7.8271 106.36 8.01179 106.499 8.22018 106.546C8.54887 106.62 8.95251 106.454 9.0592 107.012C9.10097 107.228 9.04059 107.413 8.95613 107.572C8.67098 108.101 8.07616 108.396 9.34738 109.113C8.93897 108.925 8.47068 108.908 7.99894 108.985C7.50898 109.063 7.0044 109.252 6.60869 109.42C6.47895 109.424 5.24741 110.158 7.15975 108.899C86.9284 216.799 34.6843 146.536 48.7799 165.186C48.779 165.187 48.7781 165.188 48.7772 165.188C49.1044 165.147 51.0345 169.07 51.4833 167.889ZM495.779 92.908C497.814 87.7185 492.909 94.8961 493.51 89.9688C487.874 94.2234 499.9 93.877 497.515 99.14C491.378 94.4599 496.182 101.837 498.03 100.602C498.269 100.456 498.476 100.185 498.626 99.7511C498.839 99.1015 498.973 98.1222 498.799 96.6031C499.18 97.3023 499.462 97.8166 499.709 98.205C501.493 101.059 501.11 96.7931 502.261 96.464C503.689 96.0792 505.429 98.8914 506.514 97.1616C506.513 97.1605 506.511 97.1595 506.51 97.1585C505.173 96.3133 503.756 95.4345 502.273 94.545C502.031 94.4004 501.79 94.2572 501.55 94.1153C500.611 98.8231 498.126 95.4779 498.779 91.6434C497.793 92.0685 496.765 92.472 495.779 92.908ZM502.546 102.612C502.492 102.429 498.891 100.574 498.575 101.449C498.736 102.22 503.565 104.976 502.546 102.612ZM515.436 111.716C515.215 111.526 515.006 111.282 514.775 111.016C514.025 110.163 513.24 109.264 512.033 109.899C512.672 110.438 513.267 111.445 514.101 111.817C514.494 111.987 514.922 111.991 515.436 111.716ZM458.154 77.1418C456.198 77.7435 460.311 80.0728 459.747 78.0399C459.719 77.9427 458.25 77.1151 458.154 77.1418ZM491.113 91.0628C490.849 90.4499 490.55 90.2822 490.279 90.3741C489.879 90.5058 489.541 91.1935 489.442 91.8655C489.322 92.656 489.524 93.4207 490.391 93.2628C490.516 93.2401 491.166 91.1811 491.113 91.0628ZM3.85359 105.505C3.55929 105.048 3.87696 104.628 4.53398 104.155C4.92641 103.873 5.42436 103.587 5.90784 103.321C6.53191 102.978 7.16194 102.65 7.40401 102.474C7.49696 102.92 7.08887 103.646 6.5939 104.278C6.2436 104.721 5.83287 105.131 5.44183 105.421C4.75057 105.933 4.18192 106.035 3.85359 105.505ZM520.234 109.383C520.715 107.294 519.998 106.369 518.986 106.009C517.427 105.422 515.289 106.11 515.13 105.887C514.916 105.553 516.681 104.349 516.65 104.252C516.579 104.035 513.342 101.615 513.088 101.604C512.911 101.604 511.666 104.304 510.456 104.497C512.103 104.303 515.169 107.063 516.824 108.579C517.479 109.174 517.947 109.594 518.086 109.593C518.468 109.583 518.799 105.889 520.231 109.38C520.232 109.381 520.233 109.382 520.234 109.383ZM514.802 104.802C514.79 106.356 512.583 104.738 512.293 103.935C511.725 102.189 514.836 104.635 514.802 104.802ZM510.084 99.5882C510.012 99.1797 507.607 97.027 506.582 97.9497C506.758 100.256 510.303 100.559 510.084 99.5882ZM478.168 80.6402C477.645 80.582 476.936 79.0831 476.306 80.082C476.875 80.1744 477.567 81.6575 478.168 80.6402ZM14.8902 86.7649C13.3604 86.452 15.6704 84.7954 16.5853 84.8575C16.9902 85.53 15.0256 86.7882 14.8902 86.7649ZM496.35 81.1035C496.302 81.0264 496.081 80.8717 495.731 80.6643C493.381 79.2006 486.499 76.4193 484.784 76.1573C484.443 76.0804 484.181 76.0389 484.03 76.0437C484.102 76.202 484.29 76.4004 484.563 76.6252C485.889 77.7944 492.659 81.2162 494.848 82.2365C495.114 82.3476 495.296 82.4062 495.37 82.3975C495.583 82.3691 496.394 81.1937 496.35 81.1035ZM517.246 94.9064C519.051 94.1312 518.159 96.081 518.235 96.176C518.933 97.0764 520.842 98.1406 519.418 99.1293C518.447 97.4462 513.72 96.4928 517.246 94.9064ZM481.212 73.4083C479.24 73.1677 481.716 76.3916 482.169 74.5952C482.168 74.4747 481.37 73.4109 481.212 73.4083ZM497.903 81.4176C498.988 80.9185 504.364 84.4911 507.507 87.0726C509.069 88.3182 510.245 89.3438 510.694 89.6752C508.356 90.6181 508.082 89.1939 506.885 87.9612C506.646 87.7143 506.385 87.4871 506.05 87.2825C505.505 86.9539 505.038 87.9369 504.981 87.8996C504.056 87.3289 505.425 86.7609 504.879 86.3682C504.693 86.1165 495.781 82.3723 497.903 81.4176ZM518.401 94.2935C519.458 93.8462 524.315 97.2869 524.243 97.5881C524.344 100.211 518.628 94.8813 518.401 94.2935ZM497.972 78.8062C500.82 76.925 505.529 82.2365 500.815 81.0723C500.395 80.9724 499.432 78.8768 497.972 78.8062ZM482.634 70.9227C482.6 70.8119 481.15 69.4343 480.611 70.2279C480.838 70.7639 483.114 72.2324 482.634 70.9227ZM485.023 68.4876C484.965 68.4853 484.649 70.3716 483.799 69.7074C483.73 69.6493 484.466 67.7115 483.185 67.9303C482.923 67.9761 481.973 69.0333 481.957 69.1205C481.31 72.4345 488.109 68.7692 485.023 68.4876ZM519.538 93.0574C519.831 92.1732 522.06 90.6378 521.787 92.1048C521.666 92.7365 520.247 93.5865 519.538 93.0574ZM475.423 66.4251C477.82 65.8385 472.6 62.9831 472.147 63.2258C471.896 64.1845 475.216 66.4896 475.423 66.4251ZM11.822 74.6939C11.8207 74.6945 11.8194 74.6952 11.8182 74.6958C13.3323 74.3187 13.0911 75.9121 13.1736 75.9158C16.9184 76.1582 14.8161 73.9111 15.1096 73.3689C15.6636 72.3435 16.865 74.7715 17.8002 73.9007C17.9279 73.782 18.0508 73.6022 18.167 73.3439C18.0404 73.5887 17.9345 73.8042 17.847 73.9941C17.0273 75.7787 17.8225 75.2857 18.5271 75.3502C18.7661 75.372 18.9949 75.4579 19.1473 75.7176C19.7364 76.7267 19.83 77.2658 19.6114 77.5126C18.855 78.3672 14.2755 75.7074 13.6211 77.0025C13.5051 77.2321 15.6376 78.0149 15.3772 78.6813C14.5818 80.81 5.95355 76.1997 11.822 74.6939ZM522.356 92.2717C523.979 91.5926 527.371 96.3497 525.4 96.3586C525.161 96.405 520.103 93.3128 522.356 92.2717ZM275.78 15.3083C277.067 13.979 274.083 12.4175 273.533 13.4565C273.263 13.9724 275.219 15.8905 275.78 15.3083ZM254.771 10.0169C253.242 10.3436 251.867 15.9476 253.724 15.0118C253.919 14.9097 254.973 10.7784 254.771 10.0169ZM357.932 19.1895C356.607 16.9233 356.034 20.5607 357.276 20.7417C357.715 20.8069 357.973 19.2613 357.932 19.1895ZM294.345 13.2504C294.189 13.1158 292.335 13.2935 292.379 14.1416C293.044 14.6673 295.348 14.1658 294.345 13.2504ZM358.566 18.7778C358.508 18.8014 358.457 18.8316 358.411 18.8673C358.116 19.0972 358.069 19.5562 358.201 19.9622C358.447 20.7192 359.307 21.2932 360.372 19.8672C359.712 19.9534 358.683 18.7308 358.566 18.7778ZM497.326 69.1864C495.502 69.927 492.833 68.0859 491.41 67.6998C491.981 65.7925 495.753 68.7394 497.326 69.1864ZM261.343 12.0395C259.935 13.4557 263.055 14.5059 262.728 12.6914C262.687 12.5928 261.399 11.9789 261.343 12.0395ZM409.867 31.8588C409.045 32.3308 409.702 33.4264 410.3 33.7484C410.7 33.9637 411.077 33.8331 410.976 32.9358C410.97 32.9031 410.842 32.7565 410.676 32.5815C410.365 32.2551 409.916 31.8301 409.867 31.8588ZM423.616 37.1862C422.988 36.5448 419.705 35.5399 420.596 37.0526C420.732 37.2829 423.206 38.174 423.616 37.1862ZM14.5533 72.071C13.4809 70.7465 14.983 70.0344 15.8035 69.9187C15.9733 69.8946 16.1138 69.8959 16.1959 69.9222C16.2528 69.9423 16.2779 70.3229 16.2423 70.7939C16.1566 71.9109 15.7366 73.5342 14.5533 72.071ZM346.846 16.9428C345.947 17.0534 343.538 16.2105 342.942 17.193C344.192 17.1482 346.835 19.0659 346.846 16.9428ZM267.947 11.8985C266.653 9.73009 264.488 9.98758 265.079 12.8319C267.454 12.5984 264.739 10.2681 267.947 11.8985ZM364.637 17.5948C363.973 17.2863 362.889 19.8635 362.942 20.0061C363.441 21.3624 365.108 18.783 364.637 17.5948ZM311.603 12.9912C311.64 11.8183 309.408 12.213 309.657 12.9845C309.737 13.2421 311.572 13.9386 311.603 12.9912ZM472.966 56.5901C472.474 55.1776 475.809 55.5873 476.117 57.1213C475.755 58.9388 473.033 56.7535 472.966 56.5901ZM383.367 22.6673C383.905 21.0067 380.294 21.1061 381.269 22.8397C381.515 23.2729 383.186 23.2203 383.367 22.6673ZM415.276 29.882C412.496 31.1342 420.997 35.5333 419.468 32.2987C419.362 32.063 415.523 29.7737 415.276 29.882ZM429.487 36.1652C429.198 35.8184 431.369 30.3881 432.121 33.0598C432.22 33.4066 430.761 34.5191 430.803 34.9105C430.831 35.1318 433.832 37.1078 434.03 37.0392C434.247 36.9545 434.707 35.1277 434.945 34.9922C435.159 34.8726 436.116 36.2922 437.019 37.0917C437.255 37.3001 437.487 37.4664 437.706 37.5531C439.688 38.3384 440.458 36.9678 440.624 37.0252C441.104 37.1985 441.502 38.5375 442.461 38.9091C447.299 40.7613 455.216 42.578 457.722 47.2539C454.854 44.589 451.066 44.5447 447.545 43.5941C449.742 40.9643 441.649 43.9402 446.52 41.8391C445.464 41.9035 440.593 40.4063 436.317 38.9544C432.934 37.7994 429.91 36.6535 429.491 36.1667C429.489 36.1662 429.488 36.1657 429.487 36.1652ZM248.643 8.63726C249.496 6.59588 244.658 7.28602 244.378 9.61894C245.033 9.90025 248.535 8.86592 248.643 8.63726ZM270.987 3.14147C271.437 2.79421 271.845 -1.11252 274.255 0.856504C274.257 0.856495 274.26 0.856489 274.262 0.85648C274.964 1.43221 274.168 2.38441 274.298 2.72267C274.347 2.86 276.523 4.7972 274.719 5.11163C271.971 5.59944 274.45 2.21069 272.979 2.17562C272.796 2.17138 270.031 4.30427 270.2 4.76756C270.217 4.82121 271.048 4.36695 271.188 4.55858C271.714 5.2783 271.47 6.49804 271.544 6.5554C271.778 6.69746 276.159 4.6071 276.796 6.42509C276.995 6.99809 269.834 8.376 269.559 8.08814C269.38 7.89872 269.416 4.51798 269.229 4.18769C269.131 4.02127 266.251 5.32901 265.872 5.02712C265.762 4.93917 265.677 4.8438 265.614 4.76506C266.069 5.80161 263.453 5.77712 263.507 4.59729C263.542 4.13187 265.353 4.36413 265.419 4.44479C265.448 4.47859 265.474 4.52544 265.497 4.55765C265.097 3.28214 271.228 3.25781 269.885 1.38083C271.656 0.324582 269.66 4.16502 270.987 3.14147ZM279.545 1.04657C279.359 1.40088 279.173 1.75527 278.987 2.10977C282.116 1.25594 285.698 3.01461 289.282 3.08662C289.406 3.08945 289.495 3.05108 289.558 2.98423C289.962 2.56091 289.357 0.993646 290.379 1.53231C291.329 2.0324 292.33 4.07873 291.798 4.51341C291.697 4.59751 290.525 3.79391 289.547 3.48356C289.264 3.39375 288.997 3.34499 288.778 3.37027C285.893 3.70772 286.588 5.59005 286.418 5.63606C286.233 5.68503 284.453 4.34298 283.463 4.38921C280.977 4.5101 279.844 5.64179 276.465 4.13943C278.421 2.91493 277.36 0.241301 279.545 1.04657ZM398.807 21.4318C399.251 20.3377 400.952 21.9204 401.72 21.9705C401.273 23.0636 399.582 21.4758 398.807 21.4318ZM97.6515 29.8064C97.6032 31.8195 102.036 31.0633 100.465 29.8418C100.114 29.5704 98.1878 29.6672 97.6515 29.8064ZM117.698 25.5922C118.152 24.9254 115.447 24.1901 115.825 25.6328C115.948 26.094 117.64 25.678 117.698 25.5922ZM320.137 4.65389C320.264 4.60259 321.95 5.16781 321.992 5.27027C322.967 7.39652 317.387 5.77175 320.137 4.65389ZM141.26 17.524C139.456 19.2122 145.823 18.3752 143.571 17.2219C143.459 17.1651 141.346 17.4413 141.26 17.524ZM149.906 15.3097C149.417 15.4791 147.066 15.3334 147.159 15.9154C147.312 16.8507 149.981 16.9515 149.906 15.3097ZM366.598 10.5727C366.781 8.39143 369.671 10.6836 370.829 10.6638C370.624 12.8395 367.794 10.5386 366.598 10.5727ZM345.83 5.22076C360.503 5.86873 356.674 9.88436 344.763 6.13259C344.941 4.75219 344.846 5.18466 345.83 5.22076ZM363.91 8.64993C363.146 9.91324 361.654 9.19661 360.615 8.88406C360.987 7.96978 363.109 8.74132 363.91 8.64993ZM91.807 28.3888C92.0264 26.4934 95.866 27.6403 95.4933 28.502C95.3934 28.6909 91.8073 29.3926 91.807 28.3888ZM321.378 2.88963C321.266 0.760572 325.048 1.93799 325.274 2.43209C326.281 4.40902 321.762 2.44744 321.378 2.88963ZM385.942 13.193C386.599 12.3478 387.49 12.4769 388.366 12.797C388.965 13.0153 389.557 13.3227 390.066 13.4679C389.601 14.0684 388.848 14.0801 388.076 13.9035C387.289 13.7233 386.481 13.3473 385.942 13.193ZM376.993 9.65485C377.09 9.61118 378.863 10.1853 378.925 10.2796C380.025 12.1992 375.025 10.5889 376.993 9.65485ZM2.62097 61.5814C2.65343 61.5041 3.90598 60.9746 3.97081 61.0116C5.77161 61.8662 2.01741 63.4444 2.62097 61.5814Z" fill="#D89B4A"/>
</svg>
