<svg width="158" height="34" viewBox="0 0 158 34" fill="none" xmlns="http://www.w3.org/2000/svg">
<path d="M13.1512 33.2949C13.2548 33.2474 13.6477 33.3205 13.8253 33.2916C13.6937 33.6345 13.1495 33.5497 13.0786 33.4145C13.0695 33.3974 13.0677 33.3796 13.0752 33.3617C13.0846 33.3389 13.1089 33.3161 13.1512 33.2949ZM28.8035 1.276C28.6654 1.38811 28.5274 1.50025 28.3895 1.61243C28.7974 1.66382 29.3386 1.5629 29.7189 1.64788C29.7811 1.66221 29.6344 1.97587 29.7805 1.98351C29.9266 1.99107 29.881 1.57268 30.0909 1.51904C30.3264 1.45997 31.4262 1.70812 31.8027 1.68635C32.4047 1.65045 33.0074 1.57647 33.6117 1.51329C34.4211 1.42866 35.2329 1.36344 36.0467 1.43525C34.5971 1.79687 36.0797 2.06096 36.4838 1.91275C36.5734 1.87877 36.5322 1.09803 38.0058 1.24682C38.9424 1.34207 38.116 2.48401 39.654 1.87763C38.5369 1.19659 39.4299 1.15425 40.3089 1.11137C40.39 1.10742 40.471 1.10346 40.5503 1.09898C40.7121 1.08944 42.0228 1.17017 42.5999 1.12098C42.7972 1.10381 43.0882 0.687326 43.3506 0.670061C43.5311 0.658487 43.6732 0.878583 43.9411 0.860724C44.9748 0.79411 45.9957 0.752635 47.0287 0.769816C47.2443 0.773404 47.4606 0.779549 47.6774 0.788561C46.9646 1.8529 48.2606 1.22551 48.3206 1.27503C48.6241 1.55477 47.2753 1.6606 47.8126 1.82924C48.5583 1.78291 49.3033 1.73785 50.0508 1.69407C49.4331 1.57429 50.8532 0.797034 51.1237 1.13778C51.0382 0.519641 52.599 1.06474 53.7788 1.40864C54.3709 1.5802 54.8777 1.70063 55.0541 1.59607C55.1648 1.53011 54.4345 1.07511 56.1208 1.27516C56.3036 1.29755 56.2363 1.57804 56.3319 1.55146C56.3891 1.53548 56.7313 0.64342 57.1051 1.13412C57.242 1.31356 56.3765 1.90014 58.2814 1.66029C57.5155 0.754037 60.9322 1.16709 61.5637 1.39907C61.4382 1.27692 61.3127 1.1548 61.187 1.03272C61.8091 1.3629 61.9219 1.05542 62.0622 1.07271C62.6274 1.14229 63.4005 1.45695 63.9238 1.43215C64.5361 1.40376 64.5421 0.840118 65.2533 1.06518C65.0853 0.939405 64.9171 0.813685 64.7488 0.688025C65.2412 0.721788 65.7333 0.756054 66.2251 0.790806C65.0786 1.5261 66.4704 0.828566 66.5619 0.813704C66.7077 0.788051 66.4955 1.0913 66.7392 1.05579C66.7645 1.04982 66.731 0.761758 67.1066 0.733521C67.8915 0.675786 67.7632 1.03616 68.0922 1.03599C68.1224 1.03453 68.02 0.774001 68.589 0.719926C70.397 0.549082 68.5774 0.91805 68.5078 0.953287C68.4162 0.999568 69.0211 2.08945 67.4934 1.68717C68.0068 1.81536 68.0525 2.29527 68.1102 2.30784C68.1614 2.3181 69.0528 2.26212 69.1021 2.24643C69.542 2.08972 69.1614 1.75701 69.2475 1.69951C69.3183 1.65298 70.3841 2.09513 70.6512 1.11446C71.1506 2.03094 70.3428 1.93457 69.4804 2.06217C69.3524 2.2467 70.2944 2.44158 70.344 2.442C71.5625 2.45924 70.8998 1.70165 71.174 1.2282C71.2136 1.16017 71.2792 1.14991 71.3442 1.15677C71.5159 1.1749 71.6838 1.31237 71.3589 0.820978C72.4676 0.768735 71.7893 1.14577 71.8599 1.20438C71.9664 1.29059 72.3569 1.10529 72.405 1.13175C72.4754 1.17086 72.2241 1.39846 72.5031 1.48511C72.5494 1.49781 73.0085 1.10672 72.4291 0.905565C73.2067 0.976184 73.1489 0.634887 73.4 1.32565C73.9607 0.038166 73.7743 2.10007 73.9836 2.17683C74.5404 2.37948 74.3981 1.35756 74.4287 1.30844C74.6395 0.99377 76.1848 1.37629 76.5718 1.23845C76.4042 1.96865 75.3417 1.21963 75.0971 1.35718C74.2833 1.81404 76.2227 1.74777 75.6191 2.65754C75.869 2.40954 76.1191 2.16164 76.3693 1.91384C76.8045 2.51668 76.1627 2.76059 77.3738 2.57153C77.5829 2.06436 76.519 2.63282 76.7389 2.23467C76.8683 2.00085 77.5695 1.96618 77.5861 1.84187C77.6034 1.69204 76.9667 1.85534 77.0717 1.6268C77.3014 1.13294 79.5968 1.66295 77.8345 1.89265C78.3245 1.89575 78.5525 2.89282 78.9841 2.59457C79.2638 2.40116 77.7529 0.993584 80.064 1.30312C80.1013 1.77218 79.1343 1.41761 79.108 1.45272C79.0711 1.50367 79.2212 2.56396 79.2504 2.61685C79.3536 2.79041 81.7322 2.2871 82.2159 2.83234C82.0357 2.21622 84.0024 2.77418 84.2234 2.5952C84.2823 2.54557 84.0788 2.16543 84.1413 2.12769C84.5317 1.90347 85.5471 2.60213 86.0263 2.63454C86.5629 2.67096 86.505 2.3461 86.535 2.34764C86.7708 2.37313 86.575 2.58597 86.7196 2.58994C86.9381 2.59557 88.4361 2.68918 88.5127 2.64624C88.5352 2.63275 88.3026 2.2559 88.6318 2.19681C88.6585 2.19202 88.6617 2.28488 88.7572 2.36905C88.8659 2.46481 89.094 2.54925 89.6122 2.46623C90.785 2.27879 88.8216 1.8951 89.3211 1.45381C90.0477 2.13097 90.0453 1.48435 90.2467 1.54201C90.3164 1.5629 90.8205 2.13006 91.3894 2.1153C90.9788 2.19011 90.5681 2.26508 90.1575 2.34023C90.5549 2.45022 91.3369 2.3582 91.6629 2.4787C91.8219 2.53735 91.6734 2.98376 92.0232 2.984C92.0975 2.98163 92.4312 1.8929 91.4978 2.35365C91.4384 1.9586 91.8653 2.22955 92.0713 2.12576C92.1025 2.10955 92.2466 1.4582 92.4901 1.87492C92.5484 1.97752 91.8054 3.86537 93.5945 2.54427C93.6521 2.50171 93.4661 2.25508 93.5227 2.20743C93.5614 2.17516 94.0018 2.28832 94.0521 2.25617C94.1036 2.22155 93.8988 1.95218 93.9604 1.90293C94.2766 1.64908 94.6399 2.701 94.0117 2.59867C94.2179 2.73461 94.4241 2.87059 94.6302 3.00661C94.4336 2.21663 94.9697 2.799 95.2623 2.7859C97.1375 2.70273 95.9051 2.14709 96.2364 1.89623C96.7696 1.49369 96.3237 2.81602 97.1063 2.44359C97.1787 2.40883 96.2733 1.80512 98.0716 2.19559C97.8036 2.2073 97.5355 2.21906 97.2674 2.23087C97.3923 2.99269 98.2342 2.21641 98.297 2.20829C99.0117 2.13236 98.5207 2.38591 99.591 2.03833C99.6866 2.00712 99.8844 2.20181 100.089 2.11679C100.94 1.76667 98.997 1.84029 98.9558 1.53239C98.9368 1.38121 101.019 1.50185 101.087 1.57616C101.378 1.90394 100.137 1.6773 100.36 2.07869C100.441 2.22087 103.419 2.05529 104.006 2.23274C104.685 2.43847 104.951 3.47611 105.003 2.32483C105.15 3.46311 105.353 2.69907 105.44 2.71051C105.704 2.74766 105.902 2.77627 106.064 2.79719C106.553 2.86005 106.725 2.85336 107.41 2.80084C107.612 2.78576 107.766 3.13582 107.84 3.08091C107.882 3.04768 107.821 2.67744 108.028 2.57274C108.315 2.42964 109.987 2.87865 110.103 3.08689C110.22 3.29508 109.387 3.14459 109.523 3.48451C110.128 3.54397 110.713 3.4862 111.321 3.54737C111.574 3.57378 111.434 3.80167 111.543 3.81098C111.589 3.81584 112.473 3.64762 112.439 3.55994C112.362 3.35594 109.654 3.37535 110.383 2.99713C110.523 2.92403 110.985 3.48265 110.936 2.82521C113.344 3.07642 115.748 3.32831 118.148 3.57905C116.744 4.00948 115.206 3.50524 113.753 3.48903C113.553 3.48618 112.884 3.39433 112.951 3.72845C114.182 3.86683 115.723 3.76023 116.896 4.02618C116.934 4.03493 116.782 4.32605 116.922 4.37917C117.184 4.47837 118.067 4.03605 118.207 4.1661C118.23 4.19602 117.723 4.56672 117.861 4.82195C118.217 5.47693 118.375 4.06654 118.704 4.0973C118.958 4.12176 120.641 4.87819 121.085 4.46391C121.557 4.02243 119.835 4.14336 119.978 3.77206C121.087 3.46122 122.18 3.84754 123.221 3.89059C123.283 3.89316 123.345 3.8945 123.407 3.89441C123.426 3.89401 123.271 3.59193 123.517 3.56078C123.944 3.50656 124.039 3.92977 124.243 4.00529C124.463 4.08582 125.254 4.05824 125.353 4.21516C125.365 4.23573 125.189 4.6444 125.164 4.65508C124.813 4.81212 124.714 4.26817 124.683 4.25997C124.566 4.2347 124.442 4.43636 124.336 4.41964C124.16 4.39186 124.071 4.19687 123.839 4.17037C123.678 4.15137 123.818 4.52452 123.664 4.50133C123.63 4.49529 123.405 4.17717 123.212 4.11541C123.085 4.07507 122.973 4.14409 122.936 4.48086C122.932 4.51828 123.026 4.56126 123.191 4.60698C124.214 4.89038 127.977 5.27434 128.415 5.10514C127.989 4.98527 127.564 4.86528 127.139 4.74518C128.001 5.03061 129.075 4.38901 129.109 5.40242C132.338 5.61269 135.561 5.81579 138.78 6.00737C139.352 6.11281 139.015 6.7519 139.968 6.5942C139.73 6.37923 139.493 6.16418 139.255 5.94908C139.423 6.00558 139.794 6.08582 140.221 6.16075C141.014 6.29998 141.997 6.42029 142.226 6.34016C142.271 6.32398 142.352 5.73813 142.89 5.70406C143.367 5.67396 143.43 6.1167 143.682 6.2087C143.893 6.28471 144.137 6.17637 144.199 6.20255C144.247 6.22345 144.259 6.49338 144.374 6.54378C144.74 6.69978 144.462 5.93264 144.804 6.81419C144.713 6.8448 144.623 6.8754 144.533 6.90599C144.975 7.04504 145.573 7.45772 144.911 7.63404C144.797 7.66447 144.901 7.40666 144.817 7.40468C141.514 7.35513 144.136 7.94124 145.304 7.56907C145.59 7.96407 147.261 7.77367 147.315 7.85087C147.389 7.96313 147.095 8.26423 147.462 8.54057C147.539 8.59975 149.77 8.43919 148.956 8.93237C148.788 9.03432 147.723 8.89591 147.465 8.90409C148.05 9.73885 149.499 8.60133 149.657 8.63494C150.298 8.77806 148.403 9.31441 149.852 9.44454C150.965 9.54378 149.931 8.97265 150.365 8.74939C150.609 8.62438 151.856 9.25458 151.839 8.47388C152.274 8.39994 152.012 8.80736 152.064 8.83821C152.116 8.86554 152.971 8.64996 153.244 8.81973C153.277 8.84084 153.164 9.24403 153.198 9.27789C153.264 9.33614 154.086 9.27118 154.12 9.23735C154.141 9.2139 153.953 8.8553 154.035 8.77078C154.13 8.67345 154.917 8.7716 154.962 8.67084C155.027 8.51872 154.051 8.60166 154.221 8.2078C154.668 8.31632 155.403 8.06461 155.705 7.75015C155.631 7.84028 155.196 7.84578 155.045 7.81083C155.127 7.23108 156.059 7.25511 155.733 7.7096C155.939 7.46602 155.803 7.33259 155.921 7.10138C155.952 7.04284 156.24 7.03549 156.298 6.93575C156.305 6.91584 156.012 6.69161 156.073 6.57454C156.184 6.36317 157.056 6.42516 157.126 6.48209C157.325 6.64383 156.61 6.82465 156.547 7.06875C156.538 7.10632 157.136 7.59629 157.144 7.63881C157.173 8.09466 156.504 7.75596 156.574 8.16703C156.74 8.25629 156.905 8.34551 157.071 8.43467C156.42 8.84008 155.233 8.60611 154.917 9.07245C155.875 8.94941 156.873 8.98164 156.855 10.0448C156.847 10.4927 156.43 10.7486 156.444 10.8626C156.499 11.2711 157.079 10.8375 157.1 10.8593C157.117 10.8844 157.124 10.9087 157.124 10.9322C157.124 10.9322 157.124 10.9323 157.124 10.9323C157.12 11.1709 156.3 11.3297 156.257 11.4378C156.185 11.6302 156.536 12.4324 156.533 12.6085C156.52 12.6438 155.934 12.8226 156.125 13.1332C156.319 13.447 156.83 13.462 156.848 13.4945C156.942 13.6819 156.046 13.8369 156.017 13.946C156.002 14.0013 156.477 14.3498 156.489 14.448C156.5 14.5465 156.131 14.755 155.982 15.0628C155.87 15.2915 156.18 15.4734 156.125 15.5086C156.085 15.532 155.239 15.5137 155.196 15.5533C155.133 15.6122 155.327 15.8911 155.297 15.9595C155.254 16.0578 154.982 15.9535 155.016 16.0561C155.041 16.1327 156.086 17.1005 156.075 17.3538C156.056 17.7864 154.947 16.7718 155.966 18.4967C155.973 18.5081 156.23 18.391 156.237 18.4016C156.389 18.7182 155.563 19.1881 156.565 19.1199C154.694 19.6348 156.323 19.7666 156.035 20.4904C155.924 20.7688 155.199 20.8718 155.195 20.9137C155.259 21.2701 155.494 20.9986 155.57 21.1741C155.611 21.2723 154.957 21.6365 155.099 21.8829C155.172 22.01 155.86 21.977 155.888 22.0019C156.157 22.2377 155.819 22.4812 155.876 22.6464C155.914 22.7572 156.329 22.7727 156.339 22.7927C156.356 22.8342 155.785 23.2699 155.664 23.4242C155.573 23.543 155.905 23.7372 155.842 23.7886C155.461 24.0961 154.675 23.282 155.426 24.4164C155.472 24.486 155.764 24.4632 155.773 24.477C155.948 24.7978 155.41 24.8163 155.309 25.0747C155.136 25.5201 155.914 25.2835 155.265 25.5877C155.743 25.8892 156.012 25.8814 156.578 25.8087C155.011 26.0113 154.437 27.1616 156.177 27.1619C155.624 27.1347 155.674 27.7906 155.509 27.7993C155.406 27.8041 154.615 27.1387 154.957 28.6063C155 28.7897 155.492 28.5662 155.333 28.9371C154.163 28.8213 155.304 29.1745 155.304 29.2238C155.274 30.0854 152.422 29.3267 151.93 29.413C151.357 29.5148 150.835 30.1816 150.711 30.1797C150.302 30.1708 150.649 29.8341 150.56 29.7055C150.471 29.5782 149.295 30.2107 149.238 30.1729C149.017 30.022 149.255 29.6195 149.232 29.5984C148.96 29.342 147.395 29.6226 146.962 29.5159C146.968 29.781 147.843 29.8246 147.286 30.2356C146.636 30.7146 146.63 29.5468 146.615 29.4951C144.229 29.4407 141.845 29.3782 139.464 29.3093C138.938 29.2941 138.412 29.2786 137.886 29.2628C137.897 29.7078 138.881 29.6275 139.455 29.5756C139.683 29.5551 139.846 29.5391 139.858 29.5627C139.92 29.6918 139.746 29.7792 139.447 29.8337C138.605 29.9873 136.784 29.8777 136.5 29.7057C136.794 29.8501 137.088 29.9945 137.383 30.1388C136.847 30.8348 135.749 29.8685 135 30.1569C134.758 30.2505 135.206 30.5423 135.196 30.5607C134.918 30.8282 134.495 30.5992 134.83 30.2388C134.163 30.5717 134.273 30.1818 133.772 30.134C133.746 30.1318 133.951 30.4276 133.55 30.5324C133.362 30.5813 132.369 30.5454 132.227 30.7922C132.168 30.8961 132.63 32.0313 132.728 31.0728C133.791 31.5811 133.089 30.6477 133.508 30.6853C133.572 30.6926 133.404 31.2237 134.47 31.0096C134.234 31.9696 133.043 31.2018 132.83 31.3111C132.391 31.5361 134.146 32.101 134.499 31.3585C134.32 32.1077 134.621 31.4648 135.015 31.51C135.447 31.5591 135.25 31.7771 135.484 31.7866C136.125 31.8149 135.878 31.2728 136.39 31.7715C135.926 30.2667 137.301 31.6069 137.702 32.0102C137.026 32.0628 136.349 32.1149 135.674 32.1666C135.709 32.246 135.745 32.3255 135.781 32.4049C135.604 32.3876 135.427 32.3703 135.25 32.3529C135.281 32.2791 135.312 32.2053 135.343 32.1314C134.412 32.5854 134.209 32.0303 134.134 32.0216C133.178 31.9233 132.07 31.8868 131.102 31.8482C130.957 31.8423 131.038 32.333 129.994 31.9113C129.661 31.7769 129.994 31.4107 129.61 31.4527C129.091 32.4627 129.132 31.6426 128.99 31.6358C128.582 31.6199 128.322 31.8649 128.284 31.8661C127.778 31.886 127.042 31.8141 126.487 31.8298C126.476 31.8332 126.751 32.1608 126.396 32.0529C126.27 32.0144 125.193 30.6199 124.186 31.019C124.44 31.1206 124.693 31.2222 124.947 31.3238C124.649 31.1844 122.516 31.437 123.02 31.8194C123.328 32.0532 124.139 31.2157 124.19 32.0552C123.892 31.9353 122.999 31.9065 122.056 31.8957C120.804 31.8814 119.461 31.899 119.293 31.7809C119.252 31.7514 119.522 31.491 119.465 31.4539C119.421 31.4256 118.528 31.4522 118.415 31.343C118.347 31.2781 118.747 31.1285 118.719 31.0294C118.694 30.9586 117.588 30.7953 117.51 31.1326C117.789 31.0077 118.551 31.1594 118.136 31.4289C118.083 31.4623 117.824 31.2317 117.759 31.2741C117.158 31.666 118.906 31.64 119.176 31.6548C118.062 32.0417 116.39 31.459 115.11 31.6872C114.61 31.3823 115.888 31.2867 115.319 31.0275C114.138 30.4901 114.982 31.4051 114.943 31.4396C114.632 31.7123 113.681 30.1387 113.631 31.3033C113.203 31.1093 113.35 30.9685 112.729 31.0946C112.807 31.1787 112.884 31.2628 112.961 31.347C112.25 31.9924 110.88 30.2287 110.994 30.1035C111.299 29.7685 112.028 30.3426 112.092 30.3323C112.188 30.3171 112.501 29.1465 113.497 30.2477C113.957 29.4733 111.871 29.6422 112.838 29.1423C112.196 29.2036 109.599 28.54 109.207 28.8719C109.16 28.9154 109.336 29.7141 108.706 29.2846C108.407 29.0801 109.148 29.1024 109.015 28.9165C108.787 28.5983 106.851 28.4895 104.992 28.4539C103.517 28.4256 102.091 28.4435 101.598 28.4363C101.525 28.4342 101.562 28.1902 101.491 28.1895C101.272 28.1874 100.461 28.5207 100.075 28.3922C100.866 28.8785 99.2926 28.8504 98.8949 28.7847C98.2912 28.6846 98.3459 28.2547 98.0874 28.1527C97.0907 27.759 95.487 28.723 94.7396 27.736C94.7467 28.6879 93.4012 27.2191 92.7648 27.1876C92.2663 27.1625 91.5212 27.7654 92.1795 28.1728C91.3215 28.0979 90.4107 28.2431 89.603 28.273C89.4694 28.2781 89.6625 28.0034 89.4344 28.021C89.4136 28.0246 89.3756 28.299 89.1795 28.321C87.5614 28.5064 88.3645 27.9478 88.069 27.7655C88.0123 27.7305 87.9605 27.7014 87.9134 27.6775C87.8231 27.6317 87.7496 27.605 87.69 27.5926C87.7647 27.5908 87.8403 27.5887 87.9164 27.5863C88.7979 27.559 89.7406 27.4993 90.0077 27.5014C89.8329 27.0246 88.6815 27.3116 87.9231 27.3835C87.7003 27.4046 87.5113 27.407 87.3906 27.3658C87.3722 27.3592 87.4481 27.0261 87.4293 27.0231C87.4289 27.0231 87.4285 27.0231 87.4281 27.0231C87.2275 26.9905 85.9416 27.073 86.1928 27.4813C86.2602 27.5903 86.8499 27.609 87.5507 27.5958C87.3589 27.6646 87.4879 28.0448 87.4539 28.0597C87.0428 28.2319 86.0626 27.8333 85.7122 27.7728C85.6321 27.7594 85.6303 28.0002 85.6171 28.0004C85.2989 27.9357 85.4516 27.2527 85.1013 27.951C84.5485 27.0765 86.1911 27.8579 86.0916 27.2983C86.0148 26.8656 82.3064 26.9835 82.2992 27.66C82.2886 27.5875 82.2403 27.4965 82.139 27.3917C81.9142 27.1585 80.8833 27.2008 80.7025 27.3204C80.6719 27.3441 80.6661 27.9992 80.6288 28.0042C80.5358 28.0166 79.2924 27.4698 78.8138 27.8453C79.0647 27.9435 79.3155 28.0417 79.5664 28.1401C78.0372 28.1065 78.269 28.308 78.7731 28.5164C78.7985 28.5188 78.8227 28.5443 78.8469 28.5475C79.2379 28.7023 79.7402 28.855 79.7466 28.9068C79.7697 29.1038 77.1765 29.1489 77.6895 28.5541C77.761 28.4725 78.9537 28.7728 78.3706 28.3246C78.2685 28.2459 77.495 28.3509 77.4558 28.3023C77.1923 27.9778 78.8859 27.597 78.6917 27.1408C78.2721 27.5602 77.7533 27.321 77.2819 27.4209C77.0674 27.466 77.0074 27.7931 76.9809 27.7987C76.5859 27.8753 76.8145 27.5362 76.683 27.5417C76.6122 27.5459 75.8218 28.2612 75.9906 27.2544C73.4241 27.9429 75.2688 27.98 76.8345 27.9594C76.3312 28.3156 75.367 28.1163 74.9305 28.1926C74.7739 28.2203 74.8592 28.5593 74.5945 28.6212C74.0742 28.7419 71.701 28.3499 70.9024 28.2269C70.8646 28.221 70.8303 28.2157 70.7999 28.2111C70.839 28.2005 70.8733 28.1877 70.9033 28.1731C71.1442 28.0561 71.0996 27.827 70.9099 27.7648C70.8723 27.7525 70.8288 27.7467 70.7808 27.7498C70.461 27.7702 70.7214 28.2645 70.6583 28.3162C70.5905 28.3693 69.0971 28.1155 68.8473 28.176C69.9764 28.0145 69.7281 27.6446 68.7715 27.5929C68.9112 27.4893 69.0511 27.3858 69.1909 27.2823C68.628 27.4222 67.4553 26.849 67.1286 27.0118C67.0775 27.0379 67.2568 27.3479 67.228 27.3626C66.9419 27.4899 65.9785 27.1659 65.9323 27.2707C65.8934 27.3577 66.3031 27.62 66.1488 27.7455C66.1167 27.772 65.7232 27.3518 65.3307 27.4507C65.1851 27.487 65.27 27.779 65.2333 27.7955C64.9273 27.933 65.1114 27.4441 64.5534 27.5184C64.1446 27.5736 63.8369 28.0508 63.2762 27.8886C65.1207 28.5121 63.5658 28.2456 62.7965 28.427C62.673 28.456 62.7759 28.9848 62.0413 28.7243C63.6125 27.7757 61.5958 28.2165 61.1846 28.2057C61.162 28.2024 61.1549 27.8538 60.9527 27.8477C60.9356 27.848 60.9599 28.0836 60.7721 28.1012C58.9912 28.269 60.1298 28.0045 59.7912 27.7717C59.6469 27.6725 58.7799 28.0059 58.5458 28.0144C58.4919 28.0153 58.5159 27.7705 58.3076 27.7804C57.9389 27.7987 57.6093 28.0602 57.3656 28.0817C57.3372 28.083 57.3339 27.6966 56.8722 27.8237C56.7423 27.8593 56.5971 27.9971 56.7825 28.1073C57.397 28.4697 58.5541 27.8348 59.2433 28.1994C59.8718 28.5309 57.8922 28.5637 57.7875 28.5668C57.7496 28.5681 58.1366 28.3753 57.7424 28.3384C57.4053 28.3076 56.7938 28.9769 56.2901 28.8343C56.2519 28.8237 55.8457 28.2603 55.8639 28.2272C55.8807 28.203 56.4976 28.0769 56.4068 27.9138C56.396 27.8951 56.0034 27.901 55.9512 27.7794C55.8874 27.6314 55.7073 26.1767 55.6228 26.1407C55.4061 26.0519 55.5492 26.383 55.4093 26.3608C55.1099 26.3138 54.0646 25.8917 54.035 26.3969C54.2074 26.4253 54.3797 26.4538 54.5519 26.4823C54.2621 26.5004 54.0976 26.5326 54.0053 26.5712C53.7936 26.66 53.9642 26.7828 53.8704 26.8496C53.7254 26.9533 53.7622 26.5094 53.4398 26.4709C53.3682 26.462 52.0284 26.5697 52.0563 26.7559C52.7923 26.4508 52.5246 27.0023 52.5586 27.0116C52.6887 27.0458 52.8513 26.7365 53.0259 26.7408C54.2563 26.7764 53.0203 27.2742 53.312 27.3961C53.4122 27.437 53.609 27.1726 53.6516 27.1856C53.7901 27.2278 53.7955 27.5715 53.8874 27.5428C54.1019 27.4764 53.8463 26.9923 53.8631 26.9668C53.8968 26.9124 53.9485 26.8794 54.008 26.8649C54.2836 26.7981 54.7269 27.1279 54.3452 27.5661C54.6282 27.7545 54.6557 27.1111 54.8809 27.3665C55.328 27.8724 54.6634 27.7465 54.484 27.8326C54.3015 27.9206 54.155 27.964 54.0182 27.9831C54.0183 27.9831 54.0179 27.9831 54.0181 27.9831C53.6729 28.0313 53.3874 27.9244 52.738 27.9921C52.4114 28.0255 52.0298 28.3427 51.8795 28.3618C51.7851 28.3735 50.8746 27.2988 50.8723 29.0004C50.5237 28.8408 49.957 27.7282 49.5967 27.7855C49.2735 27.8376 49.3867 28.4377 49.3568 28.4615C49.3112 28.4988 48.919 28.4581 48.7881 28.5455C48.6347 28.6487 48.7163 28.877 48.472 28.9751C47.8644 29.2187 47.8686 28.6044 47.8049 28.5656C47.7109 28.5088 47.6342 28.4732 47.5717 28.4545C47.1422 28.3262 47.3817 28.9952 47.2414 29.0593C47.0925 29.1257 44.969 28.8358 44.5283 29.0687C44.7066 28.9413 44.885 28.814 45.0635 28.6867C44.7298 28.3112 44.4007 28.9445 44.3779 28.2577C44.3392 29.3683 43.6509 28.6436 43.4501 28.6776C43.371 28.6915 43.3822 28.8803 43.2831 28.891C42.8961 28.9341 42.0171 28.8076 41.8093 28.9095C40.9114 29.3474 43.2561 29.9687 43.4391 30.0065C43.0726 30.0028 41.0081 30.3093 41.9752 30.8158C42.1244 30.8939 42.3713 30.3905 42.4535 30.3688C43.0094 30.2259 42.5815 30.6825 42.6265 30.7236C42.7028 30.7898 43.0593 30.3501 43.1579 30.3988C43.1906 30.4144 42.9928 30.8224 43.5258 30.8171C43.2741 31.2137 41.7679 30.9365 41.5735 31.0343C41.5163 31.0631 41.8237 31.6313 41.1901 31.3868C41.0585 31.336 40.8864 31.2503 40.6616 31.1175C40.6788 31.1945 40.696 31.2715 40.7132 31.3485C40 31.4017 39.2869 31.4559 38.5734 31.5111C38.6452 31.3301 39.035 30.9588 38.5319 31.0512C38.2423 31.1048 38.4707 31.4951 38.4445 31.5075C38.281 31.5821 36.3554 31.6181 34.7405 31.6609C33.8131 31.685 32.9887 31.7103 32.662 31.7396C32.3573 31.766 31.5192 32.12 31.4546 32.1287C31.0682 32.1763 29.6847 32.0269 29.4121 32.0842C29.242 32.1206 29.4193 32.4455 29.2657 32.4366C29.1228 32.4279 29.2561 32.1005 29.2133 32.0889C29.0973 32.0559 28.7375 32.091 28.2828 32.1441C27.3457 32.2532 26.006 32.44 25.5706 32.2565C25.9613 32.3286 27.8594 31.5991 27.8106 31.375C27.8009 31.3443 27.3212 31.1214 27.2298 31.2449C27.0572 30.9743 26.5476 31.8454 26.2417 31.6932C26.2071 31.6759 26.318 31.1952 25.7811 31.134C25.596 31.1132 25.1332 31.5057 24.6293 31.1145C24.2389 31.2459 22.8832 31.1639 21.7352 31.1644C20.8516 31.1646 20.0917 31.213 19.9931 31.4404C19.9871 31.4677 20.5156 31.6163 20.1755 31.8436C19.7234 32.1459 20.0938 31.1876 19.5455 31.1352C19.4621 31.1269 17.9553 31.3017 17.9094 31.3625C17.4803 31.9125 18.8109 32.0551 18.7958 32.1173C18.7576 32.2735 17.6671 32.425 17.6203 32.3912C17.5758 32.3558 18.4329 31.6114 17.372 31.9332C17.4998 32.0098 17.6274 32.0864 17.755 32.163C17.2583 32.3522 17.1836 31.8731 17.0594 31.8503C16.6727 31.7778 16.2998 32.532 15.6359 31.662C15.4602 31.4311 15.7152 31.1499 15.6929 31.115C15.5445 30.8975 15.4016 31.2579 15.2172 31.2835C15.1925 31.2916 15.1034 31.2402 15.0373 31.0486C14.9854 31.004 15.5698 30.5786 14.537 30.6448C14.6162 30.7015 14.7037 30.7577 14.7831 30.8145C14.6531 30.9612 13.4241 31.1254 13.2569 31.1035C12.8785 31.0567 13.0169 30.78 12.8999 30.6802C12.8615 30.6467 12.7966 30.6329 12.6734 30.6543C13.0245 31.2415 11.5381 31.4168 11.5904 30.8881C11.4831 31.2914 10.9765 31.2973 10.4493 31.2421C10.0963 31.2058 9.74889 31.1418 9.5033 31.1499C9.12328 31.1629 8.35289 31.4931 8.22731 31.4659C8.09397 31.4369 8.09426 31.086 7.90988 30.943C7.88426 30.9232 7.85508 30.9073 7.82146 30.8969C7.7436 30.8725 6.95415 31.2434 6.21033 30.8119C6.06562 30.7289 5.73711 29.9812 5.9895 29.7797C6.41807 29.4353 7.27497 30.0067 7.24132 29.5577C7.206 29.0783 6.10753 29.4182 5.79547 29.3679C5.56011 29.3298 5.38681 29.2825 5.25572 29.2299C4.60985 28.9647 5.15984 28.5659 5.12393 28.4379C5.01999 28.0661 4.23569 28.1059 4.20379 28.0724C4.06434 27.9268 4.60565 27.6106 4.60664 27.3805C4.60173 27.082 3.84451 26.5669 4.0072 26.4606C4.24353 26.3107 4.94638 26.7349 4.98418 26.7115C5.06763 26.6639 5.12005 26.6081 5.1479 26.5466C5.18805 26.458 5.17725 26.3576 5.13609 26.2527C5.01644 25.9535 4.66213 25.6157 4.51754 25.4077C4.4492 25.3057 4.70036 25.1248 4.64555 25.0962C3.81691 24.6603 4.5094 26.073 3.96167 25.995C3.46518 25.9243 4.08736 25.4517 4.06607 25.4269C4.03956 25.4007 3.45657 25.3929 3.35907 25.234C3.32022 25.1576 4.78889 24.2267 4.70417 23.8313C4.23756 23.9362 3.76757 24.0389 3.28789 24.1377C3.24695 23.623 3.93033 23.9844 4.00632 23.928C4.14595 23.8168 3.73763 23.5682 3.7504 23.4044C3.75659 23.3005 4.21299 22.9156 3.78593 22.776C3.64106 22.7274 3.34874 23.0991 2.81246 22.7392C4.62555 22.2227 3.3497 21.9644 3.29943 21.7832C3.24454 21.6017 4.08622 21.1495 3.04741 21.2518C2.98072 20.2482 3.06219 20.9342 3.35652 20.7501C3.70607 20.5227 2.87273 20.2177 4.18306 20.4279C4.09737 19.9618 3.05437 20.0251 2.99162 19.987C2.94276 19.9541 3.17148 19.7176 3.08625 19.6411C2.08972 18.7509 2.77019 19.1533 2.47843 18.5777C2.47384 18.5685 2.44037 18.5543 2.39333 18.5367C2.18068 18.4569 1.65671 18.3008 2.23635 18.2288C2.28808 18.2218 2.33916 18.2162 2.38954 18.2119C3.54159 18.1095 4.04259 18.6381 4.19856 17.2691C3.5582 16.8727 2.85959 17.1776 2.38025 17.4162C2.1609 17.5301 1.97014 17.6296 1.88624 17.6346C1.45787 17.6555 1.90862 17.3668 1.8504 17.2849C1.83925 17.2592 1.46127 17.2802 1.46442 17.2565C1.337 16.6662 1.80258 16.7193 2.37358 16.8448C2.85944 16.9526 3.41274 17.1157 3.68765 17.0203C3.51902 16.8626 3.35599 16.7044 3.19512 16.5457C3.40574 16.5338 3.627 16.5208 3.84322 16.5073C2.79688 16.211 3.80873 16.3857 4.02865 15.4965C4.07811 15.2971 3.42064 15.6586 4.16735 15.0831C3.59846 14.9758 3.77186 14.7903 3.27254 15.0528C3.27242 14.7459 4.1345 14.3778 4.64992 14.1532C4.72561 14.1205 4.79579 14.0909 4.85188 14.0655C4.77868 14.0504 4.70844 14.0387 4.64496 14.0299C3.3255 13.8392 4.12211 14.9643 2.80608 14.3449C2.56514 14.7869 3.20723 14.6881 3.16134 14.7607C3.00972 14.9635 2.72583 14.7743 2.35308 15.0878C2.24803 15.1825 2.12674 15.3234 2.00464 15.5347C1.91943 15.6838 2.28361 16.1429 1.74741 16.1205C1.6756 16.1177 1.36235 15.7208 1.36456 15.6918C1.41414 15.3863 1.72961 15.505 1.75213 15.3763C1.75886 15.2556 1.40069 15.3246 1.40445 15.2902C1.39959 14.9057 1.6965 15.1473 1.65687 15.0261C1.53483 14.7645 0.402844 13.9121 1.95748 14.1793C0.610648 14.5968 1.74928 14.613 2.33539 14.4345C2.33879 14.4335 2.34213 14.4323 2.34541 14.4311C2.47938 14.3799 2.52064 14.1585 2.72154 14.077C2.98323 13.9688 3.30996 14.0704 3.44803 14.0241C3.59838 13.9727 2.71953 13.4565 3.9743 13.5792C3.52947 13.2277 2.87699 13.3948 2.33355 13.4148C2.07626 13.4244 1.84786 13.4014 1.66956 13.278C0.895341 12.6668 1.71523 12.4601 2.321 12.3397C2.48642 12.3063 2.63561 12.2823 2.67756 12.2649C2.73265 12.2438 2.54101 11.9367 2.57696 11.917C2.61921 11.8901 3.81856 12.0011 3.92616 11.7379C4.03167 11.4776 3.49442 11.7644 3.44442 11.4976C3.41109 11.3207 4.84435 10.9479 4.05833 10.8537C3.51432 10.791 2.56751 11.5378 2.40802 10.7593C3.07626 10.6912 3.78127 10.6097 4.50402 10.5222C4.57759 10.5133 4.65414 10.5042 4.72634 10.4952C4.65179 10.4481 4.57299 10.4011 4.49726 10.3539C4.12828 10.1225 3.75742 9.88967 3.40292 9.65418C3.76485 9.60341 4.1218 9.62754 4.46847 9.63736C4.94303 9.65054 5.41167 9.63679 5.89633 9.36841C3.79917 8.51616 6.52203 8.58206 6.55444 8.46088C6.55987 8.39177 5.70867 7.66343 5.57457 7.52823C5.82174 7.41141 6.25431 7.30383 6.65223 7.17304C7.38024 6.93434 7.98676 6.62084 7.12373 6.0538C7.36667 6.25578 7.90468 5.69394 7.89371 5.65437C7.79622 5.23974 6.5854 5.57953 6.76539 5.18914C6.97297 4.73682 7.32744 5.31589 7.68459 5.24769C8.25776 5.13669 8.58521 4.8467 8.83142 4.50867C9.3597 3.76964 9.46189 2.80415 10.7523 2.95974C10.7081 2.88431 10.6674 2.80866 10.626 2.73304C10.7724 2.73264 10.9278 2.7316 11.0725 2.7312C11.9077 2.72559 12.5394 2.72759 13.6371 2.70874C14.772 2.71338 15.9154 2.71875 17.061 2.72541C17.6729 2.17248 19.1158 1.73452 20.2392 1.57598C20.5644 1.53003 20.8626 1.50742 21.1057 1.51196C21.3236 1.5154 22.4079 1.81416 22.4913 1.87195C22.6461 1.98266 21.8287 2.06778 22.2099 2.27093C22.2902 2.31212 24.1034 2.3729 23.9566 2.00491C23.752 1.97103 23.1273 2.18962 23.0195 2.10643C22.4709 1.67659 25.24 1.67966 26.9214 1.62085C27.5669 1.59783 28.0515 1.56468 28.1252 1.49092C27.9963 1.37465 27.8673 1.2584 27.7383 1.14219C28.0933 1.1866 28.4485 1.2312 28.8035 1.276ZM14.5024 32.1406C14.3258 32.5293 13.7804 32.2825 13.4723 32.4086C13.3449 32.4636 13.1758 32.6499 13.0406 32.8321C12.7282 33.2308 12.4702 33.6165 12.6228 32.609C12.7583 32.5764 12.891 32.5439 13.0196 32.5116C13.5241 32.3877 14.01 32.2643 14.5024 32.1406ZM23.4128 32.2257C22.9888 32.0443 23.27 31.2186 23.6261 31.5386C23.6657 31.575 23.986 32.4698 23.4128 32.2257ZM19.0497 32.0628C19.0666 32.0512 19.4261 32.0538 19.4393 32.0658C19.7776 32.3741 18.694 32.3644 19.0497 32.0628ZM39.9561 30.752C39.5037 30.801 39.855 31.5276 40.1273 31.2157C40.1445 31.196 39.9859 30.7494 39.9561 30.752ZM39.6329 30.7425C39.2595 30.0937 38.5925 31.4536 39.1523 31.3009C39.2065 31.2855 39.6502 30.7741 39.6329 30.7425ZM21.9208 31.9773C21.9547 31.7223 22.3882 31.8228 22.5736 31.8742C22.5802 32.1051 22.0983 31.94 21.9208 31.9773ZM32.7293 31.4163C32.7397 31.2165 31.26 31.2876 31.1701 31.554C31.3992 31.4329 32.7196 31.5953 32.7293 31.4163ZM36.5101 30.9948C36.4714 30.9617 35.9628 31.0322 35.984 31.207C36.2414 31.4281 36.6842 31.1444 36.5101 30.9948ZM44.0315 30.7788C44.0581 30.7341 43.6488 29.627 44.5709 30.3396C44.7061 30.444 44.2396 30.7472 44.2877 30.7861C44.3883 30.8618 44.4671 30.8963 44.5299 30.9013C44.1117 31.0041 43.6759 31.0588 43.6319 30.9921C43.4252 30.6774 44.0198 30.7975 44.0315 30.7788ZM47.956 29.8599C48.0392 29.6761 48.5945 29.7632 48.7217 29.836C48.7436 29.8497 48.658 30.33 48.9063 30.2898C49.1057 30.2568 48.7984 29.7717 49.1894 29.8434C49.5843 29.9155 49.0645 30.2738 49.0993 30.2982C49.146 30.33 49.7508 30.0997 49.7365 30.3852C49.7258 30.5965 49.072 30.4646 48.9114 30.5125C48.706 30.5738 48.9625 30.9212 48.6163 30.8518C48.3988 30.8085 48.5076 30.1876 48.4613 30.1572C48.4223 30.1326 47.671 30.503 47.9572 29.8618C47.9568 29.8612 47.9564 29.8605 47.956 29.8599ZM44.643 30.8712C44.6119 30.8929 44.575 30.9049 44.5299 30.9013C44.5679 30.892 44.6057 30.8813 44.643 30.8712ZM15.5309 31.8047C15.6709 31.9147 15.4858 32.0631 15.2626 32.1057C15.1985 32.1283 15.0788 32.1129 14.9878 32.0226C14.9862 31.9081 15.1481 31.8435 15.2467 31.8179C15.3865 31.795 15.5153 31.7927 15.5309 31.8047ZM45.0211 30.3582C45.6498 30.4986 45.1948 30.7222 44.643 30.8712C44.8165 30.7506 44.81 30.3113 45.0211 30.3582ZM27.2298 31.2449C27.2584 31.2898 27.2785 31.3609 27.286 31.4789C27.2104 31.3529 27.201 31.2838 27.2298 31.2449ZM28.7058 31.3898C29.1206 31.0644 28.441 31.0594 28.2418 31.2243C28.2072 31.2529 28.1871 31.2867 28.1898 31.3247C28.1913 31.3449 28.2137 31.3601 28.2483 31.3715C28.3803 31.4148 28.6904 31.4018 28.7058 31.3898ZM40.5389 30.7695C40.492 30.7357 41.1713 29.6273 40.1624 30.4741C40.7177 30.5855 40.1395 30.7214 40.151 30.8164C40.1773 31.0492 40.8495 30.8715 41.1755 30.8845C41.2315 30.8867 41.2774 30.8945 41.3079 30.911C41.3628 30.7256 41.29 30.675 41.1695 30.6784C40.9688 30.6839 40.636 30.8391 40.5401 30.7694C40.5397 30.7695 40.5393 30.7695 40.5389 30.7695ZM55.0664 30.0294C54.9426 30.3173 54.5415 30.228 54.2706 30.2135C54.3945 29.9254 54.7963 30.0144 55.0664 30.0294ZM126.043 32.1305C124.146 32.3193 123.951 31.1415 125.656 31.6731C125.689 31.6842 126.162 32.0168 126.043 32.1305ZM109.926 31.1488C109.771 30.6324 110.359 30.5755 110.734 30.8021C110.818 30.853 111.118 31.3822 110.747 31.4673C110.785 30.851 110.228 30.5912 109.926 31.1488ZM45.3669 30.0238C45.5413 29.68 46.1072 29.9091 46.4035 29.9539C46.2293 30.2373 45.6306 30.124 45.3669 30.0238ZM119.88 31.2661C119.683 31.2192 119.531 31.6563 119.563 31.6946C119.709 31.87 120.095 31.5276 119.88 31.2661ZM43.5557 30.0152C43.5247 29.8129 44.2631 29.5988 44.3272 30.0994C44.1675 30.0669 43.5774 30.142 43.5557 30.0152ZM54.5554 29.881C54.4384 29.7787 55.0385 29.5891 55.2209 29.6904C55.2081 29.9065 54.6323 29.9473 54.5554 29.881ZM116.684 31.2812C116.508 31.2352 116.066 31.2046 116.009 31.3815C115.939 31.6026 116.591 31.554 116.684 31.2812ZM149.904 32.074C149.925 32.155 149.216 32.7185 148.91 32.5642C148.33 32.2694 149.881 32.0169 149.904 32.074ZM121.766 31.1164C122.309 31.5608 121.704 31.1271 121.71 31.5715C121.805 31.5795 121.936 31.5894 122.069 31.5922C122.46 31.6005 122.865 31.547 122.397 31.2013C122.333 31.1548 122.213 31.1434 122.087 31.1382C121.971 31.1333 121.85 31.1337 121.766 31.1164ZM121.256 30.9465C121.19 31.0877 120.767 31.5235 121.118 31.5057C121.28 31.4968 121.561 31.0045 121.256 30.9465ZM145.596 32.1619C145.099 31.7557 147.418 32.029 147.483 32.0988C147.518 32.136 147.54 32.1709 147.552 32.2002C147.641 32.078 148.081 32.0666 148.124 32.3827C147.993 32.3534 147.632 32.372 147.591 32.336C147.574 32.3207 147.561 32.3064 147.552 32.292C147.39 32.5618 145.69 32.2395 145.596 32.1619ZM141.76 31.6455C142.357 31.084 142.43 32.0719 142.379 32.1021C141.736 32.486 142.169 31.7722 142.151 31.7376C142.109 31.6797 141.65 32.0029 141.762 31.6455C141.762 31.6455 141.761 31.6455 141.76 31.6455ZM144.811 31.9779C144.835 31.9658 145.321 32.0099 145.341 32.026C145.731 32.3682 144.355 32.2448 144.811 31.9779ZM50.9137 29.121C51.2501 29.2142 50.9266 29.5812 50.702 29.4541C50.6835 29.4416 50.6166 29.0387 50.9137 29.121ZM120.976 31.0326C120.899 30.9609 118.863 30.6166 118.963 31.1688C119.139 31.1117 121.454 31.491 120.976 31.0326ZM105.726 30.2515C106.085 30.2708 105.672 30.7703 105.488 30.5699C105.42 30.4955 105.636 30.2469 105.726 30.2515ZM42.5412 29.5731C42.1821 29.8667 42.2317 28.9132 42.559 29.2307C42.5719 29.2431 42.5553 29.5616 42.5412 29.5731ZM108.582 30.6693C107.33 30.9294 107.693 29.3061 109.281 29.9268C109.227 29.9975 109.174 30.0682 109.12 30.1389C110.97 30.4636 109.242 30.2596 108.783 30.3318C108.609 30.3593 108.742 30.6385 108.584 30.6713C108.583 30.6707 108.583 30.67 108.582 30.6693ZM103.84 30.1414C102.964 29.2134 104.078 29.4967 104.943 29.6238C105.206 29.6624 105.446 29.6866 105.6 29.6577C105.365 29.8204 105.109 29.9109 104.928 29.9849C104.665 30.0925 104.561 30.1654 104.911 30.3748C104.991 30.4225 105.095 30.4774 105.226 30.5413C105.107 30.5432 105 30.5427 104.904 30.5401C103.682 30.507 104.281 30.131 104.221 30.0928C104.146 30.0464 103.889 30.1934 103.84 30.1414ZM106.985 30.2654C107.055 30.2344 107.565 30.4927 107.754 30.4621C107.475 30.8476 106.518 30.4764 106.985 30.2654ZM137.725 31.7843C137.779 31.4749 137.895 31.2497 138.306 31.3798C138.172 31.5317 137.903 31.6571 137.725 31.7843ZM13.9996 30.5336C13.7194 30.53 13.1347 30.4511 13.3333 30.7657C13.3461 30.7928 14.0138 30.7167 13.9996 30.5336ZM115.047 30.5291C114.988 30.4883 113.432 30.396 113.955 30.7619C114.113 30.8723 115.532 30.889 115.047 30.5291ZM123.124 30.9088C122.993 30.9002 122.46 30.9367 122.446 31.0098C122.399 31.2624 123.057 31.1497 123.124 30.9088ZM12.5306 30.3112C12.4958 30.2814 11.6085 30.3954 11.7189 30.5395C11.92 30.8128 12.6673 30.4138 12.5306 30.3112ZM52.1256 28.3763C52.1961 28.3639 52.2935 28.7006 52.318 28.7041C52.374 28.7078 53.6743 28.564 53.1813 29.003C53.0954 29.0758 51.2345 28.9318 50.9945 28.8932C50.8948 28.4307 51.6931 28.8609 51.8855 28.811C51.9194 28.8015 51.9364 28.4132 52.125 28.3782C52.1252 28.3776 52.1254 28.3769 52.1256 28.3763ZM139.898 31.528C139.967 31.2355 141.544 31.0901 141.515 31.4464C140.976 31.4739 140.437 31.5012 139.898 31.528ZM139.102 31.4532C138.893 31.3132 139.137 31.245 139.401 31.2397C139.55 31.2366 139.706 31.2539 139.789 31.29C139.787 31.4029 139.58 31.4506 139.393 31.4648C139.252 31.4754 139.123 31.467 139.102 31.4532ZM120.211 29.6848C120.052 29.7503 120.516 30.2004 120.404 30.2794C120.333 30.3285 119.99 30.1527 119.872 30.2824C119.839 30.3238 120.179 30.7429 120.283 30.7298C120.431 30.7127 120.302 30.3887 120.462 30.3933C120.994 30.4087 121.456 30.6552 121.955 30.6707C122 30.6715 121.66 30.4324 122.044 30.4516C122.056 30.4521 122.08 30.4671 122.114 30.4905C122.248 30.5812 122.54 30.7971 122.908 30.7728C123.965 29.779 124.669 30.8267 125.974 30.5053C125.929 30.4058 124.976 30.1051 124.919 30.0931C124.21 29.9511 123.123 29.86 122.143 29.8002C121.645 29.7698 121.174 29.7475 120.795 29.7308C120.506 29.7178 120.637 29.9429 120.512 29.9457C120.413 29.9475 120.547 29.5465 120.211 29.6848ZM14.1371 30.2994C13.9686 29.9039 13.5132 30.1916 13.2079 30.1906C13.3355 30.5491 13.8342 30.2294 14.1371 30.2994ZM132.072 30.8899C131.918 30.8999 131.45 30.7599 131.407 30.8805C131.35 31.038 132.029 31.1644 132.072 30.8899ZM59.4675 28.4474C59.4818 28.4363 59.8381 28.4582 59.8516 28.471C60.17 28.7968 59.1019 28.7297 59.4675 28.4474ZM68.0151 28.5812C68.2878 28.5345 68.564 28.4113 68.6509 28.7418C68.4783 28.689 67.9804 28.81 68.0151 28.5812ZM79.8772 28.8067C79.8321 28.3741 80.6472 28.6752 80.8014 28.7182C80.7385 28.9081 79.9103 29.1183 79.8772 28.8067ZM137.71 30.4294C138.223 30.4723 138.136 29.8159 138.452 30.1222C138.503 30.1739 138.63 31.539 138.083 31.0107C137.984 30.9158 138.392 30.6062 137.71 30.4294ZM109.543 29.9517C109.684 29.6722 110.084 29.774 110.356 29.8084C110.286 30.0176 109.738 29.9396 109.543 29.9517ZM10.9125 30.087C10.8085 29.9417 10.5903 29.9028 10.3696 29.924C9.99929 29.9596 9.63713 30.1598 9.82133 30.3154C9.84531 30.3328 10.1129 30.2632 10.386 30.1959C10.6134 30.1392 10.8372 30.0847 10.9125 30.087ZM46.6065 28.6953C47.0453 28.3689 46.1205 28.29 45.8362 28.6065C45.9676 28.5832 46.577 28.7167 46.6065 28.6953ZM77.029 28.5012C77.0508 28.4887 77.5249 28.5305 77.5458 28.5467C77.9269 28.887 76.5858 28.7703 77.029 28.5012ZM65.1994 28.0277C65.3722 27.7679 66.4913 27.9894 66.7395 28.2537C66.4937 28.6321 64.9854 28.3514 65.1994 28.0277ZM135.594 30.5416C135.96 30.5411 136.304 30.6336 136.637 30.758C136.558 30.9752 135.627 30.7071 135.594 30.5416ZM78.7731 28.5164C78.7985 28.5188 78.8227 28.5443 78.8469 28.5475C78.8218 28.5376 78.7972 28.5263 78.7731 28.5164ZM127.426 30.0787C127.124 29.9798 127.171 30.3846 127.19 30.3977C127.415 30.5372 127.768 30.1903 127.426 30.0787ZM13.748 29.7262C13.6201 29.3772 13.1401 29.6748 12.8307 29.6227C12.8252 29.6217 12.8197 29.6207 12.8143 29.6194C12.8194 29.6333 12.8257 29.6461 12.833 29.6581C12.9788 29.8884 13.5184 29.7778 13.748 29.7262ZM102.595 29.3451C102.231 28.9358 103.798 28.5425 104.115 28.8098C104.128 29.0539 102.649 29.4012 102.595 29.3451ZM45.2113 28.1812C45.1747 27.8972 44.5412 28.2559 44.6808 28.3871C44.7691 28.4705 45.2333 28.3575 45.2113 28.1812ZM104.887 29.0082C104.91 28.9953 104.939 28.992 104.969 28.9961C105.129 29.0181 105.343 29.2488 105.237 29.3884C105.145 29.5091 105.032 29.3782 104.959 29.2379C104.903 29.1308 104.87 29.0183 104.887 29.0082ZM117.988 29.3367C117.926 29.2906 117.054 29.546 117.397 29.8512C117.635 30.0633 117.691 29.6538 117.749 29.655C117.814 29.6591 119.173 30.2208 117.988 29.3367ZM93.9468 28.7559C94.2726 28.6585 94.657 28.8001 94.9942 28.805C94.8502 28.9757 94.0749 28.9946 93.9468 28.7559ZM47.6825 28.0522C47.6723 28.0377 47.6288 28.0245 47.5631 28.0133C47.1169 27.9369 45.6498 27.9555 46.6994 28.2421C46.7472 28.2546 47.2976 28.3212 47.5678 28.2543C47.6945 28.2229 47.7596 28.1621 47.6825 28.0522ZM137.71 30.4294C137.646 30.424 137.572 30.4079 137.486 30.3768C137.572 30.3908 137.646 30.4127 137.71 30.4294ZM131.892 30.1776C132.018 29.9749 131.426 29.8972 131.247 30.0007C131.183 30.2517 131.875 30.2059 131.892 30.1776ZM95.0307 28.5171C95.2293 28.406 95.5769 28.5459 95.8179 28.5413C95.7698 28.7322 95.1072 28.7159 95.0307 28.5171ZM81.4337 27.8466C81.8144 27.9717 82.2883 27.9326 82.3023 27.6973C82.3093 27.7343 82.3268 27.7739 82.3565 27.8141C82.3866 27.8539 82.8012 27.7562 82.9777 27.8419C84.033 28.3489 78.8389 28.0059 81.8716 27.4251C81.7255 27.5656 81.5796 27.7061 81.4337 27.8466ZM63.6873 27.4614C63.4724 27.1731 62.8658 27.5292 63.0221 27.643C63.1306 27.7209 63.9017 27.7516 63.6873 27.4614ZM72.0399 27.3941C71.9758 27.3417 71.3782 27.5323 71.3604 27.6831C71.6991 27.848 72.3315 27.6371 72.0399 27.3941ZM62.0294 27.1167C61.8941 27.0729 61.7201 27.5349 61.736 27.5551C61.8728 27.7244 62.2557 27.3752 62.0294 27.1167ZM136.691 29.1475C136.489 29.008 135.817 29.3194 135.662 29.6196C135.637 29.5596 135.568 29.4801 135.439 29.383C135.44 29.383 135.44 29.383 135.44 29.3831C135.265 29.2554 129.939 28.9223 133.494 29.643C133.605 29.6659 133.462 29.3863 133.916 29.4513C133.946 29.4559 133.953 29.6802 134.046 29.6944C134.259 29.726 135.394 29.9078 135.63 29.7357C135.631 29.7773 135.644 29.8172 135.674 29.8546C135.944 30.1873 136.849 29.2552 136.691 29.1475ZM73.2189 27.3748C73.1008 27.2895 72.7207 27.3612 72.6779 27.558C72.8637 27.6582 73.4928 27.5736 73.2189 27.3748ZM47.6014 27.2431C47.5849 27.2325 47.5668 27.2241 47.5475 27.2176C47.2773 27.1269 46.7588 27.4122 46.9355 27.5593C47.0088 27.6205 47.3685 27.5502 47.5519 27.4447C47.6588 27.3833 47.7058 27.3097 47.6014 27.2431ZM69.4265 27.4165C70.8188 27.6708 69.7599 27.4025 69.978 27.116C69.794 27.2161 69.6102 27.3163 69.4265 27.4165ZM143.276 30.1085C143.05 30.0351 143.335 29.4717 143.577 29.7891C143.653 29.8899 143.403 30.1485 143.276 30.1085ZM153.595 30.1851C153.409 29.6746 154.357 29.9904 153.979 30.3311C153.961 30.3425 153.608 30.2046 153.595 30.1851ZM146.39 29.8114C146.226 30.1523 146.124 30.1906 145.689 30.0934C146.338 30.0138 145.747 29.6924 146.39 29.8114ZM82.2992 27.66C82.3013 27.674 82.3031 27.6844 82.3023 27.6973C82.2999 27.6845 82.2991 27.6724 82.2992 27.66ZM60.7261 27.2026C60.5527 26.9098 60.0662 26.9307 60.2111 27.2252C60.2251 27.2524 60.6548 27.4185 60.7261 27.2026ZM135.662 29.6196C135.684 29.6728 135.671 29.7062 135.63 29.7357C135.63 29.6966 135.641 29.6601 135.662 29.6196ZM63.3397 26.9749C63.3206 27.1928 64.0632 27.2825 64.0935 27.2572C64.5236 26.8819 63.6457 26.9634 63.3397 26.9749ZM42.6748 27.0509C42.637 27.0747 42.8996 27.6309 43.0455 27.4064C43.1586 27.2322 42.8163 26.9604 42.6748 27.0509ZM147.875 29.7095C148.117 29.716 148.458 29.7242 148.515 29.9932C148.353 29.9481 147.865 29.9056 147.875 29.7095ZM153.229 29.8107C152.936 30.1195 152.281 30.1053 151.864 30.0446C151.865 29.6308 152.957 29.9029 153.229 29.8107ZM137.34 29.3243C137.321 29.3069 136.72 29.1626 136.793 29.4423C136.9 29.8525 137.506 29.4808 137.34 29.3243ZM43.8304 27.3198C44.0901 27.1224 43.4666 26.5514 43.1993 27.0116C43.0622 27.2472 43.7867 27.3527 43.8304 27.3198ZM59.2064 26.8185C58.8594 26.9789 59.7207 27.2643 59.8403 26.9749C59.6805 26.9515 59.3298 26.7617 59.2064 26.8185ZM71.07 26.6254C71.02 26.5861 70.9734 26.552 70.9302 26.5224C70.0329 25.9097 70.5664 27.2999 70.7546 27.175C70.768 27.166 70.8477 27.043 70.9238 26.9156C71.0059 26.7783 71.0838 26.6358 71.07 26.6254ZM7.95261 28.5858C7.79407 28.7106 8.43068 29.0975 8.49394 28.8165C8.53347 28.6408 8.05393 28.5064 7.95261 28.5858ZM87.69 27.5926C87.6432 27.5937 87.5967 27.595 87.5507 27.5958C87.5856 27.5833 87.631 27.5804 87.69 27.5926ZM56.0338 25.7086C56.818 26.8841 56.7299 25.9757 56.7976 25.9802C56.9434 25.9923 57.2832 26.3099 57.557 26.2568C57.2436 26.3905 56.9307 26.5245 56.6174 26.6588C56.8673 26.7417 59.019 27.171 59.0616 26.9807C59.1255 26.7082 58.4504 26.7943 58.4305 26.7704C58.4021 26.7363 58.2937 25.9791 58.2307 25.9504C58.1279 25.9039 56.3256 25.8944 56.0338 25.7086ZM68.7638 26.7216C68.9397 26.814 68.9858 27.1148 69.069 27.0442C69.0974 27.02 69.1059 26.7339 69.2027 26.6612C69.0564 26.6813 68.9101 26.7014 68.7638 26.7216ZM54.6494 26.7784C54.4262 26.4303 55.4151 26.5557 55.4466 26.595C55.6171 26.8308 54.8321 27.0625 54.6494 26.7784ZM62.9706 26.7188C62.9349 26.6981 62.1842 26.5853 62.1896 26.7795C62.3874 26.9281 63.3916 26.9766 62.9706 26.7188ZM69.3212 26.6434C69.5863 26.6805 70.0837 26.9763 70.0328 26.5445C70.0324 26.5445 70.032 26.5445 70.0316 26.5445C69.7946 26.5773 69.5579 26.6103 69.3212 26.6434ZM44.7132 26.3876C44.2051 25.7133 44.4591 26.5746 44.8992 26.7857C45.0236 26.4745 44.7964 26.4973 44.7132 26.3876ZM43.1269 25.9154C42.9868 25.7951 41.5796 25.9691 41.8052 26.3264C41.8852 26.4535 42.687 26.105 42.7251 26.1293C42.7827 26.165 42.5349 26.5735 42.9651 26.4824C42.9362 26.347 43.1748 25.9554 43.1269 25.9154ZM44.2957 25.9581C43.7939 25.4483 43.7083 26.4137 44.0757 26.4071C44.2193 26.4052 44.3672 26.0317 44.2957 25.9581ZM46.2931 25.9942C46.1154 25.9067 45.6442 25.7838 45.3287 26.1114C45.7612 26.1288 46.1934 26.1467 46.6258 26.165C46.6717 25.9825 46.4486 26.0711 46.2919 25.9943C46.2923 25.9943 46.2927 25.9942 46.2931 25.9942ZM156.286 27.398C155.892 27.1187 156.811 27.0288 156.849 27.0963C156.96 27.3207 156.462 27.5229 156.286 27.398ZM4.37589 19.995C4.2594 19.8903 4.17296 19.5352 3.93742 19.7306C4.18652 19.987 4.45422 20.2419 4.70455 20.4967C4.87104 19.8841 4.50344 20.1107 4.37589 19.995ZM3.37159 17.813C3.40602 17.7973 3.19274 16.8719 3.65042 17.4806C3.89467 17.803 2.95234 18.1563 2.38806 18.0849C2.24145 18.0658 2.1072 18.0158 2.04513 17.9272C2.13489 17.8738 2.25953 17.8513 2.38525 17.8439C2.73681 17.8244 3.15794 17.9054 3.37159 17.813ZM0.930508 13.7783C0.877883 13.7026 1.24522 13.6148 1.31951 13.6666C1.60818 13.9522 0.834165 14.1796 0.930508 13.7783ZM2.44268 13.978C2.17125 13.8009 2.76736 13.6763 2.94594 13.7753C2.96472 13.9487 2.48748 14.0044 2.44268 13.978ZM152.538 13.8378C152.24 13.1985 151.932 14.5548 152.417 14.2905C152.441 14.278 152.55 13.8691 152.538 13.8378ZM1.29565 12.8569C1.50095 13.0445 1.00531 13.1453 1.00977 13.0363C0.98076 12.8623 1.24908 12.8305 1.29565 12.8569ZM152.35 12.3257C151.947 11.8616 152.06 13.3929 152.11 13.4556C152.318 13.7035 153.06 13.1187 153.212 12.9724C152.115 13.1796 152.54 12.5442 152.35 12.3257ZM150.424 13.2013C150.037 13.3555 151.01 13.69 151.207 13.268C151.016 13.2841 150.535 13.1568 150.424 13.2013ZM148.108 12.6546C147.903 12.5946 147.294 12.4476 147.184 12.6852C147.411 12.6477 148.015 12.8998 148.108 12.6546ZM147.66 11.922C147.347 11.5869 147.244 12.5368 147.623 12.263C147.638 12.2524 147.671 11.9405 147.66 11.922ZM145.858 11.5297C145.658 11.1453 145.39 12.0604 145.732 12.0948C145.834 12.1033 145.879 11.5737 145.858 11.5297ZM151.869 10.6704C151.571 10.5013 151.167 11.153 151.81 11.2396C151.581 11.3356 151.353 11.4315 151.124 11.5273C151.961 11.9162 151.919 10.9989 152.16 11.042C152.498 11.103 152.456 11.858 152.382 12.0939C152.67 11.637 153.852 11.6535 154.536 11.5777C153.94 11.3724 152.973 11.0163 152.384 10.8807C152.216 10.8415 152.048 11.0452 151.904 11.0189C151.674 10.9757 151.886 10.6817 151.87 10.6705C151.87 10.6704 151.869 10.6704 151.869 10.6704ZM143.478 11.4473C142.869 10.9998 143.234 11.9375 143.591 11.7829C143.606 11.7706 143.493 11.4583 143.478 11.4473ZM1.54994 10.0753C1.0348 10.3848 0.986307 10.9613 2.20814 10.1698C1.61059 10.7245 2.17259 10.5672 2.05866 10.7901C1.95823 10.9673 1.6298 10.8199 1.82304 11.1752C2.53646 11.5575 -2.38394 8.74174 5.50343 13.1986C5.47551 13.1658 5.44764 13.1338 5.41986 13.1024C7.72096 14.5378 0.77223 8.72744 1.54994 10.0753ZM148.167 10.2333C147.989 9.10456 147.862 10.8857 147.48 9.94392C146.903 11.2821 148.974 9.9829 149.193 11.1304C146.983 10.9428 150.627 12.2981 149.124 10.5504C150.381 11.2017 149.546 10.3487 149.748 10.1356C149.963 9.9087 150.676 10.1776 150.649 9.75823C150.649 9.75822 150.649 9.75821 150.648 9.7582C150.208 9.77739 149.768 9.79627 149.327 9.81484C149.736 10.728 148.843 10.4355 148.557 9.69221C148.427 9.8726 148.297 10.053 148.167 10.2333ZM150.637 11.1412C150.594 11.1197 149.634 11.2236 149.691 11.4062C149.816 11.5251 151.179 11.4178 150.637 11.1412ZM154.852 11.0306C154.509 11.0223 153.981 10.8361 153.788 11.1728C154.131 11.1818 154.659 11.3679 154.852 11.0306ZM137.141 10.4832C136.692 10.7472 138.042 10.8769 137.662 10.5326C137.643 10.5163 137.163 10.471 137.141 10.4832ZM147.166 10.3772C146.73 10.022 146.911 11.1205 147.249 10.8444C147.269 10.8282 147.186 10.3934 147.166 10.3772ZM1.32176 9.90858C1.26187 9.66031 1.99325 9.82105 2.29173 9.83135C2.30874 9.83233 2.32314 9.83274 2.33433 9.83246C2.32649 9.85231 2.31207 9.87157 2.29241 9.89002C2.02162 10.1093 1.2058 10.193 1.32176 9.90858ZM155.474 10.0396C154.809 9.06492 153.863 10.1594 153.762 10.133C153.661 10.1063 153.828 9.68845 153.805 9.6767C153.753 9.65227 152.677 9.66596 152.624 9.69399C152.586 9.71606 152.769 10.3116 152.543 10.4933C152.983 10.167 154.946 10.4148 155.049 10.3505C155.129 10.2995 154.544 9.6678 155.473 10.0395C155.473 10.0395 155.473 10.0395 155.474 10.0396ZM153.51 9.99913C153.774 10.2524 153.019 10.2685 152.839 10.1732C152.438 9.96013 153.476 9.96924 153.51 9.99913ZM151.702 9.73296C151.617 9.67557 150.842 9.60771 150.769 9.88211C151.129 10.2487 151.895 9.86682 151.702 9.73296ZM143.048 9.54283C142.845 9.57209 142.295 9.34291 142.256 9.58302C142.459 9.55417 143.009 9.78304 143.048 9.54283ZM4.68653 7.73651C4.36314 7.54817 5.08959 7.43499 5.31131 7.52107C5.33197 7.68151 4.71111 7.75318 4.68653 7.73651ZM147.152 8.06931C147.035 7.99358 144.593 8.10872 144.247 8.21076C144.577 8.40376 146.992 8.48509 147.104 8.39824C147.137 8.37244 147.167 8.08125 147.152 8.06931ZM152.419 8.08381C152.649 7.73333 152.786 8.1623 152.814 8.16823C153.088 8.22833 153.662 8.15958 153.53 8.49917C153.046 8.35175 151.96 8.77977 152.419 8.08381ZM142.923 7.93081C142.091 8.03731 143.671 8.45992 143.473 8.08227C143.46 8.05945 143.009 7.91961 142.923 7.93081ZM147.427 7.97303C147.617 7.69172 150.045 8.00008 150.436 8.00863C150.074 8.52979 149.801 8.12108 149.33 8.13662C149.203 8.14142 149.231 8.36245 149.218 8.36246C148.998 8.36726 149.169 8.11698 149.033 8.10978C148.948 8.10639 147.16 8.3709 147.427 7.97303ZM152.551 7.84044C152.691 7.64007 154.211 7.58343 154.271 7.63831C154.72 8.0498 152.668 7.91449 152.551 7.84044ZM147.216 7.49656C147.494 6.8886 148.692 7.33158 147.857 7.61694C147.777 7.6428 147.449 7.36742 147.216 7.49656ZM143.03 7.34782C142.99 7.32858 142.13 7.17905 142.109 7.37417C142.231 7.4543 143.487 7.5609 143.03 7.34782ZM143.497 6.6995C143.476 6.70356 143.667 7.08657 143.264 7.02663C143.23 7.02109 143.18 6.59522 142.667 6.73487C142.563 6.76367 142.395 7.03925 142.406 7.05704C142.915 7.73926 144.548 6.512 143.497 6.6995ZM152.586 7.49733C152.508 7.31658 152.716 6.78931 152.889 7.06208C152.962 7.17984 152.814 7.49586 152.586 7.49733ZM140.298 7.08966C140.485 6.97812 140.394 6.89234 140.199 6.8322C139.86 6.7275 139.206 6.7002 139.153 6.75084C139.189 6.91807 139.912 7.06077 140.191 7.08831C140.25 7.09412 140.289 7.09485 140.298 7.08966ZM5.31463 5.21754C5.31426 5.21756 5.31388 5.21758 5.31351 5.2176C5.71628 5.27157 5.48193 5.55117 5.50077 5.55873C6.37386 5.91032 6.11977 5.31405 6.24898 5.23593C6.39425 5.14781 6.46219 5.30488 6.56 5.42989C6.65067 5.54561 6.76661 5.63391 6.99478 5.47403C6.20951 5.96914 6.93548 5.7404 6.97351 6.00138C7.03475 6.43699 6.85972 6.44271 6.60674 6.31342C6.24045 6.12657 5.71402 5.65616 5.4863 5.79994C5.4322 5.83378 5.85892 6.15569 5.72143 6.25985C5.26562 6.59903 3.7892 5.00575 5.31463 5.21754ZM153.027 7.01801C153.228 6.70747 154.701 7.04129 154.304 7.29316C154.241 7.33395 152.73 7.47142 153.027 7.01801ZM83.1153 3.99703C83.4876 3.73505 82.6521 3.39041 82.4893 3.59816C82.4087 3.7016 82.9519 4.11196 83.1153 3.99703ZM77.2144 2.67726C76.7781 2.72257 76.2955 3.84887 76.8393 3.68462C76.8971 3.66663 77.2605 2.83603 77.2144 2.67726ZM105.556 4.23232C105.124 3.80775 105.119 4.563 105.449 4.56607C105.565 4.56728 105.569 4.24575 105.556 4.23232ZM88.381 3.67569C88.3367 3.64783 87.8132 3.67885 87.8266 3.85288C88.0161 3.96316 88.6672 3.86613 88.381 3.67569ZM105.702 4.13092C105.487 4.22993 105.716 4.60557 105.993 4.4975C106.065 4.46933 106.141 4.40826 106.213 4.30083C106.155 4.31365 106.079 4.29539 106.003 4.26669C105.861 4.21296 105.721 4.12262 105.702 4.13092ZM146.348 5.80447C146.12 6.10831 145.502 5.99739 145.144 6.04039C145.117 5.63802 146.091 5.8704 146.348 5.80447ZM79.0468 3.17836C78.6291 3.45103 79.503 3.70459 79.4317 3.3287C79.421 3.30808 79.0633 3.16668 79.0468 3.17836ZM119.988 4.69719C119.684 4.92408 120.604 5.28534 120.365 4.85386C120.353 4.83618 120.005 4.68457 119.988 4.69719ZM124.054 5.00619C123.882 4.93579 123.262 4.91157 123.174 5.02383C123.161 5.03987 123.159 5.0587 123.171 5.08058C123.183 5.10113 123.206 5.12436 123.244 5.1505C123.3 5.18878 124.028 5.22472 124.054 5.00619ZM6.25784 4.94601C6.18592 4.7295 6.34109 4.64669 6.51748 4.62639C6.67185 4.60864 6.84257 4.63879 6.88903 4.66997C6.91361 4.68749 6.72775 5.00044 6.54253 5.09976C6.43278 5.1586 6.32333 5.14251 6.25784 4.94601ZM102.644 4.04762C102.41 4.08968 101.811 3.96721 101.697 4.17914C101.983 4.14587 102.703 4.48142 102.644 4.04762ZM80.9192 3.22478C80.5737 2.76711 79.961 2.79547 80.097 3.38483C80.7728 3.36327 80.0274 2.8563 80.9192 3.22478ZM107.216 3.71151C107.032 3.66952 106.866 4.22545 106.886 4.2528C107.077 4.51313 107.392 3.9379 107.216 3.71151ZM93.2057 3.61875C93.2036 3.37815 92.6003 3.46549 92.6747 3.62299C92.6991 3.67581 93.2073 3.81342 93.2057 3.61875ZM138.648 5.43028C138.386 5.2019 139.217 5.01548 139.452 5.27947C139.558 5.65231 138.681 5.4567 138.648 5.43028ZM112.362 4.07078C112.405 3.7156 111.466 3.87736 111.82 4.18839C111.908 4.26621 112.347 4.18952 112.362 4.07078ZM121.265 4.02185C120.626 4.42081 123.222 4.83186 122.559 4.27353C122.511 4.2338 121.321 3.98829 121.265 4.02185ZM125.512 4.46408C125.407 4.41287 125.509 3.21755 125.933 3.6974C125.989 3.75966 125.704 4.06513 125.749 4.13948C125.775 4.18193 126.731 4.38926 126.777 4.36305C126.826 4.33323 126.785 3.94713 126.835 3.90603C126.891 3.86013 127.47 4.22122 127.78 4.23731C128.365 4.26704 128.441 3.95001 128.489 3.95087C128.628 3.95431 128.854 4.19047 129.137 4.20137C130.564 4.25547 132.752 4.06797 133.855 4.7869C132.861 4.47761 131.893 4.72991 130.889 4.78002C131.208 4.12458 129.396 5.2366 130.459 4.50729C129.978 4.65688 125.858 4.62558 125.513 4.46413C125.513 4.46412 125.513 4.4641 125.512 4.46408ZM75.5061 2.30348C75.7823 1.89983 74.4083 1.96337 74.2826 2.43471C74.4624 2.5038 75.4721 2.34901 75.5061 2.30348ZM81.8506 1.46029C81.9796 1.39323 82.1227 0.596829 82.7779 1.02121C82.7785 1.02123 82.7791 1.02125 82.7797 1.02126C82.9712 1.14523 82.7436 1.33374 82.7773 1.40418C82.7896 1.43287 83.3855 1.84801 82.8793 1.89753C82.1073 1.97387 82.8238 1.30062 82.4137 1.28057C82.3635 1.27843 81.5747 1.68974 81.6173 1.78605C81.6217 1.79724 81.8579 1.7121 81.8954 1.75267C82.0371 1.90514 81.9592 2.15287 81.9794 2.16532C82.0457 2.19744 83.2853 1.80682 83.4529 2.1837C83.5074 2.30471 81.4857 2.52422 81.4087 2.46033C81.3601 2.41973 81.3999 1.7272 81.3503 1.65764C81.3247 1.62288 80.5065 1.86093 80.4028 1.79454C80.3727 1.77531 80.3499 1.75483 80.3331 1.73801C80.4502 1.95561 79.716 1.92113 79.7447 1.67981C79.7599 1.585 80.2643 1.65311 80.282 1.67024C80.2898 1.67749 80.2964 1.68737 80.3027 1.69423C80.2048 1.42981 81.917 1.4876 81.5579 1.08883C82.0602 0.889386 81.4719 1.65741 81.8506 1.46029ZM84.2471 1.10104C84.1937 1.17241 84.1404 1.24378 84.087 1.31515C84.9606 1.16241 85.9508 1.54396 86.9491 1.57326C87.2025 1.58124 86.9253 1.12616 87.2536 1.25863C87.5166 1.3648 87.7974 1.78782 87.6499 1.8753C87.6139 1.89713 87.0811 1.61033 86.809 1.62937C86.006 1.68583 86.1962 2.07458 86.1491 2.0834C86.0972 2.09263 85.6018 1.80811 85.3262 1.81168C84.6332 1.82153 84.3103 2.0466 83.373 1.71242C83.9264 1.47638 83.6434 0.920265 84.2471 1.10104ZM116.332 3.15752C116.375 2.91841 116.925 3.1557 117.13 3.12904C117.088 3.36877 116.537 3.13088 116.332 3.15752ZM31.5872 1.78872C31.4279 2.19017 32.743 2.23651 32.3846 1.92157C32.3053 1.85159 31.7521 1.78492 31.5872 1.78872ZM37.4944 1.8145C37.6668 1.69954 36.9491 1.43864 36.9606 1.74423C36.9649 1.84214 37.4723 1.82939 37.4944 1.8145ZM95.4249 1.86945C95.4583 1.85831 95.9336 1.96429 95.9478 1.98496C96.249 2.41599 94.683 2.11445 95.4249 1.86945ZM44.6724 1.12676C44.0634 1.39954 45.9169 1.46985 45.344 1.15262C45.3154 1.13709 44.7017 1.11342 44.6724 1.12676ZM47.2458 0.999918C47.2054 1.00451 47.1264 0.999108 47.033 0.991378C46.7862 0.970924 46.4387 0.934367 46.4343 1.02193C46.428 1.15785 46.7928 1.25617 47.0369 1.18946C47.1424 1.16061 47.2253 1.10089 47.2458 0.999918ZM107.405 2.22587C107.354 1.77823 108.186 2.15068 108.483 2.10715C108.534 2.55509 107.701 2.18208 107.405 2.22587ZM102.066 1.67635C105.658 1.47241 104.831 2.38984 101.844 1.88433C101.852 1.59886 101.84 1.68926 102.066 1.67635ZM106.642 1.91819C106.543 2.11443 106.315 2.12282 106.093 2.09856C106 2.08827 105.907 2.07211 105.825 2.06191C105.85 1.97951 105.963 1.94857 106.1 1.9372C106.29 1.92153 106.527 1.94307 106.642 1.91819ZM30.0008 1.24127C30.2128 0.871802 31.2366 1.2747 31.0637 1.43045C31.0233 1.464 29.9256 1.44248 30.0008 1.24127ZM95.74 1.50018C95.6728 1.0644 96.7438 1.28179 96.8226 1.38109C97.1403 1.78015 95.831 1.40788 95.74 1.50018ZM112.482 2.06035C112.686 1.72969 113.215 1.92685 113.559 1.9461C113.39 2.22903 112.775 2.07896 112.482 2.06035ZM110.001 1.68868C110.024 1.6766 110.504 1.72768 110.525 1.74419C110.906 2.09184 109.547 1.94913 110.001 1.68868ZM4.6246 1.98951C4.63755 1.97811 4.97179 1.98477 4.98272 1.99693C5.29349 2.30892 4.29573 2.28689 4.6246 1.98951Z" fill="#C2D85C"/>
</svg>
